<svg xmlns="http://www.w3.org/2000/svg"
     xmlns:xlink="http://www.w3.org/1999/xlink"
     width="1070"
     zoomAndPan="magnify"
     viewBox="0 0 802.5 989.999987"
     height="1320"
     preserveAspectRatio="xMidYMid meet"
     version="1.2">
    <defs>
        <clipPath id="1c142ef440">
            <path d="M 0 518 L 802 518 L 802 988.636719 L 0 988.636719 Z M 0 518 " />
        </clipPath>
        <clipPath id="1b771fb9ca">
            <rect x="0" width="207" y="0" height="422" />
        </clipPath>
        <clipPath id="196e1637ca">
            <rect x="0" width="93" y="0" height="422" />
        </clipPath>
    </defs>
    <g id="d8b7ec9cb6">
        <g clip-rule="nonzero" clip-path="url(#1c142ef440)">
            <path style=" stroke:none;fill-rule:nonzero;fill:#fefefe;fill-opacity:1;" d="M 790.808594 569.539062 C 781.09375 543.632812 762.519531 531.183594 748.648438 525.296875 C 733.703125 518.957031 718.808594 517.988281 713.449219 519.328125 C 709.511719 520.3125 672.570312 538.308594 602.128906 572.710938 C 578.734375 584.136719 554.574219 595.933594 530.480469 607.648438 C 529.179688 601.507812 526.570312 595.730469 522.816406 590.886719 C 517.292969 583.761719 507.691406 579.738281 496.460938 579.851562 C 488.03125 579.9375 474.789062 582.367188 459.570312 593.453125 C 450.742188 599.882812 443.566406 607.847656 438.242188 617.132812 C 433.792969 624.886719 430.765625 633.414062 429.488281 641.796875 C 429.277344 643.175781 429.117188 644.53125 429.007812 645.855469 C 428.828125 645.847656 428.644531 645.847656 428.460938 645.867188 C 421.105469 646.601562 404.753906 652.917969 398.277344 657.4375 C 396.265625 655.664062 393.847656 653.917969 391.058594 652.242188 C 383.1875 647.511719 373.21875 643.953125 362.984375 642.21875 C 350.527344 640.109375 338.015625 640.589844 325.800781 643.65625 C 306.527344 648.488281 295.554688 657.226562 289.742188 663.703125 C 281.964844 672.375 278.644531 682.421875 280.628906 691.261719 C 282.132812 697.957031 285.558594 704.277344 290.40625 709.53125 C 261.101562 719.722656 230.203125 730.207031 200.277344 740.363281 C 116.796875 768.695312 37.945312 795.453125 16.140625 808.335938 C 15.589844 808.664062 15.132812 809.136719 14.820312 809.699219 C 9.984375 818.429688 1.695312 836.777344 0.542969 861.578125 C 0.0078125 873.089844 1.078125 884.714844 3.726562 896.140625 C 6.714844 909.042969 11.757812 921.847656 18.710938 934.195312 C 27.027344 948.953125 37.707031 961.691406 49.605469 971.027344 C 61.539062 980.398438 74.695312 986.351562 87.644531 988.246094 C 90.726562 988.699219 93.789062 988.921875 96.820312 988.921875 C 103.128906 988.921875 109.304688 987.949219 115.269531 986.007812 C 124.347656 983.054688 132.800781 977.894531 140.394531 970.671875 C 151.238281 965.289062 334.535156 874.273438 430.292969 826.878906 C 426.289062 848.105469 422.414062 870.707031 420.902344 891.449219 C 419.859375 905.761719 420.058594 917.449219 421.519531 927.171875 C 423.257812 938.773438 426.730469 947.210938 432.132812 952.964844 C 432.820312 953.695312 433.777344 954.105469 434.769531 954.105469 C 434.921875 954.105469 435.074219 954.09375 435.226562 954.074219 C 436.378906 953.929688 437.386719 953.238281 437.941406 952.21875 C 442.8125 943.292969 448.613281 933.851562 451.5625 929.136719 C 456.824219 932.394531 467.992188 938.875 479.921875 943.074219 C 481.410156 943.597656 483.0625 943.097656 484.011719 941.839844 C 484.960938 940.582031 484.984375 938.855469 484.070312 937.570312 C 459.65625 903.207031 465.421875 844.984375 469.03125 821.546875 C 469.214844 820.351562 469.445312 818.976562 469.707031 817.386719 C 470.210938 814.347656 470.820312 810.675781 471.417969 806.484375 C 471.628906 806.425781 471.835938 806.34375 472.039062 806.246094 C 474.441406 805.0625 476.609375 803.996094 478.523438 803.050781 C 487.15625 798.8125 500.492188 792.597656 519.25 784.082031 C 519.941406 784.640625 520.640625 785.199219 521.347656 785.757812 C 536.175781 797.511719 552.78125 808.578125 570.691406 818.652344 C 591.691406 830.464844 615.140625 841.277344 640.386719 850.800781 C 640.804688 850.957031 641.234375 851.03125 641.664062 851.03125 C 642.617188 851.03125 643.554688 850.652344 644.25 849.945312 C 645.253906 848.917969 645.554688 847.394531 645.019531 846.0625 C 641.21875 836.632812 637.613281 826.152344 635.847656 820.878906 C 641.703125 818.886719 653.804688 814.378906 664.628906 807.832031 C 665.902344 807.0625 666.574219 805.59375 666.320312 804.125 C 666.070312 802.660156 664.945312 801.5 663.488281 801.199219 C 617.734375 791.738281 586.242188 779.5 561.078125 765.28125 C 587.8125 753.347656 617.617188 740.160156 646.511719 727.375 C 683.582031 710.976562 718.59375 695.484375 745.261719 683.476562 C 789.882812 663.378906 791.378906 661.886719 792.367188 660.894531 C 796.71875 656.546875 800.171875 644.152344 800.960938 630.058594 C 801.703125 616.78125 800.546875 595.503906 790.808594 569.539062 Z M 436.636719 642.886719 C 437.863281 634.84375 442.96875 614.492188 463.828125 599.296875 C 474.496094 591.527344 486.109375 587.191406 496.535156 587.085938 C 496.664062 587.082031 496.796875 587.082031 496.925781 587.082031 C 505.699219 587.082031 513.035156 590.074219 517.101562 595.316406 C 525.742188 606.46875 530.335938 629.910156 507.578125 648.785156 C 483.535156 668.726562 459.898438 667.65625 453.226562 666.851562 C 445.964844 665.976562 441.382812 663.808594 439.226562 661.894531 C 440.617188 662.730469 442.410156 663.296875 444.589844 663.578125 C 445.691406 663.722656 446.875 663.792969 448.128906 663.792969 C 453.453125 663.792969 460.050781 662.527344 466.824219 660.167969 C 476.765625 656.707031 486.5625 651.113281 495.164062 644 C 502.21875 638.164062 507.21875 631.582031 509.792969 624.78125 C 509.804688 624.753906 509.816406 624.726562 509.824219 624.699219 C 510.257812 623.546875 510.625 622.386719 510.917969 621.222656 C 512.613281 614.480469 511.84375 607.800781 508.8125 602.886719 C 506.851562 599.714844 503.511719 597.601562 499.148438 596.78125 C 494.796875 595.960938 489.566406 596.488281 484.023438 598.308594 C 478.097656 600.253906 472 603.566406 465.902344 608.152344 C 452.3125 618.367188 444.632812 630.644531 441.265625 637.050781 C 440.007812 639.4375 437.132812 645.308594 436.054688 650.828125 C 436.019531 648.480469 436.191406 645.816406 436.636719 642.886719 Z M 503.90625 619.457031 C 503.78125 619.949219 503.636719 620.4375 503.480469 620.929688 C 486.640625 629.074219 467.066406 638.417969 443.871094 649.375 C 444.664062 646.78125 445.996094 643.464844 448.15625 639.503906 C 451.242188 633.832031 458.21875 622.972656 470.246094 613.933594 C 475.710938 609.824219 481.105469 606.878906 486.28125 605.179688 C 490.667969 603.738281 494.652344 603.292969 497.808594 603.886719 C 499.421875 604.191406 501.570312 604.925781 502.65625 606.6875 C 504.640625 609.898438 505.109375 614.671875 503.90625 619.457031 Z M 497.050781 632.0625 C 495.199219 634.25 493.027344 636.382812 490.554688 638.429688 C 477.722656 649.042969 465.367188 653.335938 459.144531 654.953125 C 452.933594 656.566406 448.519531 656.730469 445.839844 656.445312 C 465.257812 647.273438 482.15625 639.226562 497.050781 632.0625 Z M 428.90625 653.09375 C 429.234375 658.21875 430.460938 662.472656 432.515625 665.242188 C 433.050781 665.960938 433.6875 666.644531 434.414062 667.296875 C 434.589844 668.160156 434.804688 669.457031 434.875 670.828125 C 435.03125 673.777344 434.417969 674.917969 434.167969 675.105469 C 429.554688 678.613281 417.164062 683.542969 412.554688 683.160156 C 411.214844 682.613281 407.410156 679.296875 404.257812 675.914062 C 404.238281 675.890625 404.214844 675.875 404.195312 675.851562 C 405.265625 672.457031 405.511719 669.398438 404.882812 666.855469 C 404.5625 665.558594 403.964844 664.234375 403.113281 662.898438 C 408.878906 659.1875 422.863281 653.816406 428.90625 653.09375 Z M 295.128906 668.535156 C 302.386719 660.4375 313.90625 654.09375 327.5625 650.671875 C 351.925781 644.558594 374.414062 650.679688 387.332031 658.441406 C 394.28125 662.617188 397.347656 666.519531 397.863281 668.59375 C 398.359375 670.597656 397.511719 675.160156 393.492188 681.421875 C 385.015625 694.621094 365.886719 710.628906 337.605469 715.960938 C 306.625 721.804688 290.777344 703.441406 287.683594 689.675781 C 286.21875 683.148438 288.929688 675.441406 295.128906 668.535156 Z M 20.671875 814.074219 C 20.734375 814.039062 20.796875 814 20.859375 813.964844 C 20.71875 814.140625 20.578125 814.320312 20.441406 814.5 C 20.519531 814.355469 20.597656 814.210938 20.671875 814.074219 Z M 88.691406 981.089844 C 64.628906 977.570312 40.824219 958.714844 25.015625 930.644531 C 2.269531 890.261719 6.082031 854.921875 12.84375 833.015625 C 12.671875 833.894531 12.515625 834.792969 12.371094 835.707031 C 10.804688 845.703125 10.972656 857.914062 12.851562 871.027344 C 16.578125 897.023438 26.347656 923.351562 38.351562 939.734375 C 42.867188 945.894531 48.359375 951.5 54.671875 956.386719 C 60.742188 961.089844 67.28125 964.910156 74.101562 967.738281 C 80.988281 970.597656 87.769531 972.28125 94.253906 972.746094 C 101.171875 973.242188 107.417969 972.320312 112.816406 970 C 120.433594 966.726562 126.09375 960.671875 129.183594 952.488281 C 132.496094 943.71875 132.949219 932.507812 130.535156 919.164062 C 124.242188 884.359375 108.636719 862.535156 96.65625 850.355469 C 89.761719 843.347656 82.105469 837.578125 74.519531 833.671875 C 67.398438 830.003906 60.6875 828.117188 55.113281 828.210938 C 45.492188 828.375 37.25 834.675781 32.5 845.492188 C 27.777344 856.257812 27.003906 870.207031 30.316406 884.773438 C 34.085938 901.351562 42.980469 917.875 56.03125 932.558594 C 63.054688 940.460938 71.035156 945.714844 79.109375 947.753906 C 86.996094 949.746094 94.53125 948.519531 100.335938 944.304688 C 107.152344 939.355469 110.917969 930.820312 110.941406 920.277344 C 110.964844 908.921875 106.628906 895.492188 98.402344 881.429688 C 90.398438 867.746094 82.542969 858.0625 75.0625 852.636719 C 71.496094 850.054688 68.007812 848.453125 64.703125 847.878906 C 61.296875 847.289062 58.15625 847.773438 55.359375 849.3125 C 49.792969 852.386719 46.339844 859.449219 45.894531 868.691406 C 45.460938 877.691406 47.847656 887.707031 52.613281 896.890625 C 57.964844 907.199219 63.398438 915.21875 68.761719 920.726562 C 73.929688 926.035156 78.769531 928.746094 83.140625 928.78125 C 83.167969 928.78125 83.199219 928.785156 83.226562 928.785156 C 86.710938 928.785156 89.679688 926.984375 91.386719 923.835938 C 95.480469 916.269531 92.035156 902.222656 82.605469 888.046875 C 78.453125 881.800781 73.390625 878.496094 68.714844 878.988281 C 65.511719 879.324219 62.933594 881.382812 61.640625 884.636719 C 60.253906 888.125 60.433594 892.652344 62.15625 897.734375 C 62.777344 899.570312 63.585938 901.433594 64.570312 903.320312 C 62.800781 900.484375 60.949219 897.246094 59.03125 893.558594 C 54.84375 885.492188 52.746094 876.785156 53.117188 869.042969 C 53.4375 862.460938 55.582031 857.453125 58.855469 855.648438 C 62.625 853.566406 67.441406 856.046875 70.816406 858.496094 C 77.390625 863.257812 84.769531 872.453125 92.160156 885.082031 C 99.738281 898.03125 103.730469 910.195312 103.710938 920.261719 C 103.691406 928.433594 100.984375 934.894531 96.085938 938.453125 C 92.046875 941.382812 86.648438 942.195312 80.882812 940.742188 C 74.21875 939.058594 67.492188 934.566406 61.4375 927.753906 C 49.191406 913.980469 40.867188 898.5625 37.367188 883.167969 C 34.394531 870.101562 35.019531 857.753906 39.125 848.398438 C 42.6875 840.28125 48.5625 835.558594 55.238281 835.445312 C 63.367188 835.308594 77.730469 841.433594 91.5 855.429688 C 102.769531 866.882812 117.453125 887.460938 123.417969 920.449219 C 125.597656 932.488281 125.261719 942.40625 122.417969 949.933594 C 120.007812 956.324219 115.816406 960.839844 109.960938 963.355469 C 101.355469 967.050781 89.296875 966.214844 76.875 961.058594 C 64.15625 955.78125 52.238281 946.449219 44.1875 935.457031 C 20.636719 903.320312 8.429688 833.546875 29.070312 815.8125 C 33.019531 812.417969 38.945312 811.128906 46.691406 811.972656 C 68.636719 814.371094 99.292969 833.390625 115.027344 854.375 C 122.828125 864.773438 133.210938 883.527344 138.960938 904.976562 C 143.449219 921.710938 146.445312 945.726562 135.414062 965.429688 C 121.996094 978.1875 105.851562 983.601562 88.691406 981.089844 Z M 77.972656 910.007812 C 73.632812 904.964844 70.535156 899.917969 69.007812 895.410156 C 67.398438 890.675781 68.019531 888.164062 68.363281 887.304688 C 68.777344 886.253906 69.28125 886.203125 69.46875 886.179688 C 70.507812 886.074219 73.332031 887.160156 76.585938 892.050781 C 86.203125 906.515625 86.902344 916.921875 85.023438 920.390625 C 84.507812 921.347656 83.933594 921.550781 83.234375 921.550781 C 83.222656 921.550781 83.214844 921.550781 83.203125 921.550781 C 81.402344 921.535156 78.210938 920.039062 74.035156 915.78125 C 75.214844 916.191406 76.574219 915.980469 77.585938 915.109375 C 79.101562 913.804688 79.273438 911.523438 77.972656 910.007812 Z M 145.886719 959.871094 C 148.449219 952.863281 149.898438 945.179688 150.203125 936.910156 C 150.585938 926.449219 149.15625 915.074219 145.945312 903.105469 C 139.929688 880.660156 129.019531 860.976562 120.816406 850.035156 C 112.78125 839.324219 100.820312 828.730469 87.125 820.207031 C 73.199219 811.53125 59.117188 806.054688 47.476562 804.785156 C 45.3125 804.546875 43.25 804.453125 41.289062 804.503906 C 75.425781 790.371094 137.609375 769.269531 202.601562 747.210938 C 233.828125 736.613281 266.113281 725.65625 296.558594 715.046875 C 297.289062 715.585938 298.035156 716.105469 298.800781 716.601562 C 304.652344 720.394531 313.734375 724.296875 326.316406 724.296875 C 330.191406 724.296875 334.398438 723.925781 338.949219 723.070312 C 369.484375 717.308594 390.289062 699.796875 399.578125 685.328125 C 400.09375 684.527344 400.570312 683.734375 401.019531 682.949219 C 401.722656 683.644531 402.558594 684.449219 403.445312 685.257812 C 407.347656 688.808594 409.875 690.3125 412.078125 690.378906 C 412.394531 690.398438 412.71875 690.410156 413.050781 690.410156 C 413.328125 690.410156 413.605469 690.402344 413.890625 690.386719 C 413.960938 690.46875 414.03125 690.550781 414.109375 690.625 C 426.640625 702.960938 445.972656 735.71875 438.957031 780.257812 C 437.5625 789.128906 435.46875 799.949219 433.257812 811.40625 C 432.839844 813.570312 432.414062 815.757812 431.992188 817.964844 C 347.390625 859.832031 186.023438 939.941406 145.886719 959.871094 Z M 462.574219 816.203125 C 462.304688 817.816406 462.074219 819.207031 461.882812 820.445312 C 459.742188 834.347656 457.476562 855.582031 458.859375 877.792969 C 460.203125 899.429688 464.710938 917.648438 472.296875 932.132812 C 461.289062 927.019531 452.574219 921.203125 452.464844 921.128906 C 451.65625 920.585938 450.664062 920.390625 449.714844 920.589844 C 448.761719 920.785156 447.929688 921.359375 447.402344 922.175781 C 447.328125 922.296875 440.636719 932.75 434.320312 943.863281 C 431.667969 939.410156 429.777344 933.460938 428.671875 926.097656 C 427.3125 917.039062 427.125 905.558594 428.113281 891.976562 C 429.972656 866.523438 435.488281 837.972656 440.355469 812.78125 C 442.582031 801.257812 444.6875 790.375 446.101562 781.382812 C 447.855469 770.265625 448.15625 759.152344 447 748.359375 C 445.988281 738.90625 443.859375 729.644531 440.671875 720.835938 C 434.871094 704.804688 427.121094 694.261719 422.199219 688.671875 C 423.570312 688.238281 424.882812 687.769531 426.054688 687.316406 C 428.285156 686.457031 430.472656 685.488281 432.449219 684.5 C 443.402344 694.796875 451.046875 706.441406 456.285156 718.519531 C 456.339844 718.671875 456.402344 718.816406 456.476562 718.960938 C 472.496094 756.339844 465.632812 797.757812 462.574219 816.203125 Z M 475.335938 796.5625 C 474.445312 797 473.496094 797.464844 472.5 797.957031 C 473.816406 786.074219 474.59375 771.472656 473.03125 755.949219 C 472.246094 748.183594 470.9375 740.777344 469.101562 733.726562 C 478.601562 745.234375 492.183594 761.28125 513.046875 778.957031 C 495.898438 786.761719 483.527344 792.535156 475.335938 796.5625 Z M 630.234375 815.09375 C 629.304688 815.375 628.523438 816.015625 628.070312 816.878906 C 627.617188 817.738281 627.53125 818.746094 627.828125 819.671875 C 627.871094 819.796875 631.1875 830.050781 635.335938 841.101562 C 534.140625 801.296875 493.015625 751.382812 473.007812 727.09375 C 468.925781 722.140625 465.65625 718.175781 462.726562 715.222656 C 457.40625 703.074219 450.199219 692.28125 441.140625 682.917969 C 461.71875 697.304688 477.867188 711.03125 493.503906 724.320312 C 511.863281 739.925781 529.308594 754.753906 551.125 767.921875 C 551.164062 767.945312 551.203125 767.96875 551.238281 767.992188 C 553.6875 769.464844 556.1875 770.921875 558.75 772.355469 C 584.84375 786.929688 614.816406 797.777344 652.464844 806.222656 C 641.09375 811.8125 630.367188 815.054688 630.234375 815.09375 Z M 793.738281 629.652344 C 792.875 645.105469 789.121094 653.742188 787.347656 655.683594 C 785.699219 656.851562 776.207031 661.617188 740.953125 677.480469 C 714.46875 689.402344 680.039062 704.632812 643.585938 720.761719 C 612.976562 734.304688 581.351562 748.296875 553.421875 760.777344 C 532.585938 748.046875 515.917969 733.882812 498.1875 718.8125 C 481.707031 704.804688 464.667969 690.316406 442.433594 675.007812 C 442.261719 674.890625 442.085938 674.792969 441.902344 674.707031 C 442.058594 673.773438 442.132812 672.761719 442.128906 671.671875 C 445.113281 672.769531 448.5625 673.574219 452.363281 674.03125 C 454.421875 674.28125 456.894531 674.460938 459.734375 674.460938 C 465.355469 674.460938 472.402344 673.746094 480.429688 671.425781 C 491.820312 668.132812 502.507812 662.386719 512.195312 654.351562 C 526.546875 642.449219 530.488281 629.382812 531.269531 620.515625 C 531.421875 618.753906 531.464844 616.992188 531.40625 615.238281 C 556.246094 603.167969 581.183594 590.988281 605.300781 579.210938 C 659.640625 552.671875 710.96875 527.605469 715.226562 526.339844 C 718.078125 525.644531 731.027344 525.679688 745.824219 531.957031 C 758.394531 537.289062 775.226562 548.574219 784.039062 572.078125 C 793.332031 596.867188 794.445312 617.070312 793.738281 629.652344 Z M 793.738281 629.652344 " />
        </g>
        <path style=" stroke:none;fill-rule:nonzero;fill:#fefefe;fill-opacity:1;" d="M 316.6875 703.179688 C 321.8125 705.824219 327.851562 707.164062 334.492188 707.164062 C 337.84375 707.164062 341.347656 706.824219 344.964844 706.136719 C 368.632812 701.65625 386.257812 688.816406 392.625 678.78125 C 394.855469 675.261719 395.644531 672.160156 394.972656 669.558594 C 393.089844 662.277344 378.640625 658.335938 374.253906 657.304688 C 366.988281 655.589844 352.273438 653.320312 335.394531 657.390625 C 321.023438 660.859375 310.0625 667.726562 305.320312 676.234375 C 302.925781 680.527344 302.34375 684.867188 303.628906 688.789062 C 305.546875 694.640625 310.308594 699.882812 316.6875 703.179688 Z M 343.621094 699.03125 C 342.664062 699.210938 341.734375 699.363281 340.828125 699.488281 C 352.488281 695.316406 362.3125 691.761719 371.84375 688.144531 C 365.589844 692.050781 356.101562 696.667969 343.621094 699.03125 Z M 311.636719 679.757812 C 315.34375 673.105469 324.859375 667.375 337.089844 664.421875 C 343.480469 662.882812 349.539062 662.339844 354.898438 662.339844 C 362.167969 662.339844 368.144531 663.335938 371.90625 664.183594 C 382.734375 666.621094 387.421875 670.269531 387.972656 671.390625 C 388.023438 671.878906 387.644531 673.074219 386.585938 674.773438 C 386.230469 674.800781 385.875 674.882812 385.527344 675.023438 C 367.320312 682.371094 351.152344 688.132812 326.683594 696.855469 L 325.078125 697.425781 C 324.53125 697.621094 324.066406 697.9375 323.6875 698.328125 C 315.773438 695.660156 311.730469 690.277344 310.5 686.535156 C 309.859375 684.582031 310.253906 682.238281 311.636719 679.757812 Z M 311.636719 679.757812 " />
        <path style=" stroke:none;fill-rule:nonzero;fill:#fefefe;fill-opacity:1;" d="M 408.730469 807.546875 L 272.707031 873.195312 C 270.90625 874.0625 270.152344 876.222656 271.019531 878.023438 C 271.644531 879.3125 272.933594 880.066406 274.28125 880.066406 C 274.808594 880.066406 275.34375 879.953125 275.847656 879.707031 L 411.875 814.0625 C 413.671875 813.195312 414.429688 811.03125 413.558594 809.234375 C 412.691406 807.433594 410.53125 806.679688 408.730469 807.546875 Z M 408.730469 807.546875 " />
        <path style=" stroke:none;fill-rule:nonzero;fill:#fefefe;fill-opacity:1;" d="M 232.871094 892.417969 L 167.453125 923.988281 C 165.652344 924.855469 164.898438 927.019531 165.765625 928.816406 C 166.390625 930.109375 167.683594 930.863281 169.027344 930.863281 C 169.554688 930.863281 170.089844 930.746094 170.597656 930.503906 L 236.011719 898.933594 C 237.8125 898.0625 238.566406 895.902344 237.699219 894.101562 C 236.828125 892.304688 234.667969 891.550781 232.871094 892.417969 Z M 232.871094 892.417969 " />
        <path style=" stroke:none;fill-rule:nonzero;fill:#fefefe;fill-opacity:1;" d="M 701.140625 670.285156 L 589.242188 722.789062 C 587.433594 723.636719 586.65625 725.789062 587.503906 727.597656 C 588.121094 728.910156 589.421875 729.679688 590.78125 729.679688 C 591.292969 729.679688 591.816406 729.566406 592.3125 729.335938 L 704.210938 676.832031 C 706.019531 675.984375 706.796875 673.832031 705.949219 672.023438 C 705.101562 670.214844 702.949219 669.4375 701.140625 670.285156 Z M 701.140625 670.285156 " />
        <g transform="matrix(1,0,0,1,236,96)">
            <g clip-path="url(#1b771fb9ca)">
                <g style="fill:#fefefe;fill-opacity:1;">
                    <g transform="translate(0.702073, 333.17248)">
                        <path style="stroke:none" d="M 73.4375 3.515625 C 61.957031 3.515625 51.472656 1.640625 41.984375 -2.109375 C 32.492188 -5.859375 24.9375 -11.65625 19.3125 -19.5 C 13.695312 -27.34375 10.890625 -37.359375 10.890625 -49.546875 C 10.890625 -71.554688 20.195312 -88.125 38.8125 -99.25 C 57.4375 -110.375 86.539062 -115.351562 126.125 -114.1875 L 126.125 -126.125 C 126.125 -139.007812 124.304688 -147.796875 120.671875 -152.484375 C 117.046875 -157.171875 111.367188 -159.515625 103.640625 -159.515625 C 99.191406 -159.515625 95.09375 -158.867188 91.34375 -157.578125 C 87.601562 -156.285156 84.675781 -154 82.5625 -150.71875 C 79.28125 -145.570312 76.523438 -141.125 74.296875 -137.375 C 72.078125 -133.625 69.5625 -130.753906 66.75 -128.765625 C 63.945312 -126.773438 59.613281 -125.78125 53.75 -125.78125 L 50.234375 -125.78125 C 40.398438 -125.78125 32.492188 -128.472656 26.515625 -133.859375 C 20.546875 -139.242188 18.96875 -146.738281 21.78125 -156.34375 C 25.757812 -170.164062 34.773438 -180.472656 48.828125 -187.265625 C 62.890625 -194.054688 82.6875 -197.453125 108.21875 -197.453125 C 160.445312 -197.453125 186.5625 -174.03125 186.5625 -127.1875 C 186.5625 -106.101562 186.617188 -87.710938 186.734375 -72.015625 C 186.859375 -56.328125 187.15625 -42.507812 187.625 -30.5625 C 188.082031 -20.726562 185.96875 -13.175781 181.28125 -7.90625 C 176.601562 -2.632812 169.460938 0 159.859375 0 L 156.703125 0 C 138.898438 0 129.296875 -2.8125 127.890625 -8.4375 C 127.421875 -9.84375 127.066406 -11.242188 126.828125 -12.640625 C 126.597656 -14.046875 126.363281 -15.453125 126.125 -16.859375 C 119.101562 -10.066406 111.023438 -4.972656 101.890625 -1.578125 C 92.753906 1.816406 83.269531 3.515625 73.4375 3.515625 Z M 92.046875 -36.1875 C 100.015625 -36.1875 106.804688 -37.765625 112.421875 -40.921875 C 118.046875 -44.085938 122.847656 -48.597656 126.828125 -54.453125 L 126.828125 -86.078125 C 116.296875 -85.847656 106.460938 -85.03125 97.328125 -83.625 C 88.191406 -82.21875 80.8125 -79.640625 75.1875 -75.890625 C 69.5625 -72.140625 66.75 -66.519531 66.75 -59.03125 C 66.75 -52.46875 68.914062 -47.019531 73.25 -42.6875 C 77.582031 -38.351562 83.847656 -36.1875 92.046875 -36.1875 Z M 92.046875 -36.1875 " />
                    </g>
                </g>
            </g>
        </g>
        <g transform="matrix(1,0,0,1,463,96)">
            <g clip-path="url(#196e1637ca)">
                <g style="fill:#fefefe;fill-opacity:1;">
                    <g transform="translate(0.973785, 333.17248)">
                        <path style="stroke:none" d="M 44.96875 -128.59375 C 31.851562 -128.59375 22.835938 -131.050781 17.921875 -135.96875 C 13.003906 -140.882812 10.546875 -149.90625 10.546875 -163.03125 C 10.546875 -176.144531 13.003906 -185.160156 17.921875 -190.078125 C 22.835938 -194.992188 31.851562 -197.453125 44.96875 -197.453125 C 58.082031 -197.453125 67.097656 -194.992188 72.015625 -190.078125 C 76.941406 -185.160156 79.40625 -176.144531 79.40625 -163.03125 C 79.40625 -149.90625 76.941406 -140.882812 72.015625 -135.96875 C 67.097656 -131.050781 58.082031 -128.59375 44.96875 -128.59375 Z M 49.1875 40.75 C 41.6875 46.613281 35.125 49.546875 29.5 49.546875 C 23.882812 49.546875 20.492188 48.253906 19.328125 45.671875 C 18.148438 43.097656 18.789062 40.113281 21.25 36.71875 C 23.71875 33.320312 27.175781 28.695312 31.625 22.84375 C 36.070312 17.21875 39.113281 10.65625 40.75 3.15625 C 38.175781 2.6875 34.488281 1.632812 29.6875 0 C 24.882812 -1.632812 20.492188 -4.851562 16.515625 -9.65625 C 12.535156 -14.457031 10.546875 -21.546875 10.546875 -30.921875 C 10.546875 -44.035156 13.003906 -53.050781 17.921875 -57.96875 C 22.835938 -62.882812 31.851562 -65.34375 44.96875 -65.34375 C 58.082031 -65.34375 67.097656 -62.765625 72.015625 -57.609375 C 76.941406 -52.460938 79.40625 -42.863281 79.40625 -28.8125 C 79.40625 -13.582031 76.648438 -0.0546875 71.140625 11.765625 C 65.640625 23.597656 58.320312 33.257812 49.1875 40.75 Z M 49.1875 40.75 " />
                    </g>
                </g>
            </g>
        </g>
    </g>
</svg>