<svg xmlns="http://www.w3.org/2000/svg"
     xmlns:xlink="http://www.w3.org/1999/xlink"
     width="1070"
     zoomAndPan="magnify"
     viewBox="0 0 802.5 892.499972"
     height="1190"
     preserveAspectRatio="xMidYMid meet"
     version="1.2">
    <defs>
        <clipPath id="b641d4b468">
            <path d="M 0.0625 309.773438 L 801.632812 309.773438 L 801.632812 891.410156 L 0.0625 891.410156 Z M 0.0625 309.773438 " />
        </clipPath>
        <clipPath id="6529f68ef5">
            <path d="M 233.410156 180 L 568.207031 180 L 568.207031 422.015625 L 233.410156 422.015625 Z M 233.410156 180 " />
        </clipPath>
        <clipPath id="e592dfa620">
            <path d="M 191 0.0273438 L 611 0.0273438 L 611 198 L 191 198 Z M 191 0.0273438 " />
        </clipPath>
    </defs>
    <g id="3c32b6bf4f">
        <g clip-rule="nonzero" clip-path="url(#b641d4b468)">
            <path style=" stroke:none;fill-rule:nonzero;fill:#fefefe;fill-opacity:1;" d="M 209.523438 727.675781 L 180.820312 727.675781 L 180.820312 703.585938 L 209.523438 703.585938 Z M 218.640625 685.292969 L 171.679688 685.292969 C 166.664062 685.292969 162.527344 689.433594 162.527344 694.472656 L 162.527344 736.789062 C 162.527344 741.832031 166.664062 745.96875 171.679688 745.96875 L 218.640625 745.96875 C 223.691406 745.96875 227.8125 741.832031 227.8125 736.789062 L 227.8125 694.472656 C 227.8125 689.433594 223.695312 685.292969 218.640625 685.292969 Z M 240.789062 638.058594 L 212.105469 638.058594 L 212.105469 614.066406 L 240.789062 614.066406 Z M 259.078125 647.210938 L 259.078125 604.914062 C 259.078125 599.898438 254.957031 595.773438 249.925781 595.773438 L 202.96875 595.773438 C 197.933594 595.773438 193.8125 599.898438 193.8125 604.914062 L 193.8125 647.210938 C 193.8125 652.234375 197.933594 656.351562 202.96875 656.351562 L 249.925781 656.351562 C 254.957031 656.351562 259.078125 652.234375 259.078125 647.210938 Z M 198.914062 817.359375 L 170.226562 817.359375 L 170.226562 793.234375 L 198.914062 793.234375 Z M 208.050781 774.941406 L 161.089844 774.941406 C 156.054688 774.941406 151.933594 779.085938 151.933594 784.097656 L 151.933594 826.5 C 151.933594 831.519531 156.054688 835.652344 161.089844 835.652344 L 208.050781 835.652344 C 213.085938 835.652344 217.203125 831.519531 217.203125 826.5 L 217.203125 784.097656 C 217.203125 779.085938 213.089844 774.941406 208.050781 774.941406 Z M 118.011719 727.675781 L 77.871094 727.675781 L 77.871094 703.585938 L 118.011719 703.585938 Z M 127.152344 685.292969 L 68.734375 685.292969 C 63.714844 685.292969 59.578125 689.433594 59.578125 694.472656 L 59.578125 736.789062 C 59.578125 741.832031 63.714844 745.96875 68.734375 745.96875 L 127.152344 745.96875 C 132.179688 745.96875 136.304688 741.832031 136.304688 736.789062 L 136.304688 694.472656 C 136.304688 689.433594 132.183594 685.292969 127.152344 685.292969 Z M 77.871094 614.066406 L 144.363281 614.066406 L 144.363281 638.058594 L 77.871094 638.058594 Z M 68.734375 656.351562 L 153.5 656.351562 C 158.53125 656.351562 162.652344 652.234375 162.652344 647.210938 L 162.652344 604.914062 C 162.652344 599.898438 158.53125 595.773438 153.5 595.773438 L 68.734375 595.773438 C 63.714844 595.773438 59.578125 599.898438 59.578125 604.914062 L 59.578125 647.210938 C 59.578125 652.234375 63.714844 656.351562 68.734375 656.351562 Z M 106.570312 817.359375 L 77.871094 817.359375 L 77.871094 793.234375 L 106.570312 793.234375 Z M 115.710938 774.941406 L 68.734375 774.941406 C 63.714844 774.941406 59.578125 779.085938 59.578125 784.097656 L 59.578125 826.5 C 59.578125 831.519531 63.714844 835.652344 68.734375 835.652344 L 115.710938 835.652344 C 120.742188 835.652344 124.867188 831.519531 124.867188 826.5 L 124.867188 784.097656 C 124.871094 779.085938 120.75 774.941406 115.710938 774.941406 Z M 599.304688 817.359375 L 570.636719 817.359375 L 570.636719 793.234375 L 599.304688 793.234375 Z M 608.421875 774.941406 L 561.5 774.941406 C 556.449219 774.941406 552.335938 779.085938 552.335938 784.097656 L 552.335938 826.5 C 552.335938 831.519531 556.449219 835.652344 561.5 835.652344 L 608.421875 835.652344 C 613.496094 835.652344 617.601562 831.519531 617.601562 826.5 L 617.601562 784.097656 C 617.601562 779.085938 613.496094 774.941406 608.421875 774.941406 Z M 723.824219 638.058594 L 695.121094 638.058594 L 695.121094 614.070312 L 723.824219 614.070312 Z M 732.960938 595.78125 L 685.988281 595.78125 C 680.96875 595.78125 676.832031 599.898438 676.832031 604.914062 L 676.832031 647.210938 C 676.832031 652.234375 680.96875 656.351562 685.988281 656.351562 L 732.960938 656.351562 C 738 656.351562 742.117188 652.234375 742.117188 647.210938 L 742.117188 604.914062 C 742.117188 599.898438 737.996094 595.78125 732.960938 595.78125 Z M 723.824219 727.675781 L 638.628906 727.675781 L 638.628906 703.585938 L 723.824219 703.585938 Z M 732.960938 685.292969 L 629.496094 685.292969 C 624.457031 685.292969 620.339844 689.433594 620.339844 694.472656 L 620.339844 736.789062 C 620.339844 741.832031 624.457031 745.96875 629.496094 745.96875 L 732.960938 745.96875 C 738 745.96875 742.117188 741.832031 742.117188 736.789062 L 742.117188 694.472656 C 742.117188 689.433594 737.996094 685.292969 732.960938 685.292969 Z M 577.589844 727.675781 L 548.882812 727.675781 L 548.882812 703.585938 L 577.589844 703.585938 Z M 586.707031 745.96875 C 591.730469 745.96875 595.878906 741.832031 595.878906 736.789062 L 595.878906 694.46875 C 595.878906 689.433594 591.730469 685.292969 586.707031 685.292969 L 539.746094 685.292969 C 534.714844 685.292969 530.589844 689.433594 530.589844 694.46875 L 530.589844 736.789062 C 530.589844 741.832031 534.714844 745.96875 539.746094 745.96875 Z M 501.199219 817.359375 L 270.953125 817.359375 L 270.953125 793.234375 L 501.199219 793.234375 Z M 510.339844 774.941406 L 261.816406 774.941406 C 256.765625 774.941406 252.660156 779.085938 252.660156 784.097656 L 252.660156 826.5 C 252.660156 831.519531 256.765625 835.652344 261.816406 835.652344 L 510.339844 835.652344 C 515.339844 835.652344 519.492188 831.519531 519.492188 826.5 L 519.492188 784.097656 C 519.492188 779.085938 515.339844 774.941406 510.339844 774.941406 Z M 723.824219 817.359375 L 677.574219 817.359375 L 677.574219 793.234375 L 723.824219 793.234375 Z M 732.960938 774.941406 L 668.441406 774.941406 C 663.386719 774.941406 659.277344 779.085938 659.277344 784.097656 L 659.277344 826.5 C 659.277344 831.519531 663.386719 835.652344 668.441406 835.652344 L 732.960938 835.652344 C 738 835.652344 742.117188 831.519531 742.117188 826.5 L 742.117188 784.097656 C 742.117188 779.085938 737.996094 774.941406 732.960938 774.941406 Z M 272.847656 703.582031 L 301.53125 703.582031 L 301.53125 727.675781 L 272.847656 727.675781 Z M 254.550781 694.46875 L 254.550781 736.789062 C 254.550781 741.832031 258.65625 745.96875 263.710938 745.96875 L 310.671875 745.96875 C 315.703125 745.96875 319.824219 741.832031 319.824219 736.789062 L 319.824219 694.46875 C 319.824219 689.433594 315.703125 685.292969 310.671875 685.292969 L 263.710938 685.292969 C 258.65625 685.292969 254.550781 689.433594 254.550781 694.46875 Z M 598.546875 614.066406 L 627.203125 614.066406 L 627.203125 638.058594 L 598.546875 638.058594 Z M 589.410156 656.351562 L 636.34375 656.351562 C 641.390625 656.351562 645.503906 652.234375 645.503906 647.210938 L 645.503906 604.914062 C 645.503906 599.898438 641.390625 595.773438 636.34375 595.773438 L 589.410156 595.773438 C 584.355469 595.773438 580.257812 599.898438 580.257812 604.914062 L 580.257812 647.210938 C 580.257812 652.234375 584.355469 656.351562 589.410156 656.351562 Z M 501.921875 614.066406 L 530.597656 614.066406 L 530.597656 638.058594 L 501.921875 638.058594 Z M 492.789062 656.351562 L 539.734375 656.351562 C 544.78125 656.351562 548.890625 652.234375 548.890625 647.210938 L 548.890625 604.914062 C 548.890625 599.898438 544.78125 595.773438 539.734375 595.773438 L 492.789062 595.773438 C 487.757812 595.773438 483.628906 599.898438 483.628906 604.914062 L 483.628906 647.210938 C 483.628906 652.234375 487.757812 656.351562 492.789062 656.351562 Z M 364.871094 703.582031 L 393.546875 703.582031 L 393.546875 727.675781 L 364.871094 727.675781 Z M 346.582031 694.46875 L 346.582031 736.789062 C 346.582031 741.832031 350.6875 745.96875 355.738281 745.96875 L 402.679688 745.96875 C 407.714844 745.96875 411.839844 741.832031 411.839844 736.789062 L 411.839844 694.46875 C 411.839844 689.433594 407.714844 685.292969 402.679688 685.292969 L 355.738281 685.292969 C 350.6875 685.292969 346.582031 689.433594 346.582031 694.46875 Z M 485.578125 727.675781 L 456.871094 727.675781 L 456.871094 703.585938 L 485.578125 703.585938 Z M 447.753906 685.292969 C 442.699219 685.292969 438.578125 689.433594 438.578125 694.472656 L 438.578125 736.789062 C 438.578125 741.832031 442.699219 745.96875 447.753906 745.96875 L 494.695312 745.96875 C 499.734375 745.96875 503.871094 741.832031 503.871094 736.789062 L 503.871094 694.472656 C 503.871094 689.4375 499.734375 685.292969 494.695312 685.292969 Z M 308.695312 614.066406 L 337.378906 614.066406 L 337.378906 638.058594 L 308.695312 638.058594 Z M 299.554688 656.351562 L 346.515625 656.351562 C 351.570312 656.351562 355.671875 652.234375 355.671875 647.210938 L 355.671875 604.914062 C 355.671875 599.898438 351.570312 595.773438 346.515625 595.773438 L 299.554688 595.773438 C 294.539062 595.773438 290.398438 599.898438 290.398438 604.914062 L 290.398438 647.210938 C 290.398438 652.234375 294.539062 656.351562 299.554688 656.351562 Z M 405.300781 614.066406 L 433.984375 614.066406 L 433.984375 638.058594 L 405.300781 638.058594 Z M 396.164062 656.351562 L 443.125 656.351562 C 448.175781 656.351562 452.28125 652.234375 452.28125 647.210938 L 452.28125 604.914062 C 452.28125 599.898438 448.175781 595.773438 443.125 595.773438 L 396.164062 595.773438 C 391.132812 595.773438 387.007812 599.898438 387.007812 604.914062 L 387.007812 647.210938 C 387.007812 652.234375 391.128906 656.351562 396.164062 656.351562 Z M 783.339844 854.945312 C 783.339844 865.015625 775.0625 873.257812 765.011719 873.257812 L 36.6875 873.257812 C 26.617188 873.257812 18.355469 865.015625 18.355469 854.945312 L 18.355469 576.480469 C 18.355469 566.414062 26.613281 558.164062 36.6875 558.164062 L 690.902344 558.164062 L 690.902344 496.320312 C 690.902344 482.519531 679.683594 471.289062 665.878906 471.289062 L 223.980469 471.289062 C 200.984375 471.289062 182.269531 452.582031 182.269531 429.578125 L 182.269531 328.066406 L 198.957031 328.066406 L 198.957031 429.578125 C 198.957031 443.382812 210.183594 454.601562 223.980469 454.601562 L 665.878906 454.601562 C 688.878906 454.601562 707.589844 473.3125 707.589844 496.320312 L 707.589844 558.164062 L 765.011719 558.164062 C 775.0625 558.164062 783.339844 566.410156 783.339844 576.480469 Z M 765.011719 539.875 L 725.886719 539.875 L 725.886719 496.320312 C 725.886719 463.230469 698.960938 436.3125 665.878906 436.3125 L 223.980469 436.3125 C 220.273438 436.3125 217.25 433.289062 217.25 429.578125 L 217.25 309.773438 L 163.976562 309.773438 L 163.976562 429.578125 C 163.976562 462.660156 190.894531 489.582031 223.980469 489.582031 L 665.878906 489.582031 C 669.59375 489.582031 672.613281 492.605469 672.613281 496.320312 L 672.613281 539.871094 L 36.6875 539.871094 C 16.488281 539.871094 0.0625 556.296875 0.0625 576.480469 L 0.0625 854.945312 C 0.0625 875.128906 16.488281 891.550781 36.6875 891.550781 L 765.011719 891.550781 C 785.207031 891.550781 801.632812 875.128906 801.632812 854.945312 L 801.632812 576.480469 C 801.632812 556.296875 785.207031 539.875 765.011719 539.875 " />
        </g>
        <g clip-rule="nonzero" clip-path="url(#6529f68ef5)">
            <path style=" stroke:none;fill-rule:nonzero;fill:#fefefe;fill-opacity:1;" d="M 296.183594 405.007812 L 296.183594 302.0625 L 358.847656 302.0625 L 358.847656 405.007812 C 358.847656 405.101562 358.855469 405.195312 358.859375 405.285156 L 296.171875 405.285156 C 296.171875 405.195312 296.183594 405.101562 296.183594 405.007812 Z M 559.703125 180.375 C 555.066406 180.375 551.308594 184.132812 551.308594 188.765625 L 551.308594 405.285156 L 375.617188 405.285156 C 375.617188 405.195312 375.632812 405.101562 375.632812 405.007812 L 375.632812 293.667969 C 375.632812 289.035156 371.871094 285.28125 367.238281 285.28125 L 287.789062 285.28125 C 283.15625 285.28125 279.398438 289.035156 279.398438 293.667969 L 279.398438 405.007812 C 279.398438 405.101562 279.410156 405.195312 279.414062 405.285156 L 250.304688 405.285156 L 250.304688 188.765625 C 250.304688 184.132812 246.550781 180.375 241.914062 180.375 C 237.277344 180.375 233.519531 184.132812 233.519531 188.765625 L 233.519531 413.679688 C 233.519531 418.316406 237.277344 422.070312 241.914062 422.070312 L 559.703125 422.070312 C 564.335938 422.070312 568.09375 418.316406 568.09375 413.679688 L 568.09375 188.765625 C 568.09375 184.132812 564.335938 180.375 559.703125 180.375 " />
        </g>
        <g clip-rule="nonzero" clip-path="url(#e592dfa620)">
            <path style=" stroke:none;fill-rule:nonzero;fill:#fefefe;fill-opacity:1;" d="M 607.257812 182.507812 L 406.402344 2.917969 C 403.21875 0.0703125 398.398438 0.0703125 395.214844 2.917969 L 194.359375 182.507812 C 190.902344 185.597656 190.605469 190.90625 193.695312 194.363281 C 196.785156 197.816406 202.089844 198.113281 205.546875 195.023438 L 400.808594 20.429688 L 596.066406 195.023438 C 597.671875 196.453125 599.667969 197.160156 601.660156 197.160156 C 603.964844 197.160156 606.261719 196.214844 607.917969 194.363281 C 611.007812 190.90625 610.710938 185.597656 607.257812 182.507812 " />
        </g>
        <path style=" stroke:none;fill-rule:nonzero;fill:#fefefe;fill-opacity:1;" d="M 509.347656 72.507812 C 513.984375 72.507812 517.742188 68.75 517.742188 64.117188 L 517.742188 47.777344 L 551.308594 47.777344 L 551.308594 121.628906 C 551.308594 126.265625 555.066406 130.019531 559.703125 130.019531 C 564.335938 130.019531 568.09375 126.265625 568.09375 121.628906 L 568.09375 39.382812 C 568.09375 34.75 564.335938 30.992188 559.703125 30.992188 L 509.347656 30.992188 C 504.710938 30.992188 500.953125 34.75 500.953125 39.382812 L 500.953125 64.117188 C 500.953125 68.75 504.710938 72.507812 509.347656 72.507812 " />
        <path style=" stroke:none;fill-rule:nonzero;fill:#fefefe;fill-opacity:1;" d="M 465.148438 205.273438 L 465.148438 228.769531 L 441.648438 228.769531 L 441.648438 205.273438 Z M 505.429688 228.769531 L 481.933594 228.769531 L 481.933594 205.273438 L 505.429688 205.273438 Z M 481.933594 269.054688 L 481.933594 245.554688 L 505.429688 245.554688 L 505.429688 269.054688 Z M 441.648438 245.554688 L 465.148438 245.554688 L 465.148438 269.054688 L 441.648438 269.054688 Z M 513.824219 285.839844 C 518.457031 285.839844 522.214844 282.082031 522.214844 277.445312 L 522.214844 196.878906 C 522.214844 192.246094 518.457031 188.484375 513.824219 188.484375 L 433.257812 188.484375 C 428.621094 188.484375 424.863281 192.246094 424.863281 196.878906 L 424.863281 277.445312 C 424.863281 282.082031 428.621094 285.839844 433.257812 285.839844 L 513.824219 285.839844 " />
    </g>
</svg>