<svg xmlns="http://www.w3.org/2000/svg"
     xmlns:xlink="http://www.w3.org/1999/xlink"
     width="1070"
     zoomAndPan="magnify"
     viewBox="0 0 802.5 995.999987"
     height="1328"
     preserveAspectRatio="xMidYMid meet"
     version="1.2">
    <defs>
        <clipPath id="edd5bb7cab">
            <path d="M 245.945312 97.457031 L 504.535156 97.457031 L 504.535156 525.441406 L 245.945312 525.441406 Z M 245.945312 97.457031 " />
        </clipPath>
        <clipPath id="271fa156c5">
            <path d="M 2 0.574219 L 259.421875 0.574219 L 259.421875 427.679688 L 2 427.679688 Z M 2 0.574219 " />
        </clipPath>
        <clipPath id="1873261c6e">
            <path d="M 138.054688 -44.140625 L -142.007812 235.925781 L 144.191406 522.125 L 424.253906 242.058594 Z M 138.054688 -44.140625 " />
        </clipPath>
        <clipPath id="6c841d53f2">
            <path d="M 138.054688 -44.140625 L -142.007812 235.925781 L 144.191406 522.125 L 424.253906 242.058594 Z M 138.054688 -44.140625 " />
        </clipPath>
        <clipPath id="be40c8b935">
            <path d="M -142.207031 236.125 L 137.855469 -43.941406 L 424.058594 242.257812 L 143.992188 522.324219 Z M -142.207031 236.125 " />
        </clipPath>
        <clipPath id="ad5e9fdfdf">
            <path d="M 90.585938 414.570312 L 104.460938 414.570312 L 104.460938 428.441406 L 90.585938 428.441406 Z M 90.585938 414.570312 " />
        </clipPath>
        <clipPath id="7efc6ad348">
            <path d="M 138.054688 -44.140625 L -142.007812 235.925781 L 144.191406 522.125 L 424.253906 242.058594 Z M 138.054688 -44.140625 " />
        </clipPath>
        <clipPath id="c7571dcfbb">
            <path d="M 138.054688 -44.140625 L -142.007812 235.925781 L 144.191406 522.125 L 424.253906 242.058594 Z M 138.054688 -44.140625 " />
        </clipPath>
        <clipPath id="d1a57459f0">
            <path d="M -142.207031 236.125 L 137.855469 -43.941406 L 424.058594 242.257812 L 143.992188 522.324219 Z M -142.207031 236.125 " />
        </clipPath>
        <clipPath id="6e97587570">
            <path d="M 228.585938 227.230469 L 242 227.230469 L 242 241 L 228.585938 241 Z M 228.585938 227.230469 " />
        </clipPath>
        <clipPath id="d8bac597cd">
            <path d="M 138.054688 -44.140625 L -142.007812 235.925781 L 144.191406 522.125 L 424.253906 242.058594 Z M 138.054688 -44.140625 " />
        </clipPath>
        <clipPath id="97271e0eb9">
            <path d="M 138.054688 -44.140625 L -142.007812 235.925781 L 144.191406 522.125 L 424.253906 242.058594 Z M 138.054688 -44.140625 " />
        </clipPath>
        <clipPath id="cf9a2b8a6e">
            <path d="M -142.207031 236.125 L 137.855469 -43.941406 L 424.058594 242.257812 L 143.992188 522.324219 Z M -142.207031 236.125 " />
        </clipPath>
        <clipPath id="1c48316a7d">
            <rect x="0" width="260" y="0" height="429" />
        </clipPath>
        <clipPath id="fce15bbcc8">
            <path d="M 0.0625 413.398438 L 801.632812 413.398438 L 801.632812 995.035156 L 0.0625 995.035156 Z M 0.0625 413.398438 " />
        </clipPath>
        <clipPath id="7faef5b312">
            <rect x="0" width="169" y="0" height="422" />
        </clipPath>
    </defs>
    <g id="512281ad2a">
        <g clip-rule="nonzero" clip-path="url(#edd5bb7cab)">
            <g transform="matrix(1,0,0,1,245,97)">
                <g clip-path="url(#1c48316a7d)">
                    <g clip-rule="nonzero" clip-path="url(#271fa156c5)">
                        <g clip-rule="nonzero" clip-path="url(#1873261c6e)">
                            <g clip-rule="nonzero" clip-path="url(#6c841d53f2)">
                                <g clip-rule="nonzero" clip-path="url(#be40c8b935)">
                                    <path style=" stroke:none;fill-rule:nonzero;fill:#fefefe;fill-opacity:1;" d="M 192.273438 54.230469 C 191.648438 46.699219 188.507812 39.789062 183.171875 34.453125 C 177.203125 28.488281 169.355469 25.03125 160.875 25.347656 C 153.972656 25.347656 148.003906 27.542969 142.351562 31.3125 C 141.722656 14.355469 127.910156 0.542969 110.640625 0.855469 C 93.058594 0.855469 78.929688 14.984375 78.929688 32.566406 L 78.929688 60.824219 C 73.90625 57.058594 67.3125 54.859375 60.71875 55.175781 C 52.554688 55.175781 44.390625 58.3125 38.425781 64.277344 C 32.460938 70.246094 29.007812 78.09375 29.320312 86.574219 L 29.632812 184.21875 C 23.042969 185.789062 17.078125 188.613281 12.054688 193.636719 C 5.457031 200.230469 2.003906 208.707031 2.320312 217.816406 L 2.320312 277.46875 C 2.320312 293.796875 8.285156 309.179688 18.644531 321.425781 L 52.554688 360.988281 C 39.054688 365.699219 29.632812 378.257812 29.949219 393.011719 C 29.949219 402.433594 33.71875 410.597656 39.996094 416.875 C 46.589844 423.46875 55.066406 426.921875 63.859375 426.921875 L 68.878906 427.546875 C 72.652344 427.546875 75.476562 424.722656 75.476562 420.957031 C 75.476562 417.1875 72.652344 414.363281 68.878906 414.363281 L 63.859375 414.363281 C 58.207031 414.363281 52.867188 412.164062 49.101562 408.398438 C 45.332031 404.632812 43.136719 399.292969 43.136719 393.640625 C 43.136719 382.335938 52.554688 372.917969 63.859375 372.917969 L 225.242188 372.917969 C 236.546875 372.917969 245.964844 382.335938 245.964844 393.640625 C 245.964844 404.945312 236.546875 414.363281 225.242188 414.363281 L 126.652344 414.363281 C 122.886719 414.363281 120.0625 417.1875 120.0625 420.957031 C 120.0625 424.722656 122.886719 427.546875 126.652344 427.546875 L 225.242188 427.546875 C 234.660156 427.546875 243.140625 423.46875 249.105469 417.503906 C 255.382812 411.222656 259.152344 403.058594 259.152344 393.640625 C 259.152344 381.082031 252.558594 370.09375 242.195312 364.125 L 242.195312 264.28125 C 242.195312 260.515625 239.371094 257.691406 235.605469 257.691406 C 231.835938 257.691406 229.007812 260.515625 229.007812 264.28125 L 229.007812 359.734375 C 227.753906 359.734375 226.496094 359.734375 225.242188 359.734375 L 68.253906 359.734375 L 28.691406 313.261719 C 20.214844 303.527344 15.820312 290.96875 15.507812 278.097656 L 15.507812 218.441406 C 15.507812 212.792969 17.703125 207.453125 21.46875 203.683594 C 25.554688 199.605469 30.578125 197.71875 36.230469 197.71875 C 41.878906 197.71875 47.21875 199.917969 50.988281 203.683594 C 55.066406 207.765625 56.953125 212.792969 56.953125 218.441406 L 56.953125 270.5625 C 56.953125 274.328125 59.777344 277.15625 63.542969 277.15625 C 67.3125 277.15625 70.140625 274.328125 70.140625 270.5625 L 70.140625 218.441406 C 70.140625 209.019531 66.683594 200.542969 60.402344 194.265625 C 55.378906 189.242188 49.414062 186.417969 42.820312 184.84375 L 42.820312 86.257812 C 43.136719 81.546875 44.707031 76.839844 48.160156 73.386719 C 51.613281 69.929688 56.007812 68.046875 61.03125 68.046875 C 66.054688 68.046875 70.453125 69.929688 73.90625 73.386719 C 77.359375 76.839844 79.242188 81.234375 79.242188 86.257812 L 79.242188 146.542969 C 79.242188 150.308594 82.066406 153.132812 85.835938 153.132812 C 87.722656 153.132812 89.289062 152.195312 90.546875 150.9375 C 91.800781 149.683594 92.742188 148.109375 92.742188 146.226562 L 92.742188 31.941406 C 92.742188 21.890625 100.910156 13.730469 110.953125 13.730469 C 121 13.730469 129.164062 21.890625 129.164062 31.941406 L 129.164062 56.429688 L 129.480469 149.054688 C 129.480469 152.820312 132.304688 155.644531 136.074219 155.644531 C 139.839844 155.644531 142.664062 152.820312 142.664062 149.054688 L 142.664062 56.742188 C 142.664062 46.699219 150.832031 38.53125 160.875 38.53125 C 170.925781 38.53125 179.085938 46.699219 179.085938 56.742188 L 179.085938 152.195312 C 179.085938 155.960938 181.914062 158.785156 185.683594 158.785156 C 187.566406 158.785156 189.136719 157.84375 190.390625 156.585938 C 191.648438 155.332031 192.585938 153.761719 192.585938 151.878906 L 192.585938 79.664062 C 192.585938 69.617188 200.753906 61.453125 210.796875 61.453125 C 220.847656 61.453125 229.007812 69.617188 229.007812 79.664062 L 229.007812 205.253906 C 229.007812 209.019531 231.835938 211.847656 235.605469 211.847656 C 237.488281 211.847656 239.058594 210.90625 240.3125 209.652344 C 241.570312 208.394531 242.511719 206.824219 242.511719 204.941406 L 242.511719 79.351562 C 242.511719 61.765625 228.382812 47.636719 210.796875 47.636719 C 203.894531 48.265625 197.296875 50.464844 192.273438 54.230469 Z M 192.273438 54.230469 " />
                                </g>
                            </g>
                        </g>
                    </g>
                    <g clip-rule="nonzero" clip-path="url(#ad5e9fdfdf)">
                        <g clip-rule="nonzero" clip-path="url(#7efc6ad348)">
                            <g clip-rule="nonzero" clip-path="url(#c7571dcfbb)">
                                <g clip-rule="nonzero" clip-path="url(#d1a57459f0)">
                                    <path style=" stroke:none;fill-rule:nonzero;fill:#fefefe;fill-opacity:1;" d="M 102.164062 416.875 C 102.472656 417.183594 102.75 417.519531 102.992188 417.886719 C 103.234375 418.25 103.441406 418.632812 103.605469 419.035156 C 103.773438 419.4375 103.902344 419.855469 103.984375 420.285156 C 104.070312 420.710938 104.117188 421.144531 104.117188 421.585938 C 104.117188 422.023438 104.070312 422.457031 103.984375 422.882812 C 103.902344 423.3125 103.773438 423.730469 103.605469 424.132812 C 103.441406 424.539062 103.234375 424.921875 102.992188 425.285156 C 102.75 425.648438 102.472656 425.984375 102.164062 426.292969 C 101.855469 426.601562 101.515625 426.878906 101.15625 427.121094 C 100.789062 427.363281 100.410156 427.570312 100 427.738281 C 99.597656 427.902344 99.183594 428.03125 98.753906 428.117188 C 98.324219 428.203125 97.890625 428.246094 97.453125 428.246094 C 97.015625 428.246094 96.582031 428.203125 96.15625 428.117188 C 95.726562 428.03125 95.308594 427.902344 94.90625 427.738281 C 94.5 427.570312 94.117188 427.363281 93.753906 427.121094 C 93.390625 426.878906 93.054688 426.601562 92.742188 426.292969 C 92.433594 425.984375 92.160156 425.648438 91.914062 425.285156 C 91.671875 424.921875 91.46875 424.539062 91.300781 424.132812 C 91.132812 423.730469 91.007812 423.3125 90.921875 422.882812 C 90.835938 422.457031 90.792969 422.023438 90.792969 421.585938 C 90.792969 421.144531 90.835938 420.714844 90.921875 420.285156 C 91.007812 419.855469 91.132812 419.4375 91.300781 419.035156 C 91.46875 418.632812 91.671875 418.25 91.914062 417.886719 C 92.160156 417.519531 92.433594 417.183594 92.742188 416.875 C 93.054688 416.566406 93.390625 416.289062 93.753906 416.046875 C 94.117188 415.804688 94.5 415.597656 94.90625 415.429688 C 95.308594 415.265625 95.726562 415.136719 96.15625 415.050781 C 96.582031 414.964844 97.015625 414.925781 97.453125 414.925781 C 97.890625 414.925781 98.324219 414.964844 98.753906 415.050781 C 99.183594 415.136719 99.597656 415.265625 100 415.429688 C 100.410156 415.597656 100.789062 415.804688 101.15625 416.046875 C 101.515625 416.289062 101.855469 416.566406 102.164062 416.875 Z M 102.164062 416.875 " />
                                </g>
                            </g>
                        </g>
                    </g>
                    <g clip-rule="nonzero" clip-path="url(#6e97587570)">
                        <g clip-rule="nonzero" clip-path="url(#d8bac597cd)">
                            <g clip-rule="nonzero" clip-path="url(#97271e0eb9)">
                                <g clip-rule="nonzero" clip-path="url(#cf9a2b8a6e)">
                                    <path style=" stroke:none;fill-rule:nonzero;fill:#fefefe;fill-opacity:1;" d="M 241.882812 233.828125 C 241.882812 230.058594 239.058594 227.230469 235.292969 227.230469 C 231.519531 227.230469 228.695312 230.058594 228.695312 233.828125 C 228.695312 237.59375 231.519531 240.417969 235.292969 240.417969 C 239.058594 240.417969 241.882812 237.59375 241.882812 233.828125 Z M 241.882812 233.828125 " />
                                </g>
                            </g>
                        </g>
                    </g>
                </g>
            </g>
        </g>
        <g clip-rule="nonzero" clip-path="url(#fce15bbcc8)">
            <path style=" stroke:none;fill-rule:nonzero;fill:#fefefe;fill-opacity:1;" d="M 209.523438 831.300781 L 180.820312 831.300781 L 180.820312 807.210938 L 209.523438 807.210938 Z M 218.640625 788.917969 L 171.679688 788.917969 C 166.664062 788.917969 162.527344 793.058594 162.527344 798.097656 L 162.527344 840.414062 C 162.527344 845.460938 166.664062 849.597656 171.679688 849.597656 L 218.640625 849.597656 C 223.691406 849.597656 227.8125 845.460938 227.8125 840.414062 L 227.8125 798.097656 C 227.8125 793.058594 223.695312 788.917969 218.640625 788.917969 Z M 240.789062 741.683594 L 212.105469 741.683594 L 212.105469 717.691406 L 240.789062 717.691406 Z M 259.078125 750.839844 L 259.078125 708.542969 C 259.078125 703.523438 254.957031 699.402344 249.925781 699.402344 L 202.96875 699.402344 C 197.933594 699.402344 193.8125 703.523438 193.8125 708.542969 L 193.8125 750.839844 C 193.8125 755.859375 197.933594 759.980469 202.96875 759.980469 L 249.925781 759.980469 C 254.957031 759.980469 259.078125 755.859375 259.078125 750.839844 Z M 198.914062 920.984375 L 170.226562 920.984375 L 170.226562 896.859375 L 198.914062 896.859375 Z M 208.050781 878.566406 L 161.089844 878.566406 C 156.054688 878.566406 151.933594 882.710938 151.933594 887.726562 L 151.933594 930.125 C 151.933594 935.144531 156.054688 939.28125 161.089844 939.28125 L 208.050781 939.28125 C 213.085938 939.28125 217.203125 935.144531 217.203125 930.125 L 217.203125 887.726562 C 217.203125 882.710938 213.089844 878.566406 208.050781 878.566406 Z M 118.011719 831.300781 L 77.871094 831.300781 L 77.871094 807.210938 L 118.011719 807.210938 Z M 127.152344 788.917969 L 68.734375 788.917969 C 63.714844 788.917969 59.578125 793.058594 59.578125 798.097656 L 59.578125 840.414062 C 59.578125 845.460938 63.714844 849.597656 68.734375 849.597656 L 127.152344 849.597656 C 132.179688 849.597656 136.304688 845.460938 136.304688 840.414062 L 136.304688 798.097656 C 136.304688 793.058594 132.183594 788.917969 127.152344 788.917969 Z M 77.871094 717.691406 L 144.363281 717.691406 L 144.363281 741.683594 L 77.871094 741.683594 Z M 68.734375 759.980469 L 153.5 759.980469 C 158.53125 759.980469 162.652344 755.859375 162.652344 750.839844 L 162.652344 708.542969 C 162.652344 703.523438 158.53125 699.402344 153.5 699.402344 L 68.734375 699.402344 C 63.714844 699.402344 59.578125 703.523438 59.578125 708.542969 L 59.578125 750.839844 C 59.578125 755.859375 63.714844 759.980469 68.734375 759.980469 Z M 106.570312 920.984375 L 77.871094 920.984375 L 77.871094 896.859375 L 106.570312 896.859375 Z M 115.710938 878.566406 L 68.734375 878.566406 C 63.714844 878.566406 59.578125 882.710938 59.578125 887.726562 L 59.578125 930.125 C 59.578125 935.144531 63.714844 939.28125 68.734375 939.28125 L 115.710938 939.28125 C 120.742188 939.28125 124.867188 935.144531 124.867188 930.125 L 124.867188 887.726562 C 124.871094 882.710938 120.75 878.566406 115.710938 878.566406 Z M 599.304688 920.984375 L 570.636719 920.984375 L 570.636719 896.859375 L 599.304688 896.859375 Z M 608.421875 878.566406 L 561.5 878.566406 C 556.449219 878.566406 552.335938 882.710938 552.335938 887.726562 L 552.335938 930.125 C 552.335938 935.144531 556.449219 939.28125 561.5 939.28125 L 608.421875 939.28125 C 613.496094 939.28125 617.601562 935.144531 617.601562 930.125 L 617.601562 887.726562 C 617.601562 882.710938 613.496094 878.566406 608.421875 878.566406 Z M 723.824219 741.683594 L 695.121094 741.683594 L 695.121094 717.695312 L 723.824219 717.695312 Z M 732.960938 699.40625 L 685.988281 699.40625 C 680.96875 699.40625 676.832031 703.523438 676.832031 708.542969 L 676.832031 750.839844 C 676.832031 755.859375 680.96875 759.980469 685.988281 759.980469 L 732.960938 759.980469 C 738 759.980469 742.117188 755.859375 742.117188 750.839844 L 742.117188 708.542969 C 742.117188 703.523438 737.996094 699.40625 732.960938 699.40625 Z M 723.824219 831.300781 L 638.628906 831.300781 L 638.628906 807.210938 L 723.824219 807.210938 Z M 732.960938 788.917969 L 629.496094 788.917969 C 624.457031 788.917969 620.339844 793.058594 620.339844 798.097656 L 620.339844 840.414062 C 620.339844 845.460938 624.457031 849.597656 629.496094 849.597656 L 732.960938 849.597656 C 738 849.597656 742.117188 845.460938 742.117188 840.414062 L 742.117188 798.097656 C 742.117188 793.058594 737.996094 788.917969 732.960938 788.917969 Z M 577.589844 831.300781 L 548.882812 831.300781 L 548.882812 807.210938 L 577.589844 807.210938 Z M 586.707031 849.597656 C 591.730469 849.597656 595.878906 845.460938 595.878906 840.414062 L 595.878906 798.09375 C 595.878906 793.058594 591.730469 788.917969 586.707031 788.917969 L 539.746094 788.917969 C 534.714844 788.917969 530.589844 793.058594 530.589844 798.09375 L 530.589844 840.414062 C 530.589844 845.460938 534.714844 849.597656 539.746094 849.597656 Z M 501.199219 920.984375 L 270.953125 920.984375 L 270.953125 896.859375 L 501.199219 896.859375 Z M 510.339844 878.566406 L 261.816406 878.566406 C 256.765625 878.566406 252.660156 882.710938 252.660156 887.726562 L 252.660156 930.125 C 252.660156 935.144531 256.765625 939.28125 261.816406 939.28125 L 510.339844 939.28125 C 515.339844 939.28125 519.492188 935.144531 519.492188 930.125 L 519.492188 887.726562 C 519.492188 882.710938 515.339844 878.566406 510.339844 878.566406 Z M 723.824219 920.984375 L 677.574219 920.984375 L 677.574219 896.859375 L 723.824219 896.859375 Z M 732.960938 878.566406 L 668.441406 878.566406 C 663.386719 878.566406 659.277344 882.710938 659.277344 887.726562 L 659.277344 930.125 C 659.277344 935.144531 663.386719 939.28125 668.441406 939.28125 L 732.960938 939.28125 C 738 939.28125 742.117188 935.144531 742.117188 930.125 L 742.117188 887.726562 C 742.117188 882.710938 737.996094 878.566406 732.960938 878.566406 Z M 272.847656 807.207031 L 301.53125 807.207031 L 301.53125 831.300781 L 272.847656 831.300781 Z M 254.550781 798.09375 L 254.550781 840.414062 C 254.550781 845.460938 258.65625 849.597656 263.710938 849.597656 L 310.671875 849.597656 C 315.703125 849.597656 319.824219 845.460938 319.824219 840.414062 L 319.824219 798.09375 C 319.824219 793.058594 315.703125 788.917969 310.671875 788.917969 L 263.710938 788.917969 C 258.65625 788.917969 254.550781 793.058594 254.550781 798.09375 Z M 598.546875 717.691406 L 627.203125 717.691406 L 627.203125 741.683594 L 598.546875 741.683594 Z M 589.410156 759.980469 L 636.34375 759.980469 C 641.390625 759.980469 645.503906 755.859375 645.503906 750.839844 L 645.503906 708.542969 C 645.503906 703.523438 641.390625 699.402344 636.34375 699.402344 L 589.410156 699.402344 C 584.355469 699.402344 580.257812 703.523438 580.257812 708.542969 L 580.257812 750.839844 C 580.257812 755.859375 584.355469 759.980469 589.410156 759.980469 Z M 501.921875 717.691406 L 530.597656 717.691406 L 530.597656 741.683594 L 501.921875 741.683594 Z M 492.789062 759.980469 L 539.734375 759.980469 C 544.78125 759.980469 548.890625 755.859375 548.890625 750.839844 L 548.890625 708.542969 C 548.890625 703.523438 544.78125 699.402344 539.734375 699.402344 L 492.789062 699.402344 C 487.757812 699.402344 483.628906 703.523438 483.628906 708.542969 L 483.628906 750.839844 C 483.628906 755.859375 487.757812 759.980469 492.789062 759.980469 Z M 364.871094 807.207031 L 393.546875 807.207031 L 393.546875 831.300781 L 364.871094 831.300781 Z M 346.582031 798.09375 L 346.582031 840.414062 C 346.582031 845.460938 350.6875 849.597656 355.738281 849.597656 L 402.679688 849.597656 C 407.714844 849.597656 411.839844 845.460938 411.839844 840.414062 L 411.839844 798.09375 C 411.839844 793.058594 407.714844 788.917969 402.679688 788.917969 L 355.738281 788.917969 C 350.6875 788.917969 346.582031 793.058594 346.582031 798.09375 Z M 485.578125 831.300781 L 456.871094 831.300781 L 456.871094 807.210938 L 485.578125 807.210938 Z M 447.753906 788.917969 C 442.699219 788.917969 438.578125 793.058594 438.578125 798.097656 L 438.578125 840.414062 C 438.578125 845.460938 442.699219 849.597656 447.753906 849.597656 L 494.695312 849.597656 C 499.734375 849.597656 503.871094 845.460938 503.871094 840.414062 L 503.871094 798.097656 C 503.871094 793.0625 499.734375 788.917969 494.695312 788.917969 Z M 308.695312 717.691406 L 337.378906 717.691406 L 337.378906 741.683594 L 308.695312 741.683594 Z M 299.554688 759.980469 L 346.515625 759.980469 C 351.570312 759.980469 355.671875 755.859375 355.671875 750.839844 L 355.671875 708.542969 C 355.671875 703.523438 351.570312 699.402344 346.515625 699.402344 L 299.554688 699.402344 C 294.539062 699.402344 290.398438 703.523438 290.398438 708.542969 L 290.398438 750.839844 C 290.398438 755.859375 294.539062 759.980469 299.554688 759.980469 Z M 405.300781 717.691406 L 433.984375 717.691406 L 433.984375 741.683594 L 405.300781 741.683594 Z M 396.164062 759.980469 L 443.125 759.980469 C 448.175781 759.980469 452.28125 755.859375 452.28125 750.839844 L 452.28125 708.542969 C 452.28125 703.523438 448.175781 699.402344 443.125 699.402344 L 396.164062 699.402344 C 391.132812 699.402344 387.007812 703.523438 387.007812 708.542969 L 387.007812 750.839844 C 387.007812 755.859375 391.128906 759.980469 396.164062 759.980469 Z M 783.339844 958.570312 C 783.339844 968.640625 775.0625 976.882812 765.011719 976.882812 L 36.6875 976.882812 C 26.617188 976.882812 18.355469 968.640625 18.355469 958.570312 L 18.355469 680.109375 C 18.355469 670.039062 26.613281 661.789062 36.6875 661.789062 L 690.902344 661.789062 L 690.902344 599.945312 C 690.902344 586.144531 679.683594 574.914062 665.878906 574.914062 L 223.980469 574.914062 C 200.984375 574.914062 182.269531 556.207031 182.269531 533.203125 L 182.269531 431.691406 L 198.957031 431.691406 L 198.957031 533.203125 C 198.957031 547.007812 210.183594 558.230469 223.980469 558.230469 L 665.878906 558.230469 C 688.878906 558.230469 707.589844 576.9375 707.589844 599.945312 L 707.589844 661.789062 L 765.011719 661.789062 C 775.0625 661.789062 783.339844 670.035156 783.339844 680.109375 Z M 765.011719 643.5 L 725.886719 643.5 L 725.886719 599.945312 C 725.886719 566.855469 698.960938 539.941406 665.878906 539.941406 L 223.980469 539.941406 C 220.273438 539.941406 217.25 536.917969 217.25 533.203125 L 217.25 413.398438 L 163.976562 413.398438 L 163.976562 533.203125 C 163.976562 566.289062 190.894531 593.207031 223.980469 593.207031 L 665.878906 593.207031 C 669.59375 593.207031 672.613281 596.230469 672.613281 599.945312 L 672.613281 643.496094 L 36.6875 643.496094 C 16.488281 643.496094 0.0625 659.921875 0.0625 680.109375 L 0.0625 958.570312 C 0.0625 978.753906 16.488281 995.175781 36.6875 995.175781 L 765.011719 995.175781 C 785.207031 995.175781 801.632812 978.753906 801.632812 958.570312 L 801.632812 680.109375 C 801.632812 659.921875 785.207031 643.5 765.011719 643.5 " />
        </g>
        <g transform="matrix(1,0,0,1,520,96)">
            <g clip-path="url(#7faef5b312)">
                <g style="fill:#fefefe;fill-opacity:1;">
                    <g transform="translate(0.868614, 333.174348)">
                        <path style="stroke:none" d="M 160.21875 -224.515625 C 159.507812 -217.015625 156.519531 -212.675781 151.25 -211.5 C 145.976562 -210.332031 138.191406 -210.101562 127.890625 -210.8125 C 119.453125 -211.28125 112.539062 -209.113281 107.15625 -204.3125 C 101.769531 -199.507812 99.078125 -191.835938 99.078125 -181.296875 L 99.078125 -165.828125 L 124.734375 -165.828125 C 144.640625 -165.828125 154.59375 -158.453125 154.59375 -143.703125 C 154.59375 -128.710938 145.335938 -121.21875 126.828125 -121.21875 L 99.078125 -120.859375 C 99.078125 -118.046875 99.132812 -115.234375 99.25 -112.421875 C 99.375 -109.617188 99.4375 -106.8125 99.4375 -104 C 99.4375 -91.820312 99.492188 -79.523438 99.609375 -67.109375 C 99.722656 -54.691406 99.78125 -42.273438 99.78125 -29.859375 C 99.78125 -9.953125 90.410156 0 71.671875 0 C 52.703125 0 43.21875 -9.953125 43.21875 -29.859375 C 43.21875 -42.273438 43.15625 -54.691406 43.03125 -67.109375 C 42.914062 -79.523438 42.859375 -91.820312 42.859375 -104 L 42.859375 -120.515625 L 40.046875 -120.515625 C 20.140625 -120.515625 10.1875 -128.125 10.1875 -143.34375 C 10.1875 -158.332031 15.691406 -165.828125 26.703125 -165.828125 L 42.859375 -165.828125 C 42.628906 -169.109375 42.515625 -172.390625 42.515625 -175.671875 C 42.515625 -178.953125 42.515625 -182.113281 42.515625 -185.15625 C 42.273438 -202.957031 45.316406 -217.128906 51.640625 -227.671875 C 57.972656 -238.210938 67.050781 -245.820312 78.875 -250.5 C 90.707031 -255.1875 104.585938 -257.53125 120.515625 -257.53125 C 123.554688 -257.53125 126.484375 -257.410156 129.296875 -257.171875 C 132.109375 -256.941406 134.800781 -256.59375 137.375 -256.125 C 146.269531 -254.71875 152.472656 -251.085938 155.984375 -245.234375 C 159.503906 -239.378906 160.914062 -232.472656 160.21875 -224.515625 Z M 160.21875 -224.515625 " />
                    </g>
                </g>
            </g>
        </g>
    </g>
</svg>