<svg xmlns="http://www.w3.org/2000/svg"
     xmlns:xlink="http://www.w3.org/1999/xlink"
     width="1070"
     zoomAndPan="magnify"
     viewBox="0 0 802.5 1027.500013"
     height="1370"
     preserveAspectRatio="xMidYMid meet"
     version="1.2">
    <defs>
        <clipPath id="c5e2a6f965">
            <path d="M 0 715.523438 L 801.800781 715.523438 L 801.800781 931.007812 L 0 931.007812 Z M 0 715.523438 " />
        </clipPath>
        <clipPath id="9c4199abf4">
            <path d="M 801.703125 747.753906 L 801.703125 898.777344 C 801.703125 907.324219 798.308594 915.523438 792.261719 921.566406 C 786.21875 927.609375 778.019531 931.007812 769.472656 931.007812 L 32.230469 931.007812 C 23.683594 931.007812 15.484375 927.609375 9.441406 921.566406 C 3.394531 915.523438 0 907.324219 0 898.777344 L 0 747.753906 C 0 739.203125 3.394531 731.007812 9.441406 724.960938 C 15.484375 718.917969 23.683594 715.523438 32.230469 715.523438 L 769.472656 715.523438 C 778.019531 715.523438 786.21875 718.917969 792.261719 724.960938 C 798.308594 731.007812 801.703125 739.203125 801.703125 747.753906 Z M 801.703125 747.753906 " />
        </clipPath>
        <clipPath id="0704be0a1e">
            <path d="M 0 0.523438 L 801.800781 0.523438 L 801.800781 216.007812 L 0 216.007812 Z M 0 0.523438 " />
        </clipPath>
        <clipPath id="25ecf5889d">
            <path d="M 801.703125 32.753906 L 801.703125 183.777344 C 801.703125 192.324219 798.308594 200.523438 792.261719 206.566406 C 786.21875 212.609375 778.019531 216.007812 769.472656 216.007812 L 32.230469 216.007812 C 23.683594 216.007812 15.484375 212.609375 9.441406 206.566406 C 3.394531 200.523438 0 192.324219 0 183.777344 L 0 32.753906 C 0 24.203125 3.394531 16.007812 9.441406 9.960938 C 15.484375 3.917969 23.683594 0.523438 32.230469 0.523438 L 769.472656 0.523438 C 778.019531 0.523438 786.21875 3.917969 792.261719 9.960938 C 798.308594 16.007812 801.703125 24.203125 801.703125 32.753906 Z M 801.703125 32.753906 " />
        </clipPath>
        <clipPath id="0f0c2415f0">
            <rect x="0" width="802" y="0" height="217" />
        </clipPath>
        <clipPath id="d1e9dd383b">
            <path d="M 0 715.523438 L 801.847656 715.523438 L 801.847656 930.636719 L 0 930.636719 Z M 0 715.523438 " />
        </clipPath>
        <clipPath id="184674f921">
            <path d="M 801.691406 747.75 L 801.691406 898.773438 C 801.691406 907.320312 798.296875 915.515625 792.25 921.5625 C 786.207031 927.605469 778.007812 931 769.460938 931 L 32.234375 931 C 23.6875 931 15.488281 927.605469 9.445312 921.5625 C 3.402344 915.515625 0.00390625 907.320312 0.00390625 898.773438 L 0.00390625 747.75 C 0.00390625 739.203125 3.402344 731.007812 9.445312 724.960938 C 15.488281 718.917969 23.6875 715.523438 32.234375 715.523438 L 769.460938 715.523438 C 778.007812 715.523438 786.207031 718.917969 792.25 724.960938 C 798.296875 731.007812 801.691406 739.203125 801.691406 747.75 Z M 801.691406 747.75 " />
        </clipPath>
        <clipPath id="a3b0861de5">
            <rect x="0" width="169" y="0" height="423" />
        </clipPath>
        <clipPath id="36243a31f2">
            <path d="M 0.0625 55 L 127 55 L 127 412 L 0.0625 412 Z M 0.0625 55 " />
        </clipPath>
        <clipPath id="a70406e799">
            <rect x="0" width="143" y="0" height="423" />
        </clipPath>
    </defs>
    <g id="183e8e915f">
        <g clip-rule="nonzero" clip-path="url(#c5e2a6f965)">
            <g clip-rule="nonzero" clip-path="url(#9c4199abf4)">
                <g transform="matrix(1,0,0,1,0,715)">
                    <g clip-path="url(#0f0c2415f0)">
                        <g clip-rule="nonzero" clip-path="url(#0704be0a1e)">
                            <g clip-rule="nonzero" clip-path="url(#25ecf5889d)">
                                <path style=" stroke:none;fill-rule:nonzero;fill:#00bf63;fill-opacity:0;" d="M 0 0.523438 L 801.800781 0.523438 L 801.800781 216.007812 L 0 216.007812 Z M 0 0.523438 " />
                            </g>
                        </g>
                    </g>
                </g>
            </g>
        </g>
        <g clip-rule="nonzero" clip-path="url(#d1e9dd383b)">
            <g clip-rule="nonzero" clip-path="url(#184674f921)">
                <path style="fill:none;stroke-width:30;stroke-linecap:butt;stroke-linejoin:miter;stroke:#fefefe;stroke-opacity:1;stroke-miterlimit:4;" d="M 1069.581148 42.997145 L 1069.581148 244.487198 C 1069.581148 255.890132 1065.052286 266.824024 1056.984762 274.891548 C 1048.92245 282.95386 1037.983346 287.482722 1026.580412 287.482722 L 42.99918 287.482722 C 31.596246 287.482722 20.657142 282.95386 12.59483 274.891548 C 4.532518 266.824024 -0.0015554 255.890132 -0.0015554 244.487198 L -0.0015554 42.997145 C -0.0015554 31.594211 4.532518 20.660319 12.59483 12.592796 C 20.657142 4.530484 31.596246 0.00162182 42.99918 0.00162182 L 1026.580412 0.00162182 C 1037.983346 0.00162182 1048.92245 4.530484 1056.984762 12.592796 C 1065.052286 20.660319 1069.581148 31.594211 1069.581148 42.997145 Z M 1069.581148 42.997145 " transform="matrix(0.749533,0,0,0.749533,0.00507208,715.522222)" />
            </g>
        </g>
        <g transform="matrix(1,0,0,1,248,95)">
            <g clip-path="url(#a3b0861de5)">
                <g style="fill:#fefefe;fill-opacity:1;">
                    <g transform="translate(1.08383, 333.934344)">
                        <path style="stroke:none" d="M 160.21875 -224.515625 C 159.507812 -217.015625 156.519531 -212.675781 151.25 -211.5 C 145.976562 -210.332031 138.191406 -210.101562 127.890625 -210.8125 C 119.453125 -211.28125 112.539062 -209.113281 107.15625 -204.3125 C 101.769531 -199.507812 99.078125 -191.835938 99.078125 -181.296875 L 99.078125 -165.828125 L 124.734375 -165.828125 C 144.640625 -165.828125 154.59375 -158.453125 154.59375 -143.703125 C 154.59375 -128.710938 145.335938 -121.21875 126.828125 -121.21875 L 99.078125 -120.859375 C 99.078125 -118.046875 99.132812 -115.234375 99.25 -112.421875 C 99.375 -109.617188 99.4375 -106.8125 99.4375 -104 C 99.4375 -91.820312 99.492188 -79.523438 99.609375 -67.109375 C 99.722656 -54.691406 99.78125 -42.273438 99.78125 -29.859375 C 99.78125 -9.953125 90.410156 0 71.671875 0 C 52.703125 0 43.21875 -9.953125 43.21875 -29.859375 C 43.21875 -42.273438 43.15625 -54.691406 43.03125 -67.109375 C 42.914062 -79.523438 42.859375 -91.820312 42.859375 -104 L 42.859375 -120.515625 L 40.046875 -120.515625 C 20.140625 -120.515625 10.1875 -128.125 10.1875 -143.34375 C 10.1875 -158.332031 15.691406 -165.828125 26.703125 -165.828125 L 42.859375 -165.828125 C 42.628906 -169.109375 42.515625 -172.390625 42.515625 -175.671875 C 42.515625 -178.953125 42.515625 -182.113281 42.515625 -185.15625 C 42.273438 -202.957031 45.316406 -217.128906 51.640625 -227.671875 C 57.972656 -238.210938 67.050781 -245.820312 78.875 -250.5 C 90.707031 -255.1875 104.585938 -257.53125 120.515625 -257.53125 C 123.554688 -257.53125 126.484375 -257.410156 129.296875 -257.171875 C 132.109375 -256.941406 134.800781 -256.59375 137.375 -256.125 C 146.269531 -254.71875 152.472656 -251.085938 155.984375 -245.234375 C 159.503906 -239.378906 160.914062 -232.472656 160.21875 -224.515625 Z M 160.21875 -224.515625 " />
                    </g>
                </g>
            </g>
        </g>
        <g transform="matrix(1,0,0,1,412,95)">
            <g clip-path="url(#a70406e799)">
                <g clip-rule="nonzero" clip-path="url(#36243a31f2)">
                    <g style="fill:#fefefe;fill-opacity:1;">
                        <g transform="translate(40.484506, 333.934344)">
                            <path style="stroke:none" d="M 49.890625 -218.890625 C 37.003906 -218.890625 27.691406 -221.226562 21.953125 -225.90625 C 16.210938 -230.59375 13.34375 -238.207031 13.34375 -248.75 C 13.34375 -259.289062 16.210938 -266.898438 21.953125 -271.578125 C 27.691406 -276.265625 37.003906 -278.609375 49.890625 -278.609375 C 63.003906 -278.609375 72.375 -276.265625 78 -271.578125 C 83.625 -266.898438 86.4375 -259.289062 86.4375 -248.75 C 86.4375 -238.207031 83.625 -230.59375 78 -225.90625 C 72.375 -221.226562 63.003906 -218.890625 49.890625 -218.890625 Z M 0.703125 77.296875 C -2.335938 77.296875 -5.265625 77.175781 -8.078125 76.9375 C -10.890625 76.707031 -13.582031 76.359375 -16.15625 75.890625 C -24.820312 74.484375 -30.96875 70.851562 -34.59375 65 C -38.226562 59.144531 -39.695312 52.234375 -39 44.265625 C -38.289062 36.773438 -35.242188 32.441406 -29.859375 31.265625 C -24.472656 30.097656 -16.742188 29.863281 -6.671875 30.5625 C 1.753906 30.800781 8.660156 28.578125 14.046875 23.890625 C 19.441406 19.203125 22.140625 11.585938 22.140625 1.046875 C 22.140625 -9.953125 22.078125 -22.890625 21.953125 -37.765625 C 21.835938 -52.640625 21.78125 -70.148438 21.78125 -90.296875 C 21.78125 -102.710938 21.722656 -115.125 21.609375 -127.53125 C 21.492188 -139.945312 21.4375 -152.242188 21.4375 -164.421875 C 21.4375 -184.335938 30.921875 -194.296875 49.890625 -194.296875 C 68.628906 -194.296875 78 -184.335938 78 -164.421875 C 78 -152.242188 78.054688 -139.945312 78.171875 -127.53125 C 78.285156 -115.125 78.34375 -102.710938 78.34375 -90.296875 C 78.34375 -69.453125 78.34375 -51.296875 78.34375 -35.828125 C 78.34375 -20.367188 78.460938 -6.785156 78.703125 4.921875 C 78.929688 22.484375 75.882812 36.59375 69.5625 47.25 C 63.238281 57.90625 54.222656 65.578125 42.515625 70.265625 C 30.804688 74.953125 16.867188 77.296875 0.703125 77.296875 Z M 0.703125 77.296875 " />
                        </g>
                    </g>
                </g>
            </g>
        </g>
    </g>
</svg>