<svg xmlns="http://www.w3.org/2000/svg"
     xmlns:xlink="http://www.w3.org/1999/xlink"
     width="1070"
     zoomAndPan="magnify"
     viewBox="0 0 802.5 991.499974"
     height="1322"
     preserveAspectRatio="xMidYMid meet"
     version="1.2">
    <defs>
        <clipPath id="7f3d7e1496">
            <path d="M 0 563.214844 L 196 563.214844 L 196 758.792969 L 0 758.792969 Z M 0 563.214844 " />
        </clipPath>
        <clipPath id="c04b2c6ca0">
            <path d="M 195.582031 595.445312 L 195.582031 726.5625 C 195.582031 735.109375 192.1875 743.308594 186.144531 749.351562 C 180.101562 755.398438 171.902344 758.792969 163.355469 758.792969 L 32.230469 758.792969 C 23.683594 758.792969 15.484375 755.398438 9.441406 749.351562 C 3.394531 743.308594 0 735.109375 0 726.5625 L 0 595.445312 C 0 586.898438 3.394531 578.699219 9.441406 572.65625 C 15.484375 566.613281 23.683594 563.214844 32.230469 563.214844 L 163.355469 563.214844 C 171.902344 563.214844 180.101562 566.613281 186.144531 572.65625 C 192.1875 578.699219 195.582031 586.898438 195.582031 595.445312 Z M 195.582031 595.445312 " />
        </clipPath>
        <clipPath id="c10f910ad8">
            <path d="M 0 0.214844 L 195.71875 0.214844 L 195.71875 195.792969 L 0 195.792969 Z M 0 0.214844 " />
        </clipPath>
        <clipPath id="0afde457a7">
            <path d="M 195.582031 32.445312 L 195.582031 163.5625 C 195.582031 172.109375 192.1875 180.308594 186.144531 186.351562 C 180.101562 192.398438 171.902344 195.792969 163.355469 195.792969 L 32.230469 195.792969 C 23.683594 195.792969 15.484375 192.398438 9.441406 186.351562 C 3.394531 180.308594 0 172.109375 0 163.5625 L 0 32.445312 C 0 23.898438 3.394531 15.699219 9.441406 9.65625 C 15.484375 3.613281 23.683594 0.214844 32.230469 0.214844 L 163.355469 0.214844 C 171.902344 0.214844 180.101562 3.613281 186.144531 9.65625 C 192.1875 15.699219 195.582031 23.898438 195.582031 32.445312 Z M 195.582031 32.445312 " />
        </clipPath>
        <clipPath id="0ee7f12426">
            <rect x="0" width="196" y="0" height="196" />
        </clipPath>
        <clipPath id="7a00499da1">
            <path d="M 0 563.214844 L 195.628906 563.214844 L 195.628906 758.84375 L 0 758.84375 Z M 0 563.214844 " />
        </clipPath>
        <clipPath id="17dd896e79">
            <path d="M 195.578125 595.445312 L 195.578125 726.558594 C 195.578125 735.105469 192.183594 743.300781 186.140625 749.347656 C 180.09375 755.390625 171.898438 758.785156 163.351562 758.785156 L 32.230469 758.785156 C 23.683594 758.785156 15.484375 755.390625 9.441406 749.347656 C 3.398438 743.300781 0.00390625 735.105469 0.00390625 726.558594 L 0.00390625 595.445312 C 0.00390625 586.898438 3.398438 578.699219 9.441406 572.65625 C 15.484375 566.613281 23.683594 563.214844 32.230469 563.214844 L 163.351562 563.214844 C 171.898438 563.214844 180.09375 566.613281 186.140625 572.65625 C 192.183594 578.699219 195.578125 586.898438 195.578125 595.445312 Z M 195.578125 595.445312 " />
        </clipPath>
        <clipPath id="cb182c1d49">
            <path d="M 606.121094 563.214844 L 802 563.214844 L 802 758.792969 L 606.121094 758.792969 Z M 606.121094 563.214844 " />
        </clipPath>
        <clipPath id="696e6b4837">
            <path d="M 801.703125 595.445312 L 801.703125 726.5625 C 801.703125 735.109375 798.308594 743.308594 792.261719 749.351562 C 786.21875 755.398438 778.019531 758.792969 769.472656 758.792969 L 638.347656 758.792969 C 629.800781 758.792969 621.605469 755.398438 615.558594 749.351562 C 609.515625 743.308594 606.121094 735.109375 606.121094 726.5625 L 606.121094 595.445312 C 606.121094 586.898438 609.515625 578.699219 615.558594 572.65625 C 621.605469 566.613281 629.800781 563.214844 638.347656 563.214844 L 769.472656 563.214844 C 778.019531 563.214844 786.21875 566.613281 792.261719 572.65625 C 798.308594 578.699219 801.703125 586.898438 801.703125 595.445312 Z M 801.703125 595.445312 " />
        </clipPath>
        <clipPath id="89ef0a04da">
            <path d="M 0.121094 0.214844 L 195.820312 0.214844 L 195.820312 195.792969 L 0.121094 195.792969 Z M 0.121094 0.214844 " />
        </clipPath>
        <clipPath id="70100ee488">
            <path d="M 195.703125 32.445312 L 195.703125 163.5625 C 195.703125 172.109375 192.308594 180.308594 186.261719 186.351562 C 180.21875 192.398438 172.019531 195.792969 163.472656 195.792969 L 32.347656 195.792969 C 23.800781 195.792969 15.605469 192.398438 9.558594 186.351562 C 3.515625 180.308594 0.121094 172.109375 0.121094 163.5625 L 0.121094 32.445312 C 0.121094 23.898438 3.515625 15.699219 9.558594 9.65625 C 15.605469 3.613281 23.800781 0.214844 32.347656 0.214844 L 163.472656 0.214844 C 172.019531 0.214844 180.21875 3.613281 186.261719 9.65625 C 192.308594 15.699219 195.703125 23.898438 195.703125 32.445312 Z M 195.703125 32.445312 " />
        </clipPath>
        <clipPath id="2c7521cac9">
            <rect x="0" width="196" y="0" height="196" />
        </clipPath>
        <clipPath id="10f1a140d3">
            <path d="M 606.121094 563.214844 L 801.746094 563.214844 L 801.746094 758.84375 L 606.121094 758.84375 Z M 606.121094 563.214844 " />
        </clipPath>
        <clipPath id="b80ee2e4ca">
            <path d="M 801.699219 595.445312 L 801.699219 726.558594 C 801.699219 735.105469 798.304688 743.300781 792.257812 749.347656 C 786.214844 755.390625 778.015625 758.785156 769.46875 758.785156 L 638.351562 758.785156 C 629.804688 758.785156 621.605469 755.390625 615.5625 749.347656 C 609.515625 743.300781 606.121094 735.105469 606.121094 726.558594 L 606.121094 595.445312 C 606.121094 586.898438 609.515625 578.699219 615.5625 572.65625 C 621.605469 566.613281 629.804688 563.214844 638.351562 563.214844 L 769.46875 563.214844 C 778.015625 563.214844 786.214844 566.613281 792.257812 572.65625 C 798.304688 578.699219 801.699219 586.898438 801.699219 595.445312 Z M 801.699219 595.445312 " />
        </clipPath>
        <clipPath id="f6fb968ced">
            <path d="M 303.058594 563.214844 L 499 563.214844 L 499 758.792969 L 303.058594 758.792969 Z M 303.058594 563.214844 " />
        </clipPath>
        <clipPath id="46b8c202ca">
            <path d="M 498.644531 595.445312 L 498.644531 726.5625 C 498.644531 735.109375 495.246094 743.308594 489.203125 749.351562 C 483.160156 755.398438 474.960938 758.792969 466.414062 758.792969 L 335.289062 758.792969 C 326.742188 758.792969 318.542969 755.398438 312.5 749.351562 C 306.457031 743.308594 303.058594 735.109375 303.058594 726.5625 L 303.058594 595.445312 C 303.058594 586.898438 306.457031 578.699219 312.5 572.65625 C 318.542969 566.613281 326.742188 563.214844 335.289062 563.214844 L 466.414062 563.214844 C 474.960938 563.214844 483.160156 566.613281 489.203125 572.65625 C 495.246094 578.699219 498.644531 586.898438 498.644531 595.445312 Z M 498.644531 595.445312 " />
        </clipPath>
        <clipPath id="63902e7850">
            <path d="M 0.0585938 0.214844 L 195.648438 0.214844 L 195.648438 195.792969 L 0.0585938 195.792969 Z M 0.0585938 0.214844 " />
        </clipPath>
        <clipPath id="4d0ff21a03">
            <path d="M 195.644531 32.445312 L 195.644531 163.5625 C 195.644531 172.109375 192.246094 180.308594 186.203125 186.351562 C 180.160156 192.398438 171.960938 195.792969 163.414062 195.792969 L 32.289062 195.792969 C 23.742188 195.792969 15.542969 192.398438 9.5 186.351562 C 3.457031 180.308594 0.0585938 172.109375 0.0585938 163.5625 L 0.0585938 32.445312 C 0.0585938 23.898438 3.457031 15.699219 9.5 9.65625 C 15.542969 3.613281 23.742188 0.214844 32.289062 0.214844 L 163.414062 0.214844 C 171.960938 0.214844 180.160156 3.613281 186.203125 9.65625 C 192.246094 15.699219 195.644531 23.898438 195.644531 32.445312 Z M 195.644531 32.445312 " />
        </clipPath>
        <clipPath id="78e5380bdc">
            <rect x="0" width="196" y="0" height="196" />
        </clipPath>
        <clipPath id="349162bee3">
            <path d="M 303.058594 563.214844 L 498.6875 563.214844 L 498.6875 758.84375 L 303.058594 758.84375 Z M 303.058594 563.214844 " />
        </clipPath>
        <clipPath id="478b84ac11">
            <path d="M 498.640625 595.445312 L 498.640625 726.558594 C 498.640625 735.105469 495.242188 743.300781 489.199219 749.347656 C 483.15625 755.390625 474.957031 758.785156 466.410156 758.785156 L 335.289062 758.785156 C 326.742188 758.785156 318.546875 755.390625 312.5 749.347656 C 306.457031 743.300781 303.0625 735.105469 303.0625 726.558594 L 303.0625 595.445312 C 303.0625 586.898438 306.457031 578.699219 312.5 572.65625 C 318.546875 566.613281 326.742188 563.214844 335.289062 563.214844 L 466.410156 563.214844 C 474.957031 563.214844 483.15625 566.613281 489.199219 572.65625 C 495.242188 578.699219 498.640625 586.898438 498.640625 595.445312 Z M 498.640625 595.445312 " />
        </clipPath>
        <clipPath id="3175441068">
            <path d="M 0 794.699219 L 196 794.699219 L 196 990.273438 L 0 990.273438 Z M 0 794.699219 " />
        </clipPath>
        <clipPath id="22251b25e9">
            <path d="M 195.582031 826.925781 L 195.582031 958.042969 C 195.582031 966.59375 192.1875 974.789062 186.144531 980.835938 C 180.101562 986.878906 171.902344 990.273438 163.355469 990.273438 L 32.230469 990.273438 C 23.683594 990.273438 15.484375 986.878906 9.441406 980.835938 C 3.394531 974.789062 0 966.59375 0 958.042969 L 0 826.925781 C 0 818.378906 3.394531 810.179688 9.441406 804.136719 C 15.484375 798.09375 23.683594 794.699219 32.230469 794.699219 L 163.355469 794.699219 C 171.902344 794.699219 180.101562 798.09375 186.144531 804.136719 C 192.1875 810.179688 195.582031 818.378906 195.582031 826.925781 Z M 195.582031 826.925781 " />
        </clipPath>
        <clipPath id="7d2e4d093c">
            <path d="M 0 0.699219 L 195.71875 0.699219 L 195.71875 196.273438 L 0 196.273438 Z M 0 0.699219 " />
        </clipPath>
        <clipPath id="35566322c8">
            <path d="M 195.582031 32.925781 L 195.582031 164.042969 C 195.582031 172.59375 192.1875 180.789062 186.144531 186.835938 C 180.101562 192.878906 171.902344 196.273438 163.355469 196.273438 L 32.230469 196.273438 C 23.683594 196.273438 15.484375 192.878906 9.441406 186.835938 C 3.394531 180.789062 0 172.59375 0 164.042969 L 0 32.925781 C 0 24.378906 3.394531 16.179688 9.441406 10.136719 C 15.484375 4.09375 23.683594 0.699219 32.230469 0.699219 L 163.355469 0.699219 C 171.902344 0.699219 180.101562 4.09375 186.144531 10.136719 C 192.1875 16.179688 195.582031 24.378906 195.582031 32.925781 Z M 195.582031 32.925781 " />
        </clipPath>
        <clipPath id="f128b9427c">
            <rect x="0" width="196" y="0" height="197" />
        </clipPath>
        <clipPath id="953728df73">
            <path d="M 0 794.699219 L 195.628906 794.699219 L 195.628906 990.324219 L 0 990.324219 Z M 0 794.699219 " />
        </clipPath>
        <clipPath id="b19dbb1977">
            <path d="M 195.578125 826.925781 L 195.578125 958.039062 C 195.578125 966.585938 192.183594 974.785156 186.140625 980.828125 C 180.09375 986.871094 171.898438 990.265625 163.351562 990.265625 L 32.230469 990.265625 C 23.683594 990.265625 15.484375 986.871094 9.441406 980.828125 C 3.398438 974.785156 0.00390625 966.585938 0.00390625 958.039062 L 0.00390625 826.925781 C 0.00390625 818.378906 3.398438 810.179688 9.441406 804.136719 C 15.484375 798.09375 23.683594 794.699219 32.230469 794.699219 L 163.351562 794.699219 C 171.898438 794.699219 180.09375 798.09375 186.140625 804.136719 C 192.183594 810.179688 195.578125 818.378906 195.578125 826.925781 Z M 195.578125 826.925781 " />
        </clipPath>
        <clipPath id="59aa757306">
            <path d="M 606.121094 794.699219 L 802 794.699219 L 802 990.273438 L 606.121094 990.273438 Z M 606.121094 794.699219 " />
        </clipPath>
        <clipPath id="f64322c68f">
            <path d="M 801.703125 826.925781 L 801.703125 958.042969 C 801.703125 966.59375 798.308594 974.789062 792.261719 980.835938 C 786.21875 986.878906 778.019531 990.273438 769.472656 990.273438 L 638.347656 990.273438 C 629.800781 990.273438 621.605469 986.878906 615.558594 980.835938 C 609.515625 974.789062 606.121094 966.59375 606.121094 958.042969 L 606.121094 826.925781 C 606.121094 818.378906 609.515625 810.179688 615.558594 804.136719 C 621.605469 798.09375 629.800781 794.699219 638.347656 794.699219 L 769.472656 794.699219 C 778.019531 794.699219 786.21875 798.09375 792.261719 804.136719 C 798.308594 810.179688 801.703125 818.378906 801.703125 826.925781 Z M 801.703125 826.925781 " />
        </clipPath>
        <clipPath id="40b8c662fa">
            <path d="M 0.121094 0.699219 L 195.820312 0.699219 L 195.820312 196.273438 L 0.121094 196.273438 Z M 0.121094 0.699219 " />
        </clipPath>
        <clipPath id="d70689c540">
            <path d="M 195.703125 32.925781 L 195.703125 164.042969 C 195.703125 172.59375 192.308594 180.789062 186.261719 186.835938 C 180.21875 192.878906 172.019531 196.273438 163.472656 196.273438 L 32.347656 196.273438 C 23.800781 196.273438 15.605469 192.878906 9.558594 186.835938 C 3.515625 180.789062 0.121094 172.59375 0.121094 164.042969 L 0.121094 32.925781 C 0.121094 24.378906 3.515625 16.179688 9.558594 10.136719 C 15.605469 4.09375 23.800781 0.699219 32.347656 0.699219 L 163.472656 0.699219 C 172.019531 0.699219 180.21875 4.09375 186.261719 10.136719 C 192.308594 16.179688 195.703125 24.378906 195.703125 32.925781 Z M 195.703125 32.925781 " />
        </clipPath>
        <clipPath id="214dff0a40">
            <rect x="0" width="196" y="0" height="197" />
        </clipPath>
        <clipPath id="ed65634f66">
            <path d="M 606.121094 794.699219 L 801.746094 794.699219 L 801.746094 990.324219 L 606.121094 990.324219 Z M 606.121094 794.699219 " />
        </clipPath>
        <clipPath id="4857b7422f">
            <path d="M 801.699219 826.925781 L 801.699219 958.039062 C 801.699219 966.585938 798.304688 974.785156 792.257812 980.828125 C 786.214844 986.871094 778.015625 990.265625 769.46875 990.265625 L 638.351562 990.265625 C 629.804688 990.265625 621.605469 986.871094 615.5625 980.828125 C 609.515625 974.785156 606.121094 966.585938 606.121094 958.039062 L 606.121094 826.925781 C 606.121094 818.378906 609.515625 810.179688 615.5625 804.136719 C 621.605469 798.09375 629.804688 794.699219 638.351562 794.699219 L 769.46875 794.699219 C 778.015625 794.699219 786.214844 798.09375 792.257812 804.136719 C 798.304688 810.179688 801.699219 818.378906 801.699219 826.925781 Z M 801.699219 826.925781 " />
        </clipPath>
        <clipPath id="481985ec3d">
            <path d="M 303.058594 794.699219 L 499 794.699219 L 499 990.273438 L 303.058594 990.273438 Z M 303.058594 794.699219 " />
        </clipPath>
        <clipPath id="4b253db7cc">
            <path d="M 498.644531 826.925781 L 498.644531 958.042969 C 498.644531 966.59375 495.246094 974.789062 489.203125 980.835938 C 483.160156 986.878906 474.960938 990.273438 466.414062 990.273438 L 335.289062 990.273438 C 326.742188 990.273438 318.542969 986.878906 312.5 980.835938 C 306.457031 974.789062 303.058594 966.59375 303.058594 958.042969 L 303.058594 826.925781 C 303.058594 818.378906 306.457031 810.179688 312.5 804.136719 C 318.542969 798.09375 326.742188 794.699219 335.289062 794.699219 L 466.414062 794.699219 C 474.960938 794.699219 483.160156 798.09375 489.203125 804.136719 C 495.246094 810.179688 498.644531 818.378906 498.644531 826.925781 Z M 498.644531 826.925781 " />
        </clipPath>
        <clipPath id="64b61419dd">
            <path d="M 0.0585938 0.699219 L 195.648438 0.699219 L 195.648438 196.273438 L 0.0585938 196.273438 Z M 0.0585938 0.699219 " />
        </clipPath>
        <clipPath id="17f57d3f15">
            <path d="M 195.644531 32.925781 L 195.644531 164.042969 C 195.644531 172.59375 192.246094 180.789062 186.203125 186.835938 C 180.160156 192.878906 171.960938 196.273438 163.414062 196.273438 L 32.289062 196.273438 C 23.742188 196.273438 15.542969 192.878906 9.5 186.835938 C 3.457031 180.789062 0.0585938 172.59375 0.0585938 164.042969 L 0.0585938 32.925781 C 0.0585938 24.378906 3.457031 16.179688 9.5 10.136719 C 15.542969 4.09375 23.742188 0.699219 32.289062 0.699219 L 163.414062 0.699219 C 171.960938 0.699219 180.160156 4.09375 186.203125 10.136719 C 192.246094 16.179688 195.644531 24.378906 195.644531 32.925781 Z M 195.644531 32.925781 " />
        </clipPath>
        <clipPath id="f1df714630">
            <rect x="0" width="196" y="0" height="197" />
        </clipPath>
        <clipPath id="aec68f6bb1">
            <path d="M 303.058594 794.699219 L 498.6875 794.699219 L 498.6875 990.324219 L 303.058594 990.324219 Z M 303.058594 794.699219 " />
        </clipPath>
        <clipPath id="d0c267c531">
            <path d="M 498.640625 826.925781 L 498.640625 958.039062 C 498.640625 966.585938 495.242188 974.785156 489.199219 980.828125 C 483.15625 986.871094 474.957031 990.265625 466.410156 990.265625 L 335.289062 990.265625 C 326.742188 990.265625 318.546875 986.871094 312.5 980.828125 C 306.457031 974.785156 303.0625 966.585938 303.0625 958.039062 L 303.0625 826.925781 C 303.0625 818.378906 306.457031 810.179688 312.5 804.136719 C 318.546875 798.09375 326.742188 794.699219 335.289062 794.699219 L 466.410156 794.699219 C 474.957031 794.699219 483.15625 798.09375 489.199219 804.136719 C 495.242188 810.179688 498.640625 818.378906 498.640625 826.925781 Z M 498.640625 826.925781 " />
        </clipPath>
        <clipPath id="b2d2a2b955">
            <rect x="0" width="169" y="0" height="423" />
        </clipPath>
        <clipPath id="9e61394269">
            <path d="M 0.0625 55 L 127 55 L 127 412 L 0.0625 412 Z M 0.0625 55 " />
        </clipPath>
        <clipPath id="54b2a32a33">
            <rect x="0" width="143" y="0" height="423" />
        </clipPath>
    </defs>
    <g id="f4cff86a34">
        <g clip-rule="nonzero" clip-path="url(#7f3d7e1496)">
            <g clip-rule="nonzero" clip-path="url(#c04b2c6ca0)">
                <g transform="matrix(1,0,0,1,0,563)">
                    <g clip-path="url(#0ee7f12426)">
                        <g clip-rule="nonzero" clip-path="url(#c10f910ad8)">
                            <g clip-rule="nonzero" clip-path="url(#0afde457a7)">
                                <path style=" stroke:none;fill-rule:nonzero;fill:#00bf63;fill-opacity:0;" d="M 0 0.214844 L 195.578125 0.214844 L 195.578125 195.792969 L 0 195.792969 Z M 0 0.214844 " />
                            </g>
                        </g>
                    </g>
                </g>
            </g>
        </g>
        <g clip-rule="nonzero" clip-path="url(#7a00499da1)">
            <g clip-rule="nonzero" clip-path="url(#17dd896e79)">
                <path style="fill:none;stroke-width:30;stroke-linecap:butt;stroke-linejoin:miter;stroke:#fefefe;stroke-opacity:1;stroke-miterlimit:4;" d="M 260.930316 42.999002 L 260.930316 217.92565 C 260.930316 229.328585 256.401454 240.262477 248.339141 248.330002 C 240.271617 256.392314 229.337724 260.921176 217.934789 260.921176 L 42.997719 260.921176 C 31.594784 260.921176 20.65568 256.392314 12.593367 248.330002 C 4.531054 240.262477 0.00219237 229.328585 0.00219237 217.92565 L 0.00219237 42.999002 C 0.00219237 31.596068 4.531054 20.656964 12.593367 12.594651 C 20.65568 4.532338 31.594784 -0.00173546 42.997719 -0.00173546 L 217.934789 -0.00173546 C 229.337724 -0.00173546 240.271617 4.532338 248.339141 12.594651 C 256.401454 20.656964 260.930316 31.596068 260.930316 42.999002 Z M 260.930316 42.999002 " transform="matrix(0.749533,0,0,0.749533,0.002263,563.216145)" />
            </g>
        </g>
        <g clip-rule="nonzero" clip-path="url(#cb182c1d49)">
            <g clip-rule="nonzero" clip-path="url(#696e6b4837)">
                <g transform="matrix(1,0,0,1,606,563)">
                    <g clip-path="url(#2c7521cac9)">
                        <g clip-rule="nonzero" clip-path="url(#89ef0a04da)">
                            <g clip-rule="nonzero" clip-path="url(#70100ee488)">
                                <path style=" stroke:none;fill-rule:nonzero;fill:#00bf63;fill-opacity:0;" d="M 0.121094 0.214844 L 195.695312 0.214844 L 195.695312 195.792969 L 0.121094 195.792969 Z M 0.121094 0.214844 " />
                            </g>
                        </g>
                    </g>
                </g>
            </g>
        </g>
        <g clip-rule="nonzero" clip-path="url(#10f1a140d3)">
            <g clip-rule="nonzero" clip-path="url(#b80ee2e4ca)">
                <path style="fill:none;stroke-width:30;stroke-linecap:butt;stroke-linejoin:miter;stroke:#fefefe;stroke-opacity:1;stroke-miterlimit:4;" d="M 260.932562 42.999002 L 260.932562 217.92565 C 260.932562 229.328585 256.4037 240.262477 248.336176 248.330002 C 240.273863 256.392314 229.334759 260.921176 217.931824 260.921176 L 42.999965 260.921176 C 31.597031 260.921176 20.657926 256.392314 12.595614 248.330002 C 4.52809 240.262477 -0.000772584 229.328585 -0.000772584 217.92565 L -0.000772584 42.999002 C -0.000772584 31.596068 4.52809 20.656964 12.595614 12.594651 C 20.657926 4.532338 31.597031 -0.00173546 42.999965 -0.00173546 L 217.931824 -0.00173546 C 229.334759 -0.00173546 240.273863 4.532338 248.336176 12.594651 C 256.4037 20.656964 260.932562 31.596068 260.932562 42.999002 Z M 260.932562 42.999002 " transform="matrix(0.749533,0,0,0.749533,606.121673,563.216145)" />
            </g>
        </g>
        <g clip-rule="nonzero" clip-path="url(#f6fb968ced)">
            <g clip-rule="nonzero" clip-path="url(#46b8c202ca)">
                <g transform="matrix(1,0,0,1,303,563)">
                    <g clip-path="url(#78e5380bdc)">
                        <g clip-rule="nonzero" clip-path="url(#63902e7850)">
                            <g clip-rule="nonzero" clip-path="url(#4d0ff21a03)">
                                <path style=" stroke:none;fill-rule:nonzero;fill:#00bf63;fill-opacity:0;" d="M 0.0585938 0.214844 L 195.636719 0.214844 L 195.636719 195.792969 L 0.0585938 195.792969 Z M 0.0585938 0.214844 " />
                            </g>
                        </g>
                    </g>
                </g>
            </g>
        </g>
        <g clip-rule="nonzero" clip-path="url(#349162bee3)">
            <g clip-rule="nonzero" clip-path="url(#478b84ac11)">
                <path style="fill:none;stroke-width:30;stroke-linecap:butt;stroke-linejoin:miter;stroke:#fefefe;stroke-opacity:1;stroke-miterlimit:4;" d="M 260.928864 42.999002 L 260.928864 217.92565 C 260.928864 229.328585 256.400002 240.262477 248.33769 248.330002 C 240.275377 256.392314 229.336273 260.921176 217.933338 260.921176 L 42.996267 260.921176 C 31.593333 260.921176 20.65944 256.392314 12.591916 248.330002 C 4.529603 240.262477 0.000741097 229.328585 0.000741097 217.92565 L 0.000741097 42.999002 C 0.000741097 31.596068 4.529603 20.656964 12.591916 12.594651 C 20.65944 4.532338 31.593333 -0.00173546 42.996267 -0.00173546 L 217.933338 -0.00173546 C 229.336273 -0.00173546 240.275377 4.532338 248.33769 12.594651 C 256.400002 20.656964 260.928864 31.596068 260.928864 42.999002 Z M 260.928864 42.999002 " transform="matrix(0.749533,0,0,0.749533,303.061945,563.216145)" />
            </g>
        </g>
        <g clip-rule="nonzero" clip-path="url(#3175441068)">
            <g clip-rule="nonzero" clip-path="url(#22251b25e9)">
                <g transform="matrix(1,0,0,1,0,794)">
                    <g clip-path="url(#f128b9427c)">
                        <g clip-rule="nonzero" clip-path="url(#7d2e4d093c)">
                            <g clip-rule="nonzero" clip-path="url(#35566322c8)">
                                <path style=" stroke:none;fill-rule:nonzero;fill:#00bf63;fill-opacity:0;" d="M 0 0.699219 L 195.578125 0.699219 L 195.578125 196.273438 L 0 196.273438 Z M 0 0.699219 " />
                            </g>
                        </g>
                    </g>
                </g>
            </g>
        </g>
        <g clip-rule="nonzero" clip-path="url(#953728df73)">
            <g clip-rule="nonzero" clip-path="url(#b19dbb1977)">
                <path style="fill:none;stroke-width:30;stroke-linecap:butt;stroke-linejoin:miter;stroke:#fefefe;stroke-opacity:1;stroke-miterlimit:4;" d="M 260.930316 42.99802 L 260.930316 217.924667 C 260.930316 229.327602 256.401454 240.266706 248.339141 248.329019 C 240.271617 256.391332 229.337724 260.920194 217.934789 260.920194 L 42.997719 260.920194 C 31.594784 260.920194 20.65568 256.391332 12.593367 248.329019 C 4.531054 240.266706 0.00219237 229.327602 0.00219237 217.924667 L 0.00219237 42.99802 C 0.00219237 31.595085 4.531054 20.655981 12.593367 12.593668 C 20.65568 4.531356 31.594784 0.00249345 42.997719 0.00249345 L 217.934789 0.00249345 C 229.337724 0.00249345 240.271617 4.531356 248.339141 12.593668 C 256.401454 20.655981 260.930316 31.595085 260.930316 42.99802 Z M 260.930316 42.99802 " transform="matrix(0.749533,0,0,0.749533,0.002263,794.69735)" />
            </g>
        </g>
        <g clip-rule="nonzero" clip-path="url(#59aa757306)">
            <g clip-rule="nonzero" clip-path="url(#f64322c68f)">
                <g transform="matrix(1,0,0,1,606,794)">
                    <g clip-path="url(#214dff0a40)">
                        <g clip-rule="nonzero" clip-path="url(#40b8c662fa)">
                            <g clip-rule="nonzero" clip-path="url(#d70689c540)">
                                <path style=" stroke:none;fill-rule:nonzero;fill:#00bf63;fill-opacity:0;" d="M 0.121094 0.699219 L 195.695312 0.699219 L 195.695312 196.273438 L 0.121094 196.273438 Z M 0.121094 0.699219 " />
                            </g>
                        </g>
                    </g>
                </g>
            </g>
        </g>
        <g clip-rule="nonzero" clip-path="url(#ed65634f66)">
            <g clip-rule="nonzero" clip-path="url(#4857b7422f)">
                <path style="fill:none;stroke-width:30;stroke-linecap:butt;stroke-linejoin:miter;stroke:#fefefe;stroke-opacity:1;stroke-miterlimit:4;" d="M 260.932562 42.99802 L 260.932562 217.924667 C 260.932562 229.327602 256.4037 240.266706 248.336176 248.329019 C 240.273863 256.391332 229.334759 260.920194 217.931824 260.920194 L 42.999965 260.920194 C 31.597031 260.920194 20.657926 256.391332 12.595614 248.329019 C 4.52809 240.266706 -0.000772584 229.327602 -0.000772584 217.924667 L -0.000772584 42.99802 C -0.000772584 31.595085 4.52809 20.655981 12.595614 12.593668 C 20.657926 4.531356 31.597031 0.00249345 42.999965 0.00249345 L 217.931824 0.00249345 C 229.334759 0.00249345 240.273863 4.531356 248.336176 12.593668 C 256.4037 20.655981 260.932562 31.595085 260.932562 42.99802 Z M 260.932562 42.99802 " transform="matrix(0.749533,0,0,0.749533,606.121673,794.69735)" />
            </g>
        </g>
        <g clip-rule="nonzero" clip-path="url(#481985ec3d)">
            <g clip-rule="nonzero" clip-path="url(#4b253db7cc)">
                <g transform="matrix(1,0,0,1,303,794)">
                    <g clip-path="url(#f1df714630)">
                        <g clip-rule="nonzero" clip-path="url(#64b61419dd)">
                            <g clip-rule="nonzero" clip-path="url(#17f57d3f15)">
                                <path style=" stroke:none;fill-rule:nonzero;fill:#00bf63;fill-opacity:0;" d="M 0.0585938 0.699219 L 195.636719 0.699219 L 195.636719 196.273438 L 0.0585938 196.273438 Z M 0.0585938 0.699219 " />
                            </g>
                        </g>
                    </g>
                </g>
            </g>
        </g>
        <g clip-rule="nonzero" clip-path="url(#aec68f6bb1)">
            <g clip-rule="nonzero" clip-path="url(#d0c267c531)">
                <path style="fill:none;stroke-width:30;stroke-linecap:butt;stroke-linejoin:miter;stroke:#fefefe;stroke-opacity:1;stroke-miterlimit:4;" d="M 260.928864 42.99802 L 260.928864 217.924667 C 260.928864 229.327602 256.400002 240.266706 248.33769 248.329019 C 240.275377 256.391332 229.336273 260.920194 217.933338 260.920194 L 42.996267 260.920194 C 31.593333 260.920194 20.65944 256.391332 12.591916 248.329019 C 4.529603 240.266706 0.000741097 229.327602 0.000741097 217.924667 L 0.000741097 42.99802 C 0.000741097 31.595085 4.529603 20.655981 12.591916 12.593668 C 20.65944 4.531356 31.593333 0.00249345 42.996267 0.00249345 L 217.933338 0.00249345 C 229.336273 0.00249345 240.275377 4.531356 248.33769 12.593668 C 256.400002 20.655981 260.928864 31.595085 260.928864 42.99802 Z M 260.928864 42.99802 " transform="matrix(0.749533,0,0,0.749533,303.061945,794.69735)" />
            </g>
        </g>
        <g transform="matrix(1,0,0,1,248,95)">
            <g clip-path="url(#b2d2a2b955)">
                <g style="fill:#fefefe;fill-opacity:1;">
                    <g transform="translate(1.08383, 333.923076)">
                        <path style="stroke:none" d="M 160.21875 -224.515625 C 159.507812 -217.015625 156.519531 -212.675781 151.25 -211.5 C 145.976562 -210.332031 138.191406 -210.101562 127.890625 -210.8125 C 119.453125 -211.28125 112.539062 -209.113281 107.15625 -204.3125 C 101.769531 -199.507812 99.078125 -191.835938 99.078125 -181.296875 L 99.078125 -165.828125 L 124.734375 -165.828125 C 144.640625 -165.828125 154.59375 -158.453125 154.59375 -143.703125 C 154.59375 -128.710938 145.335938 -121.21875 126.828125 -121.21875 L 99.078125 -120.859375 C 99.078125 -118.046875 99.132812 -115.234375 99.25 -112.421875 C 99.375 -109.617188 99.4375 -106.8125 99.4375 -104 C 99.4375 -91.820312 99.492188 -79.523438 99.609375 -67.109375 C 99.722656 -54.691406 99.78125 -42.273438 99.78125 -29.859375 C 99.78125 -9.953125 90.410156 0 71.671875 0 C 52.703125 0 43.21875 -9.953125 43.21875 -29.859375 C 43.21875 -42.273438 43.15625 -54.691406 43.03125 -67.109375 C 42.914062 -79.523438 42.859375 -91.820312 42.859375 -104 L 42.859375 -120.515625 L 40.046875 -120.515625 C 20.140625 -120.515625 10.1875 -128.125 10.1875 -143.34375 C 10.1875 -158.332031 15.691406 -165.828125 26.703125 -165.828125 L 42.859375 -165.828125 C 42.628906 -169.109375 42.515625 -172.390625 42.515625 -175.671875 C 42.515625 -178.953125 42.515625 -182.113281 42.515625 -185.15625 C 42.273438 -202.957031 45.316406 -217.128906 51.640625 -227.671875 C 57.972656 -238.210938 67.050781 -245.820312 78.875 -250.5 C 90.707031 -255.1875 104.585938 -257.53125 120.515625 -257.53125 C 123.554688 -257.53125 126.484375 -257.410156 129.296875 -257.171875 C 132.109375 -256.941406 134.800781 -256.59375 137.375 -256.125 C 146.269531 -254.71875 152.472656 -251.085938 155.984375 -245.234375 C 159.503906 -239.378906 160.914062 -232.472656 160.21875 -224.515625 Z M 160.21875 -224.515625 " />
                    </g>
                </g>
            </g>
        </g>
        <g transform="matrix(1,0,0,1,412,95)">
            <g clip-path="url(#54b2a32a33)">
                <g clip-rule="nonzero" clip-path="url(#9e61394269)">
                    <g style="fill:#fefefe;fill-opacity:1;">
                        <g transform="translate(40.484506, 333.923076)">
                            <path style="stroke:none" d="M 49.890625 -218.890625 C 37.003906 -218.890625 27.691406 -221.226562 21.953125 -225.90625 C 16.210938 -230.59375 13.34375 -238.207031 13.34375 -248.75 C 13.34375 -259.289062 16.210938 -266.898438 21.953125 -271.578125 C 27.691406 -276.265625 37.003906 -278.609375 49.890625 -278.609375 C 63.003906 -278.609375 72.375 -276.265625 78 -271.578125 C 83.625 -266.898438 86.4375 -259.289062 86.4375 -248.75 C 86.4375 -238.207031 83.625 -230.59375 78 -225.90625 C 72.375 -221.226562 63.003906 -218.890625 49.890625 -218.890625 Z M 0.703125 77.296875 C -2.335938 77.296875 -5.265625 77.175781 -8.078125 76.9375 C -10.890625 76.707031 -13.582031 76.359375 -16.15625 75.890625 C -24.820312 74.484375 -30.96875 70.851562 -34.59375 65 C -38.226562 59.144531 -39.695312 52.234375 -39 44.265625 C -38.289062 36.773438 -35.242188 32.441406 -29.859375 31.265625 C -24.472656 30.097656 -16.742188 29.863281 -6.671875 30.5625 C 1.753906 30.800781 8.660156 28.578125 14.046875 23.890625 C 19.441406 19.203125 22.140625 11.585938 22.140625 1.046875 C 22.140625 -9.953125 22.078125 -22.890625 21.953125 -37.765625 C 21.835938 -52.640625 21.78125 -70.148438 21.78125 -90.296875 C 21.78125 -102.710938 21.722656 -115.125 21.609375 -127.53125 C 21.492188 -139.945312 21.4375 -152.242188 21.4375 -164.421875 C 21.4375 -184.335938 30.921875 -194.296875 49.890625 -194.296875 C 68.628906 -194.296875 78 -184.335938 78 -164.421875 C 78 -152.242188 78.054688 -139.945312 78.171875 -127.53125 C 78.285156 -115.125 78.34375 -102.710938 78.34375 -90.296875 C 78.34375 -69.453125 78.34375 -51.296875 78.34375 -35.828125 C 78.34375 -20.367188 78.460938 -6.785156 78.703125 4.921875 C 78.929688 22.484375 75.882812 36.59375 69.5625 47.25 C 63.238281 57.90625 54.222656 65.578125 42.515625 70.265625 C 30.804688 74.953125 16.867188 77.296875 0.703125 77.296875 Z M 0.703125 77.296875 " />
                        </g>
                    </g>
                </g>
            </g>
        </g>
    </g>
</svg>