<svg xmlns="http://www.w3.org/2000/svg" xmlns:xlink="http://www.w3.org/1999/xlink" width="1070" zoomAndPan="magnify" viewBox="0 0 802.5 878.249978" height="1171" preserveAspectRatio="xMidYMid meet" version="1.2"><defs><clipPath id="2945bdc123"><path d="M 0.09375 0.113281 L 743.375 0.113281 L 743.375 876.75 L 0.09375 876.75 Z M 0.09375 0.113281 "/></clipPath><clipPath id="0c61370a10"><rect x="0" width="169" y="0" height="423"/></clipPath><clipPath id="27911e9927"><path d="M 0.046875 55 L 127 55 L 127 412 L 0.046875 412 Z M 0.046875 55 "/></clipPath><clipPath id="c293898ff2"><rect x="0" width="142" y="0" height="423"/></clipPath></defs><g id="d061e8589f"><g clip-rule="nonzero" clip-path="url(#2945bdc123)"><path style=" stroke:none;fill-rule:nonzero;fill:#545454;fill-opacity:1;" d="M 736.519531 752.164062 C 729.851562 808.789062 691.558594 832.765625 677.445312 832.765625 C 673.730469 832.765625 663.640625 831.238281 649.683594 829.128906 C 613.214844 823.621094 545.332031 813.359375 476.34375 813.359375 C 402.355469 813.359375 273.648438 845.839844 220.277344 860.230469 C 229.722656 853.339844 236.527344 845.269531 241.265625 838.15625 C 251.953125 822.085938 256.75 803.960938 256.761719 793.117188 L 256.757812 793.117188 C 256.757812 793.117188 256.761719 793.117188 256.761719 793.113281 C 256.761719 756.050781 248.296875 729.160156 231.605469 713.1875 C 225.339844 707.183594 217.933594 702.828125 209.460938 700.125 C 220.140625 700.125 231.949219 700.84375 244.953125 702.292969 C 266.617188 704.699219 287.234375 707.035156 307.167969 709.292969 C 394.476562 719.191406 463.4375 727.003906 501.039062 727.003906 C 521.714844 727.003906 556.953125 719.8125 595.296875 707.769531 C 613.101562 702.175781 633.65625 694.765625 647.355469 688.050781 C 647.410156 688.03125 647.472656 688.015625 647.527344 687.984375 C 668.75 677.226562 705.503906 661.039062 713.753906 663.394531 C 723.820312 666.269531 743.535156 692.621094 736.519531 752.164062 Z M 187.625 749.855469 C 186.722656 749.855469 185.871094 750.289062 185.339844 751.015625 C 184.308594 752.4375 184.722656 753.710938 186.097656 757.921875 C 188.691406 765.910156 194.101562 782.527344 187.648438 793.667969 C 184.597656 798.933594 179.058594 802.457031 171.195312 804.128906 C 163.113281 804.878906 152.816406 800.367188 144.921875 792.621094 C 138.835938 786.640625 128.882812 773.441406 130.621094 752.171875 C 131.957031 735.789062 137.285156 724.277344 147.382812 715.957031 C 155.644531 709.144531 167.042969 704.546875 181.769531 702.128906 C 182.097656 702.257812 182.457031 702.316406 182.828125 702.304688 C 201.632812 701.488281 216.789062 706.445312 227.890625 717.070312 C 236.871094 725.664062 242.566406 737.351562 246.097656 749.855469 Z M 191.210938 756.261719 C 191.097656 755.921875 190.984375 755.574219 190.875 755.234375 L 247.480469 755.234375 C 250.136719 766.707031 251.148438 778.574219 251.34375 789.160156 C 244.90625 788.777344 231.367188 791.445312 204.292969 797.519531 C 198.917969 798.722656 193.660156 799.898438 188.867188 800.925781 C 190.191406 799.550781 191.335938 798.027344 192.300781 796.363281 C 199.957031 783.144531 194.046875 764.988281 191.210938 756.261719 Z M 183.078125 869.84375 C 147.75 875.582031 62.203125 874.554688 30.886719 741.34375 C 12.652344 663.765625 47.285156 518.128906 77.84375 389.640625 C 98.242188 303.847656 117.515625 222.824219 117.398438 175.683594 C 117.21875 102.472656 103.214844 58.261719 75.777344 44.277344 C 69.15625 40.90625 61.910156 39.117188 55.503906 39.117188 C 45.753906 39.117188 37.285156 42.585938 30.683594 45.585938 C 40.019531 36.503906 55.261719 30.746094 76.199219 28.421875 C 80.800781 27.910156 102.085938 29.804688 129.039062 32.214844 C 193.679688 37.984375 301.875 47.632812 378.78125 43.226562 C 458.628906 38.640625 507.535156 25.15625 543.246094 15.308594 C 561.726562 10.214844 576.328125 6.191406 588.472656 5.582031 C 632.40625 3.410156 664.949219 41.910156 685.214844 120.078125 C 709.859375 215.140625 681.867188 355.097656 657.167969 478.582031 C 639.886719 564.984375 650.050781 621.96875 655.503906 652.585938 C 657.441406 663.472656 659.117188 672.871094 657.570312 675.199219 C 650.527344 685.761719 548.757812 721.628906 501.039062 721.628906 C 463.742188 721.628906 394.914062 713.828125 307.773438 703.949219 C 287.835938 701.691406 267.214844 699.355469 245.546875 696.949219 C 196 691.445312 162.773438 696.300781 143.964844 711.804688 C 132.820312 720.988281 126.703125 734.046875 125.261719 751.738281 C 123.84375 769.113281 129.488281 784.996094 141.152344 796.457031 C 150.324219 805.460938 162.09375 810.4375 171.871094 809.46875 C 178.558594 808.800781 191.628906 805.871094 205.46875 802.765625 C 220.621094 799.367188 245.386719 793.828125 251.351562 794.460938 C 251.003906 802.535156 247.648438 818.851562 236.785156 835.171875 C 227.957031 848.441406 211.46875 865.234375 183.078125 869.84375 Z M 63.933594 142.285156 C 63.207031 139.46875 62.34375 136.105469 62.140625 134.28125 L 110.097656 134.28125 C 111.269531 146.144531 111.910156 159.132812 112.007812 173.203125 L 63.796875 178.996094 C 70.808594 169.082031 66.695312 153.042969 63.933594 142.285156 Z M 11.949219 161.371094 C 5.667969 147.71875 3.699219 127.355469 6.539062 105.5 C 9.113281 85.699219 15.457031 66.761719 23.140625 55.910156 C 26.113281 50.933594 51.269531 37.792969 73.363281 49.082031 C 92.308594 58.757812 104.566406 86.042969 109.523438 128.902344 L 60.609375 128.902344 C 59.417969 128.902344 58.371094 129.40625 57.660156 130.320312 C 55.890625 132.597656 56.898438 136.515625 58.722656 143.625 C 61.324219 153.742188 65.253906 169.039062 58.789062 176.699219 C 57.554688 178.15625 52.296875 183.378906 39.078125 181.832031 C 26.894531 180.410156 17.726562 173.933594 11.949219 161.371094 Z M 736.640625 684.570312 C 731.433594 670.417969 723.429688 660.566406 715.234375 658.226562 C 707.332031 655.96875 685.222656 664.617188 667.816406 672.394531 C 665.835938 673.277344 663.601562 671.898438 663.476562 669.730469 C 663.230469 665.300781 662.179688 659.414062 660.796875 651.640625 C 655.402344 621.375 645.359375 565.039062 662.445312 479.636719 C 687.257812 355.585938 715.371094 214.984375 690.417969 118.726562 C 669.421875 37.746094 635.007812 -2.144531 588.203125 0.210938 C 575.464844 0.847656 560.617188 4.945312 541.816406 10.125 C 506.339844 19.90625 457.75 33.300781 378.472656 37.855469 C 301.960938 42.25 194.011719 32.613281 129.515625 26.855469 C 100.148438 24.234375 80.742188 22.5 75.605469 23.078125 C 46.257812 26.335938 27.378906 36.929688 17.890625 52.5625 C 2.492188 77.9375 -7.230469 132.550781 7.066406 163.621094 C 13.617188 177.871094 24.535156 186.015625 38.632812 187.191406 C 40.261719 187.328125 41.820312 187.398438 43.3125 187.398438 C 47.972656 187.398438 51.976562 186.730469 55.328125 185.425781 L 112 178.621094 C 111.34375 225.527344 92.519531 304.6875 72.613281 388.394531 C 41.917969 517.46875 7.128906 663.761719 25.652344 742.574219 C 39.15625 800.007812 64.183594 839.730469 100.046875 860.644531 C 122.082031 873.492188 144.554688 876.890625 162.164062 876.890625 C 170.800781 876.890625 178.269531 876.074219 183.941406 875.148438 C 188.390625 874.429688 192.5625 873.421875 196.480469 872.1875 C 196.578125 872.199219 196.675781 872.210938 196.777344 872.210938 C 197.027344 872.210938 197.277344 872.179688 197.53125 872.105469 C 199.367188 871.574219 382.558594 818.738281 476.34375 818.738281 C 544.925781 818.738281 612.550781 828.960938 648.882812 834.449219 C 663.601562 836.671875 673.324219 838.144531 677.445312 838.144531 C 693.445312 838.144531 734.699219 813.585938 741.859375 752.796875 C 745.84375 718.964844 741.21875 697.019531 736.640625 684.570312 "/></g><g transform="matrix(1,0,0,1,219,151)"><g clip-path="url(#0c61370a10)"><g style="fill:#545454;fill-opacity:1;"><g transform="translate(1.000934, 333.825614)"><path style="stroke:none" d="M 160.171875 -224.453125 C 159.472656 -216.960938 156.488281 -212.628906 151.21875 -211.453125 C 145.945312 -210.285156 138.160156 -210.054688 127.859375 -210.765625 C 119.429688 -211.234375 112.523438 -209.066406 107.140625 -204.265625 C 101.753906 -199.460938 99.0625 -191.789062 99.0625 -181.25 L 99.0625 -165.796875 L 124.703125 -165.796875 C 144.609375 -165.796875 154.5625 -158.421875 154.5625 -143.671875 C 154.5625 -128.679688 145.3125 -121.1875 126.8125 -121.1875 L 99.0625 -120.828125 C 99.0625 -118.023438 99.117188 -115.21875 99.234375 -112.40625 C 99.347656 -109.59375 99.40625 -106.78125 99.40625 -103.96875 C 99.40625 -91.789062 99.460938 -79.492188 99.578125 -67.078125 C 99.703125 -54.671875 99.765625 -42.265625 99.765625 -29.859375 C 99.765625 -9.953125 90.394531 0 71.65625 0 C 52.6875 0 43.203125 -9.953125 43.203125 -29.859375 C 43.203125 -42.265625 43.144531 -54.671875 43.03125 -67.078125 C 42.914062 -79.492188 42.859375 -91.789062 42.859375 -103.96875 L 42.859375 -120.484375 L 40.046875 -120.484375 C 20.140625 -120.484375 10.1875 -128.09375 10.1875 -143.3125 C 10.1875 -158.300781 15.691406 -165.796875 26.703125 -165.796875 L 42.859375 -165.796875 C 42.617188 -169.078125 42.5 -172.351562 42.5 -175.625 C 42.5 -178.90625 42.5 -182.066406 42.5 -185.109375 C 42.269531 -202.910156 45.316406 -217.078125 51.640625 -227.609375 C 57.960938 -238.148438 67.035156 -245.765625 78.859375 -250.453125 C 90.679688 -255.140625 104.554688 -257.484375 120.484375 -257.484375 C 123.523438 -257.484375 126.453125 -257.363281 129.265625 -257.125 C 132.078125 -256.894531 134.769531 -256.546875 137.34375 -256.078125 C 146.238281 -254.671875 152.441406 -251.039062 155.953125 -245.1875 C 159.472656 -239.332031 160.878906 -232.421875 160.171875 -224.453125 Z M 160.171875 -224.453125 "/></g></g></g></g><g transform="matrix(1,0,0,1,383,151)"><g clip-path="url(#c293898ff2)"><g clip-rule="nonzero" clip-path="url(#27911e9927)"><g style="fill:#545454;fill-opacity:1;"><g transform="translate(40.354719, 333.825614)"><path style="stroke:none" d="M 49.875 -218.84375 C 37 -218.84375 27.691406 -221.179688 21.953125 -225.859375 C 16.210938 -230.546875 13.34375 -238.160156 13.34375 -248.703125 C 13.34375 -259.234375 16.210938 -266.835938 21.953125 -271.515625 C 27.691406 -276.203125 37 -278.546875 49.875 -278.546875 C 62.988281 -278.546875 72.351562 -276.203125 77.96875 -271.515625 C 83.59375 -266.835938 86.40625 -259.234375 86.40625 -248.703125 C 86.40625 -238.160156 83.59375 -230.546875 77.96875 -225.859375 C 72.351562 -221.179688 62.988281 -218.84375 49.875 -218.84375 Z M 0.703125 77.28125 C -2.335938 77.28125 -5.265625 77.160156 -8.078125 76.921875 C -10.890625 76.691406 -13.582031 76.34375 -16.15625 75.875 C -24.820312 74.46875 -30.96875 70.835938 -34.59375 64.984375 C -38.226562 59.128906 -39.691406 52.222656 -38.984375 44.265625 C -38.285156 36.765625 -35.242188 32.425781 -29.859375 31.25 C -24.472656 30.082031 -16.742188 29.851562 -6.671875 30.5625 C 1.753906 30.789062 8.660156 28.5625 14.046875 23.875 C 19.429688 19.195312 22.125 11.585938 22.125 1.046875 C 22.125 -9.953125 22.066406 -22.882812 21.953125 -37.75 C 21.835938 -52.625 21.78125 -70.132812 21.78125 -90.28125 C 21.78125 -102.6875 21.71875 -115.09375 21.59375 -127.5 C 21.476562 -139.914062 21.421875 -152.210938 21.421875 -164.390625 C 21.421875 -184.296875 30.90625 -194.25 49.875 -194.25 C 68.613281 -194.25 77.984375 -184.296875 77.984375 -164.390625 C 77.984375 -152.210938 78.039062 -139.914062 78.15625 -127.5 C 78.269531 -115.09375 78.328125 -102.6875 78.328125 -90.28125 C 78.328125 -69.4375 78.328125 -51.285156 78.328125 -35.828125 C 78.328125 -20.367188 78.445312 -6.785156 78.6875 4.921875 C 78.914062 22.484375 75.867188 36.59375 69.546875 47.25 C 63.222656 57.90625 54.207031 65.570312 42.5 70.25 C 30.789062 74.9375 16.859375 77.28125 0.703125 77.28125 Z M 0.703125 77.28125 "/></g></g></g></g></g></g></svg>