<svg xmlns="http://www.w3.org/2000/svg"
     xmlns:xlink="http://www.w3.org/1999/xlink"
     width="1070"
     zoomAndPan="magnify"
     viewBox="0 0 802.5 979.499974"
     height="1306"
     preserveAspectRatio="xMidYMid meet"
     version="1.2">
    <defs>
        <clipPath id="657418239f">
            <path d="M 0 508 L 802 508 L 802 977.933594 L 0 977.933594 Z M 0 508 " />
        </clipPath>
        <clipPath id="7149415b77">
            <rect x="0" width="169" y="0" height="423" />
        </clipPath>
        <clipPath id="91f38e7819">
            <path d="M 0.0625 55 L 127 55 L 127 412 L 0.0625 412 Z M 0.0625 55 " />
        </clipPath>
        <clipPath id="dd5cfc9bb1">
            <rect x="0" width="143" y="0" height="423" />
        </clipPath>
    </defs>
    <g id="389678a8b1">
        <g clip-rule="nonzero" clip-path="url(#657418239f)">
            <path style=" stroke:none;fill-rule:nonzero;fill:#545454;fill-opacity:1;" d="M 791.109375 558.796875 C 781.390625 532.910156 762.8125 520.46875 748.933594 514.585938 C 733.980469 508.253906 719.082031 507.28125 713.722656 508.621094 C 709.78125 509.605469 672.824219 527.589844 602.359375 561.964844 C 578.953125 573.382812 554.785156 585.171875 530.683594 596.878906 C 529.378906 590.746094 526.769531 584.96875 523.015625 580.128906 C 517.492188 573.007812 507.882812 568.988281 496.648438 569.101562 C 488.214844 569.1875 474.96875 571.617188 459.742188 582.691406 C 450.914062 589.117188 443.734375 597.078125 438.410156 606.355469 C 433.957031 614.101562 430.929688 622.625 429.652344 631.003906 C 429.441406 632.382812 429.28125 633.734375 429.171875 635.058594 C 428.992188 635.050781 428.808594 635.050781 428.625 635.070312 C 421.265625 635.804688 404.90625 642.113281 398.429688 646.632812 C 396.417969 644.859375 393.996094 643.117188 391.207031 641.441406 C 383.332031 636.714844 373.359375 633.15625 363.125 631.425781 C 350.660156 629.316406 338.144531 629.796875 325.925781 632.859375 C 306.644531 637.6875 295.667969 646.421875 289.855469 652.894531 C 282.070312 661.558594 278.75 671.597656 280.734375 680.429688 C 282.238281 687.121094 285.667969 693.4375 290.515625 698.6875 C 261.199219 708.871094 230.292969 719.347656 200.355469 729.496094 C 116.84375 757.808594 37.960938 784.546875 16.148438 797.421875 C 15.59375 797.75 15.136719 798.21875 14.824219 798.785156 C 9.988281 807.507812 1.699219 825.839844 0.542969 850.625 C 0.0078125 862.128906 1.078125 873.746094 3.726562 885.164062 C 6.71875 898.054688 11.761719 910.851562 18.71875 923.191406 C 27.035156 937.9375 37.722656 950.664062 49.621094 959.996094 C 61.5625 969.359375 74.722656 975.3125 87.675781 977.203125 C 90.761719 977.652344 93.824219 977.878906 96.859375 977.878906 C 103.167969 977.878906 109.34375 976.90625 115.3125 974.964844 C 124.394531 972.015625 132.851562 966.859375 140.449219 959.640625 C 151.292969 954.261719 334.664062 863.308594 430.457031 815.949219 C 426.449219 837.164062 422.574219 859.746094 421.0625 880.476562 C 420.019531 894.777344 420.21875 906.453125 421.679688 916.171875 C 423.421875 927.765625 426.894531 936.195312 432.296875 941.945312 C 432.984375 942.675781 433.941406 943.085938 434.933594 943.085938 C 435.085938 943.085938 435.238281 943.074219 435.390625 943.054688 C 436.542969 942.910156 437.554688 942.21875 438.109375 941.203125 C 442.980469 932.28125 448.785156 922.847656 451.734375 918.132812 C 456.996094 921.390625 468.167969 927.867188 480.105469 932.0625 C 481.59375 932.585938 483.246094 932.085938 484.195312 930.828125 C 485.144531 929.570312 485.167969 927.84375 484.253906 926.5625 C 459.832031 892.226562 465.597656 834.042969 469.210938 810.621094 C 469.394531 809.429688 469.621094 808.054688 469.886719 806.464844 C 470.390625 803.429688 471 799.757812 471.59375 795.570312 C 471.804688 795.511719 472.015625 795.433594 472.21875 795.332031 C 474.621094 794.148438 476.789062 793.082031 478.707031 792.140625 C 487.339844 787.902344 500.679688 781.695312 519.449219 773.183594 C 520.140625 773.742188 520.839844 774.300781 521.546875 774.859375 C 536.378906 786.605469 552.988281 797.664062 570.910156 807.730469 C 591.917969 819.535156 615.375 830.339844 640.632812 839.855469 C 641.046875 840.011719 641.480469 840.085938 641.90625 840.085938 C 642.863281 840.085938 643.800781 839.707031 644.492188 839 C 645.496094 837.972656 645.800781 836.453125 645.261719 835.121094 C 641.460938 825.699219 637.855469 815.226562 636.085938 809.957031 C 641.949219 807.964844 654.054688 803.460938 664.882812 796.917969 C 666.152344 796.148438 666.824219 794.679688 666.574219 793.214844 C 666.324219 791.75 665.199219 790.589844 663.742188 790.289062 C 617.96875 780.835938 586.464844 768.605469 561.292969 754.394531 C 588.039062 742.472656 617.851562 729.296875 646.757812 716.519531 C 683.839844 700.132812 718.867188 684.652344 745.542969 672.652344 C 790.183594 652.570312 791.679688 651.078125 792.667969 650.085938 C 797.019531 645.742188 800.476562 633.355469 801.265625 619.273438 C 802.007812 606.003906 800.851562 584.742188 791.109375 558.796875 Z M 436.804688 632.09375 C 438.03125 624.054688 443.136719 603.714844 464.003906 588.535156 C 474.675781 580.769531 486.292969 576.4375 496.722656 576.328125 C 496.855469 576.328125 496.984375 576.328125 497.117188 576.328125 C 505.890625 576.328125 513.230469 579.316406 517.296875 584.554688 C 525.941406 595.699219 530.539062 619.125 507.773438 637.988281 C 483.71875 657.914062 460.074219 656.84375 453.398438 656.039062 C 446.132812 655.164062 441.550781 653 439.394531 651.085938 C 440.785156 651.921875 442.578125 652.484375 444.757812 652.769531 C 445.859375 652.914062 447.042969 652.984375 448.300781 652.984375 C 453.625 652.984375 460.226562 651.71875 467 649.363281 C 476.945312 645.902344 486.75 640.3125 495.351562 633.207031 C 502.410156 627.371094 507.410156 620.792969 509.988281 613.996094 C 510 613.972656 510.007812 613.945312 510.019531 613.917969 C 510.453125 612.765625 510.820312 611.605469 511.113281 610.441406 C 512.808594 603.707031 512.039062 597.03125 509.003906 592.121094 C 507.042969 588.949219 503.703125 586.839844 499.339844 586.019531 C 494.984375 585.199219 489.753906 585.726562 484.207031 587.546875 C 478.277344 589.488281 472.175781 592.800781 466.078125 597.378906 C 452.484375 607.589844 444.800781 619.855469 441.429688 626.261719 C 440.175781 628.644531 437.300781 634.511719 436.21875 640.027344 C 436.183594 637.679688 436.355469 635.019531 436.804688 632.09375 Z M 504.097656 608.679688 C 503.972656 609.167969 503.828125 609.660156 503.671875 610.152344 C 486.824219 618.289062 467.242188 627.625 444.039062 638.574219 C 444.832031 635.980469 446.164062 632.667969 448.324219 628.710938 C 451.414062 623.046875 458.394531 612.195312 470.425781 603.15625 C 475.890625 599.050781 481.289062 596.109375 486.464844 594.410156 C 490.851562 592.972656 494.839844 592.527344 498 593.121094 C 499.609375 593.425781 501.757812 594.15625 502.847656 595.917969 C 504.832031 599.128906 505.300781 603.898438 504.097656 608.679688 Z M 497.238281 621.273438 C 495.386719 623.460938 493.214844 625.589844 490.738281 627.636719 C 477.90625 638.242188 465.546875 642.535156 459.320312 644.148438 C 453.109375 645.761719 448.691406 645.925781 446.011719 645.640625 C 465.433594 636.476562 482.339844 628.433594 497.238281 621.273438 Z M 429.070312 642.289062 C 429.394531 647.414062 430.625 651.664062 432.679688 654.429688 C 433.214844 655.148438 433.851562 655.832031 434.578125 656.484375 C 434.753906 657.347656 434.96875 658.644531 435.042969 660.015625 C 435.195312 662.960938 434.582031 664.097656 434.332031 664.289062 C 429.71875 667.792969 417.324219 672.71875 412.710938 672.335938 C 411.371094 671.789062 407.5625 668.476562 404.410156 665.09375 C 404.390625 665.074219 404.367188 665.054688 404.347656 665.035156 C 405.417969 661.640625 405.667969 658.582031 405.035156 656.042969 C 404.714844 654.746094 404.117188 653.421875 403.265625 652.085938 C 409.035156 648.382812 423.023438 643.015625 429.070312 642.289062 Z M 295.238281 657.71875 C 302.503906 649.628906 314.027344 643.289062 327.6875 639.871094 C 352.0625 633.761719 374.554688 639.878906 387.480469 647.636719 C 394.433594 651.808594 397.5 655.710938 398.011719 657.78125 C 398.511719 659.78125 397.664062 664.339844 393.640625 670.601562 C 385.164062 683.789062 366.027344 699.785156 337.734375 705.113281 C 306.738281 710.953125 290.886719 692.605469 287.792969 678.847656 C 286.328125 672.324219 289.042969 664.625 295.238281 657.71875 Z M 20.679688 803.152344 C 20.742188 803.117188 20.804688 803.082031 20.867188 803.046875 C 20.726562 803.222656 20.585938 803.402344 20.449219 803.582031 C 20.527344 803.4375 20.605469 803.292969 20.679688 803.152344 Z M 88.722656 970.050781 C 64.652344 966.535156 40.839844 947.691406 25.023438 919.644531 C 2.269531 879.289062 6.082031 843.976562 12.851562 822.082031 C 12.679688 822.960938 12.519531 823.859375 12.378906 824.773438 C 10.808594 834.761719 10.976562 846.964844 12.855469 860.070312 C 16.582031 886.046875 26.359375 912.355469 38.367188 928.722656 C 42.882812 934.882812 48.375 940.480469 54.691406 945.367188 C 60.765625 950.066406 67.308594 953.882812 74.128906 956.710938 C 81.019531 959.566406 87.800781 961.25 94.289062 961.714844 C 101.210938 962.210938 107.457031 961.285156 112.859375 958.96875 C 120.480469 955.699219 126.144531 949.648438 129.234375 941.472656 C 132.546875 932.707031 133 921.503906 130.585938 908.167969 C 124.289062 873.386719 108.679688 851.582031 96.695312 839.410156 C 89.792969 832.40625 82.136719 826.640625 74.550781 822.738281 C 67.425781 819.074219 60.710938 817.1875 55.136719 817.285156 C 45.507812 817.449219 37.261719 823.742188 32.515625 834.550781 C 27.789062 845.308594 27.011719 859.246094 30.328125 873.804688 C 34.097656 890.371094 42.996094 906.882812 56.054688 921.554688 C 63.078125 929.449219 71.0625 934.699219 79.140625 936.738281 C 87.027344 938.726562 94.566406 937.503906 100.375 933.292969 C 107.195312 928.34375 110.960938 919.816406 110.984375 909.28125 C 111.007812 897.9375 106.671875 884.515625 98.441406 870.464844 C 90.433594 856.789062 82.578125 847.109375 75.089844 841.691406 C 71.519531 839.109375 68.035156 837.507812 64.730469 836.9375 C 61.320312 836.347656 58.175781 836.828125 55.382812 838.371094 C 49.808594 841.441406 46.359375 848.5 45.910156 857.734375 C 45.476562 866.730469 47.863281 876.734375 52.632812 885.910156 C 57.988281 896.210938 63.421875 904.226562 68.789062 909.730469 C 73.957031 915.035156 78.796875 917.742188 83.171875 917.78125 C 83.199219 917.78125 83.230469 917.78125 83.257812 917.78125 C 86.742188 917.78125 89.714844 915.984375 91.417969 912.835938 C 95.515625 905.277344 92.070312 891.242188 82.636719 877.074219 C 78.480469 870.832031 73.417969 867.53125 68.742188 868.023438 C 65.535156 868.359375 62.957031 870.414062 61.664062 873.667969 C 60.277344 877.152344 60.457031 881.679688 62.179688 886.757812 C 62.800781 888.589844 63.609375 890.449219 64.59375 892.335938 C 62.824219 889.503906 60.972656 886.269531 59.054688 882.582031 C 54.867188 874.519531 52.765625 865.820312 53.136719 858.082031 C 53.457031 851.507812 55.601562 846.503906 58.875 844.699219 C 62.648438 842.621094 67.464844 845.097656 70.84375 847.542969 C 77.421875 852.304688 84.804688 861.492188 92.195312 874.113281 C 99.773438 887.054688 103.769531 899.207031 103.75 909.265625 C 103.730469 917.433594 101.023438 923.890625 96.121094 927.445312 C 92.082031 930.375 86.683594 931.1875 80.910156 929.730469 C 74.246094 928.050781 67.519531 923.5625 61.460938 916.753906 C 49.210938 902.988281 40.882812 887.582031 37.382812 872.199219 C 34.410156 859.140625 35.035156 846.804688 39.140625 837.457031 C 42.703125 829.34375 48.578125 824.625 55.257812 824.511719 C 63.390625 824.375 77.761719 830.492188 91.535156 844.480469 C 102.808594 855.925781 117.5 876.488281 123.464844 909.453125 C 125.644531 921.484375 125.308594 931.398438 122.464844 938.917969 C 120.050781 945.304688 115.859375 949.816406 110.003906 952.328125 C 101.394531 956.023438 89.328125 955.1875 76.902344 950.035156 C 64.179688 944.761719 52.261719 935.4375 44.203125 924.453125 C 20.644531 892.335938 8.433594 822.613281 29.082031 804.890625 C 33.03125 801.503906 38.960938 800.210938 46.707031 801.054688 C 68.660156 803.449219 99.328125 822.457031 115.074219 843.429688 C 122.875 853.820312 133.261719 872.5625 139.015625 893.992188 C 143.503906 910.714844 146.503906 934.710938 135.464844 954.402344 C 122.042969 967.152344 105.890625 972.558594 88.722656 970.050781 Z M 78 899.019531 C 73.664062 893.980469 70.5625 888.9375 69.03125 884.433594 C 67.425781 879.703125 68.046875 877.191406 68.386719 876.332031 C 68.804688 875.28125 69.308594 875.230469 69.496094 875.210938 C 70.535156 875.101562 73.359375 876.1875 76.613281 881.078125 C 86.238281 895.53125 86.933594 905.929688 85.058594 909.394531 C 84.539062 910.351562 83.964844 910.554688 83.265625 910.554688 C 83.253906 910.554688 83.246094 910.554688 83.234375 910.554688 C 81.433594 910.539062 78.242188 909.042969 74.066406 904.789062 C 75.242188 905.199219 76.601562 904.988281 77.617188 904.117188 C 79.132812 902.816406 79.304688 900.535156 78 899.019531 Z M 145.945312 948.847656 C 148.503906 941.847656 149.953125 934.167969 150.257812 925.902344 C 150.644531 915.449219 149.210938 904.082031 146.003906 892.121094 C 139.984375 869.695312 129.070312 850.023438 120.859375 839.089844 C 112.824219 828.390625 100.855469 817.800781 87.160156 809.28125 C 73.226562 800.613281 59.140625 795.140625 47.492188 793.871094 C 45.328125 793.636719 43.265625 793.542969 41.304688 793.589844 C 75.457031 779.46875 137.660156 758.382812 202.679688 736.339844 C 233.917969 725.75 266.214844 714.804688 296.671875 704.199219 C 297.402344 704.738281 298.148438 705.257812 298.914062 705.753906 C 304.769531 709.542969 313.855469 713.441406 326.441406 713.441406 C 330.316406 713.441406 334.527344 713.074219 339.078125 712.214844 C 369.625 706.460938 390.4375 688.960938 399.730469 674.503906 C 400.246094 673.703125 400.722656 672.910156 401.171875 672.125 C 401.875 672.820312 402.710938 673.625 403.597656 674.433594 C 407.503906 677.980469 410.03125 679.484375 412.234375 679.546875 C 412.550781 679.570312 412.875 679.582031 413.207031 679.582031 C 413.484375 679.582031 413.765625 679.574219 414.050781 679.558594 C 414.117188 679.640625 414.191406 679.71875 414.265625 679.796875 C 426.800781 692.121094 446.140625 724.855469 439.125 769.363281 C 437.726562 778.226562 435.636719 789.042969 433.421875 800.492188 C 433.003906 802.652344 432.582031 804.839844 432.15625 807.046875 C 347.523438 848.878906 186.09375 928.933594 145.945312 948.847656 Z M 462.75 805.28125 C 462.480469 806.894531 462.25 808.285156 462.058594 809.519531 C 459.917969 823.414062 457.652344 844.636719 459.03125 866.828125 C 460.375 888.449219 464.890625 906.652344 472.476562 921.128906 C 461.464844 916.019531 452.746094 910.207031 452.636719 910.132812 C 451.828125 909.589844 450.835938 909.398438 449.882812 909.59375 C 448.929688 909.789062 448.097656 910.363281 447.574219 911.179688 C 447.496094 911.300781 440.800781 921.746094 434.484375 932.851562 C 431.832031 928.402344 429.9375 922.457031 428.832031 915.097656 C 427.472656 906.046875 427.285156 894.574219 428.277344 881.003906 C 430.136719 855.566406 435.65625 827.035156 440.523438 801.863281 C 442.75 790.351562 444.855469 779.476562 446.273438 770.488281 C 448.023438 759.378906 448.324219 748.273438 447.171875 737.488281 C 446.160156 728.042969 444.027344 718.789062 440.839844 709.984375 C 435.035156 693.964844 427.28125 683.429688 422.359375 677.84375 C 423.730469 677.410156 425.042969 676.941406 426.21875 676.488281 C 428.449219 675.628906 430.636719 674.664062 432.613281 673.675781 C 443.570312 683.964844 451.21875 695.601562 456.460938 707.671875 C 456.511719 707.820312 456.574219 707.96875 456.648438 708.109375 C 472.675781 745.464844 465.808594 786.851562 462.75 805.28125 Z M 475.515625 785.65625 C 474.625 786.09375 473.675781 786.558594 472.679688 787.050781 C 473.996094 775.175781 474.773438 760.582031 473.210938 745.070312 C 472.425781 737.3125 471.113281 729.910156 469.28125 722.867188 C 478.785156 734.367188 492.367188 750.402344 513.242188 768.0625 C 496.085938 775.859375 483.710938 781.632812 475.515625 785.65625 Z M 630.476562 804.175781 C 629.542969 804.453125 628.761719 805.097656 628.308594 805.957031 C 627.855469 806.816406 627.769531 807.824219 628.066406 808.746094 C 628.109375 808.875 631.425781 819.121094 635.578125 830.164062 C 534.34375 790.386719 493.203125 740.511719 473.1875 716.238281 C 469.105469 711.289062 465.835938 707.324219 462.902344 704.375 C 457.578125 692.234375 450.371094 681.449219 441.308594 672.09375 C 461.894531 686.472656 478.050781 700.1875 493.691406 713.46875 C 512.058594 729.0625 529.511719 743.878906 551.335938 757.035156 C 551.371094 757.0625 551.410156 757.082031 551.449219 757.105469 C 553.898438 758.582031 556.398438 760.035156 558.960938 761.464844 C 585.066406 776.03125 615.050781 786.871094 652.710938 795.308594 C 641.335938 800.894531 630.609375 804.136719 630.476562 804.175781 Z M 794.039062 618.867188 C 793.175781 634.308594 789.421875 642.941406 787.644531 644.882812 C 785.996094 646.046875 776.503906 650.808594 741.238281 666.660156 C 714.738281 678.570312 680.296875 693.792969 643.828125 709.910156 C 613.210938 723.445312 581.570312 737.425781 553.632812 749.898438 C 532.789062 737.179688 516.117188 723.023438 498.378906 707.960938 C 481.890625 693.964844 464.84375 679.488281 442.601562 664.1875 C 442.429688 664.070312 442.253906 663.976562 442.070312 663.890625 C 442.226562 662.957031 442.300781 661.945312 442.296875 660.855469 C 445.28125 661.953125 448.734375 662.757812 452.535156 663.214844 C 454.59375 663.460938 457.070312 663.644531 459.90625 663.644531 C 465.535156 663.644531 472.582031 662.929688 480.613281 660.609375 C 492.007812 657.320312 502.699219 651.578125 512.390625 643.550781 C 526.746094 631.65625 530.691406 618.597656 531.46875 609.738281 C 531.625 607.976562 531.667969 606.214844 531.609375 604.464844 C 556.457031 592.402344 581.402344 580.230469 605.53125 568.460938 C 659.890625 541.941406 711.238281 516.894531 715.5 515.625 C 718.351562 514.933594 731.304688 514.96875 746.109375 521.242188 C 758.679688 526.570312 775.519531 537.847656 784.335938 561.332031 C 793.632812 586.105469 794.746094 606.292969 794.039062 618.867188 Z M 794.039062 618.867188 " />
        </g>
        <path style=" stroke:none;fill-rule:nonzero;fill:#545454;fill-opacity:1;" d="M 316.808594 692.339844 C 321.933594 694.984375 327.972656 696.320312 334.621094 696.320312 C 337.972656 696.320312 341.476562 695.980469 345.097656 695.296875 C 368.769531 690.820312 386.40625 677.988281 392.773438 667.960938 C 395.003906 664.445312 395.796875 661.34375 395.125 658.742188 C 393.238281 651.46875 378.785156 647.53125 374.398438 646.496094 C 367.128906 644.785156 352.40625 642.519531 335.519531 646.585938 C 321.148438 650.050781 310.179688 656.914062 305.4375 665.417969 C 303.042969 669.703125 302.457031 674.042969 303.746094 677.960938 C 305.664062 683.804688 310.425781 689.046875 316.808594 692.339844 Z M 343.75 688.195312 C 342.792969 688.378906 341.863281 688.527344 340.957031 688.652344 C 352.625 684.484375 362.453125 680.933594 371.988281 677.316406 C 365.730469 681.222656 356.238281 685.835938 343.75 688.195312 Z M 311.753906 668.9375 C 315.464844 662.289062 324.984375 656.558594 337.21875 653.613281 C 343.613281 652.070312 349.671875 651.53125 355.03125 651.53125 C 362.304688 651.53125 368.285156 652.527344 372.046875 653.375 C 382.882812 655.808594 387.566406 659.457031 388.121094 660.574219 C 388.167969 661.0625 387.792969 662.257812 386.730469 663.953125 C 386.378906 663.984375 386.023438 664.066406 385.675781 664.207031 C 367.460938 671.546875 351.289062 677.304688 326.808594 686.019531 L 325.203125 686.59375 C 324.65625 686.785156 324.1875 687.101562 323.8125 687.492188 C 315.894531 684.828125 311.847656 679.449219 310.617188 675.707031 C 309.976562 673.757812 310.371094 671.414062 311.753906 668.9375 Z M 311.753906 668.9375 " />
        <path style=" stroke:none;fill-rule:nonzero;fill:#545454;fill-opacity:1;" d="M 408.886719 796.632812 L 272.808594 862.230469 C 271.011719 863.101562 270.253906 865.261719 271.125 867.058594 C 271.746094 868.347656 273.039062 869.101562 274.382812 869.101562 C 274.910156 869.101562 275.445312 868.984375 275.953125 868.742188 L 412.03125 803.144531 C 413.832031 802.277344 414.585938 800.113281 413.71875 798.316406 C 412.847656 796.519531 410.6875 795.765625 408.886719 796.632812 Z M 408.886719 796.632812 " />
        <path style=" stroke:none;fill-rule:nonzero;fill:#545454;fill-opacity:1;" d="M 232.957031 881.441406 L 167.515625 912.992188 C 165.71875 913.859375 164.960938 916.019531 165.832031 917.816406 C 166.453125 919.105469 167.746094 919.859375 169.089844 919.859375 C 169.617188 919.859375 170.152344 919.742188 170.660156 919.5 L 236.101562 887.953125 C 237.902344 887.085938 238.65625 884.925781 237.789062 883.128906 C 236.921875 881.328125 234.757812 880.578125 232.957031 881.441406 Z M 232.957031 881.441406 " />
        <path style=" stroke:none;fill-rule:nonzero;fill:#545454;fill-opacity:1;" d="M 701.40625 659.46875 L 589.464844 711.933594 C 587.65625 712.78125 586.878906 714.933594 587.726562 716.742188 C 588.34375 718.050781 589.644531 718.820312 591.003906 718.820312 C 591.519531 718.820312 592.042969 718.710938 592.539062 718.476562 L 704.476562 666.011719 C 706.289062 665.164062 707.066406 663.011719 706.21875 661.207031 C 705.367188 659.398438 703.214844 658.621094 701.40625 659.46875 Z M 701.40625 659.46875 " />
        <g transform="matrix(1,0,0,1,248,95)">
            <g clip-path="url(#7149415b77)">
                <g style="fill:#545454;fill-opacity:1;">
                    <g transform="translate(1.08383, 333.91934)">
                        <path style="stroke:none" d="M 160.21875 -224.515625 C 159.507812 -217.015625 156.519531 -212.675781 151.25 -211.5 C 145.976562 -210.332031 138.191406 -210.101562 127.890625 -210.8125 C 119.453125 -211.28125 112.539062 -209.113281 107.15625 -204.3125 C 101.769531 -199.507812 99.078125 -191.835938 99.078125 -181.296875 L 99.078125 -165.828125 L 124.734375 -165.828125 C 144.640625 -165.828125 154.59375 -158.453125 154.59375 -143.703125 C 154.59375 -128.710938 145.335938 -121.21875 126.828125 -121.21875 L 99.078125 -120.859375 C 99.078125 -118.046875 99.132812 -115.234375 99.25 -112.421875 C 99.375 -109.617188 99.4375 -106.8125 99.4375 -104 C 99.4375 -91.820312 99.492188 -79.523438 99.609375 -67.109375 C 99.722656 -54.691406 99.78125 -42.273438 99.78125 -29.859375 C 99.78125 -9.953125 90.410156 0 71.671875 0 C 52.703125 0 43.21875 -9.953125 43.21875 -29.859375 C 43.21875 -42.273438 43.15625 -54.691406 43.03125 -67.109375 C 42.914062 -79.523438 42.859375 -91.820312 42.859375 -104 L 42.859375 -120.515625 L 40.046875 -120.515625 C 20.140625 -120.515625 10.1875 -128.125 10.1875 -143.34375 C 10.1875 -158.332031 15.691406 -165.828125 26.703125 -165.828125 L 42.859375 -165.828125 C 42.628906 -169.109375 42.515625 -172.390625 42.515625 -175.671875 C 42.515625 -178.953125 42.515625 -182.113281 42.515625 -185.15625 C 42.273438 -202.957031 45.316406 -217.128906 51.640625 -227.671875 C 57.972656 -238.210938 67.050781 -245.820312 78.875 -250.5 C 90.707031 -255.1875 104.585938 -257.53125 120.515625 -257.53125 C 123.554688 -257.53125 126.484375 -257.410156 129.296875 -257.171875 C 132.109375 -256.941406 134.800781 -256.59375 137.375 -256.125 C 146.269531 -254.71875 152.472656 -251.085938 155.984375 -245.234375 C 159.503906 -239.378906 160.914062 -232.472656 160.21875 -224.515625 Z M 160.21875 -224.515625 " />
                    </g>
                </g>
            </g>
        </g>
        <g transform="matrix(1,0,0,1,412,95)">
            <g clip-path="url(#dd5cfc9bb1)">
                <g clip-rule="nonzero" clip-path="url(#91f38e7819)">
                    <g style="fill:#545454;fill-opacity:1;">
                        <g transform="translate(40.484506, 333.91934)">
                            <path style="stroke:none" d="M 49.890625 -218.890625 C 37.003906 -218.890625 27.691406 -221.226562 21.953125 -225.90625 C 16.210938 -230.59375 13.34375 -238.207031 13.34375 -248.75 C 13.34375 -259.289062 16.210938 -266.898438 21.953125 -271.578125 C 27.691406 -276.265625 37.003906 -278.609375 49.890625 -278.609375 C 63.003906 -278.609375 72.375 -276.265625 78 -271.578125 C 83.625 -266.898438 86.4375 -259.289062 86.4375 -248.75 C 86.4375 -238.207031 83.625 -230.59375 78 -225.90625 C 72.375 -221.226562 63.003906 -218.890625 49.890625 -218.890625 Z M 0.703125 77.296875 C -2.335938 77.296875 -5.265625 77.175781 -8.078125 76.9375 C -10.890625 76.707031 -13.582031 76.359375 -16.15625 75.890625 C -24.820312 74.484375 -30.96875 70.851562 -34.59375 65 C -38.226562 59.144531 -39.695312 52.234375 -39 44.265625 C -38.289062 36.773438 -35.242188 32.441406 -29.859375 31.265625 C -24.472656 30.097656 -16.742188 29.863281 -6.671875 30.5625 C 1.753906 30.800781 8.660156 28.578125 14.046875 23.890625 C 19.441406 19.203125 22.140625 11.585938 22.140625 1.046875 C 22.140625 -9.953125 22.078125 -22.890625 21.953125 -37.765625 C 21.835938 -52.640625 21.78125 -70.148438 21.78125 -90.296875 C 21.78125 -102.710938 21.722656 -115.125 21.609375 -127.53125 C 21.492188 -139.945312 21.4375 -152.242188 21.4375 -164.421875 C 21.4375 -184.335938 30.921875 -194.296875 49.890625 -194.296875 C 68.628906 -194.296875 78 -184.335938 78 -164.421875 C 78 -152.242188 78.054688 -139.945312 78.171875 -127.53125 C 78.285156 -115.125 78.34375 -102.710938 78.34375 -90.296875 C 78.34375 -69.453125 78.34375 -51.296875 78.34375 -35.828125 C 78.34375 -20.367188 78.460938 -6.785156 78.703125 4.921875 C 78.929688 22.484375 75.882812 36.59375 69.5625 47.25 C 63.238281 57.90625 54.222656 65.578125 42.515625 70.265625 C 30.804688 74.953125 16.867188 77.296875 0.703125 77.296875 Z M 0.703125 77.296875 " />
                        </g>
                    </g>
                </g>
            </g>
        </g>
    </g>
</svg>