<svg xmlns="http://www.w3.org/2000/svg" xmlns:xlink="http://www.w3.org/1999/xlink" width="6646" zoomAndPan="magnify" viewBox="0 0 4984.5 3059.999987" height="4080" preserveAspectRatio="xMidYMid meet" version="1.2">
    <defs>
        <clipPath id="40d3b0c057"><path d="M 1138 0.152344 L 1770 0.152344 L 1770 683 L 1138 683 Z M 1138 0.152344 " /></clipPath>
        <clipPath id="97bbace2b9"><path d="M 1430 0.152344 L 1915 0.152344 L 1915 333 L 1430 333 Z M 1430 0.152344 " /></clipPath>
        <clipPath id="518951efec"><path d="M 1518 0.152344 L 1917 0.152344 L 1917 554 L 1518 554 Z M 1518 0.152344 " /></clipPath>

        <clipPath id="9cf67b89a7"><path d="M 604 0.152344 L 1328 0.152344 L 1328 477 L 604 477 Z M 604 0.152344 " /></clipPath>
        <clipPath id="7eee0786ac"><path d="M 987 0.152344 L 1510 0.152344 L 1510 261 L 987 261 Z M 987 0.152344 " /></clipPath>
        <clipPath id="5f1d4f626a"><path d="M 993 0.152344 L 1510 0.152344 L 1510 552 L 993 552 Z M 993 0.152344 " /></clipPath>

        <clipPath id="28de28f5a3"><path d="M 1030 2582 L 1538 2582 L 1538 3059.84375 L 1030 3059.84375 Z M 1030 2582 " /></clipPath>

        <clipPath id="9d6aba5fd0"><path d="M 4615 916 L 4984 916 L 4984 1802 L 4615 1802 Z M 4615 916 " /></clipPath>

        <clipPath id="156f43e4c9"><path d="M 3852 0.152344 L 4350 0.152344 L 4350 407 L 3852 407 Z M 3852 0.152344 " /></clipPath>

        <clipPath id="b7b8c1cd41"><path d="M 3422 0.152344 L 3955 0.152344 L 3955 347 L 3422 347 Z M 3422 0.152344 " /></clipPath>
        <clipPath id="801d31ea0a"><path d="M 3615 0.152344 L 4101 0.152344 L 4101 480 L 3615 480 Z M 3615 0.152344 " /></clipPath>

        <clipPath id="7caa442b5b"><path d="M 3107 2375 L 3836 2375 L 3836 3059.84375 L 3107 3059.84375 Z M 3107 2375 " /></clipPath>
        <clipPath id="814e51cae2"><path d="M 4650 1462 L 4984 1462 L 4984 2432 L 4650 2432 Z M 4650 1462 " /></clipPath>
        <clipPath id="8960f1c739"><path d="M 4639 2092 L 4984 2092 L 4984 2924 L 4639 2924 Z M 4639 2092 " /></clipPath>
        <clipPath id="4e162e1d53"><path d="M 4650 2583 L 4984 2583 L 4984 3059.84375 L 4650 3059.84375 Z M 4650 2583 " /></clipPath>

        <clipPath id="3efdad2d9a"> <path d="M 2776 0.152344 L 3181 0.152344 L 3181 440 L 2776 440 Z M 2776 0.152344 " /></clipPath>
        <clipPath id="8fcb46367b"> <path d="M 2840 0.152344 L 3338 0.152344 L 3338 298 L 2840 298 Z M 2840 0.152344 " /></clipPath>
        <clipPath id="e1c77718b2"> <path d="M 2998 0.152344 L 3450 0.152344 L 3450 593 L 2998 593 Z M 2998 0.152344 " /></clipPath>

    </defs>
    <g id="ef1a273585">
        <g id="tangan_kiri">
            <g id="telapak_tangan_kiri">
                <path style="fill:none;stroke-width:40;stroke-linecap:butt;stroke-linejoin:miter;stroke:#8e94a5;stroke-opacity:1;stroke-miterlimit:4;" d="M 5.180518 19.515992 C 122.331278 50.939591 250.932189 50.937106 390.97335 19.511779 " transform="matrix(0.233294,-0.712714,0.712714,0.233294,-0.000715176,2868.033803)" />
                <path style="fill:none;stroke-width:40;stroke-linecap:butt;stroke-linejoin:miter;stroke:#8e94a5;stroke-opacity:1;stroke-miterlimit:4;" d="M 2.449518 19.913895 C 163.914155 39.833804 352.898598 39.830621 569.396932 19.914379 " transform="matrix(-0.051703,-0.74814,0.74814,-0.051703,90.345447,2596.791878)" />
                <path style="fill:none;stroke-width:40;stroke-linecap:butt;stroke-linejoin:miter;stroke:#8e94a5;stroke-opacity:1;stroke-miterlimit:4;" d="M 6.040419 47.562107 C 122.008415 10.813419 237.969343 10.81421 353.934118 47.560412 " transform="matrix(-0.0800765,-0.745637,0.745637,-0.0800765,40.824307,2178.089912)" />
                <path style="fill:none;stroke-width:40;stroke-linecap:butt;stroke-linejoin:miter;stroke:#8e94a5;stroke-opacity:1;stroke-miterlimit:4;" d="M 9.619398 19.920993 C 44.393721 38.995823 170.06779 38.995823 386.641605 19.920993 " transform="matrix(0,-0.749925,0.749925,0,33.009974,1917.584919)" />
                <path style="fill:none;stroke-width:40;stroke-linecap:butt;stroke-linejoin:miter;stroke:#8e94a5;stroke-opacity:1;stroke-miterlimit:4;" d="M 1.585207 19.969756 C 165.411441 33.022723 368.316524 33.023066 610.300456 19.970786 " transform="matrix(0.391885,-0.639385,0.639385,0.391885,1714.31354,2258.386934)" />
                <path style="fill:none;stroke-width:40;stroke-linecap:butt;stroke-linejoin:miter;stroke:#8e94a5;stroke-opacity:1;stroke-miterlimit:4;" d="M 2.151055 19.898378 C 263.083539 48.084774 532.258451 48.082275 809.66741 19.897072 " transform="matrix(0.445537,-0.603228,0.603228,0.445537,1354.964146,2744.748527)" />
                <g clip-rule="nonzero" clip-path="url(#28de28f5a3)"><path style="fill:none;stroke-width:40;stroke-linecap:butt;stroke-linejoin:miter;stroke:#8e94a5;stroke-opacity:1;stroke-miterlimit:4;" d="M 6.152289 54.318931 C 147.722519 8.558157 298.587036 8.561563 458.745227 54.317517 " transform="matrix(0.370325,-0.652109,0.652109,0.370325,1162.616176,3031.353349)" /></g>
            </g>
            <g id="kelingking_kiri">
                <path style="fill:none;stroke-width:40;stroke-linecap:butt;stroke-linejoin:miter;stroke:#8e94a5;stroke-opacity:1;stroke-miterlimit:4;" d="M 15.495157 52.350665 C 50.691407 9.21395 272.062518 9.215625 679.597545 52.351711 " transform="matrix(0.0860878,-0.744967,0.744967,0.0860878,7.615749,1634.67335)" />
                <path style="fill:none;stroke-width:40;stroke-linecap:butt;stroke-linejoin:miter;stroke:#8e94a5;stroke-opacity:1;stroke-miterlimit:4;" d="M 2.344811 42.081951 C 251.522646 12.63821 488.006731 12.637546 711.786667 42.080545 " transform="matrix(0.0420405,-0.748745,0.748745,0.0420405,73.513848,1132.888865)" />
                <path style="fill:none;stroke-width:40;stroke-linecap:butt;stroke-linejoin:miter;stroke:#8e94a5;stroke-opacity:1;stroke-miterlimit:4;" d="M 2.98441 42.237063 C 199.536417 12.587332 324.91043 12.588429 379.111198 42.238213 " transform="matrix(0.308041,-0.683738,0.683738,0.308041,105.150807,590.740743)" />
                <path style="fill:none;stroke-width:40;stroke-linecap:butt;stroke-linejoin:miter;stroke:#8e94a5;stroke-opacity:1;stroke-miterlimit:4;" d="M 3.936306 26.671228 C 48.2299 17.774452 92.515721 17.777049 136.807123 26.670899 " transform="matrix(0.389654,-0.640747,0.640747,0.389654,225.279034,347.891344)" />
                <path style="fill:none;stroke-width:40;stroke-linecap:butt;stroke-linejoin:miter;stroke:#8e94a5;stroke-opacity:1;stroke-miterlimit:4;" d="M 11.793429 55.62631 C 76.870501 8.125764 141.950319 8.125042 207.028647 55.627176 " transform="matrix(0.609763,0.43655,-0.43655,0.609763,300.248718,237.178795)" />
                <path style="fill:none;stroke-width:40;stroke-linecap:butt;stroke-linejoin:miter;stroke:#8e94a5;stroke-opacity:1;stroke-miterlimit:4;" d="M 6.245875 26.285935 C 31.753642 17.904886 54.110052 17.904886 73.320313 26.285935 " transform="matrix(0,0.749925,-0.749925,0,421.911692,356.792627)" />
            </g>
            <g id="jari_manis_kiri">
                <path style="fill:none;stroke-width:40;stroke-linecap:butt;stroke-linejoin:miter;stroke:#8e94a5;stroke-opacity:1;stroke-miterlimit:4;" d="M 6.006795 37.97839 C 82.148873 14.00894 143.140639 14.005468 188.974676 37.975293 " transform="matrix(0.526741,-0.53379,0.53379,0.526741,605.020541,593.846127)" />
                <path style="fill:none;stroke-width:40;stroke-linecap:butt;stroke-linejoin:miter;stroke:#8e94a5;stroke-opacity:1;stroke-miterlimit:4;" d="M 1.781421 19.922155 C 116.256851 30.157151 230.734727 30.158766 345.214228 19.921858 " transform="matrix(0.118155,-0.740558,0.740558,0.118155,254.344593,1438.586435)" />
                <path style="fill:none;stroke-width:40;stroke-linecap:butt;stroke-linejoin:miter;stroke:#8e94a5;stroke-opacity:1;stroke-miterlimit:4;" d="M 2.497432 42.520683 C 240.819537 12.491981 488.868486 12.495039 746.638812 42.519572 " transform="matrix(0.0185733,-0.749695,0.749695,0.0185733,277.9628,1186.371626)" />
                <path style="fill:none;stroke-width:40;stroke-linecap:butt;stroke-linejoin:miter;stroke:#8e94a5;stroke-opacity:1;stroke-miterlimit:4;" d="M 5.301704 75.491678 C 274.428827 1.505521 424.862445 1.503255 456.605302 75.489308 " transform="matrix(0.395195,-0.637344,0.637344,0.395195,273.501537,600.963021)" />
                <path style="fill:none;stroke-width:40;stroke-linecap:butt;stroke-linejoin:miter;stroke:#8e94a5;stroke-opacity:1;stroke-miterlimit:4;" d="M 0.78208 19.986721 C 221.6537 28.633626 361.510875 28.630389 420.348071 19.985837 " transform="matrix(0.635339,-0.398411,0.398411,0.635339,457.219877,332.48824)" />
                <path style="fill:none;stroke-width:40;stroke-linecap:butt;stroke-linejoin:miter;stroke:#8e94a5;stroke-opacity:1;stroke-miterlimit:4;" d="M 13.08722 70.936586 C 91.557751 3.022691 161.349365 3.018318 222.468993 70.937475 " transform="matrix(0.672181,0.332505,-0.332505,0.672181,747.031977,125.68104)" />
                <path style="fill:none;stroke-width:40;stroke-linecap:butt;stroke-linejoin:miter;stroke:#8e94a5;stroke-opacity:1;stroke-miterlimit:4;" d="M 0.00239538 19.998038 C 174.499767 20.001577 313.456188 20.002732 416.866503 20.00078 " transform="matrix(-0.104243,-0.742644,0.742644,-0.104243,657.055071,922.312997)" />
            </g>
            <g id="jari_jempol_kiri">
                <path style="fill:none;stroke-width:40;stroke-linecap:butt;stroke-linejoin:miter;stroke:#8e94a5;stroke-opacity:1;stroke-miterlimit:4;" d="M 4.082368 19.579492 C 199.608888 60.352915 345.739933 60.358113 442.482027 19.577475 " transform="matrix(0.173272,-0.729633,0.729633,0.173272,1638.995083,1415.593863)" />
                <path style="fill:none;stroke-width:40;stroke-linecap:butt;stroke-linejoin:miter;stroke:#8e94a5;stroke-opacity:1;stroke-miterlimit:4;" d="M 4.703903 55.344189 C 199.541909 8.22108 335.106218 8.220145 411.38522 55.340458 " transform="matrix(0.280977,-0.695298,0.695298,0.280977,1690.150749,1083.860777)" />
                <path style="fill:none;stroke-width:40;stroke-linecap:butt;stroke-linejoin:miter;stroke:#8e94a5;stroke-opacity:1;stroke-miterlimit:4;" d="M 7.603315 47.020896 C 95.266434 10.993227 182.922886 10.994346 270.585412 47.016853 " transform="matrix(0.724862,-0.192255,0.192255,0.724862,1829.671308,780.75701)" />
                <path style="fill:none;stroke-width:40;stroke-linecap:butt;stroke-linejoin:miter;stroke:#8e94a5;stroke-opacity:1;stroke-miterlimit:4;" d="M 4.385841 42.17857 C 135.940363 12.604614 267.491527 12.609191 399.04989 42.182025 " transform="matrix(0.010122,0.749856,-0.749856,0.010122,2066.427229,759.104631)" />
                <path style="fill:none;stroke-width:40;stroke-linecap:butt;stroke-linejoin:miter;stroke:#8e94a5;stroke-opacity:1;stroke-miterlimit:4;" d="M 3.369579 35.481005 C 124.121279 14.838308 255.670937 14.838308 398.023763 35.481005 " transform="matrix(0,0.749925,-0.749925,0,2065.897146,1045.519945)" />
                <path style="fill:none;stroke-width:40;stroke-linecap:butt;stroke-linejoin:miter;stroke:#8e94a5;stroke-opacity:1;stroke-miterlimit:4;" d="M 1.55488 19.940481 C 238.892567 38.464112 476.228627 38.461849 713.568944 19.938123 " transform="matrix(-0.104438,0.742617,-0.742617,-0.104438,2053.806463,1344.939577)" />
            </g>
            <g id="jari_telunjuk_kiri">
                <path style="fill:none;stroke-width:40;stroke-linecap:butt;stroke-linejoin:miter;stroke:#8e94a5;stroke-opacity:1;stroke-miterlimit:4;" d="M 1.058376 19.972674 C 248.037384 33.08346 481.116766 33.085032 700.310794 19.969163 " transform="matrix(0.14979,-0.734813,0.734813,0.14979,1188.235597,1024.649287)" />
                <g clip-rule="nonzero" clip-path="url(#40d3b0c057)"><path style="fill:none;stroke-width:40;stroke-linecap:butt;stroke-linejoin:miter;stroke:#8e94a5;stroke-opacity:1;stroke-miterlimit:4;" d="M 2.289785 54.066972 C 396.371688 8.644685 616.037168 8.645543 661.283145 54.065344 " transform="matrix(0.443339,-0.604845,0.604845,0.443339,1274.095189,490.461862)" /></g>
                <g clip-rule="nonzero" clip-path="url(#97bbace2b9)"><path style="fill:none;stroke-width:40;stroke-linecap:butt;stroke-linejoin:miter;stroke:#8e94a5;stroke-opacity:1;stroke-miterlimit:4;" d="M 10.79341 52.590604 C 78.567006 9.134028 146.338809 9.138446 214.110478 52.592327 " transform="matrix(0.711675,0.236443,-0.236443,0.711675,1604.718146,74.47757)" /></g>
                <g clip-rule="nonzero" clip-path="url(#518951efec)"><path style="fill:none;stroke-width:40;stroke-linecap:butt;stroke-linejoin:miter;stroke:#8e94a5;stroke-opacity:1;stroke-miterlimit:4;" d="M 7.128229 44.840084 C 93.960588 11.720891 195.271072 11.719439 311.06097 44.840774 " transform="matrix(-0.185548,0.726608,-0.726608,-0.185548,1778.563948,165.667891)" /></g>
                <path style="fill:none;stroke-width:40;stroke-linecap:butt;stroke-linejoin:miter;stroke:#8e94a5;stroke-opacity:1;stroke-miterlimit:4;" d="M 0.000525625 20.002284 C 56.779866 19.999655 123.267257 20.001656 199.44518 20.001514 " transform="matrix(-0.163014,0.731993,-0.731993,-0.163014,1702.903333,386.635269)" />
                <path style="fill:none;stroke-width:40;stroke-linecap:butt;stroke-linejoin:miter;stroke:#8e94a5;stroke-opacity:1;stroke-miterlimit:4;" d="M 0.367226 20.000772 C 383.943586 27.06316 841.506208 27.065389 1373.055004 19.997044 " transform="matrix(-0.00640769,0.749897,-0.749897,-0.00640769,1670.75088,529.219965)" />
            </g>
            <g id="jari_tengah_kiri">
                <path style="fill:none;stroke-width:40;stroke-linecap:butt;stroke-linejoin:miter;stroke:#8e94a5;stroke-opacity:1;stroke-miterlimit:4;" d="M 1.373198 55.832719 C 695.299093 8.055502 1051.889101 8.053923 1071.143984 55.833136 " transform="matrix(0.109778,-0.741846,0.741846,0.109778,614.855738,1095.455909)" />
                <g clip-rule="nonzero" clip-path="url(#9cf67b89a7)"><path style="fill:none;stroke-width:40;stroke-linecap:butt;stroke-linejoin:miter;stroke:#8e94a5;stroke-opacity:1;stroke-miterlimit:4;" d="M 0.749481 19.983955 C 348.809087 33.026064 554.459102 33.026488 617.692294 19.986634 " transform="matrix(0.621656,-0.419441,0.419441,0.621656,765.015269,294.852154)" /></g>
                <g clip-rule="nonzero" clip-path="url(#7eee0786ac)"><path style="fill:none;stroke-width:40;stroke-linecap:butt;stroke-linejoin:miter;stroke:#8e94a5;stroke-opacity:1;stroke-miterlimit:4;" d="M 11.383495 63.127173 C 94.44511 5.62437 177.507411 5.623714 260.5704 63.125204 " transform="matrix(0.730202,0.170858,-0.170858,0.730202,1159.864181,0.15478)" /></g>
                <g clip-rule="nonzero" clip-path="url(#5f1d4f626a)"><path style="fill:none;stroke-width:40;stroke-linecap:butt;stroke-linejoin:miter;stroke:#8e94a5;stroke-opacity:1;stroke-miterlimit:4;" d="M 11.610634 80.305866 C 124.402351 -0.101405 275.78978 -0.103937 465.759546 80.306349 " transform="matrix(-0.387675,0.641946,-0.641946,-0.387675,1395.393057,114.448706)" /></g>
                <path style="fill:none;stroke-width:40;stroke-linecap:butt;stroke-linejoin:miter;stroke:#8e94a5;stroke-opacity:1;stroke-miterlimit:4;" d="M 4.836621 19.652902 C 65.942598 34.877599 136.845005 34.877467 217.532219 19.651768 " transform="matrix(-0.292216,0.690649,-0.690649,-0.292216,1178.26395,382.011864)" />
                <path style="fill:none;stroke-width:40;stroke-linecap:butt;stroke-linejoin:miter;stroke:#8e94a5;stroke-opacity:1;stroke-miterlimit:4;" d="M 3.710098 19.816085 C 213.484634 59.402348 462.423103 59.402598 750.515248 19.815014 " transform="matrix(0.130963,0.738401,-0.738401,0.130963,1115.271328,521.177004)" />
            </g>
        </g>
        <g id="tangan_kanan">
            <g id="telapak_tangan_kanan">
                <g clip-rule="nonzero" clip-path="url(#7caa442b5b)"><path style="fill:none;stroke-width:40;stroke-linecap:butt;stroke-linejoin:miter;stroke:#8e94a5;stroke-opacity:1;stroke-miterlimit:4;" d="M 5.074681 19.680231 C 229.425213 78.517879 504.572924 78.515239 830.511274 19.680421 " transform="matrix(0.470764,0.583753,-0.583753,0.470764,3286.286924,2532.972107)" /></g>
                <path style="fill:none;stroke-width:40;stroke-linecap:butt;stroke-linejoin:miter;stroke:#8e94a5;stroke-opacity:1;stroke-miterlimit:4;" d="M 1.299305 27.675263 C 158.396354 17.441683 371.61928 17.441743 640.956676 27.673079 " transform="matrix(0.464523,0.588732,-0.588732,0.464523,2995.740546,2154.996454)" />
                <g clip-rule="nonzero" clip-path="url(#814e51cae2)"><path style="fill:none;stroke-width:40;stroke-linecap:butt;stroke-linejoin:miter;stroke:#8e94a5;stroke-opacity:1;stroke-miterlimit:4;" d="M 1.665399 19.986732 C 179.178169 34.796192 459.752018 34.79931 843.375919 19.986315 " transform="matrix(-0.0451558,0.748564,-0.748564,-0.0451558,4872.958426,1631.491797)" /></g>
                <g clip-rule="nonzero" clip-path="url(#8960f1c739)"><path style="fill:none;stroke-width:40;stroke-linecap:butt;stroke-linejoin:miter;stroke:#8e94a5;stroke-opacity:1;stroke-miterlimit:4;" d="M 1.970293 19.931635 C 202.27685 39.772168 420.830031 39.772168 657.635042 19.931635 " transform="matrix(0,0.749925,-0.749925,0,4834.861289,2260.432585)" /></g>
                <g clip-rule="nonzero" clip-path="url(#4e162e1d53)"><path style="fill:none;stroke-width:40;stroke-linecap:butt;stroke-linejoin:miter;stroke:#8e94a5;stroke-opacity:1;stroke-miterlimit:4;" d="M 5.277761 19.685368 C 115.196753 49.765629 253.718699 49.766719 420.846097 19.684067 " transform="matrix(0.359746,0.658004,-0.658004,0.359746,4830.96456,2743.054848)" /></g>
            </g>
            <g id="kelingking_kanan">
                <path style="fill:none;stroke-width:40;stroke-linecap:butt;stroke-linejoin:miter;stroke:#8e94a5;stroke-opacity:1;stroke-miterlimit:4;" d="M 9.57143 17.562426 C 106.467297 70.362269 194.585689 70.361268 273.926605 17.559422 " transform="matrix(-0.485681,0.571403,-0.571403,-0.485681,4576.953411,354.505913)" />
                <path style="fill:none;stroke-width:40;stroke-linecap:butt;stroke-linejoin:miter;stroke:#8e94a5;stroke-opacity:1;stroke-miterlimit:4;" d="M 6.092494 19.048148 C 209.977438 84.286862 336.569808 84.289886 385.879512 19.051096 " transform="matrix(-0.394305,-0.637896,0.637896,-0.394305,4702.278914,605.100278)" />
                <path style="fill:none;stroke-width:40;stroke-linecap:butt;stroke-linejoin:miter;stroke:#8e94a5;stroke-opacity:1;stroke-miterlimit:4;" d="M 1.468808 19.944118 C 301.028492 42.035262 531.389451 42.033094 692.545051 19.947188 " transform="matrix(-0.106331,-0.742348,0.742348,-0.106331,4770.858512,1109.929793)" />
                <g clip-rule="nonzero" clip-path="url(#9d6aba5fd0)"><path style="fill:none;stroke-width:40;stroke-linecap:butt;stroke-linejoin:miter;stroke:#8e94a5;stroke-opacity:1;stroke-miterlimit:4;" d="M 1.787231 19.948686 C 215.856281 39.162454 460.306283 39.160191 735.141029 19.952911 " transform="matrix(0.098748,0.743395,-0.743395,0.098748,4800.157172,1083.357739)" /></g>
            </g>
            <g id="jari_manis_kanan">
                <path style="fill:none;stroke-width:40;stroke-linecap:butt;stroke-linejoin:miter;stroke:#8e94a5;stroke-opacity:1;stroke-miterlimit:4;" d="M -0.00150835 20.002412 C 86.770373 19.997961 194.771765 19.998055 324.00784 20.002091 " transform="matrix(0.087057,-0.744854,0.744854,0.087057,4116.144214,1059.882527)" />
                <path style="fill:none;stroke-width:40;stroke-linecap:butt;stroke-linejoin:miter;stroke:#8e94a5;stroke-opacity:1;stroke-miterlimit:4;" d="M 4.553027 19.473612 C 58.376516 32.05903 112.197542 32.062248 166.025348 19.476177 " transform="matrix(-0.328023,-0.67438,0.67438,-0.328023,4147.606977,514.669193)" />
                <path style="fill:none;stroke-width:40;stroke-linecap:butt;stroke-linejoin:miter;stroke:#8e94a5;stroke-opacity:1;stroke-miterlimit:4;" d="M 3.732194 39.180675 C 138.337095 13.606845 293.841506 13.607532 470.240392 39.181401 " transform="matrix(0.192271,0.724858,-0.724858,0.192271,4403.038304,331.132489)" />
                <path style="fill:none;stroke-width:40;stroke-linecap:butt;stroke-linejoin:miter;stroke:#8e94a5;stroke-opacity:1;stroke-miterlimit:4;" d="M 2.788215 39.180474 C 184.473566 13.604661 394.370675 13.605641 632.474896 39.177697 " transform="matrix(0.0774038,0.745919,-0.745919,0.0774038,4477.728408,554.379688)" />
                <path style="fill:none;stroke-width:40;stroke-linecap:butt;stroke-linejoin:miter;stroke:#8e94a5;stroke-opacity:1;stroke-miterlimit:4;" d="M 4.738143 19.781216 C 142.942289 53.47358 325.410622 53.472846 552.147461 19.78498 " transform="matrix(0.118404,0.740519,-0.740519,0.118404,4511.544375,1023.340554)" />
                <g clip-rule="nonzero" clip-path="url(#156f43e4c9)"><path style="fill:none;stroke-width:40;stroke-linecap:butt;stroke-linejoin:miter;stroke:#8e94a5;stroke-opacity:1;stroke-miterlimit:4;" d="M 14.5702 62.996566 C 68.473473 5.6705 144.198535 5.666821 241.746379 62.997133 " transform="matrix(0.696922,-0.276924,0.276924,0.696922,3994.099662,197.416307)" /></g>
                <path style="fill:none;stroke-width:40;stroke-linecap:butt;stroke-linejoin:miter;stroke:#8e94a5;stroke-opacity:1;stroke-miterlimit:4;" d="M -0.00117465 19.997814 C 62.185763 19.999204 175.676593 19.999125 340.485996 19.998837 " transform="matrix(0.573697,0.482969,-0.482969,0.573697,4189.682434,165.453665)" />
                <path style="fill:none;stroke-width:40;stroke-linecap:butt;stroke-linejoin:miter;stroke:#8e94a5;stroke-opacity:1;stroke-miterlimit:4;" d="M 9.349977 18.72028 C 76.088867 54.026526 156.389497 54.028139 250.249702 18.718077 " transform="matrix(0.351135,0.66264,-0.66264,0.351135,4030.813097,224.516142)" />
                <path style="fill:none;stroke-width:40;stroke-linecap:butt;stroke-linejoin:miter;stroke:#8e94a5;stroke-opacity:1;stroke-miterlimit:4;" d="M 0.00234526 19.99856 C 114.906319 19.99936 257.933342 20.002175 429.078233 20.001768 " transform="matrix(-0.0042207,-0.749913,0.749913,-0.0042207,4144.252833,820.371323)" />
            </g>
            <g id="jari_tengah_kanan">
                <path style="fill:none;stroke-width:40;stroke-linecap:butt;stroke-linejoin:miter;stroke:#8e94a5;stroke-opacity:1;stroke-miterlimit:4;" d="M 10.330207 69.118172 C 118.908593 3.629612 268.841129 3.628052 460.124484 69.120061 " transform="matrix(-0.233055,0.712792,-0.712792,-0.233055,3795.881425,869.092698)" />
                <path style="fill:none;stroke-width:40;stroke-linecap:butt;stroke-linejoin:miter;stroke:#8e94a5;stroke-opacity:1;stroke-miterlimit:4;" d="M 10.239708 19.094406 C 131.433877 91.348893 307.843831 91.347621 539.462759 19.093399 " transform="matrix(0.288009,0.692414,-0.692414,0.288009,3602.057268,161.789417)" />
                <g clip-rule="nonzero" clip-path="url(#b7b8c1cd41)"><path style="fill:none;stroke-width:40;stroke-linecap:butt;stroke-linejoin:miter;stroke:#8e94a5;stroke-opacity:1;stroke-miterlimit:4;" d="M 10.989908 16.706204 C 118.844788 87.656213 206.328747 87.658424 273.452991 16.709661 " transform="matrix(-0.736783,0.139776,-0.139776,-0.736783,3795.59247,151.007098)" /></g>
                <path style="fill:none;stroke-width:40;stroke-linecap:butt;stroke-linejoin:miter;stroke:#8e94a5;stroke-opacity:1;stroke-miterlimit:4;" d="M 6.614675 18.873862 C 185.080336 81.396891 320.268052 81.396187 412.186167 18.877987 " transform="matrix(-0.448939,-0.600701,0.600701,-0.448939,4056.987511,553.259144)" />
                <path style="fill:none;stroke-width:40;stroke-linecap:butt;stroke-linejoin:miter;stroke:#8e94a5;stroke-opacity:1;stroke-miterlimit:4;" d="M 2.62457 38.711615 C 190.985101 13.761674 506.862155 13.761466 950.266825 38.707446 " transform="matrix(-0.115242,-0.741017,0.741017,-0.115242,4146.186799,1249.433385)" />
                <path style="fill:none;stroke-width:40;stroke-linecap:butt;stroke-linejoin:miter;stroke:#8e94a5;stroke-opacity:1;stroke-miterlimit:4;" d="M 0.00187375 20.00043 C 154.895934 19.999896 296.938597 19.999952 426.124656 20.000667 " transform="matrix(-0.0100649,0.749857,-0.749857,-0.0100649,3763.49358,541.024116)" />
                <g clip-rule="nonzero" clip-path="url(#801d31ea0a)"><path style="fill:none;stroke-width:40;stroke-linecap:butt;stroke-linejoin:miter;stroke:#8e94a5;stroke-opacity:1;stroke-miterlimit:4;" d="M -0.00168347 19.999705 C 121.606195 19.998262 219.558418 19.998038 293.854985 19.999032 " transform="matrix(-0.494699,-0.563613,0.563613,-0.494699,3919.258324,319.693674)" /></g>
            </g>
            <g id="jari_telunjuk_kanan">
                <path style="fill:none;stroke-width:40;stroke-linecap:butt;stroke-linejoin:miter;stroke:#0571d3;stroke-opacity:1;stroke-miterlimit:4;" d="M 2.642327 19.824225 C 430.58669 76.893044 707.936987 76.894375 834.683158 19.825508 " transform="matrix(-0.195126,-0.724095,0.724095,-0.195126,3188.410971,1376.664321)" />
                <path style="fill:none;stroke-width:40;stroke-linecap:butt;stroke-linejoin:miter;stroke:#0571d3;stroke-opacity:1;stroke-miterlimit:4;" d="M 9.452879 65.047346 C 121.469439 4.981651 346.999175 4.985395 686.033774 65.046417 " transform="matrix(-0.138471,-0.73703,0.73703,-0.138471,2993.265554,784.376567)" />
                <g clip-rule="nonzero" clip-path="url(#3efdad2d9a)"><path style="fill:none;stroke-width:40;stroke-linecap:butt;stroke-linejoin:miter;stroke:#0571d3;stroke-opacity:1;stroke-miterlimit:4;" d="M 3.336785 30.365993 C 85.031528 16.54615 155.155192 16.545654 213.719413 30.365014 " transform="matrix(0.305715,-0.684781,0.684781,0.305715,2924.400673,262.74773)" /></g>
                <g clip-rule="nonzero" clip-path="url(#8fcb46367b)"><path style="fill:none;stroke-width:40;stroke-linecap:butt;stroke-linejoin:miter;stroke:#0571d3;stroke-opacity:1;stroke-miterlimit:4;" d="M 13.582287 68.781279 C 83.894752 3.740628 154.213612 3.738597 224.527708 68.784806 " transform="matrix(0.747878,-0.0553623,0.0553623,0.747878,2996.565463,76.975977)" /></g>
                <g clip-rule="nonzero" clip-path="url(#e1c77718b2)"><path style="fill:none;stroke-width:40;stroke-linecap:butt;stroke-linejoin:miter;stroke:#0571d3;stroke-opacity:1;stroke-miterlimit:4;" d="M 4.579928 41.101904 C 124.155049 12.965185 269.191589 12.964969 439.699333 41.10483 " transform="matrix(0.257154,0.704456,-0.704456,0.257154,3196.065818,102.188497)" /></g>
                <path style="fill:none;stroke-width:40;stroke-linecap:butt;stroke-linejoin:miter;stroke:#0571d3;stroke-opacity:1;stroke-miterlimit:4;" d="M 2.103186 19.998858 C 60.787854 26.205469 316.958166 26.202274 770.60484 19.996306 " transform="matrix(0.332107,0.672378,-0.672378,0.332107,3292.927994,414.451914)" />
                <path style="fill:none;stroke-width:40;stroke-linecap:butt;stroke-linejoin:miter;stroke:#0571d3;stroke-opacity:1;stroke-miterlimit:4;" d="M 0.00197564 19.9998 C 138.599375 19.998063 277.195038 20.001237 415.797349 20.001237 " transform="matrix(0.250069,0.707003,-0.707003,0.250069,3549.545666,934.235552)" />
            </g>

            <g id="jari_jempol_kanan">
                <path style="fill:none;stroke-width:40;stroke-linecap:butt;stroke-linejoin:miter;stroke:#8e94a5;stroke-opacity:1;stroke-miterlimit:4;" d="M 2.059961 34.56154 C 189.439089 15.145267 416.395483 15.144988 682.93423 34.561823 " transform="matrix(0.160943,0.732451,-0.732451,0.160943,2895.447938,1667.15529)" />
                <path style="fill:none;stroke-width:40;stroke-linecap:butt;stroke-linejoin:miter;stroke:#8e94a5;stroke-opacity:1;stroke-miterlimit:4;" d="M 7.961623 19.325287 C 148.136897 80.14741 332.213108 80.149684 560.197074 19.322665 " transform="matrix(0.120756,0.740139,-0.740139,0.120756,2817.12323,1257.269751)" />
                <path style="fill:none;stroke-width:40;stroke-linecap:butt;stroke-linejoin:miter;stroke:#8e94a5;stroke-opacity:1;stroke-miterlimit:4;" d="M 3.936615 19.608536 C 156.607087 50.277092 290.026345 50.275803 404.193341 19.609771 " transform="matrix(0.151038,0.734557,-0.734557,0.151038,2757.133234,965.627162)" />
                <path style="fill:none;stroke-width:40;stroke-linecap:butt;stroke-linejoin:miter;stroke:#8e94a5;stroke-opacity:1;stroke-miterlimit:4;" d="M 10.437447 17.062041 C 246.900112 161.751377 385.960111 161.750142 427.624205 17.061259 " transform="matrix(-0.697257,-0.276079,0.276079,-0.697257,3036.778059,1101.422719)" />
                <path style="fill:none;stroke-width:40;stroke-linecap:butt;stroke-linejoin:miter;stroke:#8e94a5;stroke-opacity:1;stroke-miterlimit:4;" d="M 1.399498 19.949916 C 282.214528 39.664682 459.384369 39.66365 532.906825 19.951543 " transform="matrix(-0.316143,-0.68003,0.68003,-0.316143,3189.121995,1455.356384)" />
            </g>
        </g>
    </g>
</svg>
