<svg xmlns="http://www.w3.org/2000/svg" xmlns:xlink="http://www.w3.org/1999/xlink" width="6646" zoomAndPan="magnify" viewBox="0 0 4984.5 3059.999987" height="4080" preserveAspectRatio="xMidYMid meet" version="1.2">
    <defs>
        <clipPath id="0230c39c61"><path d="M 604 0.152344 L 1328 0.152344 L 1328 477 L 604 477 Z M 604 0.152344 " /></clipPath>
        <clipPath id="d93b06fdc3"><path d="M 987 0.152344 L 1510 0.152344 L 1510 261 L 987 261 Z M 987 0.152344 " /></clipPath>
        <clipPath id="10cc8f1df1"><path d="M 993 0.152344 L 1510 0.152344 L 1510 552 L 993 552 Z M 993 0.152344 " /></clipPath>
        <clipPath id="8b8f0fc419"><path d="M 4615 916 L 4984 916 L 4984 1802 L 4615 1802 Z M 4615 916 " /></clipPath>
        <clipPath id="7af4951e13"><path d="M 3852 0.152344 L 4350 0.152344 L 4350 407 L 3852 407 Z M 3852 0.152344 " /></clipPath>
        <clipPath id="c73d946688"><path d="M 3422 0.152344 L 3955 0.152344 L 3955 347 L 3422 347 Z M 3422 0.152344 " /></clipPath>
        <clipPath id="e5d64de19d"><path d="M 3615 0.152344 L 4101 0.152344 L 4101 480 L 3615 480 Z M 3615 0.152344 " /></clipPath>
        <clipPath id="b94ebd0a60"><path d="M 2939 0.152344 L 3328 0.152344 L 3328 468 L 2939 468 Z M 2939 0.152344 " /></clipPath>
        <clipPath id="a8ff349dce"><path d="M 2987 0.152344 L 3485 0.152344 L 3485 322 L 2987 322 Z M 2987 0.152344 " /></clipPath>
        <clipPath id="1e0baef534"><path d="M 3145 0.152344 L 3603 0.152344 L 3603 730 L 3145 730 Z M 3145 0.152344 " /></clipPath>
        <clipPath id="fe05b77a6b"><path d="M 3107 2375 L 3836 2375 L 3836 3059.84375 L 3107 3059.84375 Z M 3107 2375 " /></clipPath>
        <clipPath id="008e10c097"><path d="M 4650 1462 L 4984 1462 L 4984 2432 L 4650 2432 Z M 4650 1462 " /></clipPath>
        <clipPath id="2cc013ac08"><path d="M 4639 2092 L 4984 2092 L 4984 2924 L 4639 2924 Z M 4639 2092 " /></clipPath>
        <clipPath id="110321dd29"><path d="M 4650 2583 L 4984 2583 L 4984 3059.84375 L 4650 3059.84375 Z M 4650 2583 " /></clipPath>
        <clipPath id="63763d97e5">
            <path d="M 1355 0.0273438 L 1842 0.0273438 L 1842 435 L 1355 435 Z M 1355 0.0273438 " />
        </clipPath>
        <clipPath id="1fb684bd35">
            <path d="M 1452 0.0273438 L 1933 0.0273438 L 1933 385 L 1452 385 Z M 1452 0.0273438 " />
        </clipPath>
        <clipPath id="d37e8dec71">
            <path d="M 2234.234375 0.0742188 L 2809 0.0742188 L 2809 65.964844 L 2234.234375 65.964844 Z M 2234.234375 0.0742188 " />
        </clipPath>
                <clipPath id="42d4903003">
            <path d="M 983 2601 L 1538 2601 L 1538 3050.925781 L 983 3050.925781 Z M 983 2601 " />
        </clipPath>
                <clipPath id="0ae2e684b0">
            <path d="M 491 0.0742188 L 897 0.0742188 L 897 390 L 491 390 Z M 491 0.0742188 " />
        </clipPath>
        <clipPath id="e0ba960c54">
            <path d="M 543 0.0742188 L 986 0.0742188 L 986 422 L 543 422 Z M 543 0.0742188 " />
        </clipPath>




    </defs>
    <g id="tangan_kiri">
        <path style="fill:none;stroke-width:40;stroke-linecap:butt;stroke-linejoin:miter;stroke:#8e94a5;stroke-opacity:1;stroke-miterlimit:4;" d="M 5.182737 19.516298 C 122.331008 50.936355 250.927736 50.936296 390.972921 19.516122 " transform="matrix(0.349354,-0.663624,0.663624,0.349354,-0.000368731,2655.859565)" />
        <path style="fill:none;stroke-width:40;stroke-linecap:butt;stroke-linejoin:miter;stroke:#8e94a5;stroke-opacity:1;stroke-miterlimit:4;" d="M 2.447359 19.917398 C 163.915249 39.833005 352.900771 39.829859 569.399258 19.913659 " transform="matrix(0.0742989,-0.746274,0.746274,0.0742989,134.493397,2403.561403)" />
        <path style="fill:none;stroke-width:40;stroke-linecap:butt;stroke-linejoin:miter;stroke:#8e94a5;stroke-opacity:1;stroke-miterlimit:4;" d="M 6.042938 47.561676 C 122.006495 10.815052 237.96896 10.811068 353.936169 47.559802 " transform="matrix(0.0459053,-0.748557,0.748557,0.0459053,155.780132,1982.457336)" />
        <path style="fill:none;stroke-width:40;stroke-linecap:butt;stroke-linejoin:miter;stroke:#8e94a5;stroke-opacity:1;stroke-miterlimit:4;" d="M 9.6169 19.92086 C 44.392319 38.998841 170.068414 38.998415 386.640922 19.925589 " transform="matrix(0.125573,-0.739375,0.739375,0.125573,191.696191,1724.30819)" />
        <path style="fill:none;stroke-width:40;stroke-linecap:butt;stroke-linejoin:miter;stroke:#8e94a5;stroke-opacity:1;stroke-miterlimit:4;" d="M 1.586527 19.970187 C 165.412967 33.01834 368.317383 33.019769 610.303698 19.971047 " transform="matrix(0.493436,-0.564771,0.564771,0.493436,1792.282326,2341.846708)" />
        <path style="fill:none;stroke-width:40;stroke-linecap:butt;stroke-linejoin:miter;stroke:#8e94a5;stroke-opacity:1;stroke-miterlimit:4;" d="M 2.147937 19.89922 C 263.083454 48.08186 532.258276 48.082477 809.66865 19.89746 " transform="matrix(0.540278,-0.520138,0.520138,0.540278,1356.547762,2761.194229)" />
        <g clip-rule="nonzero" clip-path="url(#42d4903003)">
            <path style="fill:none;stroke-width:40;stroke-linecap:butt;stroke-linejoin:miter;stroke:#8e94a5;stroke-opacity:1;stroke-miterlimit:4;" d="M 6.15068 54.31837 C 147.72117 8.560636 298.586938 8.563202 458.74469 54.322033 " transform="matrix(0.47431,-0.580926,0.580926,0.47431,1118.91444,3011.559357)" />
        </g>

        <g id="jari_kelingking_kiri" style="stroke:#8e94a5;">
        <path style="fill:none;stroke-width:40;stroke-linecap:butt;stroke-linejoin:miter;stroke-opacity:1;stroke-miterlimit:4;" d="M 15.494551 52.356022 C 50.695106 9.212804 272.061012 9.217723 679.597904 52.352863 " transform="matrix(0.20962,-0.720072,0.720072,0.20962,214.032378,1441.123738)" />
        <path style="fill:none;stroke-width:40;stroke-linecap:butt;stroke-linejoin:miter;stroke-opacity:1;stroke-miterlimit:4;" d="M 2.345471 42.082966 C 251.524638 12.636815 488.00329 12.640357 711.784188 42.082278 " transform="matrix(0.166825,-0.731173,0.731173,0.166825,363.026282,957.432739)" />
        <path style="fill:none;stroke-width:40;stroke-linecap:butt;stroke-linejoin:miter;stroke-opacity:1;stroke-miterlimit:4;" d="M 2.980896 42.235207 C 199.535877 12.587631 324.909387 12.585538 379.111557 42.234672 " transform="matrix(0.418198,-0.622539,0.622539,0.418198,484.999391,428.208657)" />
        <g clip-rule="nonzero" clip-path="url(#0ae2e684b0)">
            <path style="fill:none;stroke-width:40;stroke-linecap:butt;stroke-linejoin:miter;stroke-opacity:1;stroke-miterlimit:4;" d="M 3.938327 26.674449 C 48.226672 17.778238 92.515645 17.776767 136.805246 26.670038 " transform="matrix(0.491465,-0.566487,0.566487,0.491465,644.102164,208.890997)" />
        </g>
        <g clip-rule="nonzero" clip-path="url(#e0ba960c54)">
            <path style="fill:none;stroke-width:40;stroke-linecap:butt;stroke-linejoin:miter;stroke-opacity:1;stroke-miterlimit:4;" d="M 11.791075 55.629482 C 76.871391 8.126296 141.947382 8.123565 207.030113 55.624924 " transform="matrix(0.528086,0.532513,-0.532513,0.528086,736.556853,112.289254)" />
        </g>
        <path style="fill:none;stroke-width:40;stroke-linecap:butt;stroke-linejoin:miter;stroke-opacity:1;stroke-miterlimit:4;" d="M 6.2465 26.287819 C 31.750964 17.904022 54.114713 17.904432 73.321471 26.286531 " transform="matrix(-0.125573,0.739375,-0.739375,-0.125573,836.478775,250.592696)" />
        </g>
        <g id="jari_manis_kiri" style="stroke:#8e94a5;">
        <path style="fill:none;stroke-width:40;stroke-linecap:butt;stroke-linejoin:miter;stroke-opacity:1;stroke-miterlimit:4;" d="M 6.003137 37.978554 C 82.150811 14.009089 143.140615 14.008432 188.972549 37.976582 " transform="matrix(0.608713,-0.438079,0.438079,0.608713,977.317582,514.972745)" />
        <path style="fill:none;stroke-width:40;stroke-linecap:butt;stroke-linejoin:miter;stroke-opacity:1;stroke-miterlimit:4;" d="M 1.779665 19.920015 C 116.259668 30.157818 230.737705 30.157141 345.213778 19.917983 " transform="matrix(0.240498,-0.710356,0.710356,0.240498,490.124819,1289.110192)" />
        <path style="fill:none;stroke-width:40;stroke-linecap:butt;stroke-linejoin:miter;stroke-opacity:1;stroke-miterlimit:4;" d="M 2.497733 42.51701 C 240.821613 12.4934 488.86591 12.492458 746.636736 42.518297 " transform="matrix(0.143847,-0.736039,0.736039,0.143847,555.643423,1044.398273)" />
        <path style="fill:none;stroke-width:40;stroke-linecap:butt;stroke-linejoin:miter;stroke-opacity:1;stroke-miterlimit:4;" d="M 5.300232 75.493232 C 274.430776 1.504383 424.863364 1.503568 456.605348 75.491244 " transform="matrix(0.496358,-0.562204,0.562204,0.496358,649.270334,466.476889)" />
        <g clip-rule="nonzero" clip-path="url(#d985d480b9)">
            <path style="fill:none;stroke-width:40;stroke-linecap:butt;stroke-linejoin:miter;stroke-opacity:1;stroke-miterlimit:4;" d="M 0.77942 19.986216 C 221.656677 28.634329 361.509897 28.631684 420.346716 19.987075 " transform="matrix(0.693115,-0.28642,0.28642,0.693115,875.36032,232.542372)" />
        </g>
        <g clip-rule="nonzero" clip-path="url(#44edbde3a7)">
            <path style="fill:none;stroke-width:40;stroke-linecap:butt;stroke-linejoin:miter;stroke-opacity:1;stroke-miterlimit:4;" d="M 13.088746 70.938662 C 91.557149 3.023091 161.348578 3.022127 222.470308 70.936929 " transform="matrix(0.607048,0.440383,-0.440383,0.607048,1195.724369,77.17275)" />
        </g>
        <path style="fill:none;stroke-width:40;stroke-linecap:butt;stroke-linejoin:miter;stroke-opacity:1;stroke-miterlimit:4;" d="M -0.00184288 20.000855 C 174.500866 20.001216 313.455765 19.998251 416.863153 20.002371 " transform="matrix(0.0215776,-0.749653,0.749653,0.0215776,973.619628,847.531891)" />
        </g>
        <g id="jari_tengah_kiri" style="stroke:#8e94a5;">
        <path style="fill:none;stroke-width:40;stroke-linecap:butt;stroke-linejoin:miter;stroke-opacity:1;stroke-miterlimit:4;" d="M 1.374655 55.834686 C 695.299439 8.056123 1051.888014 8.056259 1071.145332 55.833479 " transform="matrix(0.232454,-0.713029,0.713029,0.232454,903.021073,1011.173034)" />
        <g clip-rule="nonzero" clip-path="url(#6607e83bc0)">
            <path style="fill:none;stroke-width:40;stroke-linecap:butt;stroke-linejoin:miter;stroke-opacity:1;stroke-miterlimit:4;" d="M 0.748292 19.987114 C 348.805197 33.026603 554.453984 33.027238 617.694652 19.989018 " transform="matrix(0.683146,-0.309446,0.309446,0.683146,1185.128098,246.975882)" />
        </g>
        <g clip-rule="nonzero" clip-path="url(#3cc143040f)">
            <path style="fill:none;stroke-width:40;stroke-linecap:butt;stroke-linejoin:miter;stroke-opacity:1;stroke-miterlimit:4;" d="M 11.383548 63.128443 C 94.445911 5.624218 177.507333 5.624735 260.565795 63.125191 " transform="matrix(0.69132,0.290726,-0.290726,0.69132,1623.768535,22.540741)" />
        </g>
        <g clip-rule="nonzero" clip-path="url(#a172ca83d5)">
            <path style="fill:none;stroke-width:40;stroke-linecap:butt;stroke-linejoin:miter;stroke-opacity:1;stroke-miterlimit:4;" d="M 11.61075 80.305293 C 124.407285 -0.102434 275.78762 -0.102914 465.7591 80.304399 " transform="matrix(-0.489714,0.568001,-0.568001,-0.489714,1836.846288,174.665314)" />
        </g>
        <path style="fill:none;stroke-width:40;stroke-linecap:butt;stroke-linejoin:miter;stroke-opacity:1;stroke-miterlimit:4;" d="M 4.835268 19.655583 C 65.945617 34.876164 136.84434 34.875205 217.531437 19.652708 " transform="matrix(-0.403753,0.632003,-0.632003,-0.403753,1577.968394,402.106669)" />
        <path style="fill:none;stroke-width:40;stroke-linecap:butt;stroke-linejoin:miter;stroke-opacity:1;stroke-miterlimit:4;" d="M 3.709115 19.815704 C 213.487993 59.402768 462.423518 59.402995 750.515688 19.816387 " transform="matrix(0.00547713,0.749943,-0.749943,0.00547713,1492.559087,528.766092)" />
        </g>
        <g id="jari_jempol_kiri" style="stroke:#8e94a5;">
        <path style="fill:none;stroke-width:40;stroke-linecap:butt;stroke-linejoin:miter;stroke-opacity:1;stroke-miterlimit:4;" d="M 4.084353 19.577402 C 199.606529 60.355617 345.744304 60.356299 442.48126 19.580759 " transform="matrix(0.29301,-0.690355,0.690355,0.29301,1859.147264,1498.29812)" />
        <path style="fill:none;stroke-width:40;stroke-linecap:butt;stroke-linejoin:miter;stroke-opacity:1;stroke-miterlimit:4;" d="M 4.701172 55.343629 C 199.543696 8.220275 335.103606 8.219916 411.388069 55.344254 " transform="matrix(0.393451,-0.638468,0.638468,0.393451,1965.1316,1179.79686)" />
        <path style="fill:none;stroke-width:40;stroke-linecap:butt;stroke-linejoin:miter;stroke-opacity:1;stroke-miterlimit:4;" d="M 7.603732 47.019865 C 95.266518 10.99359 182.925461 10.99288 270.585748 47.018208 " transform="matrix(0.746858,-0.0681737,0.0681737,0.746858,2153.443698,904.319173)" />
        <path style="fill:none;stroke-width:40;stroke-linecap:butt;stroke-linejoin:miter;stroke-opacity:1;stroke-miterlimit:4;" d="M 4.387935 42.182024 C 135.939322 12.605963 267.491783 12.608522 399.048859 42.178604 " transform="matrix(-0.115582,0.741003,-0.741003,-0.115582,2390.494641,922.61621)" />
        <path style="fill:none;stroke-width:40;stroke-linecap:butt;stroke-linejoin:miter;stroke-opacity:1;stroke-miterlimit:4;" d="M 3.369734 35.480602 C 124.11932 14.840773 255.670429 14.841072 398.023061 35.481499 " transform="matrix(-0.125573,0.739375,-0.739375,-0.125573,2342.012104,1204.913137)" />
        <path style="fill:none;stroke-width:40;stroke-linecap:butt;stroke-linejoin:miter;stroke-opacity:1;stroke-miterlimit:4;" d="M 1.554807 19.938243 C 238.892937 38.464121 476.22981 38.461632 713.568583 19.940701 " transform="matrix(-0.227318,0.714683,-0.714683,-0.227318,2279.954513,1498.096914)" />
        </g>
        <g id="jari_telunjuk_kiri" style="stroke:#0571d3;">
        <path style="fill:none;stroke-width:40;stroke-linecap:butt;stroke-linejoin:miter;stroke:#0571d3;stroke-opacity:1;stroke-miterlimit:4;" d="M 0.806097 19.982696 C 312.103561 32.566998 564.041951 32.567086 756.621266 19.982959 " transform="matrix(0.37644,-0.648643,0.648643,0.37644,1483.910704,1016.176356)" />
        <path style="fill:none;stroke-width:40;stroke-linecap:butt;stroke-linejoin:miter;stroke:#0571d3;stroke-opacity:1;stroke-miterlimit:4;" d="M 2.195859 19.963415 C 74.77689 27.987174 176.605848 27.988064 307.698821 19.962548 " transform="matrix(0.384447,-0.643929,0.643929,0.384447,1879.976561,409.692223)" />
        <g clip-rule="nonzero" clip-path="url(#2604d38ee1)">
            <path style="fill:none;stroke-width:40;stroke-linecap:butt;stroke-linejoin:miter;stroke:#0571d3;stroke-opacity:1;stroke-miterlimit:4;" d="M 13.345584 73.027172 C 92.272701 2.32792 171.202046 2.327817 250.128796 73.024897 " transform="matrix(0.694302,-0.28353,0.28353,0.694302,1981.153741,172.319235)" />
        </g>
        <g clip-rule="nonzero" clip-path="url(#c3806b24c0)">
            <path style="fill:none;stroke-width:40;stroke-linecap:butt;stroke-linejoin:miter;stroke:#0571d3;stroke-opacity:1;stroke-miterlimit:4;" d="M 8.72972 49.053466 C 88.565314 10.31783 154.68892 10.317274 207.10497 49.049059 " transform="matrix(0.637888,0.39439,-0.39439,0.637888,2140.746354,106.92271)" />
        </g>
        <path style="fill:none;stroke-width:40;stroke-linecap:butt;stroke-linejoin:miter;stroke:#0571d3;stroke-opacity:1;stroke-miterlimit:4;" d="M 4.330575 46.329018 C 162.617597 11.221367 345.320304 11.221783 552.422229 46.330621 " transform="matrix(-0.252458,0.706194,-0.706194,-0.252458,2287.326183,228.528517)" />
        <path style="fill:none;stroke-width:40;stroke-linecap:butt;stroke-linejoin:miter;stroke:#0571d3;stroke-opacity:1;stroke-miterlimit:4;" d="M 0.000653316 20.001048 C 225.168619 19.999164 435.748326 20.001623 631.731368 20.000367 " transform="matrix(-0.252179,0.706294,-0.706294,-0.252179,2129.263494,612.000409)" />
        <path style="fill:none;stroke-width:40;stroke-linecap:butt;stroke-linejoin:miter;stroke:#0571d3;stroke-opacity:1;stroke-miterlimit:4;" d="M -0.000815603 19.999016 C 222.580675 20.001925 430.738131 19.99744 624.469748 20.00193 " transform="matrix(-0.15778,0.733178,-0.733178,-0.15778,1970.498648,1056.296672)" />
        <path style="fill:none;stroke-width:40;stroke-linecap:butt;stroke-linejoin:miter;stroke:#0571d3;stroke-opacity:1;stroke-miterlimit:4;" d="M 3.095229 19.925648 C 54.384475 27.953824 126.353228 27.952095 219.005089 19.924223 " transform="matrix(0.51863,-0.541727,0.541727,0.51863,1769.299687,524.260697)" />

        </g>
    </g>
    <g id="tangan_kanan">
        <path style="fill:none;stroke-width:40;stroke-linecap:butt;stroke-linejoin:miter;stroke:#8b8d90;stroke-opacity:1;stroke-miterlimit:4;" d="M 1.299305 27.675263 C 158.396354 17.441683 371.61928 17.441743 640.956676 27.673079 " transform="matrix(0.464523,0.588732,-0.588732,0.464523,2995.740546,2154.996454)" />
        <g clip-rule="nonzero" clip-path="url(#fe05b77a6b)"><path style="fill:none;stroke-width:40;stroke-linecap:butt;stroke-linejoin:miter;stroke:#8b8d90;stroke-opacity:1;stroke-miterlimit:4;" d="M 5.074681 19.680231 C 229.425213 78.517879 504.572924 78.515239 830.511274 19.680421 " transform="matrix(0.470764,0.583753,-0.583753,0.470764,3286.286924,2532.972107)" /></g>
        <g clip-rule="nonzero" clip-path="url(#008e10c097)"><path style="fill:none;stroke-width:40;stroke-linecap:butt;stroke-linejoin:miter;stroke:#8b8d90;stroke-opacity:1;stroke-miterlimit:4;" d="M 1.665399 19.986732 C 179.178169 34.796192 459.752018 34.79931 843.375919 19.986315 " transform="matrix(-0.0451558,0.748564,-0.748564,-0.0451558,4872.958426,1631.491797)" /></g>
        <g clip-rule="nonzero" clip-path="url(#2cc013ac08)"><path style="fill:none;stroke-width:40;stroke-linecap:butt;stroke-linejoin:miter;stroke:#8b8d90;stroke-opacity:1;stroke-miterlimit:4;" d="M 1.970293 19.931635 C 202.27685 39.772168 420.830031 39.772168 657.635042 19.931635 " transform="matrix(0,0.749925,-0.749925,0,4834.861289,2260.432585)" /></g>
        <g clip-rule="nonzero" clip-path="url(#110321dd29)"><path style="fill:none;stroke-width:40;stroke-linecap:butt;stroke-linejoin:miter;stroke:#8b8d90;stroke-opacity:1;stroke-miterlimit:4;" d="M 5.277761 19.685368 C 115.196753 49.765629 253.718699 49.766719 420.846097 19.684067 " transform="matrix(0.359746,0.658004,-0.658004,0.359746,4830.96456,2743.054848)" /></g>

        <g id="jari_kelingking_kanan" style="stroke:#8b8d90;">
            <path style="fill:none;stroke-width:40;stroke-linecap:butt;stroke-linejoin:miter;stroke-opacity:1;stroke-miterlimit:4;" d="M 9.57143 17.562426 C 106.467297 70.362269 194.585689 70.361268 273.926605 17.559422 " transform="matrix(-0.485681,0.571403,-0.571403,-0.485681,4576.953411,354.505913)" />
            <path style="fill:none;stroke-width:40;stroke-linecap:butt;stroke-linejoin:miter;stroke-opacity:1;stroke-miterlimit:4;" d="M 6.092494 19.048148 C 209.977438 84.286862 336.569808 84.289886 385.879512 19.051096 " transform="matrix(-0.394305,-0.637896,0.637896,-0.394305,4702.278914,605.100278)" />
            <path style="fill:none;stroke-width:40;stroke-linecap:butt;stroke-linejoin:miter;stroke-opacity:1;stroke-miterlimit:4;" d="M 1.468718 19.944752 C 301.02914 42.03074 531.38936 42.033728 692.544961 19.947822 " transform="matrix(-0.106331,-0.742348,0.742348,-0.106331,4770.858032,1109.929793)" />
            <g clip-rule="nonzero" clip-path="url(#8b8f0fc419)"><path style="fill:none;stroke-width:40;stroke-linecap:butt;stroke-linejoin:miter;stroke-opacity:1;stroke-miterlimit:4;" d="M 1.786629 19.953215 C 215.856365 39.161819 460.306367 39.159557 735.141113 19.952276 " transform="matrix(0.098748,0.743395,-0.743395,0.098748,4800.156692,1083.357739)" /></g>

        </g>
        <g id="jari_manis_kanan" style="stroke:#8b8d90;">
            <path style="fill:none;stroke-width:40;stroke-linecap:butt;stroke-linejoin:miter;stroke-opacity:1;stroke-miterlimit:4;" d="M -0.00150835 20.002412 C 86.770373 19.997961 194.771765 19.998055 324.00784 20.002091 " transform="matrix(0.087057,-0.744854,0.744854,0.087057,4116.144214,1059.882527)" />
            <path style="fill:none;stroke-width:40;stroke-linecap:butt;stroke-linejoin:miter;stroke-opacity:1;stroke-miterlimit:4;" d="M 4.553027 19.473612 C 58.376516 32.05903 112.197542 32.062248 166.025348 19.476177 " transform="matrix(-0.328023,-0.67438,0.67438,-0.328023,4147.606977,514.669193)" />
            <path style="fill:none;stroke-width:40;stroke-linecap:butt;stroke-linejoin:miter;stroke-opacity:1;stroke-miterlimit:4;" d="M 3.732194 39.180675 C 138.337095 13.606845 293.841506 13.607532 470.240392 39.181401 " transform="matrix(0.192271,0.724858,-0.724858,0.192271,4403.038304,331.132489)" />
            <path style="fill:none;stroke-width:40;stroke-linecap:butt;stroke-linejoin:miter;stroke-opacity:1;stroke-miterlimit:4;" d="M 2.788215 39.180474 C 184.473566 13.604661 394.370675 13.605641 632.474896 39.177697 " transform="matrix(0.0774038,0.745919,-0.745919,0.0774038,4477.728408,554.379688)" />
            <path style="fill:none;stroke-width:40;stroke-linecap:butt;stroke-linejoin:miter;stroke-opacity:1;stroke-miterlimit:4;" d="M 4.738143 19.781216 C 142.942289 53.47358 325.410622 53.472846 552.147461 19.78498 " transform="matrix(0.118404,0.740519,-0.740519,0.118404,4511.544375,1023.340554)" />
            <g clip-rule="nonzero" clip-path="url(#7af4951e13)"><path style="fill:none;stroke-width:40;stroke-linecap:butt;stroke-linejoin:miter;stroke-opacity:1;stroke-miterlimit:4;" d="M 14.5702 62.996566 C 68.473473 5.6705 144.198535 5.666821 241.746379 62.997133 " transform="matrix(0.696922,-0.276924,0.276924,0.696922,3994.099662,197.416307)" /></g>
            <path style="fill:none;stroke-width:40;stroke-linecap:butt;stroke-linejoin:miter;stroke-opacity:1;stroke-miterlimit:4;" d="M -0.00117465 19.997814 C 62.185763 19.999204 175.676593 19.999125 340.485996 19.998837 " transform="matrix(0.573697,0.482969,-0.482969,0.573697,4189.682434,165.453665)" />
            <path style="fill:none;stroke-width:40;stroke-linecap:butt;stroke-linejoin:miter;stroke-opacity:1;stroke-miterlimit:4;" d="M 9.349977 18.72028 C 76.088867 54.026526 156.389497 54.028139 250.249702 18.718077 " transform="matrix(0.351135,0.66264,-0.66264,0.351135,4030.813097,224.516142)" />
            <path style="fill:none;stroke-width:40;stroke-linecap:butt;stroke-linejoin:miter;stroke-opacity:1;stroke-miterlimit:4;" d="M 0.00234526 19.99856 C 114.906319 19.99936 257.933342 20.002175 429.078233 20.001768 " transform="matrix(-0.0042207,-0.749913,0.749913,-0.0042207,4144.252833,820.371323)" />
        </g>
        <g id="jari_tengah_kanan" style="stroke:#8b8d90;">
            <path style="fill:none;stroke-width:40;stroke-linecap:butt;stroke-linejoin:miter;stroke-opacity:1;stroke-miterlimit:4;" d="M 10.330207 69.118172 C 118.908593 3.629612 268.841129 3.628052 460.124484 69.120061 " transform="matrix(-0.233055,0.712792,-0.712792,-0.233055,3795.881425,869.092698)" />
            <path style="fill:none;stroke-width:40;stroke-linecap:butt;stroke-linejoin:miter;stroke-opacity:1;stroke-miterlimit:4;" d="M 10.239708 19.094406 C 131.433877 91.348893 307.843831 91.347621 539.462759 19.093399 " transform="matrix(0.288009,0.692414,-0.692414,0.288009,3602.057268,161.789417)" />
            <g clip-rule="nonzero" clip-path="url(#c73d946688)"><path style="fill:none;stroke-width:40;stroke-linecap:butt;stroke-linejoin:miter;stroke-opacity:1;stroke-miterlimit:4;" d="M 10.989908 16.706204 C 118.844788 87.656213 206.328747 87.658424 273.452991 16.709661 " transform="matrix(-0.736783,0.139776,-0.139776,-0.736783,3795.59247,151.007098)" /></g>
            <path style="fill:none;stroke-width:40;stroke-linecap:butt;stroke-linejoin:miter;stroke-opacity:1;stroke-miterlimit:4;" d="M 6.614675 18.873862 C 185.080336 81.396891 320.268052 81.396187 412.186167 18.877987 " transform="matrix(-0.448939,-0.600701,0.600701,-0.448939,4056.987511,553.259144)" />
            <path style="fill:none;stroke-width:40;stroke-linecap:butt;stroke-linejoin:miter;stroke-opacity:1;stroke-miterlimit:4;" d="M 2.62457 38.711615 C 190.985101 13.761674 506.862155 13.761466 950.266825 38.707446 " transform="matrix(-0.115242,-0.741017,0.741017,-0.115242,4146.186799,1249.433385)" />
            <path style="fill:none;stroke-width:40;stroke-linecap:butt;stroke-linejoin:miter;stroke-opacity:1;stroke-miterlimit:4;" d="M 0.00187375 20.00043 C 154.895934 19.999896 296.938597 19.999952 426.124656 20.000667 " transform="matrix(-0.0100649,0.749857,-0.749857,-0.0100649,3763.49358,541.024116)" />
            <g clip-rule="nonzero" clip-path="url(#e5d64de19d)"><path style="fill:none;stroke-width:40;stroke-linecap:butt;stroke-linejoin:miter;stroke-opacity:1;stroke-miterlimit:4;" d="M -0.00168347 19.999705 C 121.606195 19.998262 219.558418 19.998038 293.854985 19.999032 " transform="matrix(-0.494699,-0.563613,0.563613,-0.494699,3919.258324,319.693674)" /></g>
        </g>
        <g id="jari_telunjuk_kanan" style="stroke:#8b8d90;">
            <path style="fill:none;stroke-width:40;stroke-linecap:butt;stroke-linejoin:miter;stroke-opacity:1;stroke-miterlimit:4;" d="M 7.613928 19.82708 C 138.460141 73.682023 405.873052 73.684965 809.859315 19.826348 " transform="matrix(-0.108104,-0.742092,0.742092,-0.108104,3188.367391,1378.668624)" />
            <path style="fill:none;stroke-width:40;stroke-linecap:butt;stroke-linejoin:miter;stroke-opacity:1;stroke-miterlimit:4;" d="M 0.983144 32.312095 C 335.059718 15.895581 546.580725 15.896017 635.546239 32.308195 " transform="matrix(-0.0104726,-0.749852,0.749852,-0.0104726,3091.308363,776.614666)" />
            <g clip-rule="nonzero" clip-path="url(#b94ebd0a60)"><path style="fill:none;stroke-width:40;stroke-linecap:butt;stroke-linejoin:miter;stroke-opacity:1;stroke-miterlimit:4;" d="M 3.423601 30.36618 C 83.037073 16.545152 151.378772 16.54558 208.45364 30.365819 " transform="matrix(0.237143,-0.711443,0.711443,0.237143,3086.467137,292.758019)" /></g>
            <g clip-rule="nonzero" clip-path="url(#a8ff349dce)"><path style="fill:none;stroke-width:40;stroke-linecap:butt;stroke-linejoin:miter;stroke-opacity:1;stroke-miterlimit:4;" d="M 13.599349 68.783197 C 83.726177 3.740212 153.847796 3.740212 223.969416 68.783197 " transform="matrix(0.749925,0,0,0.749925,3147.301512,100.077935)" /></g>
            <g clip-rule="nonzero" clip-path="url(#1e0baef534)"><path style="fill:none;stroke-width:40;stroke-linecap:butt;stroke-linejoin:miter;stroke-opacity:1;stroke-miterlimit:4;" d="M 3.186582 39.583744 C 164.946081 13.471366 353.610274 13.472862 569.175599 39.581785 " transform="matrix(0.207778,0.720566,-0.720566,0.207778,3343.122317,141.139377)" /></g>
            <path style="fill:none;stroke-width:40;stroke-linecap:butt;stroke-linejoin:miter;stroke-opacity:1;stroke-miterlimit:4;" d="M 0.00025446 20.002548 C 174.834725 19.999666 349.674225 19.998141 524.507338 20.000288 " transform="matrix(0.195508,0.723992,-0.723992,0.195508,3447.341002,555.585255)" />
            <path style="fill:none;stroke-width:40;stroke-linecap:butt;stroke-linejoin:miter;stroke-opacity:1;stroke-miterlimit:4;" d="M 0.00197564 19.9998 C 138.599375 19.998063 277.195038 20.001237 415.797349 20.001237 " transform="matrix(0.250069,0.707003,-0.707003,0.250069,3549.545666,934.235552)" />
        </g>
        <g id="jari_jempol_kanan" style="stroke:#8b8d90;">
            <path style="fill:none;stroke-width:40;stroke-linecap:butt;stroke-linejoin:miter;stroke-opacity:1;stroke-miterlimit:4;" d="M 2.059961 34.56154 C 189.439089 15.145267 416.395483 15.144988 682.93423 34.561823 " transform="matrix(0.160943,0.732451,-0.732451,0.160943,2895.447938,1667.15529)" />
            <path style="fill:none;stroke-width:40;stroke-linecap:butt;stroke-linejoin:miter;stroke-opacity:1;stroke-miterlimit:4;" d="M 7.961623 19.325287 C 148.136897 80.14741 332.213108 80.149684 560.197074 19.322665 " transform="matrix(0.120756,0.740139,-0.740139,0.120756,2817.12323,1257.269751)" />
            <path style="fill:none;stroke-width:40;stroke-linecap:butt;stroke-linejoin:miter;stroke-opacity:1;stroke-miterlimit:4;" d="M 3.936615 19.608536 C 156.607087 50.277092 290.026345 50.275803 404.193341 19.609771 " transform="matrix(0.151038,0.734557,-0.734557,0.151038,2757.133234,965.627162)" />
            <path style="fill:none;stroke-width:40;stroke-linecap:butt;stroke-linejoin:miter;stroke-opacity:1;stroke-miterlimit:4;" d="M 10.437447 17.062041 C 246.900112 161.751377 385.960111 161.750142 427.624205 17.061259 " transform="matrix(-0.697257,-0.276079,0.276079,-0.697257,3036.778059,1101.422719)" />
            <path style="fill:none;stroke-width:40;stroke-linecap:butt;stroke-linejoin:miter;stroke-opacity:1;stroke-miterlimit:4;" d="M 1.399498 19.949916 C 282.214528 39.664682 459.384369 39.66365 532.906825 19.951543 " transform="matrix(-0.316143,-0.68003,0.68003,-0.316143,3189.121995,1455.356384)" />
        </g>
    </g>
            <g clip-rule="nonzero" clip-path="url(#d37e8dec71)">
            <g clip-rule="nonzero" clip-path="url(#308dc5624e)">
                <g transform="matrix(1,0,0,1,2234,-0.000000000000344919)">
                    <g clip-path="url(#cd7025b9ed)">
                        <g clip-rule="nonzero" clip-path="url(#3147139429)">
                            <g clip-rule="nonzero" clip-path="url(#d3bd9b9215)">
                                <path style=" stroke:none;fill-rule:nonzero;fill:#004aad;fill-opacity:0;" d="M 0.234375 0.0742188 L 574.957031 0.0742188 L 574.957031 65.964844 L 0.234375 65.964844 Z M 0.234375 0.0742188 " />
                            </g>
                        </g>
                    </g>
                </g>
            </g>
        </g>
        <g clip-rule="nonzero" clip-path="url(#20d976fcb3)">
            <g clip-rule="nonzero" clip-path="url(#005f060015)">
                <g transform="matrix(1,0,0,1,2235,2975)">
                    <g clip-path="url(#ea0e940938)">
                        <g clip-rule="nonzero" clip-path="url(#93a1447a7e)">
                            <g clip-rule="nonzero" clip-path="url(#d6444b0002)">
                                <path style=" stroke:none;fill-rule:nonzero;fill:#004aad;fill-opacity:0;" d="M 0.59375 0.277344 L 575.3125 0.277344 L 575.3125 66.167969 L 0.59375 66.167969 Z M 0.59375 0.277344 " />
                            </g>
                        </g>
                    </g>
                </g>
            </g>
        </g>
        <g clip-rule="nonzero" clip-path="url(#30d1697c62)">
            <g clip-rule="nonzero" clip-path="url(#2f2e6ea5b2)">
                <g transform="matrix(1,0,0,1,5040,25)">
                    <g clip-path="url(#964c6a48cf)">
                        <g clip-rule="nonzero" clip-path="url(#56dfef3d2f)">
                            <g clip-rule="nonzero" clip-path="url(#4e47c2fe5f)">
                                <path style=" stroke:none;fill-rule:nonzero;fill:#004aad;fill-opacity:0;" d="M 0.285156 403.871094 L 0.285156 0.695312 L 46.507812 0.695312 L 46.507812 403.871094 Z M 0.285156 403.871094 " />
                            </g>
                        </g>
                    </g>
                </g>
            </g>
        </g>

</svg>