<svg xmlns="http://www.w3.org/2000/svg"
     xmlns:xlink="http://www.w3.org/1999/xlink"
     width="6646"
     zoomAndPan="magnify"
     viewBox="0 0 4984.5 3059.999987"
     height="4080"
     preserveAspectRatio="xMidYMid meet"
     version="1.2">
    
    <defs>
        <clipPath id="40d3b0c057">
            <path d="M 1138 0.152344 L 1770 0.152344 L 1770 683 L 1138 683 Z M 1138 0.152344 " />
        </clipPath>
        
        <clipPath id="97bbace2b9">
            <path d="M 1430 0.152344 L 1915 0.152344 L 1915 333 L 1430 333 Z M 1430 0.152344 " />
        </clipPath>
        
        <clipPath id="518951efec">
            <path d="M 1518 0.152344 L 1917 0.152344 L 1917 554 L 1518 554 Z M 1518 0.152344 " />
        </clipPath>

        
        <clipPath id="9cf67b89a7">
            <path d="M 604 0.152344 L 1328 0.152344 L 1328 477 L 604 477 Z M 604 0.152344 " />
        </clipPath>
        
        <clipPath id="7eee0786ac">
            <path d="M 987 0.152344 L 1510 0.152344 L 1510 261 L 987 261 Z M 987 0.152344 " />
        </clipPath>
        
        <clipPath id="5f1d4f626a">
            <path d="M 993 0.152344 L 1510 0.152344 L 1510 552 L 993 552 Z M 993 0.152344 " />
        </clipPath>

        
        <clipPath id="28de28f5a3">
            <path d="M 1030 2582 L 1538 2582 L 1538 3059.84375 L 1030 3059.84375 Z M 1030 2582 " />
        </clipPath>
        <clipPath id="09dc88682a">
            <path d="M 2939 2400 L 3713 2400 L 3713 3061 L 2939 3061 Z M 2939 2400 " />
        </clipPath>
        <clipPath id="666e71d666">
            <path d="M 4495 2456 L 4987.46875 2456 L 4987.46875 3054 L 4495 3054 Z M 4495 2456 " />
        </clipPath>


    
    </defs>
    
    <g id="ef1a273585">
        
        <g id="tangan_kiri">
            
            <g id="telapak_tangan_kiri">
                
                <path style="fill:none;stroke-width:40;stroke-linecap:butt;stroke-linejoin:miter;stroke:#8e94a5;stroke-opacity:1;stroke-miterlimit:4;" d="M 5.180518 19.515992 C 122.331278 50.939591 250.932189 50.937106 390.97335 19.511779 " transform="matrix(0.233294,-0.712714,0.712714,0.233294,-0.000715176,2868.033803)" />
                
                <path style="fill:none;stroke-width:40;stroke-linecap:butt;stroke-linejoin:miter;stroke:#8e94a5;stroke-opacity:1;stroke-miterlimit:4;" d="M 2.449518 19.913895 C 163.914155 39.833804 352.898598 39.830621 569.396932 19.914379 " transform="matrix(-0.051703,-0.74814,0.74814,-0.051703,90.345447,2596.791878)" />
                
                <path style="fill:none;stroke-width:40;stroke-linecap:butt;stroke-linejoin:miter;stroke:#8e94a5;stroke-opacity:1;stroke-miterlimit:4;" d="M 6.040419 47.562107 C 122.008415 10.813419 237.969343 10.81421 353.934118 47.560412 " transform="matrix(-0.0800765,-0.745637,0.745637,-0.0800765,40.824307,2178.089912)" />
                
                <path style="fill:none;stroke-width:40;stroke-linecap:butt;stroke-linejoin:miter;stroke:#8e94a5;stroke-opacity:1;stroke-miterlimit:4;" d="M 9.619398 19.920993 C 44.393721 38.995823 170.06779 38.995823 386.641605 19.920993 " transform="matrix(0,-0.749925,0.749925,0,33.009974,1917.584919)" />
                
                <path style="fill:none;stroke-width:40;stroke-linecap:butt;stroke-linejoin:miter;stroke:#8e94a5;stroke-opacity:1;stroke-miterlimit:4;" d="M 1.585207 19.969756 C 165.411441 33.022723 368.316524 33.023066 610.300456 19.970786 " transform="matrix(0.391885,-0.639385,0.639385,0.391885,1714.31354,2258.386934)" />
                
                <path style="fill:none;stroke-width:40;stroke-linecap:butt;stroke-linejoin:miter;stroke:#8e94a5;stroke-opacity:1;stroke-miterlimit:4;" d="M 2.151055 19.898378 C 263.083539 48.084774 532.258451 48.082275 809.66741 19.897072 " transform="matrix(0.445537,-0.603228,0.603228,0.445537,1354.964146,2744.748527)" />
                
                <g clip-rule="nonzero" clip-path="url(#28de28f5a3)">
                    <path style="fill:none;stroke-width:40;stroke-linecap:butt;stroke-linejoin:miter;stroke:#8e94a5;stroke-opacity:1;stroke-miterlimit:4;" d="M 6.152289 54.318931 C 147.722519 8.558157 298.587036 8.561563 458.745227 54.317517 " transform="matrix(0.370325,-0.652109,0.652109,0.370325,1162.616176,3031.353349)" />
                </g>
            
            </g>
            
            <g id="kelingking_kiri">
                
                <path style="fill:none;stroke-width:40;stroke-linecap:butt;stroke-linejoin:miter;stroke:#8e94a5;stroke-opacity:1;stroke-miterlimit:4;" d="M 15.495157 52.350665 C 50.691407 9.21395 272.062518 9.215625 679.597545 52.351711 " transform="matrix(0.0860878,-0.744967,0.744967,0.0860878,7.615749,1634.67335)" />
                
                <path style="fill:none;stroke-width:40;stroke-linecap:butt;stroke-linejoin:miter;stroke:#8e94a5;stroke-opacity:1;stroke-miterlimit:4;" d="M 2.344811 42.081951 C 251.522646 12.63821 488.006731 12.637546 711.786667 42.080545 " transform="matrix(0.0420405,-0.748745,0.748745,0.0420405,73.513848,1132.888865)" />
                
                <path style="fill:none;stroke-width:40;stroke-linecap:butt;stroke-linejoin:miter;stroke:#8e94a5;stroke-opacity:1;stroke-miterlimit:4;" d="M 2.98441 42.237063 C 199.536417 12.587332 324.91043 12.588429 379.111198 42.238213 " transform="matrix(0.308041,-0.683738,0.683738,0.308041,105.150807,590.740743)" />
                
                <path style="fill:none;stroke-width:40;stroke-linecap:butt;stroke-linejoin:miter;stroke:#8e94a5;stroke-opacity:1;stroke-miterlimit:4;" d="M 3.936306 26.671228 C 48.2299 17.774452 92.515721 17.777049 136.807123 26.670899 " transform="matrix(0.389654,-0.640747,0.640747,0.389654,225.279034,347.891344)" />
                
                <path style="fill:none;stroke-width:40;stroke-linecap:butt;stroke-linejoin:miter;stroke:#8e94a5;stroke-opacity:1;stroke-miterlimit:4;" d="M 11.793429 55.62631 C 76.870501 8.125764 141.950319 8.125042 207.028647 55.627176 " transform="matrix(0.609763,0.43655,-0.43655,0.609763,300.248718,237.178795)" />
                
                <path style="fill:none;stroke-width:40;stroke-linecap:butt;stroke-linejoin:miter;stroke:#8e94a5;stroke-opacity:1;stroke-miterlimit:4;" d="M 6.245875 26.285935 C 31.753642 17.904886 54.110052 17.904886 73.320313 26.285935 " transform="matrix(0,0.749925,-0.749925,0,421.911692,356.792627)" />
            
            </g>
            
            <g id="jari_manis_kiri">
                
                <path style="fill:none;stroke-width:40;stroke-linecap:butt;stroke-linejoin:miter;stroke:#8e94a5;stroke-opacity:1;stroke-miterlimit:4;" d="M 6.006795 37.97839 C 82.148873 14.00894 143.140639 14.005468 188.974676 37.975293 " transform="matrix(0.526741,-0.53379,0.53379,0.526741,605.020541,593.846127)" />
                
                <path style="fill:none;stroke-width:40;stroke-linecap:butt;stroke-linejoin:miter;stroke:#8e94a5;stroke-opacity:1;stroke-miterlimit:4;" d="M 1.781421 19.922155 C 116.256851 30.157151 230.734727 30.158766 345.214228 19.921858 " transform="matrix(0.118155,-0.740558,0.740558,0.118155,254.344593,1438.586435)" />
                
                <path style="fill:none;stroke-width:40;stroke-linecap:butt;stroke-linejoin:miter;stroke:#8e94a5;stroke-opacity:1;stroke-miterlimit:4;" d="M 2.497432 42.520683 C 240.819537 12.491981 488.868486 12.495039 746.638812 42.519572 " transform="matrix(0.0185733,-0.749695,0.749695,0.0185733,277.9628,1186.371626)" />
                
                <path style="fill:none;stroke-width:40;stroke-linecap:butt;stroke-linejoin:miter;stroke:#8e94a5;stroke-opacity:1;stroke-miterlimit:4;" d="M 5.301704 75.491678 C 274.428827 1.505521 424.862445 1.503255 456.605302 75.489308 " transform="matrix(0.395195,-0.637344,0.637344,0.395195,273.501537,600.963021)" />
                
                <path style="fill:none;stroke-width:40;stroke-linecap:butt;stroke-linejoin:miter;stroke:#8e94a5;stroke-opacity:1;stroke-miterlimit:4;" d="M 0.78208 19.986721 C 221.6537 28.633626 361.510875 28.630389 420.348071 19.985837 " transform="matrix(0.635339,-0.398411,0.398411,0.635339,457.219877,332.48824)" />
                
                <path style="fill:none;stroke-width:40;stroke-linecap:butt;stroke-linejoin:miter;stroke:#8e94a5;stroke-opacity:1;stroke-miterlimit:4;" d="M 13.08722 70.936586 C 91.557751 3.022691 161.349365 3.018318 222.468993 70.937475 " transform="matrix(0.672181,0.332505,-0.332505,0.672181,747.031977,125.68104)" />
                
                <path style="fill:none;stroke-width:40;stroke-linecap:butt;stroke-linejoin:miter;stroke:#8e94a5;stroke-opacity:1;stroke-miterlimit:4;" d="M 0.00239538 19.998038 C 174.499767 20.001577 313.456188 20.002732 416.866503 20.00078 " transform="matrix(-0.104243,-0.742644,0.742644,-0.104243,657.055071,922.312997)" />
            
            </g>
            
            <g id="jari_jempol_kiri">
                
                <path style="fill:none;stroke-width:40;stroke-linecap:butt;stroke-linejoin:miter;stroke:#8e94a5;stroke-opacity:1;stroke-miterlimit:4;" d="M 4.082368 19.579492 C 199.608888 60.352915 345.739933 60.358113 442.482027 19.577475 " transform="matrix(0.173272,-0.729633,0.729633,0.173272,1638.995083,1415.593863)" />
                
                <path style="fill:none;stroke-width:40;stroke-linecap:butt;stroke-linejoin:miter;stroke:#8e94a5;stroke-opacity:1;stroke-miterlimit:4;" d="M 4.703903 55.344189 C 199.541909 8.22108 335.106218 8.220145 411.38522 55.340458 " transform="matrix(0.280977,-0.695298,0.695298,0.280977,1690.150749,1083.860777)" />
                
                <path style="fill:none;stroke-width:40;stroke-linecap:butt;stroke-linejoin:miter;stroke:#8e94a5;stroke-opacity:1;stroke-miterlimit:4;" d="M 7.603315 47.020896 C 95.266434 10.993227 182.922886 10.994346 270.585412 47.016853 " transform="matrix(0.724862,-0.192255,0.192255,0.724862,1829.671308,780.75701)" />
                
                <path style="fill:none;stroke-width:40;stroke-linecap:butt;stroke-linejoin:miter;stroke:#8e94a5;stroke-opacity:1;stroke-miterlimit:4;" d="M 4.385841 42.17857 C 135.940363 12.604614 267.491527 12.609191 399.04989 42.182025 " transform="matrix(0.010122,0.749856,-0.749856,0.010122,2066.427229,759.104631)" />
                
                <path style="fill:none;stroke-width:40;stroke-linecap:butt;stroke-linejoin:miter;stroke:#8e94a5;stroke-opacity:1;stroke-miterlimit:4;" d="M 3.369579 35.481005 C 124.121279 14.838308 255.670937 14.838308 398.023763 35.481005 " transform="matrix(0,0.749925,-0.749925,0,2065.897146,1045.519945)" />
                
                <path style="fill:none;stroke-width:40;stroke-linecap:butt;stroke-linejoin:miter;stroke:#8e94a5;stroke-opacity:1;stroke-miterlimit:4;" d="M 1.55488 19.940481 C 238.892567 38.464112 476.228627 38.461849 713.568944 19.938123 " transform="matrix(-0.104438,0.742617,-0.742617,-0.104438,2053.806463,1344.939577)" />
            
            </g>
            
            <g id="jari_telunjuk_kiri">
                
                <path style="fill:none;stroke-width:40;stroke-linecap:butt;stroke-linejoin:miter;stroke:#8e94a5;stroke-opacity:1;stroke-miterlimit:4;" d="M 1.058376 19.972674 C 248.037384 33.08346 481.116766 33.085032 700.310794 19.969163 " transform="matrix(0.14979,-0.734813,0.734813,0.14979,1188.235597,1024.649287)" />
                
                <g clip-rule="nonzero" clip-path="url(#40d3b0c057)">
                    <path style="fill:none;stroke-width:40;stroke-linecap:butt;stroke-linejoin:miter;stroke:#8e94a5;stroke-opacity:1;stroke-miterlimit:4;" d="M 2.289785 54.066972 C 396.371688 8.644685 616.037168 8.645543 661.283145 54.065344 " transform="matrix(0.443339,-0.604845,0.604845,0.443339,1274.095189,490.461862)" />
                </g>
                
                <g clip-rule="nonzero" clip-path="url(#97bbace2b9)">
                    <path style="fill:none;stroke-width:40;stroke-linecap:butt;stroke-linejoin:miter;stroke:#8e94a5;stroke-opacity:1;stroke-miterlimit:4;" d="M 10.79341 52.590604 C 78.567006 9.134028 146.338809 9.138446 214.110478 52.592327 " transform="matrix(0.711675,0.236443,-0.236443,0.711675,1604.718146,74.47757)" />
                </g>
                
                <g clip-rule="nonzero" clip-path="url(#518951efec)">
                    <path style="fill:none;stroke-width:40;stroke-linecap:butt;stroke-linejoin:miter;stroke:#8e94a5;stroke-opacity:1;stroke-miterlimit:4;" d="M 7.128229 44.840084 C 93.960588 11.720891 195.271072 11.719439 311.06097 44.840774 " transform="matrix(-0.185548,0.726608,-0.726608,-0.185548,1778.563948,165.667891)" />
                </g>
                
                <path style="fill:none;stroke-width:40;stroke-linecap:butt;stroke-linejoin:miter;stroke:#8e94a5;stroke-opacity:1;stroke-miterlimit:4;" d="M 0.000525625 20.002284 C 56.779866 19.999655 123.267257 20.001656 199.44518 20.001514 " transform="matrix(-0.163014,0.731993,-0.731993,-0.163014,1702.903333,386.635269)" />
                
                <path style="fill:none;stroke-width:40;stroke-linecap:butt;stroke-linejoin:miter;stroke:#8e94a5;stroke-opacity:1;stroke-miterlimit:4;" d="M 0.367226 20.000772 C 383.943586 27.06316 841.506208 27.065389 1373.055004 19.997044 " transform="matrix(-0.00640769,0.749897,-0.749897,-0.00640769,1670.75088,529.219965)" />
            
            </g>
            
            <g id="jari_tengah_kiri">
                
                <path style="fill:none;stroke-width:40;stroke-linecap:butt;stroke-linejoin:miter;stroke:#8e94a5;stroke-opacity:1;stroke-miterlimit:4;" d="M 1.373198 55.832719 C 695.299093 8.055502 1051.889101 8.053923 1071.143984 55.833136 " transform="matrix(0.109778,-0.741846,0.741846,0.109778,614.855738,1095.455909)" />
                
                <g clip-rule="nonzero" clip-path="url(#9cf67b89a7)">
                    <path style="fill:none;stroke-width:40;stroke-linecap:butt;stroke-linejoin:miter;stroke:#8e94a5;stroke-opacity:1;stroke-miterlimit:4;" d="M 0.749481 19.983955 C 348.809087 33.026064 554.459102 33.026488 617.692294 19.986634 " transform="matrix(0.621656,-0.419441,0.419441,0.621656,765.015269,294.852154)" />
                </g>
                
                <g clip-rule="nonzero" clip-path="url(#7eee0786ac)">
                    <path style="fill:none;stroke-width:40;stroke-linecap:butt;stroke-linejoin:miter;stroke:#8e94a5;stroke-opacity:1;stroke-miterlimit:4;" d="M 11.383495 63.127173 C 94.44511 5.62437 177.507411 5.623714 260.5704 63.125204 " transform="matrix(0.730202,0.170858,-0.170858,0.730202,1159.864181,0.15478)" />
                </g>
                
                <g clip-rule="nonzero" clip-path="url(#5f1d4f626a)">
                    <path style="fill:none;stroke-width:40;stroke-linecap:butt;stroke-linejoin:miter;stroke:#8e94a5;stroke-opacity:1;stroke-miterlimit:4;" d="M 11.610634 80.305866 C 124.402351 -0.101405 275.78978 -0.103937 465.759546 80.306349 " transform="matrix(-0.387675,0.641946,-0.641946,-0.387675,1395.393057,114.448706)" />
                </g>
                
                <path style="fill:none;stroke-width:40;stroke-linecap:butt;stroke-linejoin:miter;stroke:#8e94a5;stroke-opacity:1;stroke-miterlimit:4;" d="M 4.836621 19.652902 C 65.942598 34.877599 136.845005 34.877467 217.532219 19.651768 " transform="matrix(-0.292216,0.690649,-0.690649,-0.292216,1178.26395,382.011864)" />
                
                <path style="fill:none;stroke-width:40;stroke-linecap:butt;stroke-linejoin:miter;stroke:#8e94a5;stroke-opacity:1;stroke-miterlimit:4;" d="M 3.710098 19.816085 C 213.484634 59.402348 462.423103 59.402598 750.515248 19.815014 " transform="matrix(0.130963,0.738401,-0.738401,0.130963,1115.271328,521.177004)" />
            
            </g>
        
        </g>
        
        <g id="tangan_kanan">
            <g id="telapak_tangan_kanan">
                <g clip-rule="nonzero" clip-path="url(#09dc88682a)">
                    <path style="fill:none;stroke-width:40;stroke-linecap:butt;stroke-linejoin:miter;stroke:#8e94a5;stroke-opacity:1;stroke-miterlimit:4;" d="M 5.071297 19.680795 C 229.429339 78.516283 504.574682 78.518082 830.510981 19.682479 " transform="matrix(0.525692,0.534757,-0.534757,0.525692,3117.163183,2557.035812)" />
                </g>
                <path style="fill:none;stroke-width:40;stroke-linecap:butt;stroke-linejoin:miter;stroke:#8e94a5;stroke-opacity:1;stroke-miterlimit:4;" d="M 1.297464 27.674619 C 158.402243 17.44149 371.621164 17.441418 640.954226 27.674403 " transform="matrix(0.519969,0.540323,-0.540323,0.519969,2790.981715,2209.38558)" />
                <path style="fill:none;stroke-width:40;stroke-linecap:butt;stroke-linejoin:miter;stroke:#8e94a5;stroke-opacity:1;stroke-miterlimit:4;" d="M 1.664306 19.985042 C 179.181096 34.798497 459.75173 34.799054 843.376208 19.986714 " transform="matrix(0.0284452,0.749338,-0.749338,0.0284452,4607.721174,1504.414863)" />
                <path style="fill:none;stroke-width:40;stroke-linecap:butt;stroke-linejoin:miter;stroke:#8e94a5;stroke-opacity:1;stroke-miterlimit:4;" d="M 1.970461 19.932023 C 202.278229 39.774119 420.830047 39.77442 657.636794 19.928761 " transform="matrix(0.0735141,0.746265,-0.746265,0.0735141,4631.464095,2134.021261)" />
                <g clip-rule="nonzero" clip-path="url(#666e71d666)">
                    <path style="fill:none;stroke-width:40;stroke-linecap:butt;stroke-linejoin:miter;stroke:#8e94a5;stroke-opacity:1;stroke-miterlimit:4;" d="M 5.280466 19.684095 C 115.197421 49.762738 253.720714 49.765676 420.848975 19.685669 " transform="matrix(0.422494,0.619528,-0.619528,0.422494,4674.897479,2614.670004)" />
                </g>
            
            </g>
            
            <g id="kelingking_kanan">
                <path style="fill:none;stroke-width:40;stroke-linecap:butt;stroke-linejoin:miter;stroke:#8e94a5;stroke-opacity:1;stroke-miterlimit:4;" d="M 9.571094 17.563396 C 106.465144 70.360545 194.583254 70.360056 273.925423 17.561929 " transform="matrix(-0.427297,0.616225,-0.616225,-0.427297,4187.979112,262.677161)" />
                <path style="fill:none;stroke-width:40;stroke-linecap:butt;stroke-linejoin:miter;stroke:#8e94a5;stroke-opacity:1;stroke-miterlimit:4;" d="M 6.095881 19.046554 C 209.976761 84.288315 336.569568 84.286372 385.879426 19.051189 " transform="matrix(-0.454913,-0.59613,0.59613,-0.454913,4337.258723,499.7633)" />
                <path style="fill:none;stroke-width:40;stroke-linecap:butt;stroke-linejoin:miter;stroke:#8e94a5;stroke-opacity:1;stroke-miterlimit:4;" d="M 1.471144 19.943617 C 301.028122 42.035599 531.385993 42.032107 692.547333 19.944499 " transform="matrix(-0.178583,-0.728302,0.728302,-0.178583,4454.991647,995.406473)" />
                <path style="fill:none;stroke-width:40;stroke-linecap:butt;stroke-linejoin:miter;stroke:#8e94a5;stroke-opacity:1;stroke-miterlimit:4;" d="M 1.788324 19.952949 C 215.854924 39.158995 460.308826 39.158883 735.144956 19.951423 " transform="matrix(0.17114,0.730087,-0.730087,0.17114,4481.542589,966.092119)" />
            </g>
            
            <g id="jari_manis_kanan">
                <path style="fill:none;stroke-width:40;stroke-linecap:butt;stroke-linejoin:miter;stroke:#8e94a5;stroke-opacity:1;stroke-miterlimit:4;" d="M -0.000232493 19.999808 C 152.528782 19.997926 342.38376 19.9995 569.559361 19.999457 " transform="matrix(0.0193959,-0.749627,0.749627,0.0193959,3813.980273,1068.225192)" />
                <path style="fill:none;stroke-width:40;stroke-linecap:butt;stroke-linejoin:miter;stroke:#8e94a5;stroke-opacity:1;stroke-miterlimit:4;" d="M 14.074033 52.284737 C 57.546161 9.238939 154.614801 9.240292 305.275642 52.28587 " transform="matrix(0.421143,0.620447,-0.620447,0.421143,3941.672914,197.955499)" />
                <path style="fill:none;stroke-width:40;stroke-linecap:butt;stroke-linejoin:miter;stroke:#8e94a5;stroke-opacity:1;stroke-miterlimit:4;" d="M -0.00192999 20.000522 C 108.140434 19.999091 206.994696 20.002152 296.564993 20.000144 " transform="matrix(0.297848,0.688188,-0.688188,0.297848,4051.56548,403.427032)" />
                <path style="fill:none;stroke-width:40;stroke-linecap:butt;stroke-linejoin:miter;stroke:#8e94a5;stroke-opacity:1;stroke-miterlimit:4;" d="M -0.000971976 20.001972 C 276.967723 19.999662 606.536702 19.999298 988.700867 19.999802 " transform="matrix(0.154865,0.733712,-0.733712,0.154865,4140.80474,610.383571)" />
                <path style="fill:none;stroke-width:40;stroke-linecap:butt;stroke-linejoin:miter;stroke:#8e94a5;stroke-opacity:1;stroke-miterlimit:4;" d="M 15.818788 75.143944 C 72.707882 1.619328 148.433654 1.616993 242.991326 75.146196 " transform="matrix(0.666375,-0.343891,0.343891,0.666375,3587.562745,155.822945)" />
                <path style="fill:none;stroke-width:40;stroke-linecap:butt;stroke-linejoin:miter;stroke:#8e94a5;stroke-opacity:1;stroke-miterlimit:4;" d="M 0.00173686 20.001197 C 54.571788 20.001562 141.993076 19.999633 262.275769 20.00109 " transform="matrix(0.619834,0.422045,-0.422045,0.619834,3784.018456,112.480752)" />
                <path style="fill:none;stroke-width:40;stroke-linecap:butt;stroke-linejoin:miter;stroke:#8e94a5;stroke-opacity:1;stroke-miterlimit:4;" d="M 8.15716 18.262846 C 127.921244 71.752483 234.676358 71.750974 328.434084 18.259565 " transform="matrix(0.405197,0.630977,-0.630977,0.405197,3632.159579,187.913908)" />
                <path style="fill:none;stroke-width:40;stroke-linecap:butt;stroke-linejoin:miter;stroke:#8e94a5;stroke-opacity:1;stroke-miterlimit:4;" d="M -0.00298334 20.001358 C 96.532179 20.000045 216.686233 20.001424 360.461153 20.000675 " transform="matrix(-0.284213,-0.69393,0.69393,-0.284213,3826.143045,647.34274)" />

            </g>
            
            <g id="jari_tengah_kanan">
                <path style="fill:none;stroke-width:40;stroke-linecap:butt;stroke-linejoin:miter;stroke:#8e94a5;stroke-opacity:1;stroke-miterlimit:4;" d="M 10.327292 69.119319 C 118.911057 3.627087 268.84133 3.623961 460.125448 69.118987 " transform="matrix(-0.162044,0.73216,-0.73216,-0.162044,3441.631427,809.842247)" />
                <path style="fill:none;stroke-width:40;stroke-linecap:butt;stroke-linejoin:miter;stroke:#8e94a5;stroke-opacity:1;stroke-miterlimit:4;" d="M 10.242167 19.095018 C 131.432838 91.347874 307.839006 91.349792 539.465595 19.091591 " transform="matrix(0.35448,0.660802,-0.660802,0.35448,3179.417076,124.990486)" />
                <path style="fill:none;stroke-width:40;stroke-linecap:butt;stroke-linejoin:miter;stroke:#8e94a5;stroke-opacity:1;stroke-miterlimit:4;" d="M 10.992266 16.709146 C 118.843449 87.655676 206.330187 87.654882 273.45248 16.706762 " transform="matrix(-0.719486,0.21132,-0.21132,-0.719486,3370.951479,95.288952)" />
                <path style="fill:none;stroke-width:40;stroke-linecap:butt;stroke-linejoin:miter;stroke:#8e94a5;stroke-opacity:1;stroke-miterlimit:4;" d="M 6.61241 18.871649 C 185.076503 81.397206 320.269361 81.394853 412.187806 18.875794 " transform="matrix(-0.505634,-0.553761,0.553761,-0.505634,3670.502458,469.953834)" />
                <path style="fill:none;stroke-width:40;stroke-linecap:butt;stroke-linejoin:miter;stroke:#8e94a5;stroke-opacity:1;stroke-miterlimit:4;" d="M 2.626509 38.712207 C 190.983935 13.763588 506.866228 13.762541 950.261999 38.711506 " transform="matrix(-0.18732,-0.726104,0.726104,-0.18732,3827.511806,1153.98682)" />
                <path style="fill:none;stroke-width:40;stroke-linecap:butt;stroke-linejoin:miter;stroke:#8e94a5;stroke-opacity:1;stroke-miterlimit:4;" d="M 0.0014797 20.001433 C 154.895558 19.999482 296.939259 19.998221 426.121761 20.001956 " transform="matrix(0.0634916,0.747185,-0.747185,0.0634916,3377.241547,486.549283)" />
                <path style="fill:none;stroke-width:40;stroke-linecap:butt;stroke-linejoin:miter;stroke:#8e94a5;stroke-opacity:1;stroke-miterlimit:4;" d="M 0.000609299 20.000936 C 121.602936 20.00009 219.555549 19.999556 293.851086 19.999089 " transform="matrix(-0.547536,-0.512368,0.512368,-0.547536,3510.549367,251.029661)" />
            </g>
            <g id="jari_telunjuk_kanan">
                <path style="fill:none;stroke-width:40;stroke-linecap:butt;stroke-linejoin:miter;stroke:#0571d3;stroke-opacity:1;stroke-miterlimit:4;" d="M 2.64044 19.823891 C 428.433415 76.566223 707.384642 76.567166 839.495974 19.821852 " transform="matrix(-0.267018,-0.700726,0.700726,-0.267018,2888.903765,1389.538096)" />
                <path style="fill:none;stroke-width:40;stroke-linecap:butt;stroke-linejoin:miter;stroke:#0571d3;stroke-opacity:1;stroke-miterlimit:4;" d="M 3.179213 32.620294 C 107.636502 15.793002 178.713899 15.794795 216.416105 32.616377 " transform="matrix(-0.338446,-0.669156,0.669156,-0.338446,2657.88854,809.159798)" />
                <path style="fill:none;stroke-width:40;stroke-linecap:butt;stroke-linejoin:miter;stroke:#0571d3;stroke-opacity:1;stroke-miterlimit:4;" d="M 3.435911 19.702154 C 146.21237 44.610231 288.988348 44.609812 431.763847 19.700894 " transform="matrix(-0.32571,-0.675447,0.675447,-0.32571,2875.893378,440.546567)" />
                <path style="fill:none;stroke-width:40;stroke-linecap:butt;stroke-linejoin:miter;stroke:#0571d3;stroke-opacity:1;stroke-miterlimit:4;" d="M 0.000448514 19.998039 C 256.367322 20.000177 512.729792 19.999534 769.096665 20.001672 " transform="matrix(0.400295,0.634098,-0.634098,0.400295,2895.797718,424.303189)" />
                <path style="fill:none;stroke-width:40;stroke-linecap:butt;stroke-linejoin:miter;stroke:#0571d3;stroke-opacity:1;stroke-miterlimit:4;" d="M 0.00120259 19.998212 C 138.597834 20.001931 277.19668 20.000935 415.795525 19.999939 " transform="matrix(0.318642,0.67881,-0.67881,0.318642,3204.555081,913.623011)" />
                <path style="fill:none;stroke-width:40;stroke-linecap:butt;stroke-linejoin:miter;stroke:#0571d3;stroke-opacity:1;stroke-miterlimit:4;" d="M 2.664518 19.935199 C 120.184999 35.721247 275.579069 35.71843 468.84061 19.930856 " transform="matrix(0.144704,0.735783,-0.735783,0.144704,2553.29023,305.455562)" />
                <path style="fill:none;stroke-width:40;stroke-linecap:butt;stroke-linejoin:miter;stroke:#0571d3;stroke-opacity:1;stroke-miterlimit:4;" d="M 5.942638 19.899488 C 41.086729 30.838106 112.322085 30.835982 219.660237 19.894762 " transform="matrix(-0.237186,0.711378,-0.711378,-0.237186,2605.256979,158.761952)" />
                <path style="fill:none;stroke-width:40;stroke-linecap:butt;stroke-linejoin:miter;stroke:#0571d3;stroke-opacity:1;stroke-miterlimit:4;" d="M 13.054354 65.86169 C 84.028778 4.710474 155.010246 4.710686 225.983232 65.860553 " transform="matrix(0.745023,-0.0851917,0.0851917,0.745023,2574.366466,110.31321)" />
            </g>

            
            <g id="jari_jempol_kanan">
                <path style="fill:none;stroke-width:40;stroke-linecap:butt;stroke-linejoin:miter;stroke:#8e94a5;stroke-opacity:1;stroke-miterlimit:4;" d="M 2.060788 34.557559 C 189.438947 15.148488 416.391902 15.147497 682.934516 34.559418 " transform="matrix(0.231959,0.7131,-0.7131,0.231959,2643.35637,1733.756697)" />
                <path style="fill:none;stroke-width:40;stroke-linecap:butt;stroke-linejoin:miter;stroke:#8e94a5;stroke-opacity:1;stroke-miterlimit:4;" d="M 7.962001 19.321572 C 148.135183 80.148654 332.21729 80.148589 560.196916 19.323734 " transform="matrix(0.192721,0.724689,-0.724689,0.192721,2525.233318,1333.549315)" />
                <path style="fill:none;stroke-width:40;stroke-linecap:butt;stroke-linejoin:miter;stroke:#8e94a5;stroke-opacity:1;stroke-miterlimit:4;" d="M 3.939337 19.606749 C 156.611008 50.275131 290.030632 50.275396 404.19821 19.607544 " transform="matrix(0.222309,0.716167,-0.716167,0.222309,2436.947206,1049.210651)" />
                <path style="fill:none;stroke-width:40;stroke-linecap:butt;stroke-linejoin:miter;stroke:#8e94a5;stroke-opacity:1;stroke-miterlimit:4;" d="M 10.438006 17.060462 C 246.900396 161.748394 385.959202 161.748707 427.624442 17.058535 " transform="matrix(-0.720918,-0.20638,0.20638,-0.720918,2728.539165,1156.929963)" />
                <path style="fill:none;stroke-width:40;stroke-linecap:butt;stroke-linejoin:miter;stroke:#8e94a5;stroke-opacity:1;stroke-miterlimit:4;" d="M 1.401229 19.951119 C 282.212138 39.660588 459.381207 39.662285 532.906598 19.949073 " transform="matrix(-0.381263,-0.64572,0.64572,-0.381263,2914.834984,1494.202827)" />

            </g>
        
        </g>
    
    </g>
</svg>
