<svg xmlns="http://www.w3.org/2000/svg" xmlns:xlink="http://www.w3.org/1999/xlink" width="6646" zoomAndPan="magnify" viewBox="0 0 4984.5 3059.999987" height="4080" preserveAspectRatio="xMidYMid meet" version="1.2">
    <defs>
        <clipPath id="d50046b8b6"><path d="M 1030 2582 L 1538 2582 L 1538 3059.84375 L 1030 3059.84375 Z M 1030 2582 " /></clipPath>
        <clipPath id="8b8f0fc419"><path d="M 4615 916 L 4984 916 L 4984 1802 L 4615 1802 Z M 4615 916 " /></clipPath>
        <clipPath id="7af4951e13"><path d="M 3852 0.152344 L 4350 0.152344 L 4350 407 L 3852 407 Z M 3852 0.152344 " /></clipPath>
        <clipPath id="c73d946688"><path d="M 3422 0.152344 L 3955 0.152344 L 3955 347 L 3422 347 Z M 3422 0.152344 " /></clipPath>
        <clipPath id="e5d64de19d"><path d="M 3615 0.152344 L 4101 0.152344 L 4101 480 L 3615 480 Z M 3615 0.152344 " /></clipPath>
        <clipPath id="b94ebd0a60"><path d="M 2939 0.152344 L 3328 0.152344 L 3328 468 L 2939 468 Z M 2939 0.152344 " /></clipPath>
        <clipPath id="a8ff349dce"><path d="M 2987 0.152344 L 3485 0.152344 L 3485 322 L 2987 322 Z M 2987 0.152344 " /></clipPath>
        <clipPath id="1e0baef534"><path d="M 3145 0.152344 L 3603 0.152344 L 3603 730 L 3145 730 Z M 3145 0.152344 " /></clipPath>
        <clipPath id="fe05b77a6b"><path d="M 3107 2375 L 3836 2375 L 3836 3059.84375 L 3107 3059.84375 Z M 3107 2375 " /></clipPath>
        <clipPath id="008e10c097"><path d="M 4650 1462 L 4984 1462 L 4984 2432 L 4650 2432 Z M 4650 1462 " /></clipPath>
        <clipPath id="2cc013ac08"><path d="M 4639 2092 L 4984 2092 L 4984 2924 L 4639 2924 Z M 4639 2092 " /></clipPath>
        <clipPath id="110321dd29"><path d="M 4650 2583 L 4984 2583 L 4984 3059.84375 L 4650 3059.84375 Z M 4650 2583 " /></clipPath>
    </defs>
    <g id="tangan_kiri">
        <path style="fill:none;stroke-width:40;stroke-linecap:butt;stroke-linejoin:miter;stroke:#8b8d90;stroke-opacity:1;stroke-miterlimit:4;" d="M 5.180518 19.515992 C 122.331278 50.939591 250.932189 50.937106 390.97335 19.511779 " transform="matrix(0.233294,-0.712714,0.712714,0.233294,-0.000715176,2868.033803)" />
        <path style="fill:none;stroke-width:40;stroke-linecap:butt;stroke-linejoin:miter;stroke:#8b8d90;stroke-opacity:1;stroke-miterlimit:4;" d="M 2.449518 19.913895 C 163.914155 39.833804 352.898598 39.830621 569.396932 19.914379 " transform="matrix(-0.051703,-0.74814,0.74814,-0.051703,90.345447,2596.791878)" />
        <path style="fill:none;stroke-width:40;stroke-linecap:butt;stroke-linejoin:miter;stroke:#8b8d90;stroke-opacity:1;stroke-miterlimit:4;" d="M 6.040419 47.562107 C 122.008415 10.813419 237.969343 10.81421 353.934118 47.560412 " transform="matrix(-0.0800765,-0.745637,0.745637,-0.0800765,40.824307,2178.089912)" />
        <path style="fill:none;stroke-width:40;stroke-linecap:butt;stroke-linejoin:miter;stroke:#8b8d90;stroke-opacity:1;stroke-miterlimit:4;" d="M 9.619398 19.920993 C 44.393721 38.995823 170.06779 38.995823 386.641605 19.920993 " transform="matrix(0,-0.749925,0.749925,0,33.009974,1917.584919)" />
        <path style="fill:none;stroke-width:40;stroke-linecap:butt;stroke-linejoin:miter;stroke:#8b8d90;stroke-opacity:1;stroke-miterlimit:4;" d="M 1.585207 19.969756 C 165.411441 33.022723 368.316524 33.023066 610.300456 19.970786 " transform="matrix(0.391885,-0.639385,0.639385,0.391885,1714.31354,2258.386934)" />
        <path style="fill:none;stroke-width:40;stroke-linecap:butt;stroke-linejoin:miter;stroke:#8b8d90;stroke-opacity:1;stroke-miterlimit:4;" d="M 2.151055 19.898378 C 263.083539 48.084774 532.258451 48.082275 809.66741 19.897072 " transform="matrix(0.445537,-0.603228,0.603228,0.445537,1354.964146,2744.748527)" />
        <g clip-rule="nonzero" clip-path="url(#d50046b8b6)"><path style="fill:none;stroke-width:40;stroke-linecap:butt;stroke-linejoin:miter;stroke:#8b8d90;stroke-opacity:1;stroke-miterlimit:4;" d="M 6.152289 54.318931 C 147.722519 8.558157 298.587036 8.561563 458.745227 54.317517 " transform="matrix(0.370325,-0.652109,0.652109,0.370325,1162.616176,3031.353349)" /></g>
        <g id="jari_kelingking_kiri" style="stroke:#0571d3;">
        <path style="fill:none;stroke-width:40;stroke-linecap:butt;stroke-linejoin:miter;stroke-opacity:1;stroke-miterlimit:4;" d="M 1.65961 35.575508 C 251.130457 14.80966 482.165247 14.808547 694.763979 35.572169 " transform="matrix(0.0475479,-0.748416,0.748416,0.0475479,21.245033,1631.191164)" />
        <path style="fill:none;stroke-width:40;stroke-linecap:butt;stroke-linejoin:miter;stroke-opacity:1;stroke-miterlimit:4;" d="M 2.341873 43.885901 C 272.737536 12.040241 531.716351 12.03828 779.278535 43.88522 " transform="matrix(0.0311677,-0.749277,0.749277,0.0311677,47.954479,1113.293137)" />
        <path style="fill:none;stroke-width:40;stroke-linecap:butt;stroke-linejoin:miter;stroke-opacity:1;stroke-miterlimit:4;" d="M 2.52799 27.030927 C 76.118338 17.657821 173.818524 17.657728 295.633711 27.029975 " transform="matrix(0.0969971,-0.743625,0.743625,0.0969971,84.771097,530.023581)" />
        <path style="fill:none;stroke-width:40;stroke-linecap:butt;stroke-linejoin:miter;stroke-opacity:1;stroke-miterlimit:4;" d="M 0.00035764 20.000706 C 40.276198 19.998511 80.553426 20.001337 120.829267 19.999142 " transform="matrix(0.199736,-0.722836,0.722836,0.199736,119.089566,308.810075)" />
        <path style="fill:none;stroke-width:40;stroke-linecap:butt;stroke-linejoin:miter;stroke-opacity:1;stroke-miterlimit:4;" d="M 14.695267 67.382775 C 73.025258 4.205417 141.428937 4.204668 219.896074 67.382488 " transform="matrix(0.73655,0.141002,-0.141002,0.73655,152.841401,180.336234)" />
        <path style="fill:none;stroke-width:40;stroke-linecap:butt;stroke-linejoin:miter;stroke-opacity:1;stroke-miterlimit:4;" d="M 0.000895682 19.997739 C 53.998601 20.00171 96.633636 19.999102 127.905412 20.000317 " transform="matrix(0.0423746,0.748727,-0.748727,0.0423746,320.273583,260.132403)" />
        <path style="fill:none;stroke-width:40;stroke-linecap:butt;stroke-linejoin:miter;stroke-opacity:1;stroke-miterlimit:4;" d="M 0.000188584 20.001493 C 187.6281 19.999034 322.395575 20.000058 404.287581 19.997831 " transform="matrix(0.0744394,0.746221,-0.746221,0.0744394,320.226303,615.870335)" />
        <path style="fill:none;stroke-width:40;stroke-linecap:butt;stroke-linejoin:miter;stroke-opacity:1;stroke-miterlimit:4;" d="M 0.000113054 20.000598 C 171.66901 19.999275 287.533865 20.001881 347.599671 19.997892 " transform="matrix(-0.0155926,0.749763,-0.749763,-0.0155926,325.718358,357.053965)" />
        </g>
        <g id="jari_manis_kiri" style="stroke:#8b8d90;">
        <path style="fill:none;stroke-width:40;stroke-linecap:butt;stroke-linejoin:miter;stroke-opacity:1;stroke-miterlimit:4;" d="M 9.226219 18.833903 C 53.725294 41.974033 108.331458 41.974347 173.051089 18.831162 " transform="matrix(0.724433,-0.193864,0.193864,0.724433,716.305629,575.777534)" />
        <path style="fill:none;stroke-width:40;stroke-linecap:butt;stroke-linejoin:miter;stroke-opacity:1;stroke-miterlimit:4;" d="M 1.835655 19.917059 C 112.994028 30.154812 224.15083 30.155578 335.310913 19.913814 " transform="matrix(0.0497205,-0.748275,0.748275,0.0497205,254.313893,1420.0161)" />
        <path style="fill:none;stroke-width:40;stroke-linecap:butt;stroke-linejoin:miter;stroke-opacity:1;stroke-miterlimit:4;" d="M -0.00180281 20.002686 C 294.273892 20.002434 568.985756 20.00257 824.144017 20.001109 " transform="matrix(0.142976,-0.736169,0.736169,0.142976,271.165523,1167.244235)" />
        <path style="fill:none;stroke-width:40;stroke-linecap:butt;stroke-linejoin:miter;stroke-opacity:1;stroke-miterlimit:4;" d="M 11.170407 70.944982 C 112.0755 3.017756 229.321061 3.017498 362.918488 70.941813 " transform="matrix(0.46607,-0.587508,0.587508,0.46607,356.835723,536.887973)" />
        <path style="fill:none;stroke-width:40;stroke-linecap:butt;stroke-linejoin:miter;stroke-opacity:1;stroke-miterlimit:4;" d="M 1.312462 36.223372 C 329.561702 14.591888 490.858954 14.592181 485.214851 36.219496 " transform="matrix(0.749223,-0.0324289,0.0324289,0.749223,565.502146,329.645358)" />
        <path style="fill:none;stroke-width:40;stroke-linecap:butt;stroke-linejoin:miter;stroke-opacity:1;stroke-miterlimit:4;" d="M 2.480825 19.843362 C 310.671062 58.399909 464.734168 58.396886 464.67059 19.844702 " transform="matrix(0.0321393,-0.749236,0.749236,0.0321393,696.841974,945.57644)" />
        </g>
        <g id="jari_tengah_kiri" style="stroke:#8b8d90;">
        <path style="fill:none;stroke-width:40;stroke-linecap:butt;stroke-linejoin:miter;stroke-opacity:1;stroke-miterlimit:4;" d="M 4.324306 19.527052 C 79.332813 36.129289 130.918987 36.129893 159.07149 19.526192 " transform="matrix(0.729818,0.172488,-0.172488,0.729818,1194.634099,478.0615)" />
        <path style="fill:none;stroke-width:40;stroke-linecap:butt;stroke-linejoin:miter;stroke-opacity:1;stroke-miterlimit:4;" d="M 0.00183437 19.998446 C 157.13187 19.998485 246.186671 19.999357 267.170884 19.998705 " transform="matrix(0.668833,0.339189,-0.339189,0.668833,1280.70391,211.076881)" />
        <path style="fill:none;stroke-width:40;stroke-linecap:butt;stroke-linejoin:miter;stroke-opacity:1;stroke-miterlimit:4;" d="M -0.00242328 19.999981 C 666.712613 20.000921 1016.009061 19.999515 1047.900269 20.001994 " transform="matrix(0.256187,-0.704809,0.704809,0.256187,644.236493,1074.171423)" />
        <path style="fill:none;stroke-width:40;stroke-linecap:butt;stroke-linejoin:miter;stroke-opacity:1;stroke-miterlimit:4;" d="M 14.906424 139.161056 C 157.075621 -19.721063 319.792955 -19.71983 503.065017 139.161471 " transform="matrix(0.71109,-0.238196,0.238196,0.71109,883.049392,245.321125)" />
        <path style="fill:none;stroke-width:40;stroke-linecap:butt;stroke-linejoin:miter;stroke-opacity:1;stroke-miterlimit:4;" d="M 1.452332 19.945376 C 275.438124 39.915745 471.466156 39.91822 589.535801 19.947629 " transform="matrix(-0.0904193,0.744454,-0.744454,-0.0904193,1247.589105,548.97616)" />
        <path style="fill:none;stroke-width:40;stroke-linecap:butt;stroke-linejoin:miter;stroke-opacity:1;stroke-miterlimit:4;" d="M 16.720552 52.330905 C 45.028841 9.224638 87.358065 9.223792 143.706447 52.333262 " transform="matrix(0.255793,0.704952,-0.704952,0.255793,1224.891103,473.385521)" />
        </g>
        <g id="jari_telunjuk_kiri" style="stroke:#8b8d90;">
        <path style="fill:none;stroke-width:40;stroke-linecap:butt;stroke-linejoin:miter;stroke-opacity:1;stroke-miterlimit:4;" d="M 0.860412 19.979453 C 304.516627 33.095394 591.087464 33.092499 860.580168 19.979887 " transform="matrix(0.154692,-0.733797,0.733797,0.154692,1159.573234,1121.454766)" />
        <path style="fill:none;stroke-width:40;stroke-linecap:butt;stroke-linejoin:miter;stroke-opacity:1;stroke-miterlimit:4;" d="M 16.014063 153.000747 C 148.703757 -24.335077 305.441434 -24.335217 486.215449 153.000524 " transform="matrix(0.676339,-0.323963,0.323963,0.676339,1246.96572,394.762231)" />
        <path style="fill:none;stroke-width:40;stroke-linecap:butt;stroke-linejoin:miter;stroke-opacity:1;stroke-miterlimit:4;" d="M 13.729083 91.844788 C 115.21141 -3.948373 204.577209 -3.9467 281.826232 91.844606 " transform="matrix(-0.0357414,0.749073,-0.749073,-0.0357414,1965.195355,390.24077)" />
        <path style="fill:none;stroke-width:40;stroke-linecap:butt;stroke-linejoin:miter;stroke-opacity:1;stroke-miterlimit:4;" d="M 5.78553 49.951277 C 137.90976 10.015007 270.031946 10.017856 402.156831 49.949185 " transform="matrix(-0.749189,-0.0332154,0.0332154,-0.749189,1899.147959,629.482297)" />
        <path style="fill:none;stroke-width:40;stroke-linecap:butt;stroke-linejoin:miter;stroke-opacity:1;stroke-miterlimit:4;" d="M 12.843887 50.160657 C 60.85418 9.945117 118.487087 9.945926 185.737968 50.160719 " transform="matrix(0.340662,0.668084,-0.668084,0.340662,1631.241581,553.034488)" />
        <path style="fill:none;stroke-width:40;stroke-linecap:butt;stroke-linejoin:miter;stroke-opacity:1;stroke-miterlimit:4;" d="M 0.447086 19.998709 C 315.182687 27.062931 690.624587 27.06281 1126.777996 19.998258 " transform="matrix(-0.0128705,0.749814,-0.749814,-0.0128705,1676.001073,694.129193)" />
        <path style="fill:none;stroke-width:40;stroke-linecap:butt;stroke-linejoin:miter;stroke-opacity:1;stroke-miterlimit:4;" d="M 0.00125938 20.000288 C 128.507011 19.999712 257.017834 19.997942 385.52985 20.001242 " transform="matrix(0.729964,0.171871,-0.171871,0.729964,1628.815448,326.130759)" />
        </g>
        <g id="jari_jempol_kiri" style="stroke:#8b8d90;">
            <path style="fill:none;stroke-width:40;stroke-linecap:butt;stroke-linejoin:miter;stroke-opacity:1;stroke-miterlimit:4;" d="M 4.082368 19.579492 C 199.608888 60.352915 345.739933 60.358113 442.482027 19.577475 " transform="matrix(0.173272,-0.729633,0.729633,0.173272,1638.995083,1415.593863)" />
            <path style="fill:none;stroke-width:40;stroke-linecap:butt;stroke-linejoin:miter;stroke-opacity:1;stroke-miterlimit:4;" d="M 4.703903 55.344189 C 199.541909 8.22108 335.106218 8.220145 411.38522 55.340458 " transform="matrix(0.280977,-0.695298,0.695298,0.280977,1690.150749,1083.860777)" />
            <path style="fill:none;stroke-width:40;stroke-linecap:butt;stroke-linejoin:miter;stroke-opacity:1;stroke-miterlimit:4;" d="M 7.603315 47.020896 C 95.266434 10.993227 182.922886 10.994346 270.585412 47.016853 " transform="matrix(0.724862,-0.192255,0.192255,0.724862,1829.671308,780.75701)" />
            <path style="fill:none;stroke-width:40;stroke-linecap:butt;stroke-linejoin:miter;stroke-opacity:1;stroke-miterlimit:4;" d="M 4.385841 42.17857 C 135.940363 12.604614 267.491527 12.609191 399.04989 42.182025 " transform="matrix(0.010122,0.749856,-0.749856,0.010122,2066.427229,759.104631)" />
            <path style="fill:none;stroke-width:40;stroke-linecap:butt;stroke-linejoin:miter;stroke-opacity:1;stroke-miterlimit:4;" d="M 3.369579 35.481005 C 124.121279 14.838308 255.670937 14.838308 398.023763 35.481005 " transform="matrix(0,0.749925,-0.749925,0,2065.897146,1045.519945)" />
            <path style="fill:none;stroke-width:40;stroke-linecap:butt;stroke-linejoin:miter;stroke-opacity:1;stroke-miterlimit:4;" d="M 1.55488 19.940481 C 238.892567 38.464112 476.228627 38.461849 713.568944 19.938123 " transform="matrix(-0.104438,0.742617,-0.742617,-0.104438,2053.806463,1344.939577)" />
        </g>
    </g>
    <g id="tangan_kanan">
        <path style="fill:none;stroke-width:40;stroke-linecap:butt;stroke-linejoin:miter;stroke:#8b8d90;stroke-opacity:1;stroke-miterlimit:4;" d="M 1.299305 27.675263 C 158.396354 17.441683 371.61928 17.441743 640.956676 27.673079 " transform="matrix(0.464523,0.588732,-0.588732,0.464523,2995.740546,2154.996454)" />
        <g clip-rule="nonzero" clip-path="url(#fe05b77a6b)"><path style="fill:none;stroke-width:40;stroke-linecap:butt;stroke-linejoin:miter;stroke:#8b8d90;stroke-opacity:1;stroke-miterlimit:4;" d="M 5.074681 19.680231 C 229.425213 78.517879 504.572924 78.515239 830.511274 19.680421 " transform="matrix(0.470764,0.583753,-0.583753,0.470764,3286.286924,2532.972107)" /></g>
        <g clip-rule="nonzero" clip-path="url(#008e10c097)"><path style="fill:none;stroke-width:40;stroke-linecap:butt;stroke-linejoin:miter;stroke:#8b8d90;stroke-opacity:1;stroke-miterlimit:4;" d="M 1.665399 19.986732 C 179.178169 34.796192 459.752018 34.79931 843.375919 19.986315 " transform="matrix(-0.0451558,0.748564,-0.748564,-0.0451558,4872.958426,1631.491797)" /></g>
        <g clip-rule="nonzero" clip-path="url(#2cc013ac08)"><path style="fill:none;stroke-width:40;stroke-linecap:butt;stroke-linejoin:miter;stroke:#8b8d90;stroke-opacity:1;stroke-miterlimit:4;" d="M 1.970293 19.931635 C 202.27685 39.772168 420.830031 39.772168 657.635042 19.931635 " transform="matrix(0,0.749925,-0.749925,0,4834.861289,2260.432585)" /></g>
        <g clip-rule="nonzero" clip-path="url(#110321dd29)"><path style="fill:none;stroke-width:40;stroke-linecap:butt;stroke-linejoin:miter;stroke:#8b8d90;stroke-opacity:1;stroke-miterlimit:4;" d="M 5.277761 19.685368 C 115.196753 49.765629 253.718699 49.766719 420.846097 19.684067 " transform="matrix(0.359746,0.658004,-0.658004,0.359746,4830.96456,2743.054848)" /></g>

        <g id="jari_kelingking_kanan" style="stroke:#8b8d90;">
            <path style="fill:none;stroke-width:40;stroke-linecap:butt;stroke-linejoin:miter;stroke-opacity:1;stroke-miterlimit:4;" d="M 9.57143 17.562426 C 106.467297 70.362269 194.585689 70.361268 273.926605 17.559422 " transform="matrix(-0.485681,0.571403,-0.571403,-0.485681,4576.953411,354.505913)" />
            <path style="fill:none;stroke-width:40;stroke-linecap:butt;stroke-linejoin:miter;stroke-opacity:1;stroke-miterlimit:4;" d="M 6.092494 19.048148 C 209.977438 84.286862 336.569808 84.289886 385.879512 19.051096 " transform="matrix(-0.394305,-0.637896,0.637896,-0.394305,4702.278914,605.100278)" />
            <path style="fill:none;stroke-width:40;stroke-linecap:butt;stroke-linejoin:miter;stroke-opacity:1;stroke-miterlimit:4;" d="M 1.468718 19.944752 C 301.02914 42.03074 531.38936 42.033728 692.544961 19.947822 " transform="matrix(-0.106331,-0.742348,0.742348,-0.106331,4770.858032,1109.929793)" />
            <g clip-rule="nonzero" clip-path="url(#8b8f0fc419)"><path style="fill:none;stroke-width:40;stroke-linecap:butt;stroke-linejoin:miter;stroke-opacity:1;stroke-miterlimit:4;" d="M 1.786629 19.953215 C 215.856365 39.161819 460.306367 39.159557 735.141113 19.952276 " transform="matrix(0.098748,0.743395,-0.743395,0.098748,4800.156692,1083.357739)" /></g>

        </g>
        <g id="jari_manis_kanan" style="stroke:#8b8d90;">
            <path style="fill:none;stroke-width:40;stroke-linecap:butt;stroke-linejoin:miter;stroke-opacity:1;stroke-miterlimit:4;" d="M -0.00150835 20.002412 C 86.770373 19.997961 194.771765 19.998055 324.00784 20.002091 " transform="matrix(0.087057,-0.744854,0.744854,0.087057,4116.144214,1059.882527)" />
            <path style="fill:none;stroke-width:40;stroke-linecap:butt;stroke-linejoin:miter;stroke-opacity:1;stroke-miterlimit:4;" d="M 4.553027 19.473612 C 58.376516 32.05903 112.197542 32.062248 166.025348 19.476177 " transform="matrix(-0.328023,-0.67438,0.67438,-0.328023,4147.606977,514.669193)" />
            <path style="fill:none;stroke-width:40;stroke-linecap:butt;stroke-linejoin:miter;stroke-opacity:1;stroke-miterlimit:4;" d="M 3.732194 39.180675 C 138.337095 13.606845 293.841506 13.607532 470.240392 39.181401 " transform="matrix(0.192271,0.724858,-0.724858,0.192271,4403.038304,331.132489)" />
            <path style="fill:none;stroke-width:40;stroke-linecap:butt;stroke-linejoin:miter;stroke-opacity:1;stroke-miterlimit:4;" d="M 2.788215 39.180474 C 184.473566 13.604661 394.370675 13.605641 632.474896 39.177697 " transform="matrix(0.0774038,0.745919,-0.745919,0.0774038,4477.728408,554.379688)" />
            <path style="fill:none;stroke-width:40;stroke-linecap:butt;stroke-linejoin:miter;stroke-opacity:1;stroke-miterlimit:4;" d="M 4.738143 19.781216 C 142.942289 53.47358 325.410622 53.472846 552.147461 19.78498 " transform="matrix(0.118404,0.740519,-0.740519,0.118404,4511.544375,1023.340554)" />
            <g clip-rule="nonzero" clip-path="url(#7af4951e13)"><path style="fill:none;stroke-width:40;stroke-linecap:butt;stroke-linejoin:miter;stroke-opacity:1;stroke-miterlimit:4;" d="M 14.5702 62.996566 C 68.473473 5.6705 144.198535 5.666821 241.746379 62.997133 " transform="matrix(0.696922,-0.276924,0.276924,0.696922,3994.099662,197.416307)" /></g>
            <path style="fill:none;stroke-width:40;stroke-linecap:butt;stroke-linejoin:miter;stroke-opacity:1;stroke-miterlimit:4;" d="M -0.00117465 19.997814 C 62.185763 19.999204 175.676593 19.999125 340.485996 19.998837 " transform="matrix(0.573697,0.482969,-0.482969,0.573697,4189.682434,165.453665)" />
            <path style="fill:none;stroke-width:40;stroke-linecap:butt;stroke-linejoin:miter;stroke-opacity:1;stroke-miterlimit:4;" d="M 9.349977 18.72028 C 76.088867 54.026526 156.389497 54.028139 250.249702 18.718077 " transform="matrix(0.351135,0.66264,-0.66264,0.351135,4030.813097,224.516142)" />
            <path style="fill:none;stroke-width:40;stroke-linecap:butt;stroke-linejoin:miter;stroke-opacity:1;stroke-miterlimit:4;" d="M 0.00234526 19.99856 C 114.906319 19.99936 257.933342 20.002175 429.078233 20.001768 " transform="matrix(-0.0042207,-0.749913,0.749913,-0.0042207,4144.252833,820.371323)" />
        </g>
        <g id="jari_tengah_kanan" style="stroke:#8b8d90;">
            <path style="fill:none;stroke-width:40;stroke-linecap:butt;stroke-linejoin:miter;stroke-opacity:1;stroke-miterlimit:4;" d="M 10.330207 69.118172 C 118.908593 3.629612 268.841129 3.628052 460.124484 69.120061 " transform="matrix(-0.233055,0.712792,-0.712792,-0.233055,3795.881425,869.092698)" />
            <path style="fill:none;stroke-width:40;stroke-linecap:butt;stroke-linejoin:miter;stroke-opacity:1;stroke-miterlimit:4;" d="M 10.239708 19.094406 C 131.433877 91.348893 307.843831 91.347621 539.462759 19.093399 " transform="matrix(0.288009,0.692414,-0.692414,0.288009,3602.057268,161.789417)" />
            <g clip-rule="nonzero" clip-path="url(#c73d946688)"><path style="fill:none;stroke-width:40;stroke-linecap:butt;stroke-linejoin:miter;stroke-opacity:1;stroke-miterlimit:4;" d="M 10.989908 16.706204 C 118.844788 87.656213 206.328747 87.658424 273.452991 16.709661 " transform="matrix(-0.736783,0.139776,-0.139776,-0.736783,3795.59247,151.007098)" /></g>
            <path style="fill:none;stroke-width:40;stroke-linecap:butt;stroke-linejoin:miter;stroke-opacity:1;stroke-miterlimit:4;" d="M 6.614675 18.873862 C 185.080336 81.396891 320.268052 81.396187 412.186167 18.877987 " transform="matrix(-0.448939,-0.600701,0.600701,-0.448939,4056.987511,553.259144)" />
            <path style="fill:none;stroke-width:40;stroke-linecap:butt;stroke-linejoin:miter;stroke-opacity:1;stroke-miterlimit:4;" d="M 2.62457 38.711615 C 190.985101 13.761674 506.862155 13.761466 950.266825 38.707446 " transform="matrix(-0.115242,-0.741017,0.741017,-0.115242,4146.186799,1249.433385)" />
            <path style="fill:none;stroke-width:40;stroke-linecap:butt;stroke-linejoin:miter;stroke-opacity:1;stroke-miterlimit:4;" d="M 0.00187375 20.00043 C 154.895934 19.999896 296.938597 19.999952 426.124656 20.000667 " transform="matrix(-0.0100649,0.749857,-0.749857,-0.0100649,3763.49358,541.024116)" />
            <g clip-rule="nonzero" clip-path="url(#e5d64de19d)"><path style="fill:none;stroke-width:40;stroke-linecap:butt;stroke-linejoin:miter;stroke-opacity:1;stroke-miterlimit:4;" d="M -0.00168347 19.999705 C 121.606195 19.998262 219.558418 19.998038 293.854985 19.999032 " transform="matrix(-0.494699,-0.563613,0.563613,-0.494699,3919.258324,319.693674)" /></g>
        </g>
        <g id="jari_telunjuk_kanan" style="stroke:#8b8d90;">
            <path style="fill:none;stroke-width:40;stroke-linecap:butt;stroke-linejoin:miter;stroke-opacity:1;stroke-miterlimit:4;" d="M 7.613928 19.82708 C 138.460141 73.682023 405.873052 73.684965 809.859315 19.826348 " transform="matrix(-0.108104,-0.742092,0.742092,-0.108104,3188.367391,1378.668624)" />
            <path style="fill:none;stroke-width:40;stroke-linecap:butt;stroke-linejoin:miter;stroke-opacity:1;stroke-miterlimit:4;" d="M 0.983144 32.312095 C 335.059718 15.895581 546.580725 15.896017 635.546239 32.308195 " transform="matrix(-0.0104726,-0.749852,0.749852,-0.0104726,3091.308363,776.614666)" />
            <g clip-rule="nonzero" clip-path="url(#b94ebd0a60)"><path style="fill:none;stroke-width:40;stroke-linecap:butt;stroke-linejoin:miter;stroke-opacity:1;stroke-miterlimit:4;" d="M 3.423601 30.36618 C 83.037073 16.545152 151.378772 16.54558 208.45364 30.365819 " transform="matrix(0.237143,-0.711443,0.711443,0.237143,3086.467137,292.758019)" /></g>
            <g clip-rule="nonzero" clip-path="url(#a8ff349dce)"><path style="fill:none;stroke-width:40;stroke-linecap:butt;stroke-linejoin:miter;stroke-opacity:1;stroke-miterlimit:4;" d="M 13.599349 68.783197 C 83.726177 3.740212 153.847796 3.740212 223.969416 68.783197 " transform="matrix(0.749925,0,0,0.749925,3147.301512,100.077935)" /></g>
            <g clip-rule="nonzero" clip-path="url(#1e0baef534)"><path style="fill:none;stroke-width:40;stroke-linecap:butt;stroke-linejoin:miter;stroke-opacity:1;stroke-miterlimit:4;" d="M 3.186582 39.583744 C 164.946081 13.471366 353.610274 13.472862 569.175599 39.581785 " transform="matrix(0.207778,0.720566,-0.720566,0.207778,3343.122317,141.139377)" /></g>
            <path style="fill:none;stroke-width:40;stroke-linecap:butt;stroke-linejoin:miter;stroke-opacity:1;stroke-miterlimit:4;" d="M 0.00025446 20.002548 C 174.834725 19.999666 349.674225 19.998141 524.507338 20.000288 " transform="matrix(0.195508,0.723992,-0.723992,0.195508,3447.341002,555.585255)" />
            <path style="fill:none;stroke-width:40;stroke-linecap:butt;stroke-linejoin:miter;stroke-opacity:1;stroke-miterlimit:4;" d="M 0.00197564 19.9998 C 138.599375 19.998063 277.195038 20.001237 415.797349 20.001237 " transform="matrix(0.250069,0.707003,-0.707003,0.250069,3549.545666,934.235552)" />
        </g>
        <g id="jari_jempol_kanan" style="stroke:#8b8d90;">
            <path style="fill:none;stroke-width:40;stroke-linecap:butt;stroke-linejoin:miter;stroke-opacity:1;stroke-miterlimit:4;" d="M 2.059961 34.56154 C 189.439089 15.145267 416.395483 15.144988 682.93423 34.561823 " transform="matrix(0.160943,0.732451,-0.732451,0.160943,2895.447938,1667.15529)" />
            <path style="fill:none;stroke-width:40;stroke-linecap:butt;stroke-linejoin:miter;stroke-opacity:1;stroke-miterlimit:4;" d="M 7.961623 19.325287 C 148.136897 80.14741 332.213108 80.149684 560.197074 19.322665 " transform="matrix(0.120756,0.740139,-0.740139,0.120756,2817.12323,1257.269751)" />
            <path style="fill:none;stroke-width:40;stroke-linecap:butt;stroke-linejoin:miter;stroke-opacity:1;stroke-miterlimit:4;" d="M 3.936615 19.608536 C 156.607087 50.277092 290.026345 50.275803 404.193341 19.609771 " transform="matrix(0.151038,0.734557,-0.734557,0.151038,2757.133234,965.627162)" />
            <path style="fill:none;stroke-width:40;stroke-linecap:butt;stroke-linejoin:miter;stroke-opacity:1;stroke-miterlimit:4;" d="M 10.437447 17.062041 C 246.900112 161.751377 385.960111 161.750142 427.624205 17.061259 " transform="matrix(-0.697257,-0.276079,0.276079,-0.697257,3036.778059,1101.422719)" />
            <path style="fill:none;stroke-width:40;stroke-linecap:butt;stroke-linejoin:miter;stroke-opacity:1;stroke-miterlimit:4;" d="M 1.399498 19.949916 C 282.214528 39.664682 459.384369 39.66365 532.906825 19.951543 " transform="matrix(-0.316143,-0.68003,0.68003,-0.316143,3189.121995,1455.356384)" />
        </g>
        <g clip-rule="nonzero" clip-path="url(#12e5f430ba)">
            <g clip-rule="nonzero" clip-path="url(#e619e98e9e)">
                <g transform="matrix(1,0,0,1,2135,0.000000000000604627)">
                    <g clip-path="url(#5a76aa29dd)">
                        <g clip-rule="nonzero" clip-path="url(#f19a940312)">
                            <g clip-rule="nonzero" clip-path="url(#0168361da2)">
                                <path style=" stroke:none;fill-rule:nonzero;fill:#004aad;fill-opacity:0;" d="M 0.0703125 0.152344 L 574.761719 0.152344 L 574.761719 66.039062 L 0.0703125 66.039062 Z M 0.0703125 0.152344 " />
                            </g>
                        </g>
                    </g>
                </g>
            </g>
        </g>
        <g clip-rule="nonzero" clip-path="url(#dd7d05f1ec)">
            <g clip-rule="nonzero" clip-path="url(#faff63a050)">
                <g transform="matrix(1,0,0,1,2136,2975)">
                    <g clip-path="url(#85bccd3072)">
                        <g clip-rule="nonzero" clip-path="url(#a6f7b20156)">
                            <g clip-rule="nonzero" clip-path="url(#a8695adc94)">
                                <path style=" stroke:none;fill-rule:nonzero;fill:#004aad;fill-opacity:0;" d="M 0.429688 0.203125 L 575.121094 0.203125 L 575.121094 66.089844 L 0.429688 66.089844 Z M 0.429688 0.203125 " />
                            </g>
                        </g>
                    </g>
                </g>
            </g>
        </g>
    </g>
</svg>