<svg xmlns="http://www.w3.org/2000/svg" xmlns:xlink="http://www.w3.org/1999/xlink" width="6646" zoomAndPan="magnify" viewBox="0 0 4984.5 3059.999987" height="4080" preserveAspectRatio="xMidYMid meet" version="1.2">
    <defs>
        <clipPath id="f273d951d8"><path d="M 1138 0.152344 L 1770 0.152344 L 1770 683 L 1138 683 Z M 1138 0.152344 " /></clipPath>
        <clipPath id="f2ae13fde3"><path d="M 1430 0.152344 L 1915 0.152344 L 1915 333 L 1430 333 Z M 1430 0.152344 " /></clipPath>
        <clipPath id="e53fae3953"><path d="M 1518 0.152344 L 1917 0.152344 L 1917 554 L 1518 554 Z M 1518 0.152344 " /></clipPath>
        <clipPath id="0230c39c61"><path d="M 604 0.152344 L 1328 0.152344 L 1328 477 L 604 477 Z M 604 0.152344 " /></clipPath>
        <clipPath id="d93b06fdc3"><path d="M 987 0.152344 L 1510 0.152344 L 1510 261 L 987 261 Z M 987 0.152344 " /></clipPath>
        <clipPath id="10cc8f1df1"><path d="M 993 0.152344 L 1510 0.152344 L 1510 552 L 993 552 Z M 993 0.152344 " /></clipPath>
        <clipPath id="d50046b8b6"><path d="M 1030 2582 L 1538 2582 L 1538 3059.84375 L 1030 3059.84375 Z M 1030 2582 " /></clipPath>
        <clipPath id="8b8f0fc419"><path d="M 4615 916 L 4984 916 L 4984 1802 L 4615 1802 Z M 4615 916 " /></clipPath>
        <clipPath id="c73d946688"><path d="M 3422 0.152344 L 3955 0.152344 L 3955 347 L 3422 347 Z M 3422 0.152344 " /></clipPath>
        <clipPath id="e5d64de19d"><path d="M 3615 0.152344 L 4101 0.152344 L 4101 480 L 3615 480 Z M 3615 0.152344 " /></clipPath>
        <clipPath id="b94ebd0a60"><path d="M 2939 0.152344 L 3328 0.152344 L 3328 468 L 2939 468 Z M 2939 0.152344 " /></clipPath>
        <clipPath id="a8ff349dce"><path d="M 2987 0.152344 L 3485 0.152344 L 3485 322 L 2987 322 Z M 2987 0.152344 " /></clipPath>
        <clipPath id="1e0baef534"><path d="M 3145 0.152344 L 3603 0.152344 L 3603 730 L 3145 730 Z M 3145 0.152344 " /></clipPath>
        <clipPath id="fe05b77a6b"><path d="M 3107 2375 L 3836 2375 L 3836 3059.84375 L 3107 3059.84375 Z M 3107 2375 " /></clipPath>
        <clipPath id="008e10c097"><path d="M 4650 1462 L 4984 1462 L 4984 2432 L 4650 2432 Z M 4650 1462 " /></clipPath>
        <clipPath id="2cc013ac08"><path d="M 4639 2092 L 4984 2092 L 4984 2924 L 4639 2924 Z M 4639 2092 " /></clipPath>
        <clipPath id="110321dd29"><path d="M 4650 2583 L 4984 2583 L 4984 3059.84375 L 4650 3059.84375 Z M 4650 2583 " /></clipPath>
        <clipPath id="50244d9a4f">
            <path d="M 3810 0.152344 L 4309 0.152344 L 4309 356 L 3810 356 Z M 3810 0.152344 " />
        </clipPath>
        <clipPath id="c875932647">
            <path d="M 3961 0.152344 L 4380 0.152344 L 4380 356 L 3961 356 Z M 3961 0.152344 " />
        </clipPath>

    </defs>
    <g id="tangan_kiri">
        <path style="fill:none;stroke-width:40;stroke-linecap:butt;stroke-linejoin:miter;stroke:#8b8d90;stroke-opacity:1;stroke-miterlimit:4;" d="M 5.180518 19.515992 C 122.331278 50.939591 250.932189 50.937106 390.97335 19.511779 " transform="matrix(0.233294,-0.712714,0.712714,0.233294,-0.000715176,2868.033803)" />
        <path style="fill:none;stroke-width:40;stroke-linecap:butt;stroke-linejoin:miter;stroke:#8b8d90;stroke-opacity:1;stroke-miterlimit:4;" d="M 2.449518 19.913895 C 163.914155 39.833804 352.898598 39.830621 569.396932 19.914379 " transform="matrix(-0.051703,-0.74814,0.74814,-0.051703,90.345447,2596.791878)" />
        <path style="fill:none;stroke-width:40;stroke-linecap:butt;stroke-linejoin:miter;stroke:#8b8d90;stroke-opacity:1;stroke-miterlimit:4;" d="M 6.040419 47.562107 C 122.008415 10.813419 237.969343 10.81421 353.934118 47.560412 " transform="matrix(-0.0800765,-0.745637,0.745637,-0.0800765,40.824307,2178.089912)" />
        <path style="fill:none;stroke-width:40;stroke-linecap:butt;stroke-linejoin:miter;stroke:#8b8d90;stroke-opacity:1;stroke-miterlimit:4;" d="M 9.619398 19.920993 C 44.393721 38.995823 170.06779 38.995823 386.641605 19.920993 " transform="matrix(0,-0.749925,0.749925,0,33.009974,1917.584919)" />
        <path style="fill:none;stroke-width:40;stroke-linecap:butt;stroke-linejoin:miter;stroke:#8b8d90;stroke-opacity:1;stroke-miterlimit:4;" d="M 1.585207 19.969756 C 165.411441 33.022723 368.316524 33.023066 610.300456 19.970786 " transform="matrix(0.391885,-0.639385,0.639385,0.391885,1714.31354,2258.386934)" />
        <path style="fill:none;stroke-width:40;stroke-linecap:butt;stroke-linejoin:miter;stroke:#8b8d90;stroke-opacity:1;stroke-miterlimit:4;" d="M 2.151055 19.898378 C 263.083539 48.084774 532.258451 48.082275 809.66741 19.897072 " transform="matrix(0.445537,-0.603228,0.603228,0.445537,1354.964146,2744.748527)" />
        <g clip-rule="nonzero" clip-path="url(#d50046b8b6)"><path style="fill:none;stroke-width:40;stroke-linecap:butt;stroke-linejoin:miter;stroke:#8b8d90;stroke-opacity:1;stroke-miterlimit:4;" d="M 6.152289 54.318931 C 147.722519 8.558157 298.587036 8.561563 458.745227 54.317517 " transform="matrix(0.370325,-0.652109,0.652109,0.370325,1162.616176,3031.353349)" /></g>
        <g id="jari_kelingking_kiri" style="stroke:#8b8d90;">
            <path style="fill:none;stroke-width:40;stroke-linecap:butt;stroke-linejoin:miter;stroke-opacity:1;stroke-miterlimit:4;" d="M 15.495157 52.350665 C 50.691407 9.21395 272.062518 9.215625 679.597545 52.351711 " transform="matrix(0.0860878,-0.744967,0.744967,0.0860878,7.615749,1634.67335)" />
            <path style="fill:none;stroke-width:40;stroke-linecap:butt;stroke-linejoin:miter;stroke-opacity:1;stroke-miterlimit:4;" d="M 2.344811 42.081951 C 251.522646 12.63821 488.006731 12.637546 711.786667 42.080545 " transform="matrix(0.0420405,-0.748745,0.748745,0.0420405,73.513848,1132.888865)" />
            <path style="fill:none;stroke-width:40;stroke-linecap:butt;stroke-linejoin:miter;stroke-opacity:1;stroke-miterlimit:4;" d="M 2.98441 42.237063 C 199.536417 12.587332 324.91043 12.588429 379.111198 42.238213 " transform="matrix(0.308041,-0.683738,0.683738,0.308041,105.150807,590.740743)" />
            <path style="fill:none;stroke-width:40;stroke-linecap:butt;stroke-linejoin:miter;stroke-opacity:1;stroke-miterlimit:4;" d="M 3.936306 26.671228 C 48.2299 17.774452 92.515721 17.777049 136.807123 26.670899 " transform="matrix(0.389654,-0.640747,0.640747,0.389654,225.279034,347.891344)" />
            <path style="fill:none;stroke-width:40;stroke-linecap:butt;stroke-linejoin:miter;stroke-opacity:1;stroke-miterlimit:4;" d="M 11.793429 55.62631 C 76.870501 8.125764 141.950319 8.125042 207.028647 55.627176 " transform="matrix(0.609763,0.43655,-0.43655,0.609763,300.248718,237.178795)" />
            <path style="fill:none;stroke-width:40;stroke-linecap:butt;stroke-linejoin:miter;stroke-opacity:1;stroke-miterlimit:4;" d="M 6.245875 26.285935 C 31.753642 17.904886 54.110052 17.904886 73.320313 26.285935 " transform="matrix(0,0.749925,-0.749925,0,421.911692,356.792627)" />
        </g>
        <g id="jari_manis_kiri" style="stroke:#8b8d90;">
            <path style="fill:none;stroke-width:40;stroke-linecap:butt;stroke-linejoin:miter;stroke-opacity:1;stroke-miterlimit:4;" d="M 6.006795 37.97839 C 82.148873 14.00894 143.140639 14.005468 188.974676 37.975293 " transform="matrix(0.526741,-0.53379,0.53379,0.526741,605.020541,593.846127)" />
            <path style="fill:none;stroke-width:40;stroke-linecap:butt;stroke-linejoin:miter;stroke-opacity:1;stroke-miterlimit:4;" d="M 1.781421 19.922155 C 116.256851 30.157151 230.734727 30.158766 345.214228 19.921858 " transform="matrix(0.118155,-0.740558,0.740558,0.118155,254.344593,1438.586435)" />
            <path style="fill:none;stroke-width:40;stroke-linecap:butt;stroke-linejoin:miter;stroke-opacity:1;stroke-miterlimit:4;" d="M 2.497432 42.520683 C 240.819537 12.491981 488.868486 12.495039 746.638812 42.519572 " transform="matrix(0.0185733,-0.749695,0.749695,0.0185733,277.9628,1186.371626)" />
            <path style="fill:none;stroke-width:40;stroke-linecap:butt;stroke-linejoin:miter;stroke-opacity:1;stroke-miterlimit:4;" d="M 5.301704 75.491678 C 274.428827 1.505521 424.862445 1.503255 456.605302 75.489308 " transform="matrix(0.395195,-0.637344,0.637344,0.395195,273.501537,600.963021)" />
            <path style="fill:none;stroke-width:40;stroke-linecap:butt;stroke-linejoin:miter;stroke-opacity:1;stroke-miterlimit:4;" d="M 0.78208 19.986721 C 221.6537 28.633626 361.510875 28.630389 420.348071 19.985837 " transform="matrix(0.635339,-0.398411,0.398411,0.635339,457.219877,332.48824)" />
            <path style="fill:none;stroke-width:40;stroke-linecap:butt;stroke-linejoin:miter;stroke-opacity:1;stroke-miterlimit:4;" d="M 13.08722 70.936586 C 91.557751 3.022691 161.349365 3.018318 222.468993 70.937475 " transform="matrix(0.672181,0.332505,-0.332505,0.672181,747.031977,125.68104)" />
            <path style="fill:none;stroke-width:40;stroke-linecap:butt;stroke-linejoin:miter;stroke-opacity:1;stroke-miterlimit:4;" d="M 0.00239538 19.998038 C 174.499767 20.001577 313.456188 20.002732 416.866503 20.00078 " transform="matrix(-0.104243,-0.742644,0.742644,-0.104243,657.055071,922.312997)" />
        </g>
        <g id="jari_tengah_kiri" style="stroke:#8b8d90;">
            <path style="fill:none;stroke-width:40;stroke-linecap:butt;stroke-linejoin:miter;stroke-opacity:1;stroke-miterlimit:4;" d="M 1.373198 55.832719 C 695.299093 8.055502 1051.889101 8.053923 1071.143984 55.833136 " transform="matrix(0.109778,-0.741846,0.741846,0.109778,614.855738,1095.455909)" />
            <g clip-rule="nonzero" clip-path="url(#0230c39c61)"><path style="fill:none;stroke-width:40;stroke-linecap:butt;stroke-linejoin:miter;stroke-opacity:1;stroke-miterlimit:4;" d="M 0.749481 19.983955 C 348.809087 33.026064 554.459102 33.026488 617.692294 19.986634 " transform="matrix(0.621656,-0.419441,0.419441,0.621656,765.015269,294.852154)" /></g>
            <g clip-rule="nonzero" clip-path="url(#d93b06fdc3)"><path style="fill:none;stroke-width:40;stroke-linecap:butt;stroke-linejoin:miter;stroke-opacity:1;stroke-miterlimit:4;" d="M 11.383495 63.127173 C 94.44511 5.62437 177.507411 5.623714 260.5704 63.125204 " transform="matrix(0.730202,0.170858,-0.170858,0.730202,1159.864181,0.15478)" /></g>
            <g clip-rule="nonzero" clip-path="url(#10cc8f1df1)"><path style="fill:none;stroke-width:40;stroke-linecap:butt;stroke-linejoin:miter;stroke-opacity:1;stroke-miterlimit:4;" d="M 11.610634 80.305866 C 124.402351 -0.101405 275.78978 -0.103937 465.759546 80.306349 " transform="matrix(-0.387675,0.641946,-0.641946,-0.387675,1395.393057,114.448706)" /></g>
            <path style="fill:none;stroke-width:40;stroke-linecap:butt;stroke-linejoin:miter;stroke-opacity:1;stroke-miterlimit:4;" d="M 4.836621 19.652902 C 65.942598 34.877599 136.845005 34.877467 217.532219 19.651768 " transform="matrix(-0.292216,0.690649,-0.690649,-0.292216,1178.26395,382.011864)" />
            <path style="fill:none;stroke-width:40;stroke-linecap:butt;stroke-linejoin:miter;stroke-opacity:1;stroke-miterlimit:4;" d="M 3.710098 19.816085 C 213.484634 59.402348 462.423103 59.402598 750.515248 19.815014 " transform="matrix(0.130963,0.738401,-0.738401,0.130963,1115.271328,521.177004)" />
        </g>
        <g id="jari_telunjuk_kiri" style="stroke:#8b8d90;">
            <path style="fill:none;stroke-width:40;stroke-linecap:butt;stroke-linejoin:miter;stroke-opacity:1;stroke-miterlimit:4;" d="M 1.058376 19.972674 C 248.037384 33.08346 481.116766 33.085032 700.310794 19.969163 " transform="matrix(0.14979,-0.734813,0.734813,0.14979,1188.235597,1024.649287)" />
            <g clip-rule="nonzero" clip-path="url(#f273d951d8)"><path style="fill:none;stroke-width:40;stroke-linecap:butt;stroke-linejoin:miter;stroke-opacity:1;stroke-miterlimit:4;" d="M 2.289785 54.066972 C 396.371688 8.644685 616.037168 8.645543 661.283145 54.065344 " transform="matrix(0.443339,-0.604845,0.604845,0.443339,1274.095189,490.461862)" /></g>
            <g clip-rule="nonzero" clip-path="url(#f2ae13fde3)"><path style="fill:none;stroke-width:40;stroke-linecap:butt;stroke-linejoin:miter;stroke-opacity:1;stroke-miterlimit:4;" d="M 10.79341 52.590604 C 78.567006 9.134028 146.338809 9.138446 214.110478 52.592327 " transform="matrix(0.711675,0.236443,-0.236443,0.711675,1604.718146,74.47757)" /></g>
            <g clip-rule="nonzero" clip-path="url(#e53fae3953)"><path style="fill:none;stroke-width:40;stroke-linecap:butt;stroke-linejoin:miter;stroke-opacity:1;stroke-miterlimit:4;" d="M 7.128229 44.840084 C 93.960588 11.720891 195.271072 11.719439 311.06097 44.840774 " transform="matrix(-0.185548,0.726608,-0.726608,-0.185548,1778.563948,165.667891)" /></g>
            <path style="fill:none;stroke-width:40;stroke-linecap:butt;stroke-linejoin:miter;stroke-opacity:1;stroke-miterlimit:4;" d="M 0.000525625 20.002284 C 56.779866 19.999655 123.267257 20.001656 199.44518 20.001514 " transform="matrix(-0.163014,0.731993,-0.731993,-0.163014,1702.903333,386.635269)" />
            <path style="fill:none;stroke-width:40;stroke-linecap:butt;stroke-linejoin:miter;stroke-opacity:1;stroke-miterlimit:4;" d="M 0.367226 20.000772 C 383.943586 27.06316 841.506208 27.065389 1373.055004 19.997044 " transform="matrix(-0.00640769,0.749897,-0.749897,-0.00640769,1670.75088,529.219965)" />
        </g>
        <g id="jari_jempol_kiri" style="stroke:#8b8d90;">
            <path style="fill:none;stroke-width:40;stroke-linecap:butt;stroke-linejoin:miter;stroke-opacity:1;stroke-miterlimit:4;" d="M 4.082368 19.579492 C 199.608888 60.352915 345.739933 60.358113 442.482027 19.577475 " transform="matrix(0.173272,-0.729633,0.729633,0.173272,1638.995083,1415.593863)" />
            <path style="fill:none;stroke-width:40;stroke-linecap:butt;stroke-linejoin:miter;stroke-opacity:1;stroke-miterlimit:4;" d="M 4.703903 55.344189 C 199.541909 8.22108 335.106218 8.220145 411.38522 55.340458 " transform="matrix(0.280977,-0.695298,0.695298,0.280977,1690.150749,1083.860777)" />
            <path style="fill:none;stroke-width:40;stroke-linecap:butt;stroke-linejoin:miter;stroke-opacity:1;stroke-miterlimit:4;" d="M 7.603315 47.020896 C 95.266434 10.993227 182.922886 10.994346 270.585412 47.016853 " transform="matrix(0.724862,-0.192255,0.192255,0.724862,1829.671308,780.75701)" />
            <path style="fill:none;stroke-width:40;stroke-linecap:butt;stroke-linejoin:miter;stroke-opacity:1;stroke-miterlimit:4;" d="M 4.385841 42.17857 C 135.940363 12.604614 267.491527 12.609191 399.04989 42.182025 " transform="matrix(0.010122,0.749856,-0.749856,0.010122,2066.427229,759.104631)" />
            <path style="fill:none;stroke-width:40;stroke-linecap:butt;stroke-linejoin:miter;stroke-opacity:1;stroke-miterlimit:4;" d="M 3.369579 35.481005 C 124.121279 14.838308 255.670937 14.838308 398.023763 35.481005 " transform="matrix(0,0.749925,-0.749925,0,2065.897146,1045.519945)" />
            <path style="fill:none;stroke-width:40;stroke-linecap:butt;stroke-linejoin:miter;stroke-opacity:1;stroke-miterlimit:4;" d="M 1.55488 19.940481 C 238.892567 38.464112 476.228627 38.461849 713.568944 19.938123 " transform="matrix(-0.104438,0.742617,-0.742617,-0.104438,2053.806463,1344.939577)" />
        </g>
    </g>
    <g id="tangan_kanan">
        <path style="fill:none;stroke-width:40;stroke-linecap:butt;stroke-linejoin:miter;stroke:#8b8d90;stroke-opacity:1;stroke-miterlimit:4;" d="M 1.299305 27.675263 C 158.396354 17.441683 371.61928 17.441743 640.956676 27.673079 " transform="matrix(0.464523,0.588732,-0.588732,0.464523,2995.740546,2154.996454)" />
        <g clip-rule="nonzero" clip-path="url(#fe05b77a6b)"><path style="fill:none;stroke-width:40;stroke-linecap:butt;stroke-linejoin:miter;stroke:#8b8d90;stroke-opacity:1;stroke-miterlimit:4;" d="M 5.074681 19.680231 C 229.425213 78.517879 504.572924 78.515239 830.511274 19.680421 " transform="matrix(0.470764,0.583753,-0.583753,0.470764,3286.286924,2532.972107)" /></g>
        <g clip-rule="nonzero" clip-path="url(#008e10c097)"><path style="fill:none;stroke-width:40;stroke-linecap:butt;stroke-linejoin:miter;stroke:#8b8d90;stroke-opacity:1;stroke-miterlimit:4;" d="M 1.665399 19.986732 C 179.178169 34.796192 459.752018 34.79931 843.375919 19.986315 " transform="matrix(-0.0451558,0.748564,-0.748564,-0.0451558,4872.958426,1631.491797)" /></g>
        <g clip-rule="nonzero" clip-path="url(#2cc013ac08)"><path style="fill:none;stroke-width:40;stroke-linecap:butt;stroke-linejoin:miter;stroke:#8b8d90;stroke-opacity:1;stroke-miterlimit:4;" d="M 1.970293 19.931635 C 202.27685 39.772168 420.830031 39.772168 657.635042 19.931635 " transform="matrix(0,0.749925,-0.749925,0,4834.861289,2260.432585)" /></g>
        <g clip-rule="nonzero" clip-path="url(#110321dd29)"><path style="fill:none;stroke-width:40;stroke-linecap:butt;stroke-linejoin:miter;stroke:#8b8d90;stroke-opacity:1;stroke-miterlimit:4;" d="M 5.277761 19.685368 C 115.196753 49.765629 253.718699 49.766719 420.846097 19.684067 " transform="matrix(0.359746,0.658004,-0.658004,0.359746,4830.96456,2743.054848)" /></g>

        <g id="jari_kelingking_kanan" style="stroke:#8b8d90;">
            <path style="fill:none;stroke-width:40;stroke-linecap:butt;stroke-linejoin:miter;stroke-opacity:1;stroke-miterlimit:4;" d="M 9.57143 17.562426 C 106.467297 70.362269 194.585689 70.361268 273.926605 17.559422 " transform="matrix(-0.485681,0.571403,-0.571403,-0.485681,4576.953411,354.505913)" />
            <path style="fill:none;stroke-width:40;stroke-linecap:butt;stroke-linejoin:miter;stroke-opacity:1;stroke-miterlimit:4;" d="M 6.092494 19.048148 C 209.977438 84.286862 336.569808 84.289886 385.879512 19.051096 " transform="matrix(-0.394305,-0.637896,0.637896,-0.394305,4702.278914,605.100278)" />
            <path style="fill:none;stroke-width:40;stroke-linecap:butt;stroke-linejoin:miter;stroke-opacity:1;stroke-miterlimit:4;" d="M 1.468718 19.944752 C 301.02914 42.03074 531.38936 42.033728 692.544961 19.947822 " transform="matrix(-0.106331,-0.742348,0.742348,-0.106331,4770.858032,1109.929793)" />
            <g clip-rule="nonzero" clip-path="url(#8b8f0fc419)"><path style="fill:none;stroke-width:40;stroke-linecap:butt;stroke-linejoin:miter;stroke-opacity:1;stroke-miterlimit:4;" d="M 1.786629 19.953215 C 215.856365 39.161819 460.306367 39.159557 735.141113 19.952276 " transform="matrix(0.098748,0.743395,-0.743395,0.098748,4800.156692,1083.357739)" /></g>

        </g>
        <g id="jari_manis_kanan" style="stroke:#5170ff;">
            <path
            style="fill:none;stroke-width:40;stroke-linecap:butt;stroke-linejoin:miter;stroke:#0571d3;stroke-opacity:1;stroke-miterlimit:4;"
            d="M 0.000567066 19.997552 C 199.992781 20.000686 347.089663 19.999751 441.287015 20.000799 "
            transform="matrix(0.133314,-0.73798,0.73798,0.133314,4098.206974,921.853997)" />
        <path
            style="fill:none;stroke-width:40;stroke-linecap:butt;stroke-linejoin:miter;stroke:#0571d3;stroke-opacity:1;stroke-miterlimit:4;"
            d="M 0.00264145 20.00048 C 66.483229 19.997095 106.541682 20.001002 120.178197 19.997467 "
            transform="matrix(-0.537254,-0.523206,0.523206,-0.537254,4110.052665,412.348288)" />
        <path
            style="fill:none;stroke-width:40;stroke-linecap:butt;stroke-linejoin:miter;stroke:#0571d3;stroke-opacity:1;stroke-miterlimit:4;"
            d="M 15.080423 50.269533 C 50.233602 9.908246 132.926295 9.910485 263.160513 50.269164 "
            transform="matrix(0.654872,0.365417,-0.365417,0.654872,4184.696695,152.233296)" />
        <path
            style="fill:none;stroke-width:40;stroke-linecap:butt;stroke-linejoin:miter;stroke:#0571d3;stroke-opacity:1;stroke-miterlimit:4;"
            d="M 0.000450801 20.002532 C 118.301753 20.000371 275.782938 20.002426 472.446304 19.998534 "
            transform="matrix(0.165282,0.731484,-0.731484,0.165282,4401.693958,326.912356)" />
        <path
            style="fill:none;stroke-width:40;stroke-linecap:butt;stroke-linejoin:miter;stroke:#0571d3;stroke-opacity:1;stroke-miterlimit:4;"
            d="M -0.000877267 20.000399 C 111.103932 20.002263 267.192154 19.99856 468.262827 19.999663 "
            transform="matrix(0.069204,0.746725,-0.746725,0.069204,4480.083292,674.421236)" />
        <path
            style="fill:none;stroke-width:40;stroke-linecap:butt;stroke-linejoin:miter;stroke:#0571d3;stroke-opacity:1;stroke-miterlimit:4;"
            d="M -0.00201083 20.001669 C 121.856482 20.00006 304.324814 19.999326 547.413273 20.001112 "
            transform="matrix(0.118404,0.740519,-0.740519,0.118404,4512.366532,1023.098061)" />
        <g clip-rule="nonzero" clip-path="url(#50244d9a4f)">
            <path
                style="fill:none;stroke-width:40;stroke-linecap:butt;stroke-linejoin:miter;stroke:#0571d3;stroke-opacity:1;stroke-miterlimit:4;"
                d="M 13.657241 65.303495 C 78.290099 4.898307 154.013237 4.899469 240.833419 65.304061 "
                transform="matrix(0.696922,-0.276924,0.276924,0.696922,3952.862704,144.493237)" />
        </g>
        <g clip-rule="nonzero" clip-path="url(#c875932647)">
            <path
                style="fill:none;stroke-width:40;stroke-linecap:butt;stroke-linejoin:miter;stroke:#0571d3;stroke-opacity:1;stroke-miterlimit:4;"
                d="M -0.00104196 20.001549 C 25.005561 19.999351 70.645036 19.997214 136.91675 20.002476 "
                transform="matrix(0.574025,0.482579,-0.482579,0.574025,4141.090431,108.671463)" />
        </g>
        <path
            style="fill:none;stroke-width:40;stroke-linecap:butt;stroke-linejoin:miter;stroke:#0571d3;stroke-opacity:1;stroke-miterlimit:4;"
            d="M 9.543205 17.578222 C 91.310869 61.959556 173.080479 61.961858 254.845079 17.575787 "
            transform="matrix(0.337763,0.669555,-0.669555,0.337763,3990.737647,169.282409)" />
        <path
            style="fill:none;stroke-width:40;stroke-linecap:butt;stroke-linejoin:miter;stroke:#0571d3;stroke-opacity:1;stroke-miterlimit:4;"
            d="M -0.0000164683 20.00293 C 18.809443 20.000669 55.643427 20.000742 110.505474 19.999326 "
            transform="matrix(0.50936,0.550399,-0.550399,0.50936,4345.185389,266.639441)" />
        <path
            style="fill:none;stroke-width:40;stroke-linecap:butt;stroke-linejoin:miter;stroke:#0571d3;stroke-opacity:1;stroke-miterlimit:4;"
            d="M -0.00103051 20.000288 C 138.198147 20.001007 239.848509 20.002717 304.94192 19.997082 "
            transform="matrix(-0.245799,-0.708498,0.708498,-0.245799,4157.626451,603.774701)" />        </g>
        <g id="jari_tengah_kanan" style="stroke:#8b8d90;">
            <path style="fill:none;stroke-width:40;stroke-linecap:butt;stroke-linejoin:miter;stroke-opacity:1;stroke-miterlimit:4;" d="M 10.330207 69.118172 C 118.908593 3.629612 268.841129 3.628052 460.124484 69.120061 " transform="matrix(-0.233055,0.712792,-0.712792,-0.233055,3795.881425,869.092698)" />
            <path style="fill:none;stroke-width:40;stroke-linecap:butt;stroke-linejoin:miter;stroke-opacity:1;stroke-miterlimit:4;" d="M 10.239708 19.094406 C 131.433877 91.348893 307.843831 91.347621 539.462759 19.093399 " transform="matrix(0.288009,0.692414,-0.692414,0.288009,3602.057268,161.789417)" />
            <g clip-rule="nonzero" clip-path="url(#c73d946688)"><path style="fill:none;stroke-width:40;stroke-linecap:butt;stroke-linejoin:miter;stroke-opacity:1;stroke-miterlimit:4;" d="M 10.989908 16.706204 C 118.844788 87.656213 206.328747 87.658424 273.452991 16.709661 " transform="matrix(-0.736783,0.139776,-0.139776,-0.736783,3795.59247,151.007098)" /></g>
            <path style="fill:none;stroke-width:40;stroke-linecap:butt;stroke-linejoin:miter;stroke-opacity:1;stroke-miterlimit:4;" d="M 6.614675 18.873862 C 185.080336 81.396891 320.268052 81.396187 412.186167 18.877987 " transform="matrix(-0.448939,-0.600701,0.600701,-0.448939,4056.987511,553.259144)" />
            <path style="fill:none;stroke-width:40;stroke-linecap:butt;stroke-linejoin:miter;stroke-opacity:1;stroke-miterlimit:4;" d="M 2.62457 38.711615 C 190.985101 13.761674 506.862155 13.761466 950.266825 38.707446 " transform="matrix(-0.115242,-0.741017,0.741017,-0.115242,4146.186799,1249.433385)" />
            <path style="fill:none;stroke-width:40;stroke-linecap:butt;stroke-linejoin:miter;stroke-opacity:1;stroke-miterlimit:4;" d="M 0.00187375 20.00043 C 154.895934 19.999896 296.938597 19.999952 426.124656 20.000667 " transform="matrix(-0.0100649,0.749857,-0.749857,-0.0100649,3763.49358,541.024116)" />
            <g clip-rule="nonzero" clip-path="url(#e5d64de19d)"><path style="fill:none;stroke-width:40;stroke-linecap:butt;stroke-linejoin:miter;stroke-opacity:1;stroke-miterlimit:4;" d="M -0.00168347 19.999705 C 121.606195 19.998262 219.558418 19.998038 293.854985 19.999032 " transform="matrix(-0.494699,-0.563613,0.563613,-0.494699,3919.258324,319.693674)" /></g>
        </g>
        <g id="jari_telunjuk_kanan" style="stroke:#8b8d90;">
            <path style="fill:none;stroke-width:40;stroke-linecap:butt;stroke-linejoin:miter;stroke-opacity:1;stroke-miterlimit:4;" d="M 7.613928 19.82708 C 138.460141 73.682023 405.873052 73.684965 809.859315 19.826348 " transform="matrix(-0.108104,-0.742092,0.742092,-0.108104,3188.367391,1378.668624)" />
            <path style="fill:none;stroke-width:40;stroke-linecap:butt;stroke-linejoin:miter;stroke-opacity:1;stroke-miterlimit:4;" d="M 0.983144 32.312095 C 335.059718 15.895581 546.580725 15.896017 635.546239 32.308195 " transform="matrix(-0.0104726,-0.749852,0.749852,-0.0104726,3091.308363,776.614666)" />
            <g clip-rule="nonzero" clip-path="url(#b94ebd0a60)"><path style="fill:none;stroke-width:40;stroke-linecap:butt;stroke-linejoin:miter;stroke-opacity:1;stroke-miterlimit:4;" d="M 3.423601 30.36618 C 83.037073 16.545152 151.378772 16.54558 208.45364 30.365819 " transform="matrix(0.237143,-0.711443,0.711443,0.237143,3086.467137,292.758019)" /></g>
            <g clip-rule="nonzero" clip-path="url(#a8ff349dce)"><path style="fill:none;stroke-width:40;stroke-linecap:butt;stroke-linejoin:miter;stroke-opacity:1;stroke-miterlimit:4;" d="M 13.599349 68.783197 C 83.726177 3.740212 153.847796 3.740212 223.969416 68.783197 " transform="matrix(0.749925,0,0,0.749925,3147.301512,100.077935)" /></g>
            <g clip-rule="nonzero" clip-path="url(#1e0baef534)"><path style="fill:none;stroke-width:40;stroke-linecap:butt;stroke-linejoin:miter;stroke-opacity:1;stroke-miterlimit:4;" d="M 3.186582 39.583744 C 164.946081 13.471366 353.610274 13.472862 569.175599 39.581785 " transform="matrix(0.207778,0.720566,-0.720566,0.207778,3343.122317,141.139377)" /></g>
            <path style="fill:none;stroke-width:40;stroke-linecap:butt;stroke-linejoin:miter;stroke-opacity:1;stroke-miterlimit:4;" d="M 0.00025446 20.002548 C 174.834725 19.999666 349.674225 19.998141 524.507338 20.000288 " transform="matrix(0.195508,0.723992,-0.723992,0.195508,3447.341002,555.585255)" />
            <path style="fill:none;stroke-width:40;stroke-linecap:butt;stroke-linejoin:miter;stroke-opacity:1;stroke-miterlimit:4;" d="M 0.00197564 19.9998 C 138.599375 19.998063 277.195038 20.001237 415.797349 20.001237 " transform="matrix(0.250069,0.707003,-0.707003,0.250069,3549.545666,934.235552)" />
        </g>
        <g id="jari_jempol_kanan" style="stroke:#8b8d90;">
            <path style="fill:none;stroke-width:40;stroke-linecap:butt;stroke-linejoin:miter;stroke-opacity:1;stroke-miterlimit:4;" d="M 2.059961 34.56154 C 189.439089 15.145267 416.395483 15.144988 682.93423 34.561823 " transform="matrix(0.160943,0.732451,-0.732451,0.160943,2895.447938,1667.15529)" />
            <path style="fill:none;stroke-width:40;stroke-linecap:butt;stroke-linejoin:miter;stroke-opacity:1;stroke-miterlimit:4;" d="M 7.961623 19.325287 C 148.136897 80.14741 332.213108 80.149684 560.197074 19.322665 " transform="matrix(0.120756,0.740139,-0.740139,0.120756,2817.12323,1257.269751)" />
            <path style="fill:none;stroke-width:40;stroke-linecap:butt;stroke-linejoin:miter;stroke-opacity:1;stroke-miterlimit:4;" d="M 3.936615 19.608536 C 156.607087 50.277092 290.026345 50.275803 404.193341 19.609771 " transform="matrix(0.151038,0.734557,-0.734557,0.151038,2757.133234,965.627162)" />
            <path style="fill:none;stroke-width:40;stroke-linecap:butt;stroke-linejoin:miter;stroke-opacity:1;stroke-miterlimit:4;" d="M 10.437447 17.062041 C 246.900112 161.751377 385.960111 161.750142 427.624205 17.061259 " transform="matrix(-0.697257,-0.276079,0.276079,-0.697257,3036.778059,1101.422719)" />
            <path style="fill:none;stroke-width:40;stroke-linecap:butt;stroke-linejoin:miter;stroke-opacity:1;stroke-miterlimit:4;" d="M 1.399498 19.949916 C 282.214528 39.664682 459.384369 39.66365 532.906825 19.951543 " transform="matrix(-0.316143,-0.68003,0.68003,-0.316143,3189.121995,1455.356384)" />
        </g>
    </g>
</svg>