<svg xmlns="http://www.w3.org/2000/svg" xmlns:xlink="http://www.w3.org/1999/xlink" width="6646" zoomAndPan="magnify" viewBox="0 0 4984.5 3064.499908" height="4086" preserveAspectRatio="xMidYMid meet" version="1.2">
  <defs>
    <clipPath id="8cb9e9433e"><path d="M 0.15625 967 L 275 967 L 275 1803 L 0.15625 1803 Z M 0.15625 967"/></clipPath>
    <clipPath id="dccea3b725"><path d="M 0.15625 436 L 305 436 L 305 1308 L 0.15625 1308 Z M 0.15625 436"/></clipPath>
    <clipPath id="cd9bdb165e"><path d="M 0.15625 179 L 421 179 L 421 777 L 0.15625 777 Z M 0.15625 179"/></clipPath>
    <clipPath id="497838dc9f"><path d="M 0.15625 2428 L 275 2428 L 275 3044 L 0.15625 3044 Z M 0.15625 2428"/></clipPath>
    <clipPath id="80b906ea5b"><path d="M 0.15625 2004 L 277 2004 L 277 2769 L 0.15625 2769 Z M 0.15625 2004"/></clipPath>
    <clipPath id="d268dacab9"><path d="M 0.15625 1745 L 246 1745 L 246 2345 L 0.15625 2345 Z M 0.15625 1745"/></clipPath>
    <clipPath id="ecbcf5e0ad"><path d="M 0.15625 1462 L 229 1462 L 229 2085 L 0.15625 2085 Z M 0.15625 1462"/></clipPath>
    <clipPath id="8c3c84a69f"><path d="M 1030 2587 L 1538 2587 L 1538 3064 L 1030 3064 Z M 1030 2587"/></clipPath>
    <clipPath id="2e9da8c210"><path d="M 4615 921 L 4983.84375 921 L 4983.84375 1807 L 4615 1807 Z M 4615 921"/></clipPath>
    <clipPath id="17436feb39"><path d="M 3107 2380 L 3836 2380 L 3836 3064 L 3107 3064 Z M 3107 2380"/></clipPath>
    <clipPath id="881ebc362e"><path d="M 4650 1466 L 4983.84375 1466 L 4983.84375 2437 L 4650 2437 Z M 4650 1466"/></clipPath>
    <clipPath id="d70a6a9a68"><path d="M 4638 2096 L 4983.84375 2096 L 4983.84375 2928 L 4638 2928 Z M 4638 2096"/></clipPath>
    <clipPath id="2ea9b5c0b5"><path d="M 4650 2588 L 4983.84375 2588 L 4983.84375 3064 L 4650 3064 Z M 4650 2588"/></clipPath>
  </defs>
  <g id="tangan_kiri">
    <g id="telapak_tangan_kiri" style="stroke:#8e94a5">
      <g clip-rule="nonzero" clip-path="url(#497838dc9f)"><path style="fill:none;stroke-width:40;stroke-linecap:butt;stroke-linejoin:miter;stroke-opacity:1;stroke-miterlimit:4;" d="M 5.182981 19.515914 C 122.334535 50.938158 250.927058 50.935584 390.973694 19.514853" transform="matrix(0.233279,-0.712669,0.712669,0.233279,0.155966,2872.672349)"/></g>
      <g clip-rule="nonzero" clip-path="url(#80b906ea5b)"><path style="fill:none;stroke-width:40;stroke-linecap:butt;stroke-linejoin:miter;stroke-opacity:1;stroke-miterlimit:4;" d="M 2.448363 19.91685 C 163.918314 39.832457 352.898688 39.833393 569.40024 19.91518" transform="matrix(-0.0516997,-0.748093,0.748093,-0.0516997,90.496449,2601.447237)"/></g>
      <g clip-rule="nonzero" clip-path="url(#d268dacab9)"><path style="fill:none;stroke-width:40;stroke-linecap:butt;stroke-linejoin:miter;stroke-opacity:1;stroke-miterlimit:4;" d="M 6.044013 47.563067 C 122.008941 10.810956 237.97198 10.811191 353.933687 47.558591" transform="matrix(-0.0800715,-0.74559,0.74559,-0.0800715,40.978422,2182.771833)"/></g>
      <g clip-rule="nonzero" clip-path="url(#ecbcf5e0ad)"><path style="fill:none;stroke-width:40;stroke-linecap:butt;stroke-linejoin:miter;stroke-opacity:1;stroke-miterlimit:4;" d="M 9.618776 19.924437 C 44.395285 39.000467 170.066837 39.000467 386.643849 19.924437" transform="matrix(0,-0.749878,0.749878,0,33.16458,1922.283217)"/></g>
      <path style="fill:none;stroke-width:40;stroke-linecap:butt;stroke-linejoin:miter;stroke-opacity:1;stroke-miterlimit:4;" d="M 1.587854 19.972381 C 165.414502 33.020009 368.316296 33.024077 610.301115 19.967537" transform="matrix(0.39186,-0.639345,0.639345,0.39186,1714.362447,2263.063807)"/>
      <path style="fill:none;stroke-width:40;stroke-linecap:butt;stroke-linejoin:miter;stroke-opacity:1;stroke-miterlimit:4;" d="M 2.147929 19.900072 C 263.086438 48.082954 532.259513 48.08136 809.670249 19.899479" transform="matrix(0.445509,-0.60319,0.60319,0.445509,1355.035644,2749.394799)"/>
      <g clip-rule="nonzero" clip-path="url(#8c3c84a69f)"><path style="fill:none;stroke-width:40;stroke-linecap:butt;stroke-linejoin:miter;stroke-opacity:1;stroke-miterlimit:4;" d="M 6.150921 54.320951 C 147.720992 8.562445 298.58532 8.559364 458.741948 54.31881" transform="matrix(0.370302,-0.652068,0.652068,0.370302,1162.699767,3035.981628)"/></g>
    </g>
    <g id="jari_kelingking_kiri" style="stroke:#8e94a5">
      <g clip-rule="nonzero" clip-path="url(#8cb9e9433e)"><path style="fill:none;stroke-width:40;stroke-linecap:butt;stroke-linejoin:miter;stroke-opacity:1;stroke-miterlimit:4;" d="M 15.497464 52.353866 C 50.695927 9.214439 272.059659 9.213331 679.599609 52.354521" transform="matrix(0.0860824,-0.74492,0.74492,0.0860824,7.771952,1639.389194)"/></g>
      <g clip-rule="nonzero" clip-path="url(#dccea3b725)"><path style="fill:none;stroke-width:40;stroke-linecap:butt;stroke-linejoin:miter;stroke-opacity:1;stroke-miterlimit:4;" d="M 2.346573 42.079668 C 251.524763 12.640153 488.002913 12.640657 711.786224 42.08089" transform="matrix(0.0420378,-0.748698,0.748698,0.0420378,73.665908,1137.636375)"/></g>
      <g clip-rule="nonzero" clip-path="url(#cd9bdb165e)"><path style="fill:none;stroke-width:40;stroke-linecap:butt;stroke-linejoin:miter;stroke-opacity:1;stroke-miterlimit:4;" d="M 2.984092 42.237558 C 199.532068 12.587633 324.909214 12.590869 379.11125 42.237767" transform="matrix(0.308022,-0.683695,0.683695,0.308022,105.300878,595.522313)"/></g>
      <path style="fill:none;stroke-width:40;stroke-linecap:butt;stroke-linejoin:miter;stroke-opacity:1;stroke-miterlimit:4;" d="M 3.937962 26.67519 C 48.227183 17.77611 92.515789 17.778707 136.802818 26.671372" transform="matrix(0.38963,-0.640707,0.640707,0.38963,225.421553,352.688231)"/>
      <path style="fill:none;stroke-width:40;stroke-linecap:butt;stroke-linejoin:miter;stroke-opacity:1;stroke-miterlimit:4;" d="M 11.790621 55.627338 C 76.871784 8.123806 141.948426 8.121881 207.030846 55.627001" transform="matrix(0.609725,0.436523,-0.436523,0.609725,300.386524,241.982631)"/>
      <path style="fill:none;stroke-width:40;stroke-linecap:butt;stroke-linejoin:miter;stroke-opacity:1;stroke-miterlimit:4;" d="M 6.241823 26.289256 C 31.751194 17.90247 54.114219 17.90247 73.320479 26.289256" transform="matrix(0,0.749878,-0.749878,0,422.041849,361.588928)"/>
    </g>
    <g id="jari_manis_kiri" style="stroke:#8e94a5">
      <path style="fill:none;stroke-width:40;stroke-linecap:butt;stroke-linejoin:miter;stroke-opacity:1;stroke-miterlimit:4;" d="M 6.005948 37.979254 C 82.152814 14.008297 143.141047 14.004777 188.974258 37.979767" transform="matrix(0.526708,-0.533756,0.533756,0.526708,605.139186,598.627526)"/>
      <path style="fill:none;stroke-width:40;stroke-linecap:butt;stroke-linejoin:miter;stroke-opacity:1;stroke-miterlimit:4;" d="M 1.782976 19.917813 C 116.26128 30.159417 230.735244 30.15753 345.211655 19.92162" transform="matrix(0.118148,-0.740512,0.740512,0.118148,254.485285,1443.314727)"/>
      <path style="fill:none;stroke-width:40;stroke-linecap:butt;stroke-linejoin:miter;stroke-opacity:1;stroke-miterlimit:4;" d="M 2.500121 42.519975 C 240.821716 12.49498 488.8653 12.493346 746.63621 42.520154" transform="matrix(0.0185721,-0.749648,0.749648,0.0185721,278.102007,1191.115774)"/>
      <path style="fill:none;stroke-width:40;stroke-linecap:butt;stroke-linejoin:miter;stroke-opacity:1;stroke-miterlimit:4;" d="M 5.30418 75.490752 C 274.432197 1.503751 424.863674 1.502548 456.605782 75.488825" transform="matrix(0.39517,-0.637304,0.637304,0.39517,273.641024,605.743972)"/>
      <path style="fill:none;stroke-width:40;stroke-linecap:butt;stroke-linejoin:miter;stroke-opacity:1;stroke-miterlimit:4;" d="M 0.779486 19.984821 C 221.657811 28.633915 361.509418 28.63397 420.345899 19.986107" transform="matrix(0.635299,-0.398386,0.398386,0.635299,457.347814,337.286067)"/>
      <path style="fill:none;stroke-width:40;stroke-linecap:butt;stroke-linejoin:miter;stroke-opacity:1;stroke-miterlimit:4;" d="M 13.086321 70.938594 C 91.557116 3.022739 161.348449 3.020676 222.46961 70.939434" transform="matrix(0.672139,0.332484,-0.332484,0.672139,747.141695,130.491854)"/>
      <path style="fill:none;stroke-width:40;stroke-linecap:butt;stroke-linejoin:miter;stroke-opacity:1;stroke-miterlimit:4;" d="M 0.000746633 20.001506 C 174.499496 19.998438 313.454337 19.998145 416.86527 20.000628" transform="matrix(-0.104236,-0.742598,0.742598,-0.104236,657.170445,927.073721)"/>
    </g>
    <g id="jari_tengah_kiri" style="stroke:#8e94a5">
      <path style="fill:none;stroke-width:40;stroke-linecap:butt;stroke-linejoin:miter;stroke-opacity:1;stroke-miterlimit:4;" d="M 1.372941 55.835149 C 695.300477 8.055875 1051.886376 8.052955 1071.14247 55.835173" transform="matrix(0.109771,-0.7418,0.7418,0.109771,614.973765,1100.205773)"/>
      <path style="fill:none;stroke-width:40;stroke-linecap:butt;stroke-linejoin:miter;stroke-opacity:1;stroke-miterlimit:4;" d="M 0.749961 19.98645 C 348.80835 33.02636 554.459744 33.025276 617.693998 19.98892" transform="matrix(0.621617,-0.419415,0.419415,0.621617,765.123856,299.652348)"/>
      <path style="fill:none;stroke-width:40;stroke-linecap:butt;stroke-linejoin:miter;stroke-opacity:1;stroke-miterlimit:4;" d="M 11.386332 63.127483 C 94.443024 5.623438 177.505476 5.623968 260.567428 63.125189" transform="matrix(0.730156,0.170848,-0.170848,0.730156,1159.947944,4.973496)"/>
      <path style="fill:none;stroke-width:40;stroke-linecap:butt;stroke-linejoin:miter;stroke-opacity:1;stroke-miterlimit:4;" d="M 11.608846 80.304238 C 124.405888 -0.100936 275.786765 -0.0998489 465.760396 80.302115" transform="matrix(-0.387651,0.641906,-0.641906,-0.387651,1395.462013,119.260233)"/>
      <path style="fill:none;stroke-width:40;stroke-linecap:butt;stroke-linejoin:miter;stroke-opacity:1;stroke-miterlimit:4;" d="M 4.835117 19.655736 C 65.942905 34.876593 136.842943 34.873694 217.532462 19.653864" transform="matrix(-0.292198,0.690606,-0.690606,-0.292198,1178.346557,386.806549)"/>
      <path style="fill:none;stroke-width:40;stroke-linecap:butt;stroke-linejoin:miter;stroke-opacity:1;stroke-miterlimit:4;" d="M 3.71003 19.812839 C 213.486586 59.404902 462.425319 59.402422 750.51928 19.814749" transform="matrix(0.130955,0.738354,-0.738354,0.130955,1115.357895,525.962971)"/>
    </g>
    <g id="jari_telunjuk_kiri" style="stroke:#0571d3">
      <path style="fill:none;stroke-width:40;stroke-linecap:butt;stroke-linejoin:miter;stroke-opacity:1;stroke-miterlimit:4;" d="M 0.834483 19.981084 C 302.439139 32.567472 546.53161 32.57085 733.120239 19.98309" transform="matrix(0.227923,-0.7144,0.7144,0.227923,1190.054846,1025.135755)"/>
      <path style="fill:none;stroke-width:40;stroke-linecap:butt;stroke-linejoin:miter;stroke-opacity:1;stroke-miterlimit:4;" d="M 1.930764 19.906519 C 195.846639 38.741683 368.579005 38.739493 520.136862 19.907343" transform="matrix(0.30544,-0.684853,0.684853,0.30544,1357.203018,501.195174)"/>
      <path style="fill:none;stroke-width:40;stroke-linecap:butt;stroke-linejoin:miter;stroke-opacity:1;stroke-miterlimit:4;" d="M 13.342091 73.026111 C 92.27475 2.324773 171.201992 2.324994 250.131055 73.025415" transform="matrix(0.619042,-0.423206,0.423206,0.619042,1490.542629,111.502719)"/>
      <path style="fill:none;stroke-width:40;stroke-linecap:butt;stroke-linejoin:miter;stroke-opacity:1;stroke-miterlimit:4;" d="M 8.72854 49.048332 C 88.560722 10.315052 154.68794 10.316686 207.108451 49.048327" transform="matrix(0.706504,0.251333,-0.251333,0.706504,1632.78961,14.004939)"/>
      <path style="fill:none;stroke-width:40;stroke-linecap:butt;stroke-linejoin:miter;stroke-opacity:1;stroke-miterlimit:4;" d="M 4.331258 46.329104 C 162.617758 11.223138 345.320327 11.222437 552.423473 46.329049" transform="matrix(-0.0982243,0.743417,-0.743417,-0.0982243,1801.652423,102.041652)"/>
      <path style="fill:none;stroke-width:40;stroke-linecap:butt;stroke-linejoin:miter;stroke-opacity:1;stroke-miterlimit:4;" d="M 0.00177313 20.001909 C 225.169722 20.00181 435.74667 20.000662 631.732616 19.998464" transform="matrix(-0.0979307,0.743455,-0.743455,-0.0979307,1727.812108,510.13717)"/>
      <path style="fill:none;stroke-width:40;stroke-linecap:butt;stroke-linejoin:miter;stroke-opacity:1;stroke-miterlimit:4;" d="M 0.000135892 20.000229 C 278.47792 19.997948 538.905582 20.002379 781.283028 19.997894" transform="matrix(-0.00460705,0.749863,-0.749863,-0.00460705,1666.079472,977.931884)"/>
    </g>
    <g id="jari_jempol_kiri" style="stroke:#8e94a5">
      <path style="fill:none;stroke-width:40;stroke-linecap:butt;stroke-linejoin:miter;stroke-opacity:1;stroke-miterlimit:4;" d="M 4.080794 19.577237 C 199.609471 60.355631 345.743432 60.356964 442.481471 19.57617" transform="matrix(0.173261,-0.729587,0.729587,0.173261,1639.048724,1420.3236)"/>
      <path style="fill:none;stroke-width:40;stroke-linecap:butt;stroke-linejoin:miter;stroke-opacity:1;stroke-miterlimit:4;" d="M 4.703157 55.342982 C 199.543753 8.220814 335.104974 8.218953 411.383943 55.34418" transform="matrix(0.28096,-0.695254,0.695254,0.28096,1690.201175,1088.61137)"/>
      <path style="fill:none;stroke-width:40;stroke-linecap:butt;stroke-linejoin:miter;stroke-opacity:1;stroke-miterlimit:4;" d="M 7.601811 47.017843 C 95.26407 10.991608 182.926034 10.992727 270.5877 47.021199" transform="matrix(0.724817,-0.192243,0.192243,0.724817,1829.712962,785.52661)"/>
      <path style="fill:none;stroke-width:40;stroke-linecap:butt;stroke-linejoin:miter;stroke-opacity:1;stroke-miterlimit:4;" d="M 4.384156 42.180431 C 135.94174 12.604545 267.495966 12.609052 399.047045 42.178326" transform="matrix(0.0101213,0.749809,-0.749809,0.0101213,2066.453999,763.87564)"/>
      <path style="fill:none;stroke-width:40;stroke-linecap:butt;stroke-linejoin:miter;stroke-opacity:1;stroke-miterlimit:4;" d="M 3.370995 35.482515 C 124.119868 14.838521 255.672588 14.838521 398.023945 35.482515" transform="matrix(0,0.749878,-0.749878,0,2065.923949,1050.272948)"/>
      <path style="fill:none;stroke-width:40;stroke-linecap:butt;stroke-linejoin:miter;stroke-opacity:1;stroke-miterlimit:4;" d="M 1.555435 19.941966 C 238.891844 38.463781 476.232509 38.462968 713.567113 19.940979" transform="matrix(-0.104431,0.74257,-0.74257,-0.104431,2053.834027,1349.673636)"/>
    </g>
  </g>
  <g id="tangan_kanan">
    <g id="jari_jempol_kanan" style="stroke:#8e94a5">
      <path style="fill:none;stroke-width:40;stroke-linecap:butt;stroke-linejoin:miter;stroke-opacity:1;stroke-miterlimit:4;" d="M 2.061993 34.561522 C 189.436521 15.145762 416.395891 15.148336 682.932162 34.556831" transform="matrix(0.160933,0.732405,-0.732405,0.160933,2895.42259,1671.869092)"/>
      <path style="fill:none;stroke-width:40;stroke-linecap:butt;stroke-linejoin:miter;stroke-opacity:1;stroke-miterlimit:4;" d="M 7.96046 19.325025 C 148.139406 80.150133 332.216908 80.150729 560.193804 19.321672" transform="matrix(0.120748,0.740092,-0.740092,0.120748,2817.102806,1262.009442)"/>
      <path style="fill:none;stroke-width:40;stroke-linecap:butt;stroke-linejoin:miter;stroke-opacity:1;stroke-miterlimit:4;" d="M 3.93686 19.608369 C 156.611828 50.277805 290.02927 50.274417 404.197292 19.610511" transform="matrix(0.151029,0.734511,-0.734511,0.151029,2757.116582,970.385188)"/>
      <path style="fill:none;stroke-width:40;stroke-linecap:butt;stroke-linejoin:miter;stroke-opacity:1;stroke-miterlimit:4;" d="M 10.438997 17.062026 C 246.901088 161.749765 385.960144 161.752365 427.623932 17.061146" transform="matrix(-0.697213,-0.276061,0.276061,-0.697213,3036.743826,1106.172207)"/>
      <path style="fill:none;stroke-width:40;stroke-linecap:butt;stroke-linejoin:miter;stroke-opacity:1;stroke-miterlimit:4;" d="M 1.399784 19.9525 C 282.211378 39.664446 459.380715 39.663745 532.907793 19.950399" transform="matrix(-0.316123,-0.679987,0.679987,-0.316123,3189.078185,1460.083502)"/>
    </g>
    <g id="jari_telunjuk_kanan" style="stroke:#8e94a5">
      <path style="fill:none;stroke-width:40;stroke-linecap:butt;stroke-linejoin:miter;stroke-opacity:1;stroke-miterlimit:4;" d="M 7.611949 19.823775 C 138.461234 73.681353 405.875492 73.682042 809.859879 19.826594" transform="matrix(-0.108097,-0.742045,0.742045,-0.108097,3188.323628,1383.400683)"/>
      <path style="fill:none;stroke-width:40;stroke-linecap:butt;stroke-linejoin:miter;stroke-opacity:1;stroke-miterlimit:4;" d="M 0.983904 32.307058 C 335.060574 15.894429 546.579254 15.894647 635.545152 32.307784" transform="matrix(-0.0104719,-0.749804,0.749804,-0.0104719,3091.270702,781.384646)"/>
      <path style="fill:none;stroke-width:40;stroke-linecap:butt;stroke-linejoin:miter;stroke-opacity:1;stroke-miterlimit:4;" d="M 3.42252 30.366124 C 83.036055 16.545874 151.382051 16.546302 208.453918 30.364115" transform="matrix(0.237128,-0.711398,0.711398,0.237128,3086.42978,297.558344)"/>
      <path style="fill:none;stroke-width:40;stroke-linecap:butt;stroke-linejoin:miter;stroke-opacity:1;stroke-miterlimit:4;" d="M 13.603029 68.782395 C 83.723848 3.74053 153.849876 3.74053 223.970695 68.782395" transform="matrix(0.749878,0,0,0.749878,3147.260331,104.890373)"/>
      <path style="fill:none;stroke-width:40;stroke-linecap:butt;stroke-linejoin:miter;stroke-opacity:1;stroke-miterlimit:4;" d="M 3.186165 39.582293 C 164.949386 13.471835 353.608981 13.474007 569.177849 39.581684" transform="matrix(0.207765,0.720521,-0.720521,0.207765,3343.068825,145.949233)"/>
      <path style="fill:none;stroke-width:40;stroke-linecap:butt;stroke-linejoin:miter;stroke-opacity:1;stroke-miterlimit:4;" d="M -0.00246754 20.001067 C 174.836608 20.001856 349.670655 20.001286 524.509731 20.002074" transform="matrix(0.195496,0.723946,-0.723946,0.195496,3447.280958,560.369011)"/>
      <path style="fill:none;stroke-width:40;stroke-linecap:butt;stroke-linejoin:miter;stroke-opacity:1;stroke-miterlimit:4;" d="M -0.000835768 19.999974 C 138.59863 20.001411 277.198095 20.002847 415.794387 19.997636" transform="matrix(0.250053,0.706958,-0.706958,0.250053,3549.479196,938.995623)"/>
    </g>
    <g id="jari_kelingking_kanan" style="stroke:#8e94a5">
      <path style="fill:none;stroke-width:40;stroke-linecap:butt;stroke-linejoin:miter;stroke-opacity:1;stroke-miterlimit:4;" d="M 9.570611 17.560969 C 106.465227 70.363536 194.581816 70.361939 273.927125 17.564116" transform="matrix(-0.485651,0.571367,-0.571367,-0.485651,4576.822351,359.302356)"/>
      <path style="fill:none;stroke-width:40;stroke-linecap:butt;stroke-linejoin:miter;stroke-opacity:1;stroke-miterlimit:4;" d="M 6.093398 19.047025 C 209.975128 84.286054 336.571027 84.286339 385.881092 19.047878" transform="matrix(-0.39428,-0.637855,0.637855,-0.39428,4702.139975,609.880945)"/>
      <path style="fill:none;stroke-width:40;stroke-linecap:butt;stroke-linejoin:miter;stroke-opacity:1;stroke-miterlimit:4;" d="M 1.472827 19.944856 C 301.030718 42.034434 531.384796 42.034468 692.545372 19.946435" transform="matrix(-0.106324,-0.742302,0.742302,-0.106324,4770.714782,1114.678747)"/>
      <g clip-rule="nonzero" clip-path="url(#2e9da8c210)"><path style="fill:none;stroke-width:40;stroke-linecap:butt;stroke-linejoin:miter;stroke-opacity:1;stroke-miterlimit:4;" d="M 1.786173 19.953639 C 215.853877 39.161394 460.303071 39.162237 735.144768 19.952377" transform="matrix(0.0987418,0.743348,-0.743348,0.0987418,4800.011599,1088.108244)"/></g>
    </g>
    <g id="jari_manis_kanan" style="stroke:#8e94a5">
      <path style="fill:none;stroke-width:40;stroke-linecap:butt;stroke-linejoin:miter;stroke-opacity:1;stroke-miterlimit:4;" d="M 0.000750115 19.998869 C 86.768344 20.000801 194.771352 20.001501 324.009773 20.000967" transform="matrix(0.0870515,-0.744808,0.744808,0.0870515,4116.042124,1064.634627)"/>
      <path style="fill:none;stroke-width:40;stroke-linecap:butt;stroke-linejoin:miter;stroke-opacity:1;stroke-miterlimit:4;" d="M 4.555594 19.473868 C 58.375503 32.062483 112.202192 32.061017 166.021734 19.474282" transform="matrix(-0.328002,-0.674338,0.674338,-0.328002,4147.502909,519.455569)"/>
      <path style="fill:none;stroke-width:40;stroke-linecap:butt;stroke-linejoin:miter;stroke-opacity:1;stroke-miterlimit:4;" d="M 3.732096 39.178996 C 138.33909 13.607257 293.843207 13.605273 470.243113 39.178079" transform="matrix(0.192259,0.724812,-0.724812,0.192259,4402.918177,335.930401)"/>
      <path style="fill:none;stroke-width:40;stroke-linecap:butt;stroke-linejoin:miter;stroke-opacity:1;stroke-miterlimit:4;" d="M 2.785415 39.17763 C 184.471289 13.604315 394.370694 13.609402 632.474341 39.181452" transform="matrix(0.0773989,0.745873,-0.745873,0.0773989,4477.603586,559.163568)"/>
      <path style="fill:none;stroke-width:40;stroke-linecap:butt;stroke-linejoin:miter;stroke-opacity:1;stroke-miterlimit:4;" d="M 4.737382 19.784935 C 142.940752 53.472628 325.409446 53.475393 552.150253 19.783765" transform="matrix(0.118396,0.740472,-0.740472,0.118396,4511.417427,1028.094952)"/>
      <path style="fill:none;stroke-width:40;stroke-linecap:butt;stroke-linejoin:miter;stroke-opacity:1;stroke-miterlimit:4;" d="M 14.572739 62.998851 C 68.474561 5.667258 144.197619 5.666496 241.746754 62.998488" transform="matrix(0.696878,-0.276907,0.276907,0.696878,3994.005244,202.222611)"/>
      <path style="fill:none;stroke-width:40;stroke-linecap:butt;stroke-linejoin:miter;stroke-opacity:1;stroke-miterlimit:4;" d="M 0.000322983 19.998274 C 62.18383 19.999034 175.677811 20.002309 340.486881 19.997406" transform="matrix(0.573661,0.482939,-0.482939,0.573661,4189.575721,170.261993)"/>
      <path style="fill:none;stroke-width:40;stroke-linecap:butt;stroke-linejoin:miter;stroke-opacity:1;stroke-miterlimit:4;" d="M 9.352508 18.717996 C 76.088552 54.028626 156.389628 54.027799 250.248692 18.717681" transform="matrix(0.351113,0.662598,-0.662598,0.351113,4030.716372,229.320757)"/>
      <path style="fill:none;stroke-width:40;stroke-linecap:butt;stroke-linejoin:miter;stroke-opacity:1;stroke-miterlimit:4;" d="M -0.000807936 19.99765 C 114.905181 19.998421 257.935987 20.001207 429.08122 20.000741" transform="matrix(-0.00422043,-0.749866,0.749866,-0.00422043,4144.148976,825.13848)"/>
    </g>
    <g id="jari_tengah_kanan" style="stroke:#8e94a5">
      <path style="fill:none;stroke-width:40;stroke-linecap:butt;stroke-linejoin:miter;stroke-opacity:1;stroke-miterlimit:4;" d="M 10.332888 69.121959 C 118.911531 3.625949 268.843591 3.627627 460.120881 69.118708" transform="matrix(-0.23304,0.712747,-0.712747,-0.23304,3795.799469,873.856744)"/>
      <path style="fill:none;stroke-width:40;stroke-linecap:butt;stroke-linejoin:miter;stroke-opacity:1;stroke-miterlimit:4;" d="M 10.242115 19.091481 C 131.434285 91.346509 307.841709 91.350855 539.463579 19.092899" transform="matrix(0.287991,0.692371,-0.692371,0.287991,3601.987497,166.597978)"/>
      <path style="fill:none;stroke-width:40;stroke-linecap:butt;stroke-linejoin:miter;stroke-opacity:1;stroke-miterlimit:4;" d="M 10.990562 16.708119 C 118.842957 87.65553 206.332417 87.657741 273.449675 16.707693" transform="matrix(-0.736737,0.139768,-0.139768,-0.736737,3795.510533,155.816334)"/>
      <path style="fill:none;stroke-width:40;stroke-linecap:butt;stroke-linejoin:miter;stroke-opacity:1;stroke-miterlimit:4;" d="M 6.613232 18.874849 C 185.07865 81.399745 320.270692 81.395922 412.187296 18.874846" transform="matrix(-0.44891,-0.600663,0.600663,-0.44891,4056.88914,558.043094)"/>
      <path style="fill:none;stroke-width:40;stroke-linecap:butt;stroke-linejoin:miter;stroke-opacity:1;stroke-miterlimit:4;" d="M 2.628348 38.707328 C 190.983678 13.763711 506.865149 13.761102 950.266013 38.708994" transform="matrix(-0.115234,-0.740971,0.740971,-0.115234,4146.08282,1254.173569)"/>
      <path style="fill:none;stroke-width:40;stroke-linecap:butt;stroke-linejoin:miter;stroke-opacity:1;stroke-miterlimit:4;" d="M 0.00242431 19.999286 C 154.895805 19.998892 296.936982 19.999088 426.125954 19.999873" transform="matrix(-0.0100643,0.74981,-0.74981,-0.0100643,3763.41366,545.808835)"/>
      <path style="fill:none;stroke-width:40;stroke-linecap:butt;stroke-linejoin:miter;stroke-opacity:1;stroke-miterlimit:4;" d="M 0.000192405 20.002376 C 121.60445 19.997975 219.55548 19.99823 293.853282 20.003139" transform="matrix(-0.494668,-0.563578,0.563578,-0.494668,3919.168612,324.492306)"/>
    </g>

    <g id="telapak_tangan_kanan" style="stroke:#8e94a5">
      <g clip-rule="nonzero" clip-path="url(#17436feb39)"><path style="fill:none;stroke-width:40;stroke-linecap:butt;stroke-linejoin:miter;stroke-opacity:1;stroke-miterlimit:4;" d="M 5.074845 19.68282 C 229.427317 78.514357 504.574407 78.517342 830.511275 19.681179" transform="matrix(0.470735,0.583717,-0.583717,0.470735,3286.237005,2537.631718)"/></g>
      <path style="fill:none;stroke-width:40;stroke-linecap:butt;stroke-linejoin:miter;stroke-opacity:1;stroke-miterlimit:4;" d="M 1.299951 27.676763 C 158.399561 17.443403 371.61717 17.441962 640.956868 27.675666" transform="matrix(0.464494,0.588695,-0.588695,0.464494,2995.708892,2159.679827)"/>
      <g clip-rule="nonzero" clip-path="url(#881ebc362e)"><path style="fill:none;stroke-width:40;stroke-linecap:butt;stroke-linejoin:miter;stroke-opacity:1;stroke-miterlimit:4;" d="M 1.663487 19.986465 C 179.182218 34.79717 459.752594 34.796343 843.374616 19.983985" transform="matrix(-0.045153,0.748517,-0.748517,-0.045153,4872.808757,1636.208081)"/></g>
      <g clip-rule="nonzero" clip-path="url(#d70a6a9a68)"><path style="fill:none;stroke-width:40;stroke-linecap:butt;stroke-linejoin:miter;stroke-opacity:1;stroke-miterlimit:4;" d="M 1.969132 19.929231 C 202.277865 39.771011 420.829158 39.771011 657.633431 19.929231" transform="matrix(0,0.749878,-0.749878,0,4834.714015,2265.109329)"/></g>
      <g clip-rule="nonzero" clip-path="url(#2ea9b5c0b5)"><path style="fill:none;stroke-width:40;stroke-linecap:butt;stroke-linejoin:miter;stroke-opacity:1;stroke-miterlimit:4;" d="M 5.27778 19.682639 C 115.196614 49.766863 253.722698 49.765454 420.846465 19.685054" transform="matrix(0.359724,0.657963,-0.657963,0.359724,4830.817531,2747.701012)"/></g>
    </g>
  </g>
</svg>