<svg xmlns="http://www.w3.org/2000/svg" xmlns:xlink="http://www.w3.org/1999/xlink" width="6646" zoomAndPan="magnify" viewBox="0 0 4984.5 3059.999987" height="4080" preserveAspectRatio="xMidYMid meet" version="1.2">
    <defs>
        <clipPath id="f273d951d8"><path d="M 1138 0.152344 L 1770 0.152344 L 1770 683 L 1138 683 Z M 1138 0.152344 " /></clipPath>
        <clipPath id="f2ae13fde3"><path d="M 1430 0.152344 L 1915 0.152344 L 1915 333 L 1430 333 Z M 1430 0.152344 " /></clipPath>
        <clipPath id="e53fae3953"><path d="M 1518 0.152344 L 1917 0.152344 L 1917 554 L 1518 554 Z M 1518 0.152344 " /></clipPath>
        <clipPath id="0230c39c61"><path d="M 604 0.152344 L 1328 0.152344 L 1328 477 L 604 477 Z M 604 0.152344 " /></clipPath>
        <clipPath id="d93b06fdc3"><path d="M 987 0.152344 L 1510 0.152344 L 1510 261 L 987 261 Z M 987 0.152344 " /></clipPath>
        <clipPath id="10cc8f1df1"><path d="M 993 0.152344 L 1510 0.152344 L 1510 552 L 993 552 Z M 993 0.152344 " /></clipPath>
        <clipPath id="d50046b8b6"><path d="M 1030 2582 L 1538 2582 L 1538 3059.84375 L 1030 3059.84375 Z M 1030 2582 " /></clipPath>
        <clipPath id="44713e72e2">
            <path d="M 3107 2271 L 3836 2271 L 3836 3061 L 3107 3061 Z M 3107 2271 " />
        </clipPath>
        <clipPath id="180d687487">
            <path d="M 4650 1358 L 4983.84375 1358 L 4983.84375 2329 L 4650 2329 Z M 4650 1358 " />
        </clipPath>
        <clipPath id="abfd34415d">
            <path d="M 4638 1988 L 4983.84375 1988 L 4983.84375 2820 L 4638 2820 Z M 4638 1988 " />
        </clipPath>
        <clipPath id="b5183ef0d0">
            <path d="M 4650 2480 L 4983.84375 2480 L 4983.84375 3061 L 4650 3061 Z M 4650 2480 " />
        </clipPath>
        <clipPath id="e2e8373555">
            <path d="M 4640 862 L 4983.84375 862 L 4983.84375 1699 L 4640 1699 Z M 4640 862 " />
        </clipPath>


    </defs>
    <g id="tangan_kiri">
        <path style="fill:none;stroke-width:40;stroke-linecap:butt;stroke-linejoin:miter;stroke:#8b8d90;stroke-opacity:1;stroke-miterlimit:4;" d="M 5.180518 19.515992 C 122.331278 50.939591 250.932189 50.937106 390.97335 19.511779 " transform="matrix(0.233294,-0.712714,0.712714,0.233294,-0.000715176,2868.033803)" />
        <path style="fill:none;stroke-width:40;stroke-linecap:butt;stroke-linejoin:miter;stroke:#8b8d90;stroke-opacity:1;stroke-miterlimit:4;" d="M 2.449518 19.913895 C 163.914155 39.833804 352.898598 39.830621 569.396932 19.914379 " transform="matrix(-0.051703,-0.74814,0.74814,-0.051703,90.345447,2596.791878)" />
        <path style="fill:none;stroke-width:40;stroke-linecap:butt;stroke-linejoin:miter;stroke:#8b8d90;stroke-opacity:1;stroke-miterlimit:4;" d="M 6.040419 47.562107 C 122.008415 10.813419 237.969343 10.81421 353.934118 47.560412 " transform="matrix(-0.0800765,-0.745637,0.745637,-0.0800765,40.824307,2178.089912)" />
        <path style="fill:none;stroke-width:40;stroke-linecap:butt;stroke-linejoin:miter;stroke:#8b8d90;stroke-opacity:1;stroke-miterlimit:4;" d="M 9.619398 19.920993 C 44.393721 38.995823 170.06779 38.995823 386.641605 19.920993 " transform="matrix(0,-0.749925,0.749925,0,33.009974,1917.584919)" />
        <path style="fill:none;stroke-width:40;stroke-linecap:butt;stroke-linejoin:miter;stroke:#8b8d90;stroke-opacity:1;stroke-miterlimit:4;" d="M 1.585207 19.969756 C 165.411441 33.022723 368.316524 33.023066 610.300456 19.970786 " transform="matrix(0.391885,-0.639385,0.639385,0.391885,1714.31354,2258.386934)" />
        <path style="fill:none;stroke-width:40;stroke-linecap:butt;stroke-linejoin:miter;stroke:#8b8d90;stroke-opacity:1;stroke-miterlimit:4;" d="M 2.151055 19.898378 C 263.083539 48.084774 532.258451 48.082275 809.66741 19.897072 " transform="matrix(0.445537,-0.603228,0.603228,0.445537,1354.964146,2744.748527)" />
        <g clip-rule="nonzero" clip-path="url(#d50046b8b6)"><path style="fill:none;stroke-width:40;stroke-linecap:butt;stroke-linejoin:miter;stroke:#8b8d90;stroke-opacity:1;stroke-miterlimit:4;" d="M 6.152289 54.318931 C 147.722519 8.558157 298.587036 8.561563 458.745227 54.317517 " transform="matrix(0.370325,-0.652109,0.652109,0.370325,1162.616176,3031.353349)" /></g>
        <g id="jari_kelingking_kiri" style="stroke:#8b8d90;">
            <path style="fill:none;stroke-width:40;stroke-linecap:butt;stroke-linejoin:miter;stroke-opacity:1;stroke-miterlimit:4;" d="M 15.495157 52.350665 C 50.691407 9.21395 272.062518 9.215625 679.597545 52.351711 " transform="matrix(0.0860878,-0.744967,0.744967,0.0860878,7.615749,1634.67335)" />
            <path style="fill:none;stroke-width:40;stroke-linecap:butt;stroke-linejoin:miter;stroke-opacity:1;stroke-miterlimit:4;" d="M 2.344811 42.081951 C 251.522646 12.63821 488.006731 12.637546 711.786667 42.080545 " transform="matrix(0.0420405,-0.748745,0.748745,0.0420405,73.513848,1132.888865)" />
            <path style="fill:none;stroke-width:40;stroke-linecap:butt;stroke-linejoin:miter;stroke-opacity:1;stroke-miterlimit:4;" d="M 2.98441 42.237063 C 199.536417 12.587332 324.91043 12.588429 379.111198 42.238213 " transform="matrix(0.308041,-0.683738,0.683738,0.308041,105.150807,590.740743)" />
            <path style="fill:none;stroke-width:40;stroke-linecap:butt;stroke-linejoin:miter;stroke-opacity:1;stroke-miterlimit:4;" d="M 3.936306 26.671228 C 48.2299 17.774452 92.515721 17.777049 136.807123 26.670899 " transform="matrix(0.389654,-0.640747,0.640747,0.389654,225.279034,347.891344)" />
            <path style="fill:none;stroke-width:40;stroke-linecap:butt;stroke-linejoin:miter;stroke-opacity:1;stroke-miterlimit:4;" d="M 11.793429 55.62631 C 76.870501 8.125764 141.950319 8.125042 207.028647 55.627176 " transform="matrix(0.609763,0.43655,-0.43655,0.609763,300.248718,237.178795)" />
            <path style="fill:none;stroke-width:40;stroke-linecap:butt;stroke-linejoin:miter;stroke-opacity:1;stroke-miterlimit:4;" d="M 6.245875 26.285935 C 31.753642 17.904886 54.110052 17.904886 73.320313 26.285935 " transform="matrix(0,0.749925,-0.749925,0,421.911692,356.792627)" />
        </g>
        <g id="jari_manis_kiri" style="stroke:#8b8d90;">
            <path style="fill:none;stroke-width:40;stroke-linecap:butt;stroke-linejoin:miter;stroke-opacity:1;stroke-miterlimit:4;" d="M 6.006795 37.97839 C 82.148873 14.00894 143.140639 14.005468 188.974676 37.975293 " transform="matrix(0.526741,-0.53379,0.53379,0.526741,605.020541,593.846127)" />
            <path style="fill:none;stroke-width:40;stroke-linecap:butt;stroke-linejoin:miter;stroke-opacity:1;stroke-miterlimit:4;" d="M 1.781421 19.922155 C 116.256851 30.157151 230.734727 30.158766 345.214228 19.921858 " transform="matrix(0.118155,-0.740558,0.740558,0.118155,254.344593,1438.586435)" />
            <path style="fill:none;stroke-width:40;stroke-linecap:butt;stroke-linejoin:miter;stroke-opacity:1;stroke-miterlimit:4;" d="M 2.497432 42.520683 C 240.819537 12.491981 488.868486 12.495039 746.638812 42.519572 " transform="matrix(0.0185733,-0.749695,0.749695,0.0185733,277.9628,1186.371626)" />
            <path style="fill:none;stroke-width:40;stroke-linecap:butt;stroke-linejoin:miter;stroke-opacity:1;stroke-miterlimit:4;" d="M 5.301704 75.491678 C 274.428827 1.505521 424.862445 1.503255 456.605302 75.489308 " transform="matrix(0.395195,-0.637344,0.637344,0.395195,273.501537,600.963021)" />
            <path style="fill:none;stroke-width:40;stroke-linecap:butt;stroke-linejoin:miter;stroke-opacity:1;stroke-miterlimit:4;" d="M 0.78208 19.986721 C 221.6537 28.633626 361.510875 28.630389 420.348071 19.985837 " transform="matrix(0.635339,-0.398411,0.398411,0.635339,457.219877,332.48824)" />
            <path style="fill:none;stroke-width:40;stroke-linecap:butt;stroke-linejoin:miter;stroke-opacity:1;stroke-miterlimit:4;" d="M 13.08722 70.936586 C 91.557751 3.022691 161.349365 3.018318 222.468993 70.937475 " transform="matrix(0.672181,0.332505,-0.332505,0.672181,747.031977,125.68104)" />
            <path style="fill:none;stroke-width:40;stroke-linecap:butt;stroke-linejoin:miter;stroke-opacity:1;stroke-miterlimit:4;" d="M 0.00239538 19.998038 C 174.499767 20.001577 313.456188 20.002732 416.866503 20.00078 " transform="matrix(-0.104243,-0.742644,0.742644,-0.104243,657.055071,922.312997)" />
        </g>
        <g id="jari_tengah_kiri" style="stroke:#8b8d90;">
            <path style="fill:none;stroke-width:40;stroke-linecap:butt;stroke-linejoin:miter;stroke-opacity:1;stroke-miterlimit:4;" d="M 1.373198 55.832719 C 695.299093 8.055502 1051.889101 8.053923 1071.143984 55.833136 " transform="matrix(0.109778,-0.741846,0.741846,0.109778,614.855738,1095.455909)" />
            <g clip-rule="nonzero" clip-path="url(#0230c39c61)"><path style="fill:none;stroke-width:40;stroke-linecap:butt;stroke-linejoin:miter;stroke-opacity:1;stroke-miterlimit:4;" d="M 0.749481 19.983955 C 348.809087 33.026064 554.459102 33.026488 617.692294 19.986634 " transform="matrix(0.621656,-0.419441,0.419441,0.621656,765.015269,294.852154)" /></g>
            <g clip-rule="nonzero" clip-path="url(#d93b06fdc3)"><path style="fill:none;stroke-width:40;stroke-linecap:butt;stroke-linejoin:miter;stroke-opacity:1;stroke-miterlimit:4;" d="M 11.383495 63.127173 C 94.44511 5.62437 177.507411 5.623714 260.5704 63.125204 " transform="matrix(0.730202,0.170858,-0.170858,0.730202,1159.864181,0.15478)" /></g>
            <g clip-rule="nonzero" clip-path="url(#10cc8f1df1)"><path style="fill:none;stroke-width:40;stroke-linecap:butt;stroke-linejoin:miter;stroke-opacity:1;stroke-miterlimit:4;" d="M 11.610634 80.305866 C 124.402351 -0.101405 275.78978 -0.103937 465.759546 80.306349 " transform="matrix(-0.387675,0.641946,-0.641946,-0.387675,1395.393057,114.448706)" /></g>
            <path style="fill:none;stroke-width:40;stroke-linecap:butt;stroke-linejoin:miter;stroke-opacity:1;stroke-miterlimit:4;" d="M 4.836621 19.652902 C 65.942598 34.877599 136.845005 34.877467 217.532219 19.651768 " transform="matrix(-0.292216,0.690649,-0.690649,-0.292216,1178.26395,382.011864)" />
            <path style="fill:none;stroke-width:40;stroke-linecap:butt;stroke-linejoin:miter;stroke-opacity:1;stroke-miterlimit:4;" d="M 3.710098 19.816085 C 213.484634 59.402348 462.423103 59.402598 750.515248 19.815014 " transform="matrix(0.130963,0.738401,-0.738401,0.130963,1115.271328,521.177004)" />
        </g>
        <g id="jari_telunjuk_kiri" style="stroke:#8b8d90;">
            <path style="fill:none;stroke-width:40;stroke-linecap:butt;stroke-linejoin:miter;stroke-opacity:1;stroke-miterlimit:4;" d="M 1.058376 19.972674 C 248.037384 33.08346 481.116766 33.085032 700.310794 19.969163 " transform="matrix(0.14979,-0.734813,0.734813,0.14979,1188.235597,1024.649287)" />
            <g clip-rule="nonzero" clip-path="url(#f273d951d8)"><path style="fill:none;stroke-width:40;stroke-linecap:butt;stroke-linejoin:miter;stroke-opacity:1;stroke-miterlimit:4;" d="M 2.289785 54.066972 C 396.371688 8.644685 616.037168 8.645543 661.283145 54.065344 " transform="matrix(0.443339,-0.604845,0.604845,0.443339,1274.095189,490.461862)" /></g>
            <g clip-rule="nonzero" clip-path="url(#f2ae13fde3)"><path style="fill:none;stroke-width:40;stroke-linecap:butt;stroke-linejoin:miter;stroke-opacity:1;stroke-miterlimit:4;" d="M 10.79341 52.590604 C 78.567006 9.134028 146.338809 9.138446 214.110478 52.592327 " transform="matrix(0.711675,0.236443,-0.236443,0.711675,1604.718146,74.47757)" /></g>
            <g clip-rule="nonzero" clip-path="url(#e53fae3953)"><path style="fill:none;stroke-width:40;stroke-linecap:butt;stroke-linejoin:miter;stroke-opacity:1;stroke-miterlimit:4;" d="M 7.128229 44.840084 C 93.960588 11.720891 195.271072 11.719439 311.06097 44.840774 " transform="matrix(-0.185548,0.726608,-0.726608,-0.185548,1778.563948,165.667891)" /></g>
            <path style="fill:none;stroke-width:40;stroke-linecap:butt;stroke-linejoin:miter;stroke-opacity:1;stroke-miterlimit:4;" d="M 0.000525625 20.002284 C 56.779866 19.999655 123.267257 20.001656 199.44518 20.001514 " transform="matrix(-0.163014,0.731993,-0.731993,-0.163014,1702.903333,386.635269)" />
            <path style="fill:none;stroke-width:40;stroke-linecap:butt;stroke-linejoin:miter;stroke-opacity:1;stroke-miterlimit:4;" d="M 0.367226 20.000772 C 383.943586 27.06316 841.506208 27.065389 1373.055004 19.997044 " transform="matrix(-0.00640769,0.749897,-0.749897,-0.00640769,1670.75088,529.219965)" />
        </g>
        <g id="jari_jempol_kiri" style="stroke:#8b8d90;">
            <path style="fill:none;stroke-width:40;stroke-linecap:butt;stroke-linejoin:miter;stroke-opacity:1;stroke-miterlimit:4;" d="M 4.082368 19.579492 C 199.608888 60.352915 345.739933 60.358113 442.482027 19.577475 " transform="matrix(0.173272,-0.729633,0.729633,0.173272,1638.995083,1415.593863)" />
            <path style="fill:none;stroke-width:40;stroke-linecap:butt;stroke-linejoin:miter;stroke-opacity:1;stroke-miterlimit:4;" d="M 4.703903 55.344189 C 199.541909 8.22108 335.106218 8.220145 411.38522 55.340458 " transform="matrix(0.280977,-0.695298,0.695298,0.280977,1690.150749,1083.860777)" />
            <path style="fill:none;stroke-width:40;stroke-linecap:butt;stroke-linejoin:miter;stroke-opacity:1;stroke-miterlimit:4;" d="M 7.603315 47.020896 C 95.266434 10.993227 182.922886 10.994346 270.585412 47.016853 " transform="matrix(0.724862,-0.192255,0.192255,0.724862,1829.671308,780.75701)" />
            <path style="fill:none;stroke-width:40;stroke-linecap:butt;stroke-linejoin:miter;stroke-opacity:1;stroke-miterlimit:4;" d="M 4.385841 42.17857 C 135.940363 12.604614 267.491527 12.609191 399.04989 42.182025 " transform="matrix(0.010122,0.749856,-0.749856,0.010122,2066.427229,759.104631)" />
            <path style="fill:none;stroke-width:40;stroke-linecap:butt;stroke-linejoin:miter;stroke-opacity:1;stroke-miterlimit:4;" d="M 3.369579 35.481005 C 124.121279 14.838308 255.670937 14.838308 398.023763 35.481005 " transform="matrix(0,0.749925,-0.749925,0,2065.897146,1045.519945)" />
            <path style="fill:none;stroke-width:40;stroke-linecap:butt;stroke-linejoin:miter;stroke-opacity:1;stroke-miterlimit:4;" d="M 1.55488 19.940481 C 238.892567 38.464112 476.228627 38.461849 713.568944 19.938123 " transform="matrix(-0.104438,0.742617,-0.742617,-0.104438,2053.806463,1344.939577)" />
        </g>
    </g>
    <g id="tangan_kanan">
        <g clip-rule="nonzero" clip-path="url(#44713e72e2)">
            <path style="fill:none;stroke-width:40;stroke-linecap:butt;stroke-linejoin:miter;stroke:#8b8d90;stroke-opacity:1;stroke-miterlimit:4;" d="M 5.07256 19.680775 C 229.429121 78.515591 504.572198 78.515305 830.51317 19.682404 " transform="matrix(0.470735,0.583717,-0.583717,0.470735,3286.236886,2429.423078)" />
        </g>
        <path style="fill:none;stroke-width:40;stroke-linecap:butt;stroke-linejoin:miter;stroke:#8b8d90;stroke-opacity:1;stroke-miterlimit:4;" d="M 1.297549 27.674743 C 158.397182 17.441381 371.618913 17.443166 640.954562 27.673646 " transform="matrix(0.464494,0.588695,-0.588695,0.464494,2995.708816,2051.471244)" />
        <g clip-rule="nonzero" clip-path="url(#180d687487)">
            <path style="fill:none;stroke-width:40;stroke-linecap:butt;stroke-linejoin:miter;stroke:#8b8d90;stroke-opacity:1;stroke-miterlimit:4;" d="M 1.665259 19.985881 C 179.178817 34.796902 459.749235 34.796075 843.376514 19.983402 " transform="matrix(-0.045153,0.748517,-0.748517,-0.045153,4872.808398,1527.999698)" />
        </g>
        <g clip-rule="nonzero" clip-path="url(#abfd34415d)">
            <path style="fill:none;stroke-width:40;stroke-linecap:butt;stroke-linejoin:miter;stroke:#8b8d90;stroke-opacity:1;stroke-miterlimit:4;" d="M 1.971222 19.928763 C 202.274776 39.775755 420.831312 39.775755 657.63562 19.928763 " transform="matrix(0,0.749877,-0.749877,0,4834.713662,2156.900731)" />
        </g>
        <g clip-rule="nonzero" clip-path="url(#b5183ef0d0)">
            <path style="fill:none;stroke-width:40;stroke-linecap:butt;stroke-linejoin:miter;stroke:#8b8d90;stroke-opacity:1;stroke-miterlimit:4;" d="M 5.279926 19.683278 C 115.198776 49.767507 253.72031 49.763599 420.848674 19.685693 " transform="matrix(0.359724,0.657963,-0.657963,0.359724,4830.817178,2639.492341)" />
        </g>

        <g id="jari_kelingking_kanan" style="stroke:#0571d3;">
        <path style="fill:none;stroke-width:40;stroke-linecap:butt;stroke-linejoin:miter;stroke-opacity:1;stroke-miterlimit:4;" d="M 1.515767 19.943971 C 151.350332 31.323961 301.183681 31.321797 451.01537 19.942668 " transform="matrix(-0.0640969,-0.747133,0.747133,-0.0640969,4795.004949,1034.922545)" />
        <g clip-rule="nonzero" clip-path="url(#e2e8373555)">
            <path style="fill:none;stroke-width:40;stroke-linecap:butt;stroke-linejoin:miter;stroke-opacity:1;stroke-miterlimit:4;" d="M 1.973982 19.940135 C 195.874902 39.148801 417.304365 39.149852 666.257187 19.942784 " transform="matrix(0.0722084,0.746393,-0.746393,0.0722084,4824.545323,1029.614132)" />
        </g>
        <path style="fill:none;stroke-width:40;stroke-linecap:butt;stroke-linejoin:miter;stroke-opacity:1;stroke-miterlimit:4;" d="M 1.127224 19.966698 C 202.269456 31.348765 403.411689 31.348765 604.553921 19.966698 " transform="matrix(0,-0.749877,0.749877,0,4499.086017,1026.81403)" />
        <path style="fill:none;stroke-width:40;stroke-linecap:butt;stroke-linejoin:miter;stroke-opacity:1;stroke-miterlimit:4;" d="M 5.759347 19.602892 C 93.063409 45.848883 201.55233 45.845898 331.235072 19.601376 " transform="matrix(-0.170324,-0.730278,0.730278,-0.170324,4500.723989,581.013521)" />
        <path style="fill:none;stroke-width:40;stroke-linecap:butt;stroke-linejoin:miter;stroke-opacity:1;stroke-miterlimit:4;" d="M 10.811374 42.075601 C 56.637642 12.638057 131.176851 12.638079 234.42392 42.076817 " transform="matrix(0.16581,-0.731316,0.731316,0.16581,4426.065707,336.711219)" />
        <path style="fill:none;stroke-width:40;stroke-linecap:butt;stroke-linejoin:miter;stroke-opacity:1;stroke-miterlimit:4;" d="M 13.351836 68.980367 C 86.164685 3.673733 158.975667 3.671388 231.78995 68.97858 " transform="matrix(0.749855,-0.00582361,0.00582361,0.749855,4485.289471,120.606398)" />
        <path style="fill:none;stroke-width:40;stroke-linecap:butt;stroke-linejoin:miter;stroke-opacity:1;stroke-miterlimit:4;" d="M 3.294677 30.75854 C 89.140735 16.415317 174.986085 16.41507 260.825783 30.756164 " transform="matrix(0.235614,0.7119,-0.7119,0.235614,4680.616838,162.66518)" />
        <path style="fill:none;stroke-width:40;stroke-linecap:butt;stroke-linejoin:miter;stroke-opacity:1;stroke-miterlimit:4;" d="M 5.667588 52.615574 C 152.817082 9.1285 317.40987 9.125875 499.44895 52.618955 " transform="matrix(0.151499,0.734414,-0.734414,0.151499,4743.974407,321.909427)" />

        </g>
        <g id="jari_manis_kanan" style="stroke:#8b8d90;">
        <path style="fill:none;stroke-width:40;stroke-linecap:butt;stroke-linejoin:miter;stroke-opacity:1;stroke-miterlimit:4;" d="M -0.000199709 19.998404 C 153.169991 19.998744 343.816495 19.997964 571.949967 20.000766 " transform="matrix(0.0359826,-0.749014,0.749014,0.0359826,4125.556085,1025.249006)" />
        <path style="fill:none;stroke-width:40;stroke-linecap:butt;stroke-linejoin:miter;stroke-opacity:1;stroke-miterlimit:4;" d="M 14.071655 52.286778 C 57.545635 9.239248 154.618071 9.237274 305.274834 52.285029 " transform="matrix(0.358289,0.658745,-0.658745,0.358289,4305.77696,165.973167)" />
        <path style="fill:none;stroke-width:40;stroke-linecap:butt;stroke-linejoin:miter;stroke-opacity:1;stroke-miterlimit:4;" d="M 0.00151662 20.001169 C 108.139977 20.001337 206.995348 20.00104 296.56763 20.000279 " transform="matrix(0.228947,0.714073,-0.714073,0.228947,4394.996783,381.228311)" />
        <path style="fill:none;stroke-width:40;stroke-linecap:butt;stroke-linejoin:miter;stroke-opacity:1;stroke-miterlimit:4;" d="M 0.00137031 20.001709 C 280.238325 20.000683 613.695687 20.000857 1000.373458 20.002232 " transform="matrix(0.113489,0.74124,-0.74124,0.113489,4463.435281,595.311033)" />
        <path style="fill:none;stroke-width:40;stroke-linecap:butt;stroke-linejoin:miter;stroke-opacity:1;stroke-miterlimit:4;" d="M 15.815348 75.145512 C 72.711775 1.616006 148.434845 1.615243 242.994238 75.147073 " transform="matrix(0.696878,-0.276907,0.276907,0.696878,3957.502373,89.328525)" />
        <path style="fill:none;stroke-width:40;stroke-linecap:butt;stroke-linejoin:miter;stroke-opacity:1;stroke-miterlimit:4;" d="M -0.00127934 20.002183 C 54.570057 19.998207 141.992254 19.999314 262.273306 19.998824 " transform="matrix(0.575473,0.480777,-0.480777,0.575473,4157.261864,65.45474)" />
        <path style="fill:none;stroke-width:40;stroke-linecap:butt;stroke-linejoin:miter;stroke-opacity:1;stroke-miterlimit:4;" d="M 8.156551 18.260172 C 127.920146 71.75132 234.676897 71.751502 328.43144 18.263089 " transform="matrix(0.341388,0.667661,-0.667661,0.341388,3998.739084,125.636801)" />
        <path style="fill:none;stroke-width:40;stroke-linecap:butt;stroke-linejoin:miter;stroke-opacity:1;stroke-miterlimit:4;" d="M -0.000892571 20.000012 C 96.529381 19.997058 216.681929 19.999821 360.459735 19.998321 " transform="matrix(-0.214815,-0.71845,0.71845,-0.214815,4146.747982,601.869882)" />

        </g>
        <g id="jari_tengah_kanan" style="stroke:#8b8d90;">
        <path style="fill:none;stroke-width:40;stroke-linecap:butt;stroke-linejoin:miter;stroke-opacity:1;stroke-miterlimit:4;" d="M 9.625066 69.120849 C 128.930809 3.627279 293.676408 3.624071 503.852919 69.11869 " transform="matrix(-0.172297,0.729815,-0.729815,-0.172297,3775.599901,656.853538)" />
        <path style="fill:none;stroke-width:40;stroke-linecap:butt;stroke-linejoin:miter;stroke-opacity:1;stroke-miterlimit:4;" d="M 3.527188 38.710594 C 142.757493 13.761559 376.246721 13.764821 703.996691 38.71012 " transform="matrix(-0.130855,-0.738372,0.738372,-0.130855,4130.97248,1104.033126)" />
        <path style="fill:none;stroke-width:40;stroke-linecap:butt;stroke-linejoin:miter;stroke-opacity:1;stroke-miterlimit:4;" d="M 6.241531 19.73667 C 95.808741 49.158682 230.536496 49.159334 410.424796 19.738627 " transform="matrix(0.277241,0.696745,-0.696745,0.277241,3623.462429,360.53881)" />
        <path style="fill:none;stroke-width:40;stroke-linecap:butt;stroke-linejoin:miter;stroke-opacity:1;stroke-miterlimit:4;" d="M 13.589534 15.76012 C 120.72699 114.973533 237.789285 114.973027 364.783784 15.758431 " transform="matrix(0.517751,0.542448,-0.542448,0.517751,3431.126341,164.320125)" />
        <path style="fill:none;stroke-width:40;stroke-linecap:butt;stroke-linejoin:miter;stroke-opacity:1;stroke-miterlimit:4;" d="M 16.716351 63.822671 C 55.08796 5.394772 137.458761 5.393274 263.833271 63.820771 " transform="matrix(0.65022,-0.373537,0.373537,0.65022,3394.907739,144.596956)" />
        <path style="fill:none;stroke-width:40;stroke-linecap:butt;stroke-linejoin:miter;stroke-opacity:1;stroke-miterlimit:4;" d="M 10.747928 59.913578 C 94.287616 6.696551 177.827304 6.696551 261.366993 59.913578 " transform="matrix(0.749877,0,0,0.749877,3550.479433,57.634657)" />
        <path style="fill:none;stroke-width:40;stroke-linecap:butt;stroke-linejoin:miter;stroke-opacity:1;stroke-miterlimit:4;" d="M 1.303505 27.115817 C 146.411938 17.627902 305.700487 17.625924 479.164687 27.119297 " transform="matrix(0.321514,0.677455,-0.677455,0.321514,3931.743614,245.836319)" />
        <path style="fill:none;stroke-width:40;stroke-linecap:butt;stroke-linejoin:miter;stroke-opacity:1;stroke-miterlimit:4;" d="M 0.00251952 19.999334 C 100.747834 19.998821 201.496661 20.002154 302.245821 19.998127 " transform="matrix(0.553606,0.505803,-0.505803,0.553606,3756.586991,91.493387)" />

        </g>
        <g id="jari_telunjuk_kanan" style="stroke:#8b8d90;">
        <path style="fill:none;stroke-width:40;stroke-linecap:butt;stroke-linejoin:miter;stroke-opacity:1;stroke-miterlimit:4;" d="M 6.478345 19.876281 C 163.774858 73.736205 485.249246 73.735474 970.901407 19.879299 " transform="matrix(-0.0147861,-0.749732,0.749732,-0.0147861,3217.494693,1340.197789)" />
        <path style="fill:none;stroke-width:40;stroke-linecap:butt;stroke-linejoin:miter;stroke-opacity:1;stroke-miterlimit:4;" d="M 7.243278 19.68955 C 73.10229 45.291 177.921852 45.294513 321.700644 19.688514 " transform="matrix(-0.628363,-0.409239,0.409239,-0.628363,3214.536648,627.332506)" />
        <path style="fill:none;stroke-width:40;stroke-linecap:butt;stroke-linejoin:miter;stroke-opacity:1;stroke-miterlimit:4;" d="M 11.956848 42.955777 C 52.996863 12.345986 127.837685 12.34586 236.468961 42.960738 " transform="matrix(-0.442501,-0.6054,0.6054,-0.442501,3000.750321,508.2857)" />
        <path style="fill:none;stroke-width:40;stroke-linecap:butt;stroke-linejoin:miter;stroke-opacity:1;stroke-miterlimit:4;" d="M 13.284911 68.784318 C 86.48528 3.741653 159.687138 3.740681 232.886554 68.784823 " transform="matrix(0.492065,-0.565852,0.565852,0.492065,2876.666234,319.79202)" />
        <path style="fill:none;stroke-width:40;stroke-linecap:butt;stroke-linejoin:miter;stroke-opacity:1;stroke-miterlimit:4;" d="M 3.111509 30.253169 C 89.868895 16.582724 176.624934 16.585011 263.38232 30.253173 " transform="matrix(0.687415,0.299628,-0.299628,0.687415,3037.101574,200.130598)" />
        <path style="fill:none;stroke-width:40;stroke-linecap:butt;stroke-linejoin:miter;stroke-opacity:1;stroke-miterlimit:4;" d="M 1.545552 29.093906 C 157.974964 16.969756 340.274523 16.967207 548.440909 29.096135 " transform="matrix(0.239101,0.710737,-0.710737,0.239101,3499.808568,439.031071)" />
        <path style="fill:none;stroke-width:40;stroke-linecap:butt;stroke-linejoin:miter;stroke-opacity:1;stroke-miterlimit:4;" d="M 0.000766135 19.998949 C 137.255221 19.999028 274.514795 20.000073 411.76925 20.000152 " transform="matrix(0.139141,0.736856,-0.736856,0.139141,3625.005761,833.001919)" />
        <path style="fill:none;stroke-width:40;stroke-linecap:butt;stroke-linejoin:miter;stroke-opacity:1;stroke-miterlimit:4;" d="M 10.177662 67.025214 C 116.233493 4.326948 266.434188 4.322535 460.774848 67.02587 " transform="matrix(0.676325,0.323883,-0.323883,0.676325,3189.578854,252.517317)" />

        </g>
        <g id="jari_jempol_kanan" style="stroke:#8b8d90;">
        <path style="fill:none;stroke-width:40;stroke-linecap:butt;stroke-linejoin:miter;stroke-opacity:1;stroke-miterlimit:4;" d="M 2.058535 34.560684 C 189.438179 15.14604 416.392495 15.147495 682.933895 34.557112 " transform="matrix(0.160933,0.732405,-0.732405,0.160933,2895.422529,1563.660823)" />
        <path style="fill:none;stroke-width:40;stroke-linecap:butt;stroke-linejoin:miter;stroke-opacity:1;stroke-miterlimit:4;" d="M 7.962209 19.325246 C 148.136035 80.149525 332.213564 80.150121 560.195636 19.321894 " transform="matrix(0.120748,0.740092,-0.740092,0.120748,2817.102757,1153.801091)" />
        <path style="fill:none;stroke-width:40;stroke-linecap:butt;stroke-linejoin:miter;stroke-opacity:1;stroke-miterlimit:4;" d="M 3.938413 19.608637 C 156.608302 50.277028 290.030866 50.27469 404.193802 19.609729 " transform="matrix(0.151029,0.734511,-0.734511,0.151029,2757.116542,862.176976)" />
        <path style="fill:none;stroke-width:40;stroke-linecap:butt;stroke-linejoin:miter;stroke-opacity:1;stroke-miterlimit:4;" d="M 10.438272 17.060491 C 246.900399 161.748252 385.959475 161.750852 427.62327 17.059611 " transform="matrix(-0.697213,-0.276061,0.276061,-0.697213,3036.743744,997.963903)" />
        <path style="fill:none;stroke-width:40;stroke-linecap:butt;stroke-linejoin:miter;stroke-opacity:1;stroke-miterlimit:4;" d="M 1.398267 19.951953 C 282.214627 39.666097 459.38399 39.665396 532.906356 19.949851 " transform="matrix(-0.316123,-0.679987,0.679987,-0.316123,3189.07808,1351.875265)" />

        </g>
        <g clip-rule="nonzero" clip-path="url(#d1ac2c18dc)">
            <g clip-rule="nonzero" clip-path="url(#b22fb64e17)">
                <g transform="matrix(1,0,0,1,2135,19)">
                    <g clip-path="url(#e8ad0303aa)">
                        <g clip-rule="nonzero" clip-path="url(#d09b4c1b26)">
                            <g clip-rule="nonzero" clip-path="url(#49bdf4709e)">
                                <path style=" stroke:none;fill-rule:nonzero;fill:#004aad;fill-opacity:0;" d="M 0.09375 0.988281 L 574.75 0.988281 L 574.75 66.871094 L 0.09375 66.871094 Z M 0.09375 0.988281 " />
                            </g>
                        </g>
                    </g>
                </g>
            </g>
        </g>
        <g clip-rule="nonzero" clip-path="url(#7457717903)">
            <g clip-rule="nonzero" clip-path="url(#46d36f50d2)">
                <g transform="matrix(1,0,0,1,2136,2994)">
                    <g clip-path="url(#1687d48521)">
                        <g clip-rule="nonzero" clip-path="url(#0046a6cec0)">
                            <g clip-rule="nonzero" clip-path="url(#33df5603f7)">
                                <path style=" stroke:none;fill-rule:nonzero;fill:#004aad;fill-opacity:0;" d="M 0.453125 0.851562 L 575.105469 0.851562 L 575.105469 66.734375 L 0.453125 66.734375 Z M 0.453125 0.851562 " />
                            </g>
                        </g>
                    </g>
                </g>
            </g>
        </g>
    </g>
</svg>