<svg xmlns="http://www.w3.org/2000/svg" xmlns:xlink="http://www.w3.org/1999/xlink" width="1070" zoomAndPan="magnify" viewBox="0 0 802.5 995.999987" height="1328" preserveAspectRatio="xMidYMid meet" version="1.2"><defs><clipPath id="a98a6b17fa"><path d="M 246 97.574219 L 503 97.574219 L 503 524.679688 L 246 524.679688 Z M 246 97.574219 "/></clipPath><clipPath id="9ba436632d"><path d="M 367.15625 52.859375 L 647.222656 332.925781 L 361.019531 619.125 L 80.957031 339.058594 Z M 367.15625 52.859375 "/></clipPath><clipPath id="998843e5f1"><path d="M 367.15625 52.859375 L 647.222656 332.925781 L 361.019531 619.125 L 80.957031 339.058594 Z M 367.15625 52.859375 "/></clipPath><clipPath id="16a1f7cb41"><path d="M 647.417969 333.125 L 367.355469 53.058594 L 81.152344 339.257812 L 361.21875 619.324219 Z M 647.417969 333.125 "/></clipPath><clipPath id="8578c7da99"><path d="M 401 511.570312 L 414.625 511.570312 L 414.625 525.441406 L 401 525.441406 Z M 401 511.570312 "/></clipPath><clipPath id="2e4b47b955"><path d="M 367.15625 52.859375 L 647.222656 332.925781 L 361.019531 619.125 L 80.957031 339.058594 Z M 367.15625 52.859375 "/></clipPath><clipPath id="97f721eb3d"><path d="M 367.15625 52.859375 L 647.222656 332.925781 L 361.019531 619.125 L 80.957031 339.058594 Z M 367.15625 52.859375 "/></clipPath><clipPath id="27875a808f"><path d="M 647.417969 333.125 L 367.355469 53.058594 L 81.152344 339.257812 L 361.21875 619.324219 Z M 647.417969 333.125 "/></clipPath><clipPath id="547790a5a2"><path d="M 263 324.230469 L 276.625 324.230469 L 276.625 338 L 263 338 Z M 263 324.230469 "/></clipPath><clipPath id="cd09217ada"><path d="M 367.15625 52.859375 L 647.222656 332.925781 L 361.019531 619.125 L 80.957031 339.058594 Z M 367.15625 52.859375 "/></clipPath><clipPath id="bfef1fb6e7"><path d="M 367.15625 52.859375 L 647.222656 332.925781 L 361.019531 619.125 L 80.957031 339.058594 Z M 367.15625 52.859375 "/></clipPath><clipPath id="cee2b9de48"><path d="M 647.417969 333.125 L 367.355469 53.058594 L 81.152344 339.257812 L 361.21875 619.324219 Z M 647.417969 333.125 "/></clipPath><clipPath id="d0f16a2e31"><path d="M 0.0625 413.398438 L 801.632812 413.398438 L 801.632812 995.035156 L 0.0625 995.035156 Z M 0.0625 413.398438 "/></clipPath><clipPath id="63a65e4503"><rect x="0" width="142" y="0" height="422"/></clipPath></defs><g id="faf81f4dab"><g clip-rule="nonzero" clip-path="url(#a98a6b17fa)"><g clip-rule="nonzero" clip-path="url(#9ba436632d)"><g clip-rule="nonzero" clip-path="url(#998843e5f1)"><g clip-rule="nonzero" clip-path="url(#16a1f7cb41)"><path style=" stroke:none;fill-rule:nonzero;fill:#545454;fill-opacity:1;" d="M 312.9375 151.230469 C 313.5625 143.699219 316.703125 136.789062 322.039062 131.453125 C 328.007812 125.488281 335.855469 122.03125 344.335938 122.347656 C 351.238281 122.347656 357.207031 124.542969 362.859375 128.3125 C 363.488281 111.355469 377.300781 97.542969 394.570312 97.855469 C 412.152344 97.855469 426.28125 111.984375 426.28125 129.566406 L 426.28125 157.824219 C 431.304688 154.058594 437.898438 151.859375 444.492188 152.175781 C 452.65625 152.175781 460.820312 155.3125 466.785156 161.277344 C 472.75 167.246094 476.203125 175.09375 475.890625 183.574219 L 475.578125 281.21875 C 482.167969 282.789062 488.132812 285.613281 493.15625 290.636719 C 499.753906 297.230469 503.207031 305.707031 502.890625 314.816406 L 502.890625 374.46875 C 502.890625 390.796875 496.925781 406.179688 486.566406 418.425781 L 452.65625 457.988281 C 466.15625 462.699219 475.578125 475.257812 475.261719 490.011719 C 475.261719 499.433594 471.492188 507.597656 465.214844 513.875 C 458.621094 520.46875 450.144531 523.921875 441.355469 523.921875 L 436.332031 524.546875 C 432.558594 524.546875 429.734375 521.722656 429.734375 517.957031 C 429.734375 514.1875 432.558594 511.363281 436.332031 511.363281 L 441.355469 511.363281 C 447.003906 511.363281 452.34375 509.164062 456.109375 505.398438 C 459.878906 501.632812 462.074219 496.292969 462.074219 490.640625 C 462.074219 479.335938 452.65625 469.917969 441.355469 469.917969 L 279.96875 469.917969 C 268.664062 469.917969 259.246094 479.335938 259.246094 490.640625 C 259.246094 501.945312 268.664062 511.363281 279.96875 511.363281 L 378.558594 511.363281 C 382.324219 511.363281 385.148438 514.1875 385.148438 517.957031 C 385.148438 521.722656 382.324219 524.546875 378.558594 524.546875 L 279.96875 524.546875 C 270.550781 524.546875 262.070312 520.46875 256.105469 514.503906 C 249.828125 508.222656 246.058594 500.058594 246.058594 490.640625 C 246.058594 478.082031 252.652344 467.09375 263.015625 461.125 L 263.015625 361.28125 C 263.015625 357.515625 265.839844 354.691406 269.605469 354.691406 C 273.375 354.691406 276.203125 357.515625 276.203125 361.28125 L 276.203125 456.734375 C 277.457031 456.734375 278.714844 456.734375 279.96875 456.734375 L 436.957031 456.734375 L 476.519531 410.261719 C 484.996094 400.527344 489.390625 387.96875 489.703125 375.097656 L 489.703125 315.441406 C 489.703125 309.792969 487.507812 304.453125 483.742188 300.683594 C 479.65625 296.605469 474.632812 294.71875 468.980469 294.71875 C 463.332031 294.71875 457.992188 296.917969 454.226562 300.683594 C 450.144531 304.765625 448.257812 309.792969 448.257812 315.441406 L 448.257812 367.5625 C 448.257812 371.328125 445.433594 374.15625 441.667969 374.15625 C 437.898438 374.15625 435.070312 371.328125 435.070312 367.5625 L 435.070312 315.441406 C 435.070312 306.019531 438.527344 297.542969 444.808594 291.265625 C 449.832031 286.242188 455.796875 283.417969 462.390625 281.84375 L 462.390625 183.257812 C 462.074219 178.546875 460.503906 173.839844 457.050781 170.386719 C 453.597656 166.929688 449.203125 165.046875 444.179688 165.046875 C 439.15625 165.046875 434.757812 166.929688 431.304688 170.386719 C 427.851562 173.839844 425.96875 178.234375 425.96875 183.257812 L 425.96875 243.542969 C 425.96875 247.308594 423.144531 250.132812 419.375 250.132812 C 417.492188 250.132812 415.921875 249.195312 414.664062 247.9375 C 413.410156 246.683594 412.46875 245.109375 412.46875 243.226562 L 412.46875 128.941406 C 412.46875 118.890625 404.304688 110.730469 394.257812 110.730469 C 384.210938 110.730469 376.046875 118.890625 376.046875 128.941406 L 376.046875 153.429688 L 375.734375 246.054688 C 375.734375 249.820312 372.90625 252.644531 369.136719 252.644531 C 365.371094 252.644531 362.546875 249.820312 362.546875 246.054688 L 362.546875 153.742188 C 362.546875 143.699219 354.382812 135.53125 344.335938 135.53125 C 334.285156 135.53125 326.125 143.699219 326.125 153.742188 L 326.125 249.195312 C 326.125 252.960938 323.296875 255.785156 319.527344 255.785156 C 317.648438 255.785156 316.074219 254.84375 314.820312 253.585938 C 313.5625 252.332031 312.625 250.761719 312.625 248.878906 L 312.625 176.664062 C 312.625 166.617188 304.460938 158.453125 294.414062 158.453125 C 284.363281 158.453125 276.203125 166.617188 276.203125 176.664062 L 276.203125 302.253906 C 276.203125 306.019531 273.375 308.847656 269.605469 308.847656 C 267.726562 308.847656 266.152344 307.90625 264.898438 306.652344 C 263.640625 305.394531 262.699219 303.824219 262.699219 301.941406 L 262.699219 176.351562 C 262.699219 158.765625 276.828125 144.636719 294.414062 144.636719 C 301.316406 145.265625 307.914062 147.464844 312.9375 151.230469 Z M 312.9375 151.230469 "/></g></g></g></g><g clip-rule="nonzero" clip-path="url(#8578c7da99)"><g clip-rule="nonzero" clip-path="url(#2e4b47b955)"><g clip-rule="nonzero" clip-path="url(#97f721eb3d)"><g clip-rule="nonzero" clip-path="url(#27875a808f)"><path style=" stroke:none;fill-rule:nonzero;fill:#545454;fill-opacity:1;" d="M 403.046875 513.875 C 402.738281 514.183594 402.464844 514.519531 402.21875 514.886719 C 401.976562 515.25 401.769531 515.632812 401.605469 516.035156 C 401.4375 516.4375 401.308594 516.855469 401.226562 517.285156 C 401.140625 517.710938 401.09375 518.144531 401.09375 518.585938 C 401.09375 519.023438 401.140625 519.457031 401.226562 519.882812 C 401.308594 520.3125 401.4375 520.730469 401.605469 521.132812 C 401.769531 521.539062 401.976562 521.921875 402.21875 522.285156 C 402.464844 522.648438 402.738281 522.984375 403.046875 523.292969 C 403.355469 523.601562 403.695312 523.878906 404.054688 524.121094 C 404.421875 524.363281 404.804688 524.570312 405.210938 524.738281 C 405.613281 524.902344 406.027344 525.03125 406.460938 525.117188 C 406.886719 525.203125 407.320312 525.246094 407.757812 525.246094 C 408.195312 525.246094 408.628906 525.203125 409.054688 525.117188 C 409.484375 525.03125 409.902344 524.902344 410.304688 524.738281 C 410.710938 524.570312 411.09375 524.363281 411.457031 524.121094 C 411.820312 523.878906 412.15625 523.601562 412.46875 523.292969 C 412.777344 522.984375 413.050781 522.648438 413.296875 522.285156 C 413.539062 521.921875 413.742188 521.539062 413.910156 521.132812 C 414.078125 520.730469 414.203125 520.3125 414.289062 519.882812 C 414.375 519.457031 414.417969 519.023438 414.417969 518.585938 C 414.417969 518.144531 414.375 517.714844 414.289062 517.285156 C 414.203125 516.855469 414.078125 516.4375 413.910156 516.035156 C 413.742188 515.632812 413.539062 515.25 413.296875 514.886719 C 413.050781 514.519531 412.777344 514.183594 412.46875 513.875 C 412.15625 513.566406 411.820312 513.289062 411.457031 513.046875 C 411.09375 512.804688 410.710938 512.597656 410.304688 512.429688 C 409.902344 512.265625 409.484375 512.136719 409.054688 512.050781 C 408.628906 511.964844 408.195312 511.925781 407.757812 511.925781 C 407.320312 511.925781 406.886719 511.964844 406.460938 512.050781 C 406.027344 512.136719 405.613281 512.265625 405.210938 512.429688 C 404.804688 512.597656 404.421875 512.804688 404.054688 513.046875 C 403.695312 513.289062 403.355469 513.566406 403.046875 513.875 Z M 403.046875 513.875 "/></g></g></g></g><g clip-rule="nonzero" clip-path="url(#547790a5a2)"><g clip-rule="nonzero" clip-path="url(#cd09217ada)"><g clip-rule="nonzero" clip-path="url(#bfef1fb6e7)"><g clip-rule="nonzero" clip-path="url(#cee2b9de48)"><path style=" stroke:none;fill-rule:nonzero;fill:#545454;fill-opacity:1;" d="M 263.328125 330.828125 C 263.328125 327.058594 266.152344 324.230469 269.921875 324.230469 C 273.691406 324.230469 276.515625 327.058594 276.515625 330.828125 C 276.515625 334.59375 273.691406 337.417969 269.921875 337.417969 C 266.152344 337.417969 263.328125 334.59375 263.328125 330.828125 Z M 263.328125 330.828125 "/></g></g></g></g><g clip-rule="nonzero" clip-path="url(#d0f16a2e31)"><path style=" stroke:none;fill-rule:nonzero;fill:#545454;fill-opacity:1;" d="M 209.523438 831.300781 L 180.820312 831.300781 L 180.820312 807.210938 L 209.523438 807.210938 Z M 218.640625 788.917969 L 171.679688 788.917969 C 166.664062 788.917969 162.527344 793.058594 162.527344 798.097656 L 162.527344 840.414062 C 162.527344 845.460938 166.664062 849.597656 171.679688 849.597656 L 218.640625 849.597656 C 223.691406 849.597656 227.8125 845.460938 227.8125 840.414062 L 227.8125 798.097656 C 227.8125 793.058594 223.695312 788.917969 218.640625 788.917969 Z M 240.789062 741.683594 L 212.105469 741.683594 L 212.105469 717.691406 L 240.789062 717.691406 Z M 259.078125 750.839844 L 259.078125 708.542969 C 259.078125 703.523438 254.957031 699.402344 249.925781 699.402344 L 202.96875 699.402344 C 197.933594 699.402344 193.8125 703.523438 193.8125 708.542969 L 193.8125 750.839844 C 193.8125 755.859375 197.933594 759.980469 202.96875 759.980469 L 249.925781 759.980469 C 254.957031 759.980469 259.078125 755.859375 259.078125 750.839844 Z M 198.914062 920.984375 L 170.226562 920.984375 L 170.226562 896.859375 L 198.914062 896.859375 Z M 208.050781 878.566406 L 161.089844 878.566406 C 156.054688 878.566406 151.933594 882.710938 151.933594 887.726562 L 151.933594 930.125 C 151.933594 935.144531 156.054688 939.28125 161.089844 939.28125 L 208.050781 939.28125 C 213.085938 939.28125 217.203125 935.144531 217.203125 930.125 L 217.203125 887.726562 C 217.203125 882.710938 213.089844 878.566406 208.050781 878.566406 Z M 118.011719 831.300781 L 77.871094 831.300781 L 77.871094 807.210938 L 118.011719 807.210938 Z M 127.152344 788.917969 L 68.734375 788.917969 C 63.714844 788.917969 59.578125 793.058594 59.578125 798.097656 L 59.578125 840.414062 C 59.578125 845.460938 63.714844 849.597656 68.734375 849.597656 L 127.152344 849.597656 C 132.179688 849.597656 136.304688 845.460938 136.304688 840.414062 L 136.304688 798.097656 C 136.304688 793.058594 132.183594 788.917969 127.152344 788.917969 Z M 77.871094 717.691406 L 144.363281 717.691406 L 144.363281 741.683594 L 77.871094 741.683594 Z M 68.734375 759.980469 L 153.5 759.980469 C 158.53125 759.980469 162.652344 755.859375 162.652344 750.839844 L 162.652344 708.542969 C 162.652344 703.523438 158.53125 699.402344 153.5 699.402344 L 68.734375 699.402344 C 63.714844 699.402344 59.578125 703.523438 59.578125 708.542969 L 59.578125 750.839844 C 59.578125 755.859375 63.714844 759.980469 68.734375 759.980469 Z M 106.570312 920.984375 L 77.871094 920.984375 L 77.871094 896.859375 L 106.570312 896.859375 Z M 115.710938 878.566406 L 68.734375 878.566406 C 63.714844 878.566406 59.578125 882.710938 59.578125 887.726562 L 59.578125 930.125 C 59.578125 935.144531 63.714844 939.28125 68.734375 939.28125 L 115.710938 939.28125 C 120.742188 939.28125 124.867188 935.144531 124.867188 930.125 L 124.867188 887.726562 C 124.871094 882.710938 120.75 878.566406 115.710938 878.566406 Z M 599.304688 920.984375 L 570.636719 920.984375 L 570.636719 896.859375 L 599.304688 896.859375 Z M 608.421875 878.566406 L 561.5 878.566406 C 556.449219 878.566406 552.335938 882.710938 552.335938 887.726562 L 552.335938 930.125 C 552.335938 935.144531 556.449219 939.28125 561.5 939.28125 L 608.421875 939.28125 C 613.496094 939.28125 617.601562 935.144531 617.601562 930.125 L 617.601562 887.726562 C 617.601562 882.710938 613.496094 878.566406 608.421875 878.566406 Z M 723.824219 741.683594 L 695.121094 741.683594 L 695.121094 717.695312 L 723.824219 717.695312 Z M 732.960938 699.40625 L 685.988281 699.40625 C 680.96875 699.40625 676.832031 703.523438 676.832031 708.542969 L 676.832031 750.839844 C 676.832031 755.859375 680.96875 759.980469 685.988281 759.980469 L 732.960938 759.980469 C 738 759.980469 742.117188 755.859375 742.117188 750.839844 L 742.117188 708.542969 C 742.117188 703.523438 737.996094 699.40625 732.960938 699.40625 Z M 723.824219 831.300781 L 638.628906 831.300781 L 638.628906 807.210938 L 723.824219 807.210938 Z M 732.960938 788.917969 L 629.496094 788.917969 C 624.457031 788.917969 620.339844 793.058594 620.339844 798.097656 L 620.339844 840.414062 C 620.339844 845.460938 624.457031 849.597656 629.496094 849.597656 L 732.960938 849.597656 C 738 849.597656 742.117188 845.460938 742.117188 840.414062 L 742.117188 798.097656 C 742.117188 793.058594 737.996094 788.917969 732.960938 788.917969 Z M 577.589844 831.300781 L 548.882812 831.300781 L 548.882812 807.210938 L 577.589844 807.210938 Z M 586.707031 849.597656 C 591.730469 849.597656 595.878906 845.460938 595.878906 840.414062 L 595.878906 798.09375 C 595.878906 793.058594 591.730469 788.917969 586.707031 788.917969 L 539.746094 788.917969 C 534.714844 788.917969 530.589844 793.058594 530.589844 798.09375 L 530.589844 840.414062 C 530.589844 845.460938 534.714844 849.597656 539.746094 849.597656 Z M 501.199219 920.984375 L 270.953125 920.984375 L 270.953125 896.859375 L 501.199219 896.859375 Z M 510.339844 878.566406 L 261.816406 878.566406 C 256.765625 878.566406 252.660156 882.710938 252.660156 887.726562 L 252.660156 930.125 C 252.660156 935.144531 256.765625 939.28125 261.816406 939.28125 L 510.339844 939.28125 C 515.339844 939.28125 519.492188 935.144531 519.492188 930.125 L 519.492188 887.726562 C 519.492188 882.710938 515.339844 878.566406 510.339844 878.566406 Z M 723.824219 920.984375 L 677.574219 920.984375 L 677.574219 896.859375 L 723.824219 896.859375 Z M 732.960938 878.566406 L 668.441406 878.566406 C 663.386719 878.566406 659.277344 882.710938 659.277344 887.726562 L 659.277344 930.125 C 659.277344 935.144531 663.386719 939.28125 668.441406 939.28125 L 732.960938 939.28125 C 738 939.28125 742.117188 935.144531 742.117188 930.125 L 742.117188 887.726562 C 742.117188 882.710938 737.996094 878.566406 732.960938 878.566406 Z M 272.847656 807.207031 L 301.53125 807.207031 L 301.53125 831.300781 L 272.847656 831.300781 Z M 254.550781 798.09375 L 254.550781 840.414062 C 254.550781 845.460938 258.65625 849.597656 263.710938 849.597656 L 310.671875 849.597656 C 315.703125 849.597656 319.824219 845.460938 319.824219 840.414062 L 319.824219 798.09375 C 319.824219 793.058594 315.703125 788.917969 310.671875 788.917969 L 263.710938 788.917969 C 258.65625 788.917969 254.550781 793.058594 254.550781 798.09375 Z M 598.546875 717.691406 L 627.203125 717.691406 L 627.203125 741.683594 L 598.546875 741.683594 Z M 589.410156 759.980469 L 636.34375 759.980469 C 641.390625 759.980469 645.503906 755.859375 645.503906 750.839844 L 645.503906 708.542969 C 645.503906 703.523438 641.390625 699.402344 636.34375 699.402344 L 589.410156 699.402344 C 584.355469 699.402344 580.257812 703.523438 580.257812 708.542969 L 580.257812 750.839844 C 580.257812 755.859375 584.355469 759.980469 589.410156 759.980469 Z M 501.921875 717.691406 L 530.597656 717.691406 L 530.597656 741.683594 L 501.921875 741.683594 Z M 492.789062 759.980469 L 539.734375 759.980469 C 544.78125 759.980469 548.890625 755.859375 548.890625 750.839844 L 548.890625 708.542969 C 548.890625 703.523438 544.78125 699.402344 539.734375 699.402344 L 492.789062 699.402344 C 487.757812 699.402344 483.628906 703.523438 483.628906 708.542969 L 483.628906 750.839844 C 483.628906 755.859375 487.757812 759.980469 492.789062 759.980469 Z M 364.871094 807.207031 L 393.546875 807.207031 L 393.546875 831.300781 L 364.871094 831.300781 Z M 346.582031 798.09375 L 346.582031 840.414062 C 346.582031 845.460938 350.6875 849.597656 355.738281 849.597656 L 402.679688 849.597656 C 407.714844 849.597656 411.839844 845.460938 411.839844 840.414062 L 411.839844 798.09375 C 411.839844 793.058594 407.714844 788.917969 402.679688 788.917969 L 355.738281 788.917969 C 350.6875 788.917969 346.582031 793.058594 346.582031 798.09375 Z M 485.578125 831.300781 L 456.871094 831.300781 L 456.871094 807.210938 L 485.578125 807.210938 Z M 447.753906 788.917969 C 442.699219 788.917969 438.578125 793.058594 438.578125 798.097656 L 438.578125 840.414062 C 438.578125 845.460938 442.699219 849.597656 447.753906 849.597656 L 494.695312 849.597656 C 499.734375 849.597656 503.871094 845.460938 503.871094 840.414062 L 503.871094 798.097656 C 503.871094 793.0625 499.734375 788.917969 494.695312 788.917969 Z M 308.695312 717.691406 L 337.378906 717.691406 L 337.378906 741.683594 L 308.695312 741.683594 Z M 299.554688 759.980469 L 346.515625 759.980469 C 351.570312 759.980469 355.671875 755.859375 355.671875 750.839844 L 355.671875 708.542969 C 355.671875 703.523438 351.570312 699.402344 346.515625 699.402344 L 299.554688 699.402344 C 294.539062 699.402344 290.398438 703.523438 290.398438 708.542969 L 290.398438 750.839844 C 290.398438 755.859375 294.539062 759.980469 299.554688 759.980469 Z M 405.300781 717.691406 L 433.984375 717.691406 L 433.984375 741.683594 L 405.300781 741.683594 Z M 396.164062 759.980469 L 443.125 759.980469 C 448.175781 759.980469 452.28125 755.859375 452.28125 750.839844 L 452.28125 708.542969 C 452.28125 703.523438 448.175781 699.402344 443.125 699.402344 L 396.164062 699.402344 C 391.132812 699.402344 387.007812 703.523438 387.007812 708.542969 L 387.007812 750.839844 C 387.007812 755.859375 391.128906 759.980469 396.164062 759.980469 Z M 783.339844 958.570312 C 783.339844 968.640625 775.0625 976.882812 765.011719 976.882812 L 36.6875 976.882812 C 26.617188 976.882812 18.355469 968.640625 18.355469 958.570312 L 18.355469 680.109375 C 18.355469 670.039062 26.613281 661.789062 36.6875 661.789062 L 690.902344 661.789062 L 690.902344 599.945312 C 690.902344 586.144531 679.683594 574.914062 665.878906 574.914062 L 223.980469 574.914062 C 200.984375 574.914062 182.269531 556.207031 182.269531 533.203125 L 182.269531 431.691406 L 198.957031 431.691406 L 198.957031 533.203125 C 198.957031 547.007812 210.183594 558.230469 223.980469 558.230469 L 665.878906 558.230469 C 688.878906 558.230469 707.589844 576.9375 707.589844 599.945312 L 707.589844 661.789062 L 765.011719 661.789062 C 775.0625 661.789062 783.339844 670.035156 783.339844 680.109375 Z M 765.011719 643.5 L 725.886719 643.5 L 725.886719 599.945312 C 725.886719 566.855469 698.960938 539.941406 665.878906 539.941406 L 223.980469 539.941406 C 220.273438 539.941406 217.25 536.917969 217.25 533.203125 L 217.25 413.398438 L 163.976562 413.398438 L 163.976562 533.203125 C 163.976562 566.289062 190.894531 593.207031 223.980469 593.207031 L 665.878906 593.207031 C 669.59375 593.207031 672.613281 596.230469 672.613281 599.945312 L 672.613281 643.496094 L 36.6875 643.496094 C 16.488281 643.496094 0.0625 659.921875 0.0625 680.109375 L 0.0625 958.570312 C 0.0625 978.753906 16.488281 995.175781 36.6875 995.175781 L 765.011719 995.175781 C 785.207031 995.175781 801.632812 978.753906 801.632812 958.570312 L 801.632812 680.109375 C 801.632812 659.921875 785.207031 643.5 765.011719 643.5 "/></g><g transform="matrix(1,0,0,1,514,96)"><g clip-path="url(#63a65e4503)"><g style="fill:#545454;fill-opacity:1;"><g transform="translate(40.25533, 333.174348)"><path style="stroke:none" d="M 49.890625 -218.890625 C 37.003906 -218.890625 27.691406 -221.226562 21.953125 -225.90625 C 16.210938 -230.59375 13.34375 -238.207031 13.34375 -248.75 C 13.34375 -259.289062 16.210938 -266.898438 21.953125 -271.578125 C 27.691406 -276.265625 37.003906 -278.609375 49.890625 -278.609375 C 63.003906 -278.609375 72.375 -276.265625 78 -271.578125 C 83.625 -266.898438 86.4375 -259.289062 86.4375 -248.75 C 86.4375 -238.207031 83.625 -230.59375 78 -225.90625 C 72.375 -221.226562 63.003906 -218.890625 49.890625 -218.890625 Z M 0.703125 77.296875 C -2.335938 77.296875 -5.265625 77.175781 -8.078125 76.9375 C -10.890625 76.707031 -13.582031 76.359375 -16.15625 75.890625 C -24.820312 74.484375 -30.96875 70.851562 -34.59375 65 C -38.226562 59.144531 -39.695312 52.234375 -39 44.265625 C -38.289062 36.773438 -35.242188 32.441406 -29.859375 31.265625 C -24.472656 30.097656 -16.742188 29.863281 -6.671875 30.5625 C 1.753906 30.800781 8.660156 28.578125 14.046875 23.890625 C 19.441406 19.203125 22.140625 11.585938 22.140625 1.046875 C 22.140625 -9.953125 22.078125 -22.890625 21.953125 -37.765625 C 21.835938 -52.640625 21.78125 -70.148438 21.78125 -90.296875 C 21.78125 -102.710938 21.722656 -115.125 21.609375 -127.53125 C 21.492188 -139.945312 21.4375 -152.242188 21.4375 -164.421875 C 21.4375 -184.335938 30.921875 -194.296875 49.890625 -194.296875 C 68.628906 -194.296875 78 -184.335938 78 -164.421875 C 78 -152.242188 78.054688 -139.945312 78.171875 -127.53125 C 78.285156 -115.125 78.34375 -102.710938 78.34375 -90.296875 C 78.34375 -69.453125 78.34375 -51.296875 78.34375 -35.828125 C 78.34375 -20.367188 78.460938 -6.785156 78.703125 4.921875 C 78.929688 22.484375 75.882812 36.59375 69.5625 47.25 C 63.238281 57.90625 54.222656 65.578125 42.515625 70.265625 C 30.804688 74.953125 16.867188 77.296875 0.703125 77.296875 Z M 0.703125 77.296875 "/></g></g></g></g></g></svg>