<svg xmlns="http://www.w3.org/2000/svg"
     xmlns:xlink="http://www.w3.org/1999/xlink"
     width="1070"
     zoomAndPan="magnify"
     viewBox="0 0 802.5 991.499974"
     height="1322"
     preserveAspectRatio="xMidYMid meet"
     version="1.2">
    <defs>
        <clipPath id="742a15ed02">
            <path d="M 0 563.214844 L 196 563.214844 L 196 758.792969 L 0 758.792969 Z M 0 563.214844 " />
        </clipPath>
        <clipPath id="2fdbc7a08c">
            <path d="M 195.582031 595.445312 L 195.582031 726.5625 C 195.582031 735.109375 192.1875 743.308594 186.144531 749.351562 C 180.101562 755.398438 171.902344 758.792969 163.355469 758.792969 L 32.230469 758.792969 C 23.683594 758.792969 15.484375 755.398438 9.441406 749.351562 C 3.394531 743.308594 0 735.109375 0 726.5625 L 0 595.445312 C 0 586.898438 3.394531 578.699219 9.441406 572.65625 C 15.484375 566.613281 23.683594 563.214844 32.230469 563.214844 L 163.355469 563.214844 C 171.902344 563.214844 180.101562 566.613281 186.144531 572.65625 C 192.1875 578.699219 195.582031 586.898438 195.582031 595.445312 Z M 195.582031 595.445312 " />
        </clipPath>
        <clipPath id="ce1512e8ed">
            <path d="M 0 0.214844 L 195.71875 0.214844 L 195.71875 195.792969 L 0 195.792969 Z M 0 0.214844 " />
        </clipPath>
        <clipPath id="d17392d474">
            <path d="M 195.582031 32.445312 L 195.582031 163.5625 C 195.582031 172.109375 192.1875 180.308594 186.144531 186.351562 C 180.101562 192.398438 171.902344 195.792969 163.355469 195.792969 L 32.230469 195.792969 C 23.683594 195.792969 15.484375 192.398438 9.441406 186.351562 C 3.394531 180.308594 0 172.109375 0 163.5625 L 0 32.445312 C 0 23.898438 3.394531 15.699219 9.441406 9.65625 C 15.484375 3.613281 23.683594 0.214844 32.230469 0.214844 L 163.355469 0.214844 C 171.902344 0.214844 180.101562 3.613281 186.144531 9.65625 C 192.1875 15.699219 195.582031 23.898438 195.582031 32.445312 Z M 195.582031 32.445312 " />
        </clipPath>
        <clipPath id="d617cadcc6">
            <rect x="0" width="196" y="0" height="196" />
        </clipPath>
        <clipPath id="c6a6202fb2">
            <path d="M 0 563.214844 L 195.628906 563.214844 L 195.628906 758.84375 L 0 758.84375 Z M 0 563.214844 " />
        </clipPath>
        <clipPath id="c406186a50">
            <path d="M 195.578125 595.445312 L 195.578125 726.558594 C 195.578125 735.105469 192.183594 743.300781 186.140625 749.347656 C 180.09375 755.390625 171.898438 758.785156 163.351562 758.785156 L 32.230469 758.785156 C 23.683594 758.785156 15.484375 755.390625 9.441406 749.347656 C 3.398438 743.300781 0.00390625 735.105469 0.00390625 726.558594 L 0.00390625 595.445312 C 0.00390625 586.898438 3.398438 578.699219 9.441406 572.65625 C 15.484375 566.613281 23.683594 563.214844 32.230469 563.214844 L 163.351562 563.214844 C 171.898438 563.214844 180.09375 566.613281 186.140625 572.65625 C 192.183594 578.699219 195.578125 586.898438 195.578125 595.445312 Z M 195.578125 595.445312 " />
        </clipPath>
        <clipPath id="fb29cb0f89">
            <path d="M 606.121094 563.214844 L 802 563.214844 L 802 758.792969 L 606.121094 758.792969 Z M 606.121094 563.214844 " />
        </clipPath>
        <clipPath id="fcf7f40cd7">
            <path d="M 801.703125 595.445312 L 801.703125 726.5625 C 801.703125 735.109375 798.308594 743.308594 792.261719 749.351562 C 786.21875 755.398438 778.019531 758.792969 769.472656 758.792969 L 638.347656 758.792969 C 629.800781 758.792969 621.605469 755.398438 615.558594 749.351562 C 609.515625 743.308594 606.121094 735.109375 606.121094 726.5625 L 606.121094 595.445312 C 606.121094 586.898438 609.515625 578.699219 615.558594 572.65625 C 621.605469 566.613281 629.800781 563.214844 638.347656 563.214844 L 769.472656 563.214844 C 778.019531 563.214844 786.21875 566.613281 792.261719 572.65625 C 798.308594 578.699219 801.703125 586.898438 801.703125 595.445312 Z M 801.703125 595.445312 " />
        </clipPath>
        <clipPath id="4b22e361cc">
            <path d="M 0.121094 0.214844 L 195.820312 0.214844 L 195.820312 195.792969 L 0.121094 195.792969 Z M 0.121094 0.214844 " />
        </clipPath>
        <clipPath id="d50e67f13f">
            <path d="M 195.703125 32.445312 L 195.703125 163.5625 C 195.703125 172.109375 192.308594 180.308594 186.261719 186.351562 C 180.21875 192.398438 172.019531 195.792969 163.472656 195.792969 L 32.347656 195.792969 C 23.800781 195.792969 15.605469 192.398438 9.558594 186.351562 C 3.515625 180.308594 0.121094 172.109375 0.121094 163.5625 L 0.121094 32.445312 C 0.121094 23.898438 3.515625 15.699219 9.558594 9.65625 C 15.605469 3.613281 23.800781 0.214844 32.347656 0.214844 L 163.472656 0.214844 C 172.019531 0.214844 180.21875 3.613281 186.261719 9.65625 C 192.308594 15.699219 195.703125 23.898438 195.703125 32.445312 Z M 195.703125 32.445312 " />
        </clipPath>
        <clipPath id="bc617a2b38">
            <rect x="0" width="196" y="0" height="196" />
        </clipPath>
        <clipPath id="6034bb0179">
            <path d="M 606.121094 563.214844 L 801.746094 563.214844 L 801.746094 758.84375 L 606.121094 758.84375 Z M 606.121094 563.214844 " />
        </clipPath>
        <clipPath id="b9c7d47291">
            <path d="M 801.699219 595.445312 L 801.699219 726.558594 C 801.699219 735.105469 798.304688 743.300781 792.257812 749.347656 C 786.214844 755.390625 778.015625 758.785156 769.46875 758.785156 L 638.351562 758.785156 C 629.804688 758.785156 621.605469 755.390625 615.5625 749.347656 C 609.515625 743.300781 606.121094 735.105469 606.121094 726.558594 L 606.121094 595.445312 C 606.121094 586.898438 609.515625 578.699219 615.5625 572.65625 C 621.605469 566.613281 629.804688 563.214844 638.351562 563.214844 L 769.46875 563.214844 C 778.015625 563.214844 786.214844 566.613281 792.257812 572.65625 C 798.304688 578.699219 801.699219 586.898438 801.699219 595.445312 Z M 801.699219 595.445312 " />
        </clipPath>
        <clipPath id="a6bf799a9a">
            <path d="M 303.058594 563.214844 L 499 563.214844 L 499 758.792969 L 303.058594 758.792969 Z M 303.058594 563.214844 " />
        </clipPath>
        <clipPath id="23b3c04841">
            <path d="M 498.644531 595.445312 L 498.644531 726.5625 C 498.644531 735.109375 495.246094 743.308594 489.203125 749.351562 C 483.160156 755.398438 474.960938 758.792969 466.414062 758.792969 L 335.289062 758.792969 C 326.742188 758.792969 318.542969 755.398438 312.5 749.351562 C 306.457031 743.308594 303.058594 735.109375 303.058594 726.5625 L 303.058594 595.445312 C 303.058594 586.898438 306.457031 578.699219 312.5 572.65625 C 318.542969 566.613281 326.742188 563.214844 335.289062 563.214844 L 466.414062 563.214844 C 474.960938 563.214844 483.160156 566.613281 489.203125 572.65625 C 495.246094 578.699219 498.644531 586.898438 498.644531 595.445312 Z M 498.644531 595.445312 " />
        </clipPath>
        <clipPath id="6d5b00b09a">
            <path d="M 0.0585938 0.214844 L 195.648438 0.214844 L 195.648438 195.792969 L 0.0585938 195.792969 Z M 0.0585938 0.214844 " />
        </clipPath>
        <clipPath id="ed8f5505ae">
            <path d="M 195.644531 32.445312 L 195.644531 163.5625 C 195.644531 172.109375 192.246094 180.308594 186.203125 186.351562 C 180.160156 192.398438 171.960938 195.792969 163.414062 195.792969 L 32.289062 195.792969 C 23.742188 195.792969 15.542969 192.398438 9.5 186.351562 C 3.457031 180.308594 0.0585938 172.109375 0.0585938 163.5625 L 0.0585938 32.445312 C 0.0585938 23.898438 3.457031 15.699219 9.5 9.65625 C 15.542969 3.613281 23.742188 0.214844 32.289062 0.214844 L 163.414062 0.214844 C 171.960938 0.214844 180.160156 3.613281 186.203125 9.65625 C 192.246094 15.699219 195.644531 23.898438 195.644531 32.445312 Z M 195.644531 32.445312 " />
        </clipPath>
        <clipPath id="fbcf5ef17f">
            <rect x="0" width="196" y="0" height="196" />
        </clipPath>
        <clipPath id="294addf7c8">
            <path d="M 303.058594 563.214844 L 498.6875 563.214844 L 498.6875 758.84375 L 303.058594 758.84375 Z M 303.058594 563.214844 " />
        </clipPath>
        <clipPath id="92e9699686">
            <path d="M 498.640625 595.445312 L 498.640625 726.558594 C 498.640625 735.105469 495.242188 743.300781 489.199219 749.347656 C 483.15625 755.390625 474.957031 758.785156 466.410156 758.785156 L 335.289062 758.785156 C 326.742188 758.785156 318.546875 755.390625 312.5 749.347656 C 306.457031 743.300781 303.0625 735.105469 303.0625 726.558594 L 303.0625 595.445312 C 303.0625 586.898438 306.457031 578.699219 312.5 572.65625 C 318.546875 566.613281 326.742188 563.214844 335.289062 563.214844 L 466.410156 563.214844 C 474.957031 563.214844 483.15625 566.613281 489.199219 572.65625 C 495.242188 578.699219 498.640625 586.898438 498.640625 595.445312 Z M 498.640625 595.445312 " />
        </clipPath>
        <clipPath id="80f5d0e10b">
            <path d="M 0 794.699219 L 196 794.699219 L 196 990.273438 L 0 990.273438 Z M 0 794.699219 " />
        </clipPath>
        <clipPath id="ef8b674dff">
            <path d="M 195.582031 826.925781 L 195.582031 958.042969 C 195.582031 966.59375 192.1875 974.789062 186.144531 980.835938 C 180.101562 986.878906 171.902344 990.273438 163.355469 990.273438 L 32.230469 990.273438 C 23.683594 990.273438 15.484375 986.878906 9.441406 980.835938 C 3.394531 974.789062 0 966.59375 0 958.042969 L 0 826.925781 C 0 818.378906 3.394531 810.179688 9.441406 804.136719 C 15.484375 798.09375 23.683594 794.699219 32.230469 794.699219 L 163.355469 794.699219 C 171.902344 794.699219 180.101562 798.09375 186.144531 804.136719 C 192.1875 810.179688 195.582031 818.378906 195.582031 826.925781 Z M 195.582031 826.925781 " />
        </clipPath>
        <clipPath id="c38017ed72">
            <path d="M 0 0.699219 L 195.71875 0.699219 L 195.71875 196.273438 L 0 196.273438 Z M 0 0.699219 " />
        </clipPath>
        <clipPath id="c62e44cb4d">
            <path d="M 195.582031 32.925781 L 195.582031 164.042969 C 195.582031 172.59375 192.1875 180.789062 186.144531 186.835938 C 180.101562 192.878906 171.902344 196.273438 163.355469 196.273438 L 32.230469 196.273438 C 23.683594 196.273438 15.484375 192.878906 9.441406 186.835938 C 3.394531 180.789062 0 172.59375 0 164.042969 L 0 32.925781 C 0 24.378906 3.394531 16.179688 9.441406 10.136719 C 15.484375 4.09375 23.683594 0.699219 32.230469 0.699219 L 163.355469 0.699219 C 171.902344 0.699219 180.101562 4.09375 186.144531 10.136719 C 192.1875 16.179688 195.582031 24.378906 195.582031 32.925781 Z M 195.582031 32.925781 " />
        </clipPath>
        <clipPath id="64cdea4fe7">
            <rect x="0" width="196" y="0" height="197" />
        </clipPath>
        <clipPath id="07f90973eb">
            <path d="M 0 794.699219 L 195.628906 794.699219 L 195.628906 990.324219 L 0 990.324219 Z M 0 794.699219 " />
        </clipPath>
        <clipPath id="75ef13508a">
            <path d="M 195.578125 826.925781 L 195.578125 958.039062 C 195.578125 966.585938 192.183594 974.785156 186.140625 980.828125 C 180.09375 986.871094 171.898438 990.265625 163.351562 990.265625 L 32.230469 990.265625 C 23.683594 990.265625 15.484375 986.871094 9.441406 980.828125 C 3.398438 974.785156 0.00390625 966.585938 0.00390625 958.039062 L 0.00390625 826.925781 C 0.00390625 818.378906 3.398438 810.179688 9.441406 804.136719 C 15.484375 798.09375 23.683594 794.699219 32.230469 794.699219 L 163.351562 794.699219 C 171.898438 794.699219 180.09375 798.09375 186.140625 804.136719 C 192.183594 810.179688 195.578125 818.378906 195.578125 826.925781 Z M 195.578125 826.925781 " />
        </clipPath>
        <clipPath id="d37fc8f4bc">
            <path d="M 606.121094 794.699219 L 802 794.699219 L 802 990.273438 L 606.121094 990.273438 Z M 606.121094 794.699219 " />
        </clipPath>
        <clipPath id="18dd779156">
            <path d="M 801.703125 826.925781 L 801.703125 958.042969 C 801.703125 966.59375 798.308594 974.789062 792.261719 980.835938 C 786.21875 986.878906 778.019531 990.273438 769.472656 990.273438 L 638.347656 990.273438 C 629.800781 990.273438 621.605469 986.878906 615.558594 980.835938 C 609.515625 974.789062 606.121094 966.59375 606.121094 958.042969 L 606.121094 826.925781 C 606.121094 818.378906 609.515625 810.179688 615.558594 804.136719 C 621.605469 798.09375 629.800781 794.699219 638.347656 794.699219 L 769.472656 794.699219 C 778.019531 794.699219 786.21875 798.09375 792.261719 804.136719 C 798.308594 810.179688 801.703125 818.378906 801.703125 826.925781 Z M 801.703125 826.925781 " />
        </clipPath>
        <clipPath id="1aae695e89">
            <path d="M 0.121094 0.699219 L 195.820312 0.699219 L 195.820312 196.273438 L 0.121094 196.273438 Z M 0.121094 0.699219 " />
        </clipPath>
        <clipPath id="0105b375f4">
            <path d="M 195.703125 32.925781 L 195.703125 164.042969 C 195.703125 172.59375 192.308594 180.789062 186.261719 186.835938 C 180.21875 192.878906 172.019531 196.273438 163.472656 196.273438 L 32.347656 196.273438 C 23.800781 196.273438 15.605469 192.878906 9.558594 186.835938 C 3.515625 180.789062 0.121094 172.59375 0.121094 164.042969 L 0.121094 32.925781 C 0.121094 24.378906 3.515625 16.179688 9.558594 10.136719 C 15.605469 4.09375 23.800781 0.699219 32.347656 0.699219 L 163.472656 0.699219 C 172.019531 0.699219 180.21875 4.09375 186.261719 10.136719 C 192.308594 16.179688 195.703125 24.378906 195.703125 32.925781 Z M 195.703125 32.925781 " />
        </clipPath>
        <clipPath id="aca629c7ef">
            <rect x="0" width="196" y="0" height="197" />
        </clipPath>
        <clipPath id="b5b63481b4">
            <path d="M 606.121094 794.699219 L 801.746094 794.699219 L 801.746094 990.324219 L 606.121094 990.324219 Z M 606.121094 794.699219 " />
        </clipPath>
        <clipPath id="3a5a552d0b">
            <path d="M 801.699219 826.925781 L 801.699219 958.039062 C 801.699219 966.585938 798.304688 974.785156 792.257812 980.828125 C 786.214844 986.871094 778.015625 990.265625 769.46875 990.265625 L 638.351562 990.265625 C 629.804688 990.265625 621.605469 986.871094 615.5625 980.828125 C 609.515625 974.785156 606.121094 966.585938 606.121094 958.039062 L 606.121094 826.925781 C 606.121094 818.378906 609.515625 810.179688 615.5625 804.136719 C 621.605469 798.09375 629.804688 794.699219 638.351562 794.699219 L 769.46875 794.699219 C 778.015625 794.699219 786.214844 798.09375 792.257812 804.136719 C 798.304688 810.179688 801.699219 818.378906 801.699219 826.925781 Z M 801.699219 826.925781 " />
        </clipPath>
        <clipPath id="de6aa18b38">
            <path d="M 303.058594 794.699219 L 499 794.699219 L 499 990.273438 L 303.058594 990.273438 Z M 303.058594 794.699219 " />
        </clipPath>
        <clipPath id="76d095feae">
            <path d="M 498.644531 826.925781 L 498.644531 958.042969 C 498.644531 966.59375 495.246094 974.789062 489.203125 980.835938 C 483.160156 986.878906 474.960938 990.273438 466.414062 990.273438 L 335.289062 990.273438 C 326.742188 990.273438 318.542969 986.878906 312.5 980.835938 C 306.457031 974.789062 303.058594 966.59375 303.058594 958.042969 L 303.058594 826.925781 C 303.058594 818.378906 306.457031 810.179688 312.5 804.136719 C 318.542969 798.09375 326.742188 794.699219 335.289062 794.699219 L 466.414062 794.699219 C 474.960938 794.699219 483.160156 798.09375 489.203125 804.136719 C 495.246094 810.179688 498.644531 818.378906 498.644531 826.925781 Z M 498.644531 826.925781 " />
        </clipPath>
        <clipPath id="14ff643597">
            <path d="M 0.0585938 0.699219 L 195.648438 0.699219 L 195.648438 196.273438 L 0.0585938 196.273438 Z M 0.0585938 0.699219 " />
        </clipPath>
        <clipPath id="b6bf75de35">
            <path d="M 195.644531 32.925781 L 195.644531 164.042969 C 195.644531 172.59375 192.246094 180.789062 186.203125 186.835938 C 180.160156 192.878906 171.960938 196.273438 163.414062 196.273438 L 32.289062 196.273438 C 23.742188 196.273438 15.542969 192.878906 9.5 186.835938 C 3.457031 180.789062 0.0585938 172.59375 0.0585938 164.042969 L 0.0585938 32.925781 C 0.0585938 24.378906 3.457031 16.179688 9.5 10.136719 C 15.542969 4.09375 23.742188 0.699219 32.289062 0.699219 L 163.414062 0.699219 C 171.960938 0.699219 180.160156 4.09375 186.203125 10.136719 C 192.246094 16.179688 195.644531 24.378906 195.644531 32.925781 Z M 195.644531 32.925781 " />
        </clipPath>
        <clipPath id="9096167c03">
            <rect x="0" width="196" y="0" height="197" />
        </clipPath>
        <clipPath id="378557b991">
            <path d="M 303.058594 794.699219 L 498.6875 794.699219 L 498.6875 990.324219 L 303.058594 990.324219 Z M 303.058594 794.699219 " />
        </clipPath>
        <clipPath id="3dea11c2ac">
            <path d="M 498.640625 826.925781 L 498.640625 958.039062 C 498.640625 966.585938 495.242188 974.785156 489.199219 980.828125 C 483.15625 986.871094 474.957031 990.265625 466.410156 990.265625 L 335.289062 990.265625 C 326.742188 990.265625 318.546875 986.871094 312.5 980.828125 C 306.457031 974.785156 303.0625 966.585938 303.0625 958.039062 L 303.0625 826.925781 C 303.0625 818.378906 306.457031 810.179688 312.5 804.136719 C 318.546875 798.09375 326.742188 794.699219 335.289062 794.699219 L 466.410156 794.699219 C 474.957031 794.699219 483.15625 798.09375 489.199219 804.136719 C 495.242188 810.179688 498.640625 818.378906 498.640625 826.925781 Z M 498.640625 826.925781 " />
        </clipPath>
        <clipPath id="c9e8b976f2">
            <rect x="0" width="207" y="0" height="423" />
        </clipPath>
        <clipPath id="e38f07eeb6">
            <rect x="0" width="93" y="0" height="423" />
        </clipPath>
    </defs>
    <g id="ae4a264bed">
        <g clip-rule="nonzero" clip-path="url(#742a15ed02)">
            <g clip-rule="nonzero" clip-path="url(#2fdbc7a08c)">
                <g transform="matrix(1,0,0,1,0,563)">
                    <g clip-path="url(#d617cadcc6)">
                        <g clip-rule="nonzero" clip-path="url(#ce1512e8ed)">
                            <g clip-rule="nonzero" clip-path="url(#d17392d474)">
                                <path style=" stroke:none;fill-rule:nonzero;fill:#00bf63;fill-opacity:0;" d="M 0 0.214844 L 195.578125 0.214844 L 195.578125 195.792969 L 0 195.792969 Z M 0 0.214844 " />
                            </g>
                        </g>
                    </g>
                </g>
            </g>
        </g>
        <g clip-rule="nonzero" clip-path="url(#c6a6202fb2)">
            <g clip-rule="nonzero" clip-path="url(#c406186a50)">
                <path style="fill:none;stroke-width:30;stroke-linecap:butt;stroke-linejoin:miter;stroke:#545454;stroke-opacity:1;stroke-miterlimit:4;" d="M 260.930316 42.999002 L 260.930316 217.92565 C 260.930316 229.328585 256.401454 240.262477 248.339141 248.330002 C 240.271617 256.392314 229.337724 260.921176 217.934789 260.921176 L 42.997719 260.921176 C 31.594784 260.921176 20.65568 256.392314 12.593367 248.330002 C 4.531054 240.262477 0.00219237 229.328585 0.00219237 217.92565 L 0.00219237 42.999002 C 0.00219237 31.596068 4.531054 20.656964 12.593367 12.594651 C 20.65568 4.532338 31.594784 -0.00173546 42.997719 -0.00173546 L 217.934789 -0.00173546 C 229.337724 -0.00173546 240.271617 4.532338 248.339141 12.594651 C 256.401454 20.656964 260.930316 31.596068 260.930316 42.999002 Z M 260.930316 42.999002 " transform="matrix(0.749533,0,0,0.749533,0.002263,563.216145)" />
            </g>
        </g>
        <g clip-rule="nonzero" clip-path="url(#fb29cb0f89)">
            <g clip-rule="nonzero" clip-path="url(#fcf7f40cd7)">
                <g transform="matrix(1,0,0,1,606,563)">
                    <g clip-path="url(#bc617a2b38)">
                        <g clip-rule="nonzero" clip-path="url(#4b22e361cc)">
                            <g clip-rule="nonzero" clip-path="url(#d50e67f13f)">
                                <path style=" stroke:none;fill-rule:nonzero;fill:#00bf63;fill-opacity:0;" d="M 0.121094 0.214844 L 195.695312 0.214844 L 195.695312 195.792969 L 0.121094 195.792969 Z M 0.121094 0.214844 " />
                            </g>
                        </g>
                    </g>
                </g>
            </g>
        </g>
        <g clip-rule="nonzero" clip-path="url(#6034bb0179)">
            <g clip-rule="nonzero" clip-path="url(#b9c7d47291)">
                <path style="fill:none;stroke-width:30;stroke-linecap:butt;stroke-linejoin:miter;stroke:#545454;stroke-opacity:1;stroke-miterlimit:4;" d="M 260.932562 42.999002 L 260.932562 217.92565 C 260.932562 229.328585 256.4037 240.262477 248.336176 248.330002 C 240.273863 256.392314 229.334759 260.921176 217.931824 260.921176 L 42.999965 260.921176 C 31.597031 260.921176 20.657926 256.392314 12.595614 248.330002 C 4.52809 240.262477 -0.000772584 229.328585 -0.000772584 217.92565 L -0.000772584 42.999002 C -0.000772584 31.596068 4.52809 20.656964 12.595614 12.594651 C 20.657926 4.532338 31.597031 -0.00173546 42.999965 -0.00173546 L 217.931824 -0.00173546 C 229.334759 -0.00173546 240.273863 4.532338 248.336176 12.594651 C 256.4037 20.656964 260.932562 31.596068 260.932562 42.999002 Z M 260.932562 42.999002 " transform="matrix(0.749533,0,0,0.749533,606.121673,563.216145)" />
            </g>
        </g>
        <g clip-rule="nonzero" clip-path="url(#a6bf799a9a)">
            <g clip-rule="nonzero" clip-path="url(#23b3c04841)">
                <g transform="matrix(1,0,0,1,303,563)">
                    <g clip-path="url(#fbcf5ef17f)">
                        <g clip-rule="nonzero" clip-path="url(#6d5b00b09a)">
                            <g clip-rule="nonzero" clip-path="url(#ed8f5505ae)">
                                <path style=" stroke:none;fill-rule:nonzero;fill:#00bf63;fill-opacity:0;" d="M 0.0585938 0.214844 L 195.636719 0.214844 L 195.636719 195.792969 L 0.0585938 195.792969 Z M 0.0585938 0.214844 " />
                            </g>
                        </g>
                    </g>
                </g>
            </g>
        </g>
        <g clip-rule="nonzero" clip-path="url(#294addf7c8)">
            <g clip-rule="nonzero" clip-path="url(#92e9699686)">
                <path style="fill:none;stroke-width:30;stroke-linecap:butt;stroke-linejoin:miter;stroke:#545454;stroke-opacity:1;stroke-miterlimit:4;" d="M 260.928864 42.999002 L 260.928864 217.92565 C 260.928864 229.328585 256.400002 240.262477 248.33769 248.330002 C 240.275377 256.392314 229.336273 260.921176 217.933338 260.921176 L 42.996267 260.921176 C 31.593333 260.921176 20.65944 256.392314 12.591916 248.330002 C 4.529603 240.262477 0.000741097 229.328585 0.000741097 217.92565 L 0.000741097 42.999002 C 0.000741097 31.596068 4.529603 20.656964 12.591916 12.594651 C 20.65944 4.532338 31.593333 -0.00173546 42.996267 -0.00173546 L 217.933338 -0.00173546 C 229.336273 -0.00173546 240.275377 4.532338 248.33769 12.594651 C 256.400002 20.656964 260.928864 31.596068 260.928864 42.999002 Z M 260.928864 42.999002 " transform="matrix(0.749533,0,0,0.749533,303.061945,563.216145)" />
            </g>
        </g>
        <g clip-rule="nonzero" clip-path="url(#80f5d0e10b)">
            <g clip-rule="nonzero" clip-path="url(#ef8b674dff)">
                <g transform="matrix(1,0,0,1,0,794)">
                    <g clip-path="url(#64cdea4fe7)">
                        <g clip-rule="nonzero" clip-path="url(#c38017ed72)">
                            <g clip-rule="nonzero" clip-path="url(#c62e44cb4d)">
                                <path style=" stroke:none;fill-rule:nonzero;fill:#00bf63;fill-opacity:0;" d="M 0 0.699219 L 195.578125 0.699219 L 195.578125 196.273438 L 0 196.273438 Z M 0 0.699219 " />
                            </g>
                        </g>
                    </g>
                </g>
            </g>
        </g>
        <g clip-rule="nonzero" clip-path="url(#07f90973eb)">
            <g clip-rule="nonzero" clip-path="url(#75ef13508a)">
                <path style="fill:none;stroke-width:30;stroke-linecap:butt;stroke-linejoin:miter;stroke:#545454;stroke-opacity:1;stroke-miterlimit:4;" d="M 260.930316 42.99802 L 260.930316 217.924667 C 260.930316 229.327602 256.401454 240.266706 248.339141 248.329019 C 240.271617 256.391332 229.337724 260.920194 217.934789 260.920194 L 42.997719 260.920194 C 31.594784 260.920194 20.65568 256.391332 12.593367 248.329019 C 4.531054 240.266706 0.00219237 229.327602 0.00219237 217.924667 L 0.00219237 42.99802 C 0.00219237 31.595085 4.531054 20.655981 12.593367 12.593668 C 20.65568 4.531356 31.594784 0.00249345 42.997719 0.00249345 L 217.934789 0.00249345 C 229.337724 0.00249345 240.271617 4.531356 248.339141 12.593668 C 256.401454 20.655981 260.930316 31.595085 260.930316 42.99802 Z M 260.930316 42.99802 " transform="matrix(0.749533,0,0,0.749533,0.002263,794.69735)" />
            </g>
        </g>
        <g clip-rule="nonzero" clip-path="url(#d37fc8f4bc)">
            <g clip-rule="nonzero" clip-path="url(#18dd779156)">
                <g transform="matrix(1,0,0,1,606,794)">
                    <g clip-path="url(#aca629c7ef)">
                        <g clip-rule="nonzero" clip-path="url(#1aae695e89)">
                            <g clip-rule="nonzero" clip-path="url(#0105b375f4)">
                                <path style=" stroke:none;fill-rule:nonzero;fill:#00bf63;fill-opacity:0;" d="M 0.121094 0.699219 L 195.695312 0.699219 L 195.695312 196.273438 L 0.121094 196.273438 Z M 0.121094 0.699219 " />
                            </g>
                        </g>
                    </g>
                </g>
            </g>
        </g>
        <g clip-rule="nonzero" clip-path="url(#b5b63481b4)">
            <g clip-rule="nonzero" clip-path="url(#3a5a552d0b)">
                <path style="fill:none;stroke-width:30;stroke-linecap:butt;stroke-linejoin:miter;stroke:#545454;stroke-opacity:1;stroke-miterlimit:4;" d="M 260.932562 42.99802 L 260.932562 217.924667 C 260.932562 229.327602 256.4037 240.266706 248.336176 248.329019 C 240.273863 256.391332 229.334759 260.920194 217.931824 260.920194 L 42.999965 260.920194 C 31.597031 260.920194 20.657926 256.391332 12.595614 248.329019 C 4.52809 240.266706 -0.000772584 229.327602 -0.000772584 217.924667 L -0.000772584 42.99802 C -0.000772584 31.595085 4.52809 20.655981 12.595614 12.593668 C 20.657926 4.531356 31.597031 0.00249345 42.999965 0.00249345 L 217.931824 0.00249345 C 229.334759 0.00249345 240.273863 4.531356 248.336176 12.593668 C 256.4037 20.655981 260.932562 31.595085 260.932562 42.99802 Z M 260.932562 42.99802 " transform="matrix(0.749533,0,0,0.749533,606.121673,794.69735)" />
            </g>
        </g>
        <g clip-rule="nonzero" clip-path="url(#de6aa18b38)">
            <g clip-rule="nonzero" clip-path="url(#76d095feae)">
                <g transform="matrix(1,0,0,1,303,794)">
                    <g clip-path="url(#9096167c03)">
                        <g clip-rule="nonzero" clip-path="url(#14ff643597)">
                            <g clip-rule="nonzero" clip-path="url(#b6bf75de35)">
                                <path style=" stroke:none;fill-rule:nonzero;fill:#00bf63;fill-opacity:0;" d="M 0.0585938 0.699219 L 195.636719 0.699219 L 195.636719 196.273438 L 0.0585938 196.273438 Z M 0.0585938 0.699219 " />
                            </g>
                        </g>
                    </g>
                </g>
            </g>
        </g>
        <g clip-rule="nonzero" clip-path="url(#378557b991)">
            <g clip-rule="nonzero" clip-path="url(#3dea11c2ac)">
                <path style="fill:none;stroke-width:30;stroke-linecap:butt;stroke-linejoin:miter;stroke:#545454;stroke-opacity:1;stroke-miterlimit:4;" d="M 260.928864 42.99802 L 260.928864 217.924667 C 260.928864 229.327602 256.400002 240.266706 248.33769 248.329019 C 240.275377 256.391332 229.336273 260.920194 217.933338 260.920194 L 42.996267 260.920194 C 31.593333 260.920194 20.65944 256.391332 12.591916 248.329019 C 4.529603 240.266706 0.000741097 229.327602 0.000741097 217.924667 L 0.000741097 42.99802 C 0.000741097 31.595085 4.529603 20.655981 12.591916 12.593668 C 20.65944 4.531356 31.593333 0.00249345 42.996267 0.00249345 L 217.933338 0.00249345 C 229.336273 0.00249345 240.275377 4.531356 248.33769 12.593668 C 256.400002 20.655981 260.928864 31.595085 260.928864 42.99802 Z M 260.928864 42.99802 " transform="matrix(0.749533,0,0,0.749533,303.061945,794.69735)" />
            </g>
        </g>
        <g transform="matrix(1,0,0,1,236,95)">
            <g clip-path="url(#c9e8b976f2)">
                <g style="fill:#545454;fill-opacity:1;">
                    <g transform="translate(0.702073, 333.923076)">
                        <path style="stroke:none" d="M 73.4375 3.515625 C 61.957031 3.515625 51.472656 1.640625 41.984375 -2.109375 C 32.492188 -5.859375 24.9375 -11.65625 19.3125 -19.5 C 13.695312 -27.34375 10.890625 -37.359375 10.890625 -49.546875 C 10.890625 -71.554688 20.195312 -88.125 38.8125 -99.25 C 57.4375 -110.375 86.539062 -115.351562 126.125 -114.1875 L 126.125 -126.125 C 126.125 -139.007812 124.304688 -147.796875 120.671875 -152.484375 C 117.046875 -157.171875 111.367188 -159.515625 103.640625 -159.515625 C 99.191406 -159.515625 95.09375 -158.867188 91.34375 -157.578125 C 87.601562 -156.285156 84.675781 -154 82.5625 -150.71875 C 79.28125 -145.570312 76.523438 -141.125 74.296875 -137.375 C 72.078125 -133.625 69.5625 -130.753906 66.75 -128.765625 C 63.945312 -126.773438 59.613281 -125.78125 53.75 -125.78125 L 50.234375 -125.78125 C 40.398438 -125.78125 32.492188 -128.472656 26.515625 -133.859375 C 20.546875 -139.242188 18.96875 -146.738281 21.78125 -156.34375 C 25.757812 -170.164062 34.773438 -180.472656 48.828125 -187.265625 C 62.890625 -194.054688 82.6875 -197.453125 108.21875 -197.453125 C 160.445312 -197.453125 186.5625 -174.03125 186.5625 -127.1875 C 186.5625 -106.101562 186.617188 -87.710938 186.734375 -72.015625 C 186.859375 -56.328125 187.15625 -42.507812 187.625 -30.5625 C 188.082031 -20.726562 185.96875 -13.175781 181.28125 -7.90625 C 176.601562 -2.632812 169.460938 0 159.859375 0 L 156.703125 0 C 138.898438 0 129.296875 -2.8125 127.890625 -8.4375 C 127.421875 -9.84375 127.066406 -11.242188 126.828125 -12.640625 C 126.597656 -14.046875 126.363281 -15.453125 126.125 -16.859375 C 119.101562 -10.066406 111.023438 -4.972656 101.890625 -1.578125 C 92.753906 1.816406 83.269531 3.515625 73.4375 3.515625 Z M 92.046875 -36.1875 C 100.015625 -36.1875 106.804688 -37.765625 112.421875 -40.921875 C 118.046875 -44.085938 122.847656 -48.597656 126.828125 -54.453125 L 126.828125 -86.078125 C 116.296875 -85.847656 106.460938 -85.03125 97.328125 -83.625 C 88.191406 -82.21875 80.8125 -79.640625 75.1875 -75.890625 C 69.5625 -72.140625 66.75 -66.519531 66.75 -59.03125 C 66.75 -52.46875 68.914062 -47.019531 73.25 -42.6875 C 77.582031 -38.351562 83.847656 -36.1875 92.046875 -36.1875 Z M 92.046875 -36.1875 " />
                    </g>
                </g>
            </g>
        </g>
        <g transform="matrix(1,0,0,1,463,95)">
            <g clip-path="url(#e38f07eeb6)">
                <g style="fill:#545454;fill-opacity:1;">
                    <g transform="translate(0.973785, 333.923076)">
                        <path style="stroke:none" d="M 44.96875 -128.59375 C 31.851562 -128.59375 22.835938 -131.050781 17.921875 -135.96875 C 13.003906 -140.882812 10.546875 -149.90625 10.546875 -163.03125 C 10.546875 -176.144531 13.003906 -185.160156 17.921875 -190.078125 C 22.835938 -194.992188 31.851562 -197.453125 44.96875 -197.453125 C 58.082031 -197.453125 67.097656 -194.992188 72.015625 -190.078125 C 76.941406 -185.160156 79.40625 -176.144531 79.40625 -163.03125 C 79.40625 -149.90625 76.941406 -140.882812 72.015625 -135.96875 C 67.097656 -131.050781 58.082031 -128.59375 44.96875 -128.59375 Z M 49.1875 40.75 C 41.6875 46.613281 35.125 49.546875 29.5 49.546875 C 23.882812 49.546875 20.492188 48.253906 19.328125 45.671875 C 18.148438 43.097656 18.789062 40.113281 21.25 36.71875 C 23.71875 33.320312 27.175781 28.695312 31.625 22.84375 C 36.070312 17.21875 39.113281 10.65625 40.75 3.15625 C 38.175781 2.6875 34.488281 1.632812 29.6875 0 C 24.882812 -1.632812 20.492188 -4.851562 16.515625 -9.65625 C 12.535156 -14.457031 10.546875 -21.546875 10.546875 -30.921875 C 10.546875 -44.035156 13.003906 -53.050781 17.921875 -57.96875 C 22.835938 -62.882812 31.851562 -65.34375 44.96875 -65.34375 C 58.082031 -65.34375 67.097656 -62.765625 72.015625 -57.609375 C 76.941406 -52.460938 79.40625 -42.863281 79.40625 -28.8125 C 79.40625 -13.582031 76.648438 -0.0546875 71.140625 11.765625 C 65.640625 23.597656 58.320312 33.257812 49.1875 40.75 Z M 49.1875 40.75 " />
                    </g>
                </g>
            </g>
        </g>
    </g>
</svg>