<svg xmlns="http://www.w3.org/2000/svg"
     xmlns:xlink="http://www.w3.org/1999/xlink"
     width="1070"
     zoomAndPan="magnify"
     viewBox="0 0 802.5 1022.250013"
     height="1363"
     preserveAspectRatio="xMidYMid meet"
     version="1.2">
    <defs>
        <clipPath id="f723b2ba53">
            <rect x="0" width="168" y="0" height="423" />
        </clipPath>
        <clipPath id="8ac8cbc2c3">
            <path d="M 0.578125 55 L 128 55 L 128 412 L 0.578125 412 Z M 0.578125 55 " />
        </clipPath>
        <clipPath id="1ed2fad866">
            <rect x="0" width="143" y="0" height="423" />
        </clipPath>
        <clipPath id="b86bfce5f1">
            <path d="M 0.0429688 598.757812 L 257.457031 598.757812 L 257.457031 793.671875 L 0.0429688 793.671875 Z M 0.0429688 598.757812 " />
        </clipPath>
        <clipPath id="03c8aa41cd">
            <path d="M 23.742188 594.535156 L 234 594.535156 L 234 727.75 L 23.742188 727.75 Z M 23.742188 594.535156 " />
        </clipPath>
        <clipPath id="c6c17e39a2">
            <path d="M 272 598.757812 L 529.382812 598.757812 L 529.382812 793.671875 L 272 793.671875 Z M 272 598.757812 " />
        </clipPath>
        <clipPath id="9afa75180b">
            <path d="M 295.667969 594.535156 L 506 594.535156 L 506 727.75 L 295.667969 727.75 Z M 295.667969 594.535156 " />
        </clipPath>
        <clipPath id="0ce78a4e60">
            <path d="M 544 598.757812 L 801.308594 598.757812 L 801.308594 793.671875 L 544 793.671875 Z M 544 598.757812 " />
        </clipPath>
        <clipPath id="cd2be900f8">
            <path d="M 567.59375 594.535156 L 777.945312 594.535156 L 777.945312 727.75 L 567.59375 727.75 Z M 567.59375 594.535156 " />
        </clipPath>
        <clipPath id="6acb217255">
            <path d="M 0.0429688 826.148438 L 257.457031 826.148438 L 257.457031 1021.0625 L 0.0429688 1021.0625 Z M 0.0429688 826.148438 " />
        </clipPath>
        <clipPath id="764c3853ad">
            <path d="M 23.742188 821.929688 L 234 821.929688 L 234 955.144531 L 23.742188 955.144531 Z M 23.742188 821.929688 " />
        </clipPath>
        <clipPath id="e04fd9d455">
            <path d="M 272 826.148438 L 529.382812 826.148438 L 529.382812 1021.0625 L 272 1021.0625 Z M 272 826.148438 " />
        </clipPath>
        <clipPath id="07f530a9e2">
            <path d="M 295.667969 821.929688 L 506 821.929688 L 506 955.144531 L 295.667969 955.144531 Z M 295.667969 821.929688 " />
        </clipPath>
        <clipPath id="aed7c78291">
            <path d="M 544 826.148438 L 801.308594 826.148438 L 801.308594 1021.0625 L 544 1021.0625 Z M 544 826.148438 " />
        </clipPath>
        <clipPath id="59782cbbf3">
            <path d="M 567.59375 821.929688 L 777.945312 821.929688 L 777.945312 955.144531 L 567.59375 955.144531 Z M 567.59375 821.929688 " />
        </clipPath>
    </defs>
    <g id="32a7ade96a">
        <g transform="matrix(1,0,0,1,254,95)">
            <g clip-path="url(#f723b2ba53)">
                <g style="fill:#545454;fill-opacity:1;">
                    <g transform="translate(0.474616, 333.816886)">
                        <path style="stroke:none" d="M 160.1875 -224.484375 C 159.488281 -216.984375 156.503906 -212.644531 151.234375 -211.46875 C 145.960938 -210.300781 138.175781 -210.070312 127.875 -210.78125 C 119.4375 -211.25 112.523438 -209.082031 107.140625 -204.28125 C 101.753906 -199.476562 99.0625 -191.804688 99.0625 -181.265625 L 99.0625 -165.8125 L 124.703125 -165.8125 C 144.617188 -165.8125 154.578125 -158.4375 154.578125 -143.6875 C 154.578125 -128.695312 145.320312 -121.203125 126.8125 -121.203125 L 99.0625 -120.84375 C 99.0625 -118.03125 99.117188 -115.21875 99.234375 -112.40625 C 99.359375 -109.601562 99.421875 -106.796875 99.421875 -103.984375 C 99.421875 -91.804688 99.476562 -79.507812 99.59375 -67.09375 C 99.707031 -54.6875 99.765625 -42.273438 99.765625 -29.859375 C 99.765625 -9.953125 90.398438 0 71.671875 0 C 52.691406 0 43.203125 -9.953125 43.203125 -29.859375 C 43.203125 -42.273438 43.144531 -54.6875 43.03125 -67.09375 C 42.914062 -79.507812 42.859375 -91.804688 42.859375 -103.984375 L 42.859375 -120.5 L 40.046875 -120.5 C 20.140625 -120.5 10.1875 -128.109375 10.1875 -143.328125 C 10.1875 -158.316406 15.691406 -165.8125 26.703125 -165.8125 L 42.859375 -165.8125 C 42.617188 -169.09375 42.5 -172.367188 42.5 -175.640625 C 42.5 -178.921875 42.5 -182.085938 42.5 -185.140625 C 42.269531 -202.929688 45.316406 -217.097656 51.640625 -227.640625 C 57.960938 -238.179688 67.035156 -245.789062 78.859375 -250.46875 C 90.691406 -255.15625 104.570312 -257.5 120.5 -257.5 C 123.539062 -257.5 126.46875 -257.378906 129.28125 -257.140625 C 132.09375 -256.910156 134.785156 -256.5625 137.359375 -256.09375 C 146.253906 -254.6875 152.457031 -251.054688 155.96875 -245.203125 C 159.488281 -239.347656 160.894531 -232.441406 160.1875 -224.484375 Z M 160.1875 -224.484375 " />
                    </g>
                </g>
            </g>
        </g>
        <g transform="matrix(1,0,0,1,417,95)">
            <g clip-path="url(#1ed2fad866)">
                <g clip-rule="nonzero" clip-path="url(#8ac8cbc2c3)">
                    <g style="fill:#545454;fill-opacity:1;">
                        <g transform="translate(40.852839, 333.816886)">
                            <path style="stroke:none" d="M 49.890625 -218.859375 C 37.003906 -218.859375 27.691406 -221.195312 21.953125 -225.875 C 16.210938 -230.5625 13.34375 -238.175781 13.34375 -248.71875 C 13.34375 -259.257812 16.210938 -266.867188 21.953125 -271.546875 C 27.691406 -276.234375 37.003906 -278.578125 49.890625 -278.578125 C 63.003906 -278.578125 72.367188 -276.234375 77.984375 -271.546875 C 83.609375 -266.867188 86.421875 -259.257812 86.421875 -248.71875 C 86.421875 -238.175781 83.609375 -230.5625 77.984375 -225.875 C 72.367188 -221.195312 63.003906 -218.859375 49.890625 -218.859375 Z M 0.703125 77.28125 C -2.335938 77.28125 -5.265625 77.160156 -8.078125 76.921875 C -10.890625 76.691406 -13.582031 76.34375 -16.15625 75.875 C -24.820312 74.46875 -30.96875 70.835938 -34.59375 64.984375 C -38.226562 59.128906 -39.695312 52.222656 -39 44.265625 C -38.289062 36.765625 -35.242188 32.429688 -29.859375 31.265625 C -24.472656 30.097656 -16.742188 29.863281 -6.671875 30.5625 C 1.753906 30.800781 8.660156 28.578125 14.046875 23.890625 C 19.429688 19.203125 22.125 11.585938 22.125 1.046875 C 22.125 -9.953125 22.066406 -22.890625 21.953125 -37.765625 C 21.835938 -52.640625 21.78125 -70.144531 21.78125 -90.28125 C 21.78125 -102.695312 21.71875 -115.109375 21.59375 -127.515625 C 21.476562 -139.929688 21.421875 -152.226562 21.421875 -164.40625 C 21.421875 -184.3125 30.910156 -194.265625 49.890625 -194.265625 C 68.617188 -194.265625 77.984375 -184.3125 77.984375 -164.40625 C 77.984375 -152.226562 78.039062 -139.929688 78.15625 -127.515625 C 78.28125 -115.109375 78.34375 -102.695312 78.34375 -90.28125 C 78.34375 -69.4375 78.34375 -51.285156 78.34375 -35.828125 C 78.34375 -20.367188 78.457031 -6.785156 78.6875 4.921875 C 78.925781 22.484375 75.882812 36.59375 69.5625 47.25 C 63.238281 57.90625 54.21875 65.570312 42.5 70.25 C 30.789062 74.9375 16.859375 77.28125 0.703125 77.28125 Z M 0.703125 77.28125 " />
                        </g>
                    </g>
                </g>
            </g>
        </g>
        <path style=" stroke:none;fill-rule:nonzero;fill:#a6a6a6;fill-opacity:0;" d="M 249.914062 640.640625 C 249.824219 638.351562 249.140625 636.210938 248 634.335938 L 247.988281 634.320312 C 247.746094 633.921875 247.480469 633.539062 247.203125 633.171875 L 225.289062 601.226562 L 32.3125 601.226562 L 10.394531 633.171875 C 10.117188 633.546875 9.847656 633.921875 9.609375 634.320312 L 9.597656 634.335938 C 8.457031 636.210938 7.773438 638.351562 7.683594 640.640625 L 2.507812 776.660156 C 2.203125 784.75 8.523438 791.34375 16.621094 791.34375 L 240.964844 791.34375 C 249.070312 791.34375 255.386719 784.75 255.078125 776.660156 L 249.90625 640.640625 Z M 249.914062 640.640625 " />
        <g clip-rule="nonzero" clip-path="url(#b86bfce5f1)">
            <path style=" stroke:none;fill-rule:nonzero;fill:#545454;fill-opacity:1;" d="M 240.96875 793.632812 L 16.628906 793.632812 C 12.085938 793.632812 7.882812 791.859375 4.777344 788.632812 C 1.671875 785.402344 0.0546875 781.125 0.230469 776.578125 L 5.398438 640.550781 C 5.5 637.960938 6.273438 635.402344 7.644531 633.148438 C 7.65625 633.125 7.671875 633.101562 7.683594 633.078125 C 7.941406 632.664062 8.21875 632.253906 8.539062 631.832031 L 30.425781 599.933594 C 30.851562 599.308594 31.554688 598.941406 32.3125 598.941406 L 225.289062 598.941406 C 226.039062 598.941406 226.742188 599.316406 227.171875 599.933594 L 249.054688 631.832031 C 249.367188 632.253906 249.65625 632.671875 249.914062 633.089844 C 249.925781 633.113281 249.941406 633.132812 249.949219 633.148438 C 251.320312 635.402344 252.09375 637.960938 252.191406 640.550781 L 257.363281 776.574219 C 257.535156 781.121094 255.917969 785.402344 252.816406 788.628906 C 249.714844 791.851562 245.503906 793.628906 240.964844 793.628906 Z M 11.523438 635.566406 C 10.574219 637.140625 10.035156 638.921875 9.964844 640.722656 L 4.796875 776.742188 C 4.667969 780.035156 5.832031 783.128906 8.070312 785.457031 C 10.300781 787.777344 13.34375 789.058594 16.628906 789.058594 L 240.96875 789.058594 C 244.253906 789.058594 247.296875 787.777344 249.527344 785.457031 C 251.765625 783.128906 252.929688 780.035156 252.804688 776.742188 L 247.632812 640.722656 C 247.5625 638.921875 247.023438 637.136719 246.074219 635.558594 C 246.0625 635.539062 246.050781 635.523438 246.046875 635.511719 C 245.855469 635.199219 245.640625 634.882812 245.390625 634.550781 C 245.367188 634.523438 245.347656 634.492188 245.324219 634.464844 L 224.089844 603.503906 L 33.515625 603.503906 L 12.277344 634.464844 C 12.253906 634.492188 12.238281 634.523438 12.214844 634.550781 C 11.964844 634.882812 11.75 635.199219 11.558594 635.507812 C 11.546875 635.523438 11.535156 635.539062 11.523438 635.566406 Z M 11.523438 635.566406 " />
        </g>
        <path style=" stroke:none;fill-rule:nonzero;fill:Tombol#e7e7e7;fill-opacity:0;" d="M 220.484375 725.460938 L 37.113281 725.460938 C 30.753906 725.460938 25.796875 720.285156 26.035156 713.933594 L 30.097656 607.195312 C 30.308594 601.464844 35.351562 596.839844 41.347656 596.839844 L 216.246094 596.839844 C 222.246094 596.839844 227.28125 601.464844 227.496094 607.195312 L 231.554688 713.933594 C 231.800781 720.285156 226.839844 725.460938 220.476562 725.460938 Z M 220.484375 725.460938 " />
        <g clip-rule="nonzero" clip-path="url(#03c8aa41cd)">
            <path style=" stroke:none;fill-rule:nonzero;fill:#545454;fill-opacity:1;" d="M 220.484375 727.742188 L 37.113281 727.742188 C 33.414062 727.742188 29.992188 726.292969 27.460938 723.667969 C 24.933594 721.035156 23.617188 717.550781 23.757812 713.847656 L 27.816406 607.109375 C 28.078125 600.1875 34.148438 594.554688 41.351562 594.554688 L 216.25 594.554688 C 223.449219 594.554688 229.527344 600.1875 229.789062 607.109375 L 233.847656 713.847656 C 233.984375 717.550781 232.671875 721.035156 230.144531 723.667969 C 227.613281 726.292969 224.1875 727.742188 220.488281 727.742188 Z M 41.351562 599.121094 C 36.578125 599.121094 32.550781 602.785156 32.382812 607.277344 L 28.320312 714.015625 C 28.230469 716.46875 29.09375 718.765625 30.753906 720.496094 C 32.410156 722.21875 34.671875 723.167969 37.113281 723.167969 L 220.484375 723.167969 C 222.925781 723.167969 225.1875 722.21875 226.847656 720.496094 C 228.507812 718.765625 229.367188 716.46875 229.277344 714.015625 L 225.21875 607.277344 C 225.046875 602.777344 221.019531 599.121094 216.246094 599.121094 Z M 41.351562 599.121094 " />
        </g>
        <path style=" stroke:none;fill-rule:nonzero;fill:#545454;fill-opacity:1;" d="M 6.929688 789.78125 C 6.683594 789.78125 6.433594 789.738281 6.183594 789.65625 C 4.992188 789.25 4.359375 787.945312 4.765625 786.753906 L 27.148438 721.496094 C 27.554688 720.304688 28.855469 719.667969 30.050781 720.074219 C 31.242188 720.484375 31.875 721.789062 31.46875 722.980469 L 9.085938 788.238281 C 8.761719 789.1875 7.878906 789.78125 6.929688 789.78125 Z M 6.929688 789.78125 " />
        <path style=" stroke:none;fill-rule:nonzero;fill:#545454;fill-opacity:1;" d="M 250.667969 789.78125 C 249.722656 789.78125 248.835938 789.1875 248.511719 788.238281 L 226.128906 722.980469 C 225.722656 721.789062 226.355469 720.488281 227.550781 720.074219 C 228.742188 719.667969 230.039062 720.304688 230.449219 721.496094 L 252.832031 786.753906 C 253.238281 787.945312 252.605469 789.246094 251.414062 789.65625 C 251.167969 789.738281 250.917969 789.78125 250.667969 789.78125 Z M 250.667969 789.78125 " />
        <path style=" stroke:none;fill-rule:nonzero;fill:#a6a6a6;fill-opacity:0;" d="M 521.839844 640.640625 C 521.75 638.351562 521.066406 636.210938 519.925781 634.335938 L 519.914062 634.320312 C 519.671875 633.921875 519.410156 633.539062 519.128906 633.171875 L 497.214844 601.226562 L 304.238281 601.226562 L 282.320312 633.171875 C 282.042969 633.546875 281.773438 633.921875 281.535156 634.320312 L 281.523438 634.335938 C 280.386719 636.210938 279.699219 638.351562 279.609375 640.640625 L 274.4375 776.660156 C 274.128906 784.75 280.449219 791.34375 288.546875 791.34375 L 512.890625 791.34375 C 520.996094 791.34375 527.3125 784.75 527.003906 776.660156 L 521.832031 640.640625 Z M 521.839844 640.640625 " />
        <g clip-rule="nonzero" clip-path="url(#c6c17e39a2)">
            <path style=" stroke:none;fill-rule:nonzero;fill:#545454;fill-opacity:1;" d="M 512.898438 793.632812 L 288.554688 793.632812 C 284.011719 793.632812 279.808594 791.859375 276.703125 788.632812 C 273.597656 785.402344 271.980469 781.125 272.15625 776.578125 L 277.324219 640.550781 C 277.425781 637.960938 278.199219 635.402344 279.570312 633.148438 C 279.582031 633.125 279.601562 633.101562 279.609375 633.078125 C 279.867188 632.664062 280.144531 632.253906 280.464844 631.832031 L 302.351562 599.933594 C 302.777344 599.308594 303.480469 598.941406 304.238281 598.941406 L 497.214844 598.941406 C 497.964844 598.941406 498.667969 599.316406 499.097656 599.933594 L 520.980469 631.832031 C 521.292969 632.253906 521.582031 632.671875 521.839844 633.089844 C 521.851562 633.113281 521.867188 633.132812 521.875 633.148438 C 523.246094 635.402344 524.019531 637.960938 524.121094 640.550781 L 529.289062 776.574219 C 529.460938 781.121094 527.847656 785.402344 524.742188 788.628906 C 521.640625 791.851562 517.429688 793.628906 512.890625 793.628906 Z M 283.449219 635.566406 C 282.5 637.140625 281.960938 638.921875 281.890625 640.722656 L 276.722656 776.742188 C 276.59375 780.035156 277.757812 783.128906 279.996094 785.457031 C 282.226562 787.777344 285.269531 789.058594 288.554688 789.058594 L 512.898438 789.058594 C 516.179688 789.058594 519.222656 787.777344 521.457031 785.457031 C 523.695312 783.128906 524.859375 780.035156 524.730469 776.742188 L 519.558594 640.722656 C 519.488281 638.921875 518.949219 637.136719 518 635.558594 C 517.988281 635.539062 517.976562 635.523438 517.972656 635.511719 C 517.78125 635.199219 517.566406 634.882812 517.316406 634.550781 C 517.292969 634.523438 517.273438 634.492188 517.25 634.464844 L 496.015625 603.503906 L 305.441406 603.503906 L 284.207031 634.464844 C 284.179688 634.492188 284.164062 634.523438 284.140625 634.550781 C 283.890625 634.882812 283.675781 635.199219 283.484375 635.507812 C 283.472656 635.523438 283.460938 635.539062 283.449219 635.566406 Z M 283.449219 635.566406 " />
        </g>
        <path style=" stroke:none;fill-rule:nonzero;fill:Tombol#e7e7e7;fill-opacity:0;" d="M 492.410156 725.460938 L 309.039062 725.460938 C 302.679688 725.460938 297.722656 720.285156 297.960938 713.933594 L 302.023438 607.195312 C 302.238281 601.464844 307.277344 596.839844 313.273438 596.839844 L 488.171875 596.839844 C 494.171875 596.839844 499.207031 601.464844 499.421875 607.195312 L 503.480469 713.933594 C 503.726562 720.285156 498.765625 725.460938 492.40625 725.460938 Z M 492.410156 725.460938 " />
        <g clip-rule="nonzero" clip-path="url(#9afa75180b)">
            <path style=" stroke:none;fill-rule:nonzero;fill:#545454;fill-opacity:1;" d="M 492.410156 727.742188 L 309.039062 727.742188 C 305.34375 727.742188 301.917969 726.292969 299.386719 723.667969 C 296.859375 721.035156 295.542969 717.550781 295.683594 713.847656 L 299.742188 607.109375 C 300.003906 600.1875 306.074219 594.554688 313.277344 594.554688 L 488.175781 594.554688 C 495.375 594.554688 501.453125 600.1875 501.714844 607.109375 L 505.773438 713.847656 C 505.914062 717.550781 504.597656 721.035156 502.070312 723.667969 C 499.539062 726.292969 496.113281 727.742188 492.414062 727.742188 Z M 313.277344 599.121094 C 308.503906 599.121094 304.476562 602.785156 304.308594 607.277344 L 300.246094 714.015625 C 300.15625 716.46875 301.023438 718.765625 302.679688 720.496094 C 304.335938 722.21875 306.597656 723.167969 309.039062 723.167969 L 492.410156 723.167969 C 494.851562 723.167969 497.113281 722.21875 498.773438 720.496094 C 500.433594 718.765625 501.296875 716.46875 501.203125 714.015625 L 497.144531 607.277344 C 496.976562 602.777344 492.945312 599.121094 488.171875 599.121094 Z M 313.277344 599.121094 " />
        </g>
        <path style=" stroke:none;fill-rule:nonzero;fill:#545454;fill-opacity:1;" d="M 278.855469 789.78125 C 278.613281 789.78125 278.359375 789.738281 278.113281 789.65625 C 276.917969 789.25 276.285156 787.945312 276.691406 786.753906 L 299.074219 721.496094 C 299.480469 720.304688 300.785156 719.667969 301.976562 720.074219 C 303.167969 720.484375 303.800781 721.789062 303.394531 722.980469 L 281.011719 788.238281 C 280.6875 789.1875 279.804688 789.78125 278.855469 789.78125 Z M 278.855469 789.78125 " />
        <path style=" stroke:none;fill-rule:nonzero;fill:#545454;fill-opacity:1;" d="M 522.59375 789.78125 C 521.648438 789.78125 520.765625 789.1875 520.4375 788.238281 L 498.054688 722.980469 C 497.648438 721.789062 498.28125 720.488281 499.476562 720.074219 C 500.667969 719.667969 501.964844 720.304688 502.378906 721.496094 L 524.757812 786.753906 C 525.164062 787.945312 524.53125 789.246094 523.339844 789.65625 C 523.097656 789.738281 522.84375 789.78125 522.59375 789.78125 Z M 522.59375 789.78125 " />
        <path style=" stroke:none;fill-rule:nonzero;fill:#a6a6a6;fill-opacity:0;" d="M 793.765625 640.640625 C 793.679688 638.351562 792.992188 636.210938 791.851562 634.335938 L 791.839844 634.320312 C 791.597656 633.921875 791.335938 633.539062 791.054688 633.171875 L 769.140625 601.226562 L 576.164062 601.226562 L 554.246094 633.171875 C 553.96875 633.546875 553.699219 633.921875 553.460938 634.320312 L 553.449219 634.335938 C 552.3125 636.210938 551.625 638.351562 551.539062 640.640625 L 546.363281 776.660156 C 546.054688 784.75 552.375 791.34375 560.476562 791.34375 L 784.816406 791.34375 C 792.921875 791.34375 799.238281 784.75 798.929688 776.660156 L 793.757812 640.640625 Z M 793.765625 640.640625 " />
        <g clip-rule="nonzero" clip-path="url(#0ce78a4e60)">
            <path style=" stroke:none;fill-rule:nonzero;fill:#545454;fill-opacity:1;" d="M 784.824219 793.632812 L 560.480469 793.632812 C 555.9375 793.632812 551.734375 791.859375 548.628906 788.632812 C 545.523438 785.402344 543.910156 781.125 544.082031 776.578125 L 549.253906 640.550781 C 549.351562 637.960938 550.125 635.402344 551.496094 633.148438 C 551.507812 633.125 551.527344 633.101562 551.539062 633.078125 C 551.792969 632.664062 552.070312 632.253906 552.390625 631.832031 L 574.277344 599.933594 C 574.703125 599.308594 575.40625 598.941406 576.164062 598.941406 L 769.140625 598.941406 C 769.890625 598.941406 770.59375 599.316406 771.023438 599.933594 L 792.90625 631.832031 C 793.21875 632.253906 793.507812 632.671875 793.765625 633.089844 C 793.777344 633.113281 793.792969 633.132812 793.800781 633.148438 C 795.171875 635.402344 795.945312 637.960938 796.046875 640.550781 L 801.214844 776.574219 C 801.386719 781.121094 799.773438 785.402344 796.667969 788.628906 C 793.566406 791.851562 789.359375 793.628906 784.816406 793.628906 Z M 555.375 635.566406 C 554.429688 637.140625 553.886719 638.921875 553.816406 640.722656 L 548.648438 776.742188 C 548.519531 780.035156 549.683594 783.128906 551.921875 785.457031 C 554.15625 787.777344 557.195312 789.058594 560.480469 789.058594 L 784.824219 789.058594 C 788.105469 789.058594 791.148438 787.777344 793.382812 785.457031 C 795.621094 783.128906 796.785156 780.035156 796.65625 776.742188 L 791.488281 640.722656 C 791.414062 638.921875 790.875 637.136719 789.925781 635.558594 C 789.917969 635.539062 789.90625 635.523438 789.898438 635.511719 C 789.707031 635.199219 789.492188 634.882812 789.242188 634.550781 C 789.21875 634.523438 789.199219 634.492188 789.175781 634.464844 L 767.941406 603.503906 L 577.367188 603.503906 L 556.132812 634.464844 C 556.109375 634.492188 556.089844 634.523438 556.066406 634.550781 C 555.816406 634.882812 555.601562 635.199219 555.410156 635.507812 C 555.398438 635.523438 555.386719 635.539062 555.375 635.566406 Z M 555.375 635.566406 " />
        </g>
        <path style=" stroke:none;fill-rule:nonzero;fill:Tombol#e7e7e7;fill-opacity:0;" d="M 764.335938 725.460938 L 580.964844 725.460938 C 574.605469 725.460938 569.652344 720.285156 569.890625 713.933594 L 573.949219 607.195312 C 574.164062 601.464844 579.203125 596.839844 585.199219 596.839844 L 760.097656 596.839844 C 766.097656 596.839844 771.132812 601.464844 771.347656 607.195312 L 775.40625 713.933594 C 775.652344 720.285156 770.691406 725.460938 764.332031 725.460938 Z M 764.335938 725.460938 " />
        <g clip-rule="nonzero" clip-path="url(#cd2be900f8)">
            <path style=" stroke:none;fill-rule:nonzero;fill:#545454;fill-opacity:1;" d="M 764.335938 727.742188 L 580.964844 727.742188 C 577.269531 727.742188 573.84375 726.292969 571.3125 723.667969 C 568.785156 721.035156 567.46875 717.550781 567.609375 713.847656 L 571.667969 607.109375 C 571.929688 600.1875 578 594.554688 585.207031 594.554688 L 760.105469 594.554688 C 767.300781 594.554688 773.378906 600.1875 773.640625 607.109375 L 777.699219 713.847656 C 777.839844 717.550781 776.523438 721.035156 773.996094 723.667969 C 771.464844 726.292969 768.039062 727.742188 764.34375 727.742188 Z M 585.207031 599.121094 C 580.429688 599.121094 576.402344 602.785156 576.234375 607.277344 L 572.175781 714.015625 C 572.082031 716.46875 572.949219 718.765625 574.605469 720.496094 C 576.261719 722.21875 578.523438 723.167969 580.964844 723.167969 L 764.335938 723.167969 C 766.777344 723.167969 769.042969 722.21875 770.699219 720.496094 C 772.363281 718.765625 773.222656 716.46875 773.128906 714.015625 L 769.070312 607.277344 C 768.902344 602.777344 764.871094 599.121094 760.097656 599.121094 Z M 585.207031 599.121094 " />
        </g>
        <path style=" stroke:none;fill-rule:nonzero;fill:#545454;fill-opacity:1;" d="M 550.78125 789.78125 C 550.539062 789.78125 550.289062 789.738281 550.039062 789.65625 C 548.84375 789.25 548.210938 787.945312 548.617188 786.753906 L 571 721.496094 C 571.40625 720.304688 572.710938 719.667969 573.902344 720.074219 C 575.09375 720.484375 575.726562 721.789062 575.320312 722.980469 L 552.9375 788.238281 C 552.613281 789.1875 551.730469 789.78125 550.78125 789.78125 Z M 550.78125 789.78125 " />
        <path style=" stroke:none;fill-rule:nonzero;fill:#545454;fill-opacity:1;" d="M 794.523438 789.78125 C 793.574219 789.78125 792.691406 789.1875 792.363281 788.238281 L 769.984375 722.980469 C 769.574219 721.789062 770.210938 720.488281 771.402344 720.074219 C 772.59375 719.667969 773.890625 720.304688 774.304688 721.496094 L 796.683594 786.753906 C 797.089844 787.945312 796.457031 789.246094 795.265625 789.65625 C 795.023438 789.738281 794.769531 789.78125 794.523438 789.78125 Z M 794.523438 789.78125 " />
        <path style=" stroke:none;fill-rule:nonzero;fill:#a6a6a6;fill-opacity:0;" d="M 249.914062 868.03125 C 249.824219 865.746094 249.140625 863.601562 248 861.726562 L 247.988281 861.710938 C 247.746094 861.316406 247.480469 860.929688 247.203125 860.566406 L 225.289062 828.617188 L 32.3125 828.617188 L 10.394531 860.566406 C 10.117188 860.9375 9.847656 861.316406 9.609375 861.710938 L 9.597656 861.726562 C 8.457031 863.601562 7.773438 865.746094 7.683594 868.03125 L 2.507812 1004.054688 C 2.203125 1012.144531 8.523438 1018.738281 16.621094 1018.738281 L 240.964844 1018.738281 C 249.070312 1018.738281 255.386719 1012.144531 255.078125 1004.054688 L 249.90625 868.03125 Z M 249.914062 868.03125 " />
        <g clip-rule="nonzero" clip-path="url(#6acb217255)">
            <path style=" stroke:none;fill-rule:nonzero;fill:#545454;fill-opacity:1;" d="M 240.96875 1021.027344 L 16.628906 1021.027344 C 12.085938 1021.027344 7.882812 1019.25 4.777344 1016.023438 C 1.671875 1012.792969 0.0546875 1008.515625 0.230469 1003.972656 L 5.398438 867.945312 C 5.5 865.355469 6.273438 862.792969 7.644531 860.539062 C 7.65625 860.519531 7.671875 860.496094 7.683594 860.472656 C 7.941406 860.058594 8.21875 859.644531 8.539062 859.226562 L 30.425781 827.324219 C 30.851562 826.699219 31.554688 826.335938 32.3125 826.335938 L 225.289062 826.335938 C 226.039062 826.335938 226.742188 826.707031 227.171875 827.324219 L 249.054688 859.226562 C 249.367188 859.644531 249.65625 860.0625 249.914062 860.484375 C 249.925781 860.507812 249.941406 860.523438 249.949219 860.539062 C 251.320312 862.792969 252.09375 865.355469 252.191406 867.945312 L 257.363281 1003.964844 C 257.535156 1008.511719 255.917969 1012.792969 252.816406 1016.019531 C 249.714844 1019.246094 245.503906 1021.019531 240.964844 1021.019531 Z M 11.523438 862.957031 C 10.574219 864.535156 10.035156 866.3125 9.964844 868.113281 L 4.796875 1004.136719 C 4.667969 1007.429688 5.832031 1010.519531 8.070312 1012.847656 C 10.300781 1015.167969 13.34375 1016.449219 16.628906 1016.449219 L 240.96875 1016.449219 C 244.253906 1016.449219 247.296875 1015.167969 249.527344 1012.847656 C 251.765625 1010.519531 252.929688 1007.429688 252.804688 1004.136719 L 247.632812 868.113281 C 247.5625 866.3125 247.023438 864.527344 246.074219 862.949219 C 246.0625 862.933594 246.050781 862.914062 246.046875 862.902344 C 245.855469 862.589844 245.640625 862.273438 245.390625 861.945312 C 245.367188 861.914062 245.347656 861.886719 245.324219 861.855469 L 224.089844 830.898438 L 33.515625 830.898438 L 12.277344 861.855469 C 12.253906 861.886719 12.238281 861.914062 12.214844 861.945312 C 11.964844 862.273438 11.75 862.589844 11.558594 862.898438 C 11.546875 862.914062 11.535156 862.933594 11.523438 862.957031 Z M 11.523438 862.957031 " />
        </g>
        <path style=" stroke:none;fill-rule:nonzero;fill:Tombol#e7e7e7;fill-opacity:0;" d="M 220.484375 952.851562 L 37.113281 952.851562 C 30.753906 952.851562 25.796875 947.675781 26.035156 941.328125 L 30.097656 834.589844 C 30.308594 828.855469 35.351562 824.234375 41.347656 824.234375 L 216.246094 824.234375 C 222.246094 824.234375 227.28125 828.855469 227.496094 834.589844 L 231.554688 941.328125 C 231.800781 947.675781 226.839844 952.851562 220.476562 952.851562 Z M 220.484375 952.851562 " />
        <g clip-rule="nonzero" clip-path="url(#764c3853ad)">
            <path style=" stroke:none;fill-rule:nonzero;fill:#545454;fill-opacity:1;" d="M 220.484375 955.132812 L 37.113281 955.132812 C 33.414062 955.132812 29.992188 953.683594 27.460938 951.058594 C 24.933594 948.429688 23.617188 944.941406 23.757812 941.238281 L 27.816406 834.5 C 28.078125 827.582031 34.148438 821.945312 41.351562 821.945312 L 216.25 821.945312 C 223.449219 821.945312 229.527344 827.582031 229.789062 834.5 L 233.847656 941.238281 C 233.984375 944.941406 232.671875 948.429688 230.144531 951.058594 C 227.613281 953.683594 224.1875 955.132812 220.488281 955.132812 Z M 41.351562 826.515625 C 36.578125 826.515625 32.550781 830.175781 32.382812 834.667969 L 28.320312 941.410156 C 28.230469 943.859375 29.09375 946.160156 30.753906 947.886719 C 32.410156 949.609375 34.671875 950.558594 37.113281 950.558594 L 220.484375 950.558594 C 222.925781 950.558594 225.1875 949.609375 226.847656 947.886719 C 228.507812 946.160156 229.367188 943.859375 229.277344 941.410156 L 225.21875 834.667969 C 225.046875 830.171875 221.019531 826.515625 216.246094 826.515625 Z M 41.351562 826.515625 " />
        </g>
        <path style=" stroke:none;fill-rule:nonzero;fill:#545454;fill-opacity:1;" d="M 6.929688 1017.171875 C 6.683594 1017.171875 6.433594 1017.132812 6.183594 1017.050781 C 4.992188 1016.644531 4.359375 1015.339844 4.765625 1014.144531 L 27.148438 948.886719 C 27.554688 947.695312 28.855469 947.0625 30.050781 947.46875 C 31.242188 947.875 31.875 949.179688 31.46875 950.371094 L 9.085938 1015.628906 C 8.761719 1016.578125 7.878906 1017.171875 6.929688 1017.171875 Z M 6.929688 1017.171875 " />
        <path style=" stroke:none;fill-rule:nonzero;fill:#545454;fill-opacity:1;" d="M 250.667969 1017.171875 C 249.722656 1017.171875 248.835938 1016.578125 248.511719 1015.628906 L 226.128906 950.371094 C 225.722656 949.179688 226.355469 947.882812 227.550781 947.46875 C 228.742188 947.0625 230.039062 947.695312 230.449219 948.886719 L 252.832031 1014.144531 C 253.238281 1015.339844 252.605469 1016.636719 251.414062 1017.050781 C 251.167969 1017.132812 250.917969 1017.171875 250.667969 1017.171875 Z M 250.667969 1017.171875 " />
        <path style=" stroke:none;fill-rule:nonzero;fill:#a6a6a6;fill-opacity:0;" d="M 521.839844 868.03125 C 521.75 865.746094 521.066406 863.601562 519.925781 861.726562 L 519.914062 861.710938 C 519.671875 861.316406 519.410156 860.929688 519.128906 860.566406 L 497.214844 828.617188 L 304.238281 828.617188 L 282.320312 860.566406 C 282.042969 860.9375 281.773438 861.316406 281.535156 861.710938 L 281.523438 861.726562 C 280.386719 863.601562 279.699219 865.746094 279.609375 868.03125 L 274.4375 1004.054688 C 274.128906 1012.144531 280.449219 1018.738281 288.546875 1018.738281 L 512.890625 1018.738281 C 520.996094 1018.738281 527.3125 1012.144531 527.003906 1004.054688 L 521.832031 868.03125 Z M 521.839844 868.03125 " />
        <g clip-rule="nonzero" clip-path="url(#e04fd9d455)">
            <path style=" stroke:none;fill-rule:nonzero;fill:#545454;fill-opacity:1;" d="M 512.898438 1021.027344 L 288.554688 1021.027344 C 284.011719 1021.027344 279.808594 1019.25 276.703125 1016.023438 C 273.597656 1012.792969 271.980469 1008.515625 272.15625 1003.972656 L 277.324219 867.945312 C 277.425781 865.355469 278.199219 862.792969 279.570312 860.539062 C 279.582031 860.519531 279.601562 860.496094 279.609375 860.472656 C 279.867188 860.058594 280.144531 859.644531 280.464844 859.226562 L 302.351562 827.324219 C 302.777344 826.699219 303.480469 826.335938 304.238281 826.335938 L 497.214844 826.335938 C 497.964844 826.335938 498.667969 826.707031 499.097656 827.324219 L 520.980469 859.226562 C 521.292969 859.644531 521.582031 860.0625 521.839844 860.484375 C 521.851562 860.507812 521.867188 860.523438 521.875 860.539062 C 523.246094 862.792969 524.019531 865.355469 524.121094 867.945312 L 529.289062 1003.964844 C 529.460938 1008.511719 527.847656 1012.792969 524.742188 1016.019531 C 521.640625 1019.246094 517.429688 1021.019531 512.890625 1021.019531 Z M 283.449219 862.957031 C 282.5 864.535156 281.960938 866.3125 281.890625 868.113281 L 276.722656 1004.136719 C 276.59375 1007.429688 277.757812 1010.519531 279.996094 1012.847656 C 282.226562 1015.167969 285.269531 1016.449219 288.554688 1016.449219 L 512.898438 1016.449219 C 516.179688 1016.449219 519.222656 1015.167969 521.457031 1012.847656 C 523.695312 1010.519531 524.859375 1007.429688 524.730469 1004.136719 L 519.558594 868.113281 C 519.488281 866.3125 518.949219 864.527344 518 862.949219 C 517.988281 862.933594 517.976562 862.914062 517.972656 862.902344 C 517.78125 862.589844 517.566406 862.273438 517.316406 861.945312 C 517.292969 861.914062 517.273438 861.886719 517.25 861.855469 L 496.015625 830.898438 L 305.441406 830.898438 L 284.207031 861.855469 C 284.179688 861.886719 284.164062 861.914062 284.140625 861.945312 C 283.890625 862.273438 283.675781 862.589844 283.484375 862.898438 C 283.472656 862.914062 283.460938 862.933594 283.449219 862.957031 Z M 283.449219 862.957031 " />
        </g>
        <path style=" stroke:none;fill-rule:nonzero;fill:Tombol#e7e7e7;fill-opacity:0;" d="M 492.410156 952.851562 L 309.039062 952.851562 C 302.679688 952.851562 297.722656 947.675781 297.960938 941.328125 L 302.023438 834.589844 C 302.238281 828.855469 307.277344 824.234375 313.273438 824.234375 L 488.171875 824.234375 C 494.171875 824.234375 499.207031 828.855469 499.421875 834.589844 L 503.480469 941.328125 C 503.726562 947.675781 498.765625 952.851562 492.40625 952.851562 Z M 492.410156 952.851562 " />
        <g clip-rule="nonzero" clip-path="url(#07f530a9e2)">
            <path style=" stroke:none;fill-rule:nonzero;fill:#545454;fill-opacity:1;" d="M 492.410156 955.132812 L 309.039062 955.132812 C 305.34375 955.132812 301.917969 953.683594 299.386719 951.058594 C 296.859375 948.429688 295.542969 944.941406 295.683594 941.238281 L 299.742188 834.5 C 300.003906 827.582031 306.074219 821.945312 313.277344 821.945312 L 488.175781 821.945312 C 495.375 821.945312 501.453125 827.582031 501.714844 834.5 L 505.773438 941.238281 C 505.914062 944.941406 504.597656 948.429688 502.070312 951.058594 C 499.539062 953.683594 496.113281 955.132812 492.414062 955.132812 Z M 313.277344 826.515625 C 308.503906 826.515625 304.476562 830.175781 304.308594 834.667969 L 300.246094 941.410156 C 300.15625 943.859375 301.023438 946.160156 302.679688 947.886719 C 304.335938 949.609375 306.597656 950.558594 309.039062 950.558594 L 492.410156 950.558594 C 494.851562 950.558594 497.113281 949.609375 498.773438 947.886719 C 500.433594 946.160156 501.296875 943.859375 501.203125 941.410156 L 497.144531 834.667969 C 496.976562 830.171875 492.945312 826.515625 488.171875 826.515625 Z M 313.277344 826.515625 " />
        </g>
        <path style=" stroke:none;fill-rule:nonzero;fill:#545454;fill-opacity:1;" d="M 278.855469 1017.171875 C 278.613281 1017.171875 278.359375 1017.132812 278.113281 1017.050781 C 276.917969 1016.644531 276.285156 1015.339844 276.691406 1014.144531 L 299.074219 948.886719 C 299.480469 947.695312 300.785156 947.0625 301.976562 947.46875 C 303.167969 947.875 303.800781 949.179688 303.394531 950.371094 L 281.011719 1015.628906 C 280.6875 1016.578125 279.804688 1017.171875 278.855469 1017.171875 Z M 278.855469 1017.171875 " />
        <path style=" stroke:none;fill-rule:nonzero;fill:#545454;fill-opacity:1;" d="M 522.59375 1017.171875 C 521.648438 1017.171875 520.765625 1016.578125 520.4375 1015.628906 L 498.054688 950.371094 C 497.648438 949.179688 498.28125 947.882812 499.476562 947.46875 C 500.667969 947.0625 501.964844 947.695312 502.378906 948.886719 L 524.757812 1014.144531 C 525.164062 1015.339844 524.53125 1016.636719 523.339844 1017.050781 C 523.097656 1017.132812 522.84375 1017.171875 522.59375 1017.171875 Z M 522.59375 1017.171875 " />
        <path style=" stroke:none;fill-rule:nonzero;fill:#a6a6a6;fill-opacity:0;" d="M 793.765625 868.03125 C 793.679688 865.746094 792.992188 863.601562 791.851562 861.726562 L 791.839844 861.710938 C 791.597656 861.316406 791.335938 860.929688 791.054688 860.566406 L 769.140625 828.617188 L 576.164062 828.617188 L 554.246094 860.566406 C 553.96875 860.9375 553.699219 861.316406 553.460938 861.710938 L 553.449219 861.726562 C 552.3125 863.601562 551.625 865.746094 551.539062 868.03125 L 546.363281 1004.054688 C 546.054688 1012.144531 552.375 1018.738281 560.476562 1018.738281 L 784.816406 1018.738281 C 792.921875 1018.738281 799.238281 1012.144531 798.929688 1004.054688 L 793.757812 868.03125 Z M 793.765625 868.03125 " />
        <g clip-rule="nonzero" clip-path="url(#aed7c78291)">
            <path style=" stroke:none;fill-rule:nonzero;fill:#545454;fill-opacity:1;" d="M 784.824219 1021.027344 L 560.480469 1021.027344 C 555.9375 1021.027344 551.734375 1019.25 548.628906 1016.023438 C 545.523438 1012.792969 543.910156 1008.515625 544.082031 1003.972656 L 549.253906 867.945312 C 549.351562 865.355469 550.125 862.792969 551.496094 860.539062 C 551.507812 860.519531 551.527344 860.496094 551.539062 860.472656 C 551.792969 860.058594 552.070312 859.644531 552.390625 859.226562 L 574.277344 827.324219 C 574.703125 826.699219 575.40625 826.335938 576.164062 826.335938 L 769.140625 826.335938 C 769.890625 826.335938 770.59375 826.707031 771.023438 827.324219 L 792.90625 859.226562 C 793.21875 859.644531 793.507812 860.0625 793.765625 860.484375 C 793.777344 860.507812 793.792969 860.523438 793.800781 860.539062 C 795.171875 862.792969 795.945312 865.355469 796.046875 867.945312 L 801.214844 1003.964844 C 801.386719 1008.511719 799.773438 1012.792969 796.667969 1016.019531 C 793.566406 1019.246094 789.359375 1021.019531 784.816406 1021.019531 Z M 555.375 862.957031 C 554.429688 864.535156 553.886719 866.3125 553.816406 868.113281 L 548.648438 1004.136719 C 548.519531 1007.429688 549.683594 1010.519531 551.921875 1012.847656 C 554.15625 1015.167969 557.195312 1016.449219 560.480469 1016.449219 L 784.824219 1016.449219 C 788.105469 1016.449219 791.148438 1015.167969 793.382812 1012.847656 C 795.621094 1010.519531 796.785156 1007.429688 796.65625 1004.136719 L 791.488281 868.113281 C 791.414062 866.3125 790.875 864.527344 789.925781 862.949219 C 789.917969 862.933594 789.90625 862.914062 789.898438 862.902344 C 789.707031 862.589844 789.492188 862.273438 789.242188 861.945312 C 789.21875 861.914062 789.199219 861.886719 789.175781 861.855469 L 767.941406 830.898438 L 577.367188 830.898438 L 556.132812 861.855469 C 556.109375 861.886719 556.089844 861.914062 556.066406 861.945312 C 555.816406 862.273438 555.601562 862.589844 555.410156 862.898438 C 555.398438 862.914062 555.386719 862.933594 555.375 862.957031 Z M 555.375 862.957031 " />
        </g>
        <path style=" stroke:none;fill-rule:nonzero;fill:Tombol#e7e7e7;fill-opacity:0;" d="M 764.335938 952.851562 L 580.964844 952.851562 C 574.605469 952.851562 569.652344 947.675781 569.890625 941.328125 L 573.949219 834.589844 C 574.164062 828.855469 579.203125 824.234375 585.199219 824.234375 L 760.097656 824.234375 C 766.097656 824.234375 771.132812 828.855469 771.347656 834.589844 L 775.40625 941.328125 C 775.652344 947.675781 770.691406 952.851562 764.332031 952.851562 Z M 764.335938 952.851562 " />
        <g clip-rule="nonzero" clip-path="url(#59782cbbf3)">
            <path style=" stroke:none;fill-rule:nonzero;fill:#545454;fill-opacity:1;" d="M 764.335938 955.132812 L 580.964844 955.132812 C 577.269531 955.132812 573.84375 953.683594 571.3125 951.058594 C 568.785156 948.429688 567.46875 944.941406 567.609375 941.238281 L 571.667969 834.5 C 571.929688 827.582031 578 821.945312 585.207031 821.945312 L 760.105469 821.945312 C 767.300781 821.945312 773.378906 827.582031 773.640625 834.5 L 777.699219 941.238281 C 777.839844 944.941406 776.523438 948.429688 773.996094 951.058594 C 771.464844 953.683594 768.039062 955.132812 764.34375 955.132812 Z M 585.207031 826.515625 C 580.429688 826.515625 576.402344 830.175781 576.234375 834.667969 L 572.175781 941.410156 C 572.082031 943.859375 572.949219 946.160156 574.605469 947.886719 C 576.261719 949.609375 578.523438 950.558594 580.964844 950.558594 L 764.335938 950.558594 C 766.777344 950.558594 769.042969 949.609375 770.699219 947.886719 C 772.363281 946.160156 773.222656 943.859375 773.128906 941.410156 L 769.070312 834.667969 C 768.902344 830.171875 764.871094 826.515625 760.097656 826.515625 Z M 585.207031 826.515625 " />
        </g>
        <path style=" stroke:none;fill-rule:nonzero;fill:#545454;fill-opacity:1;" d="M 550.78125 1017.171875 C 550.539062 1017.171875 550.289062 1017.132812 550.039062 1017.050781 C 548.84375 1016.644531 548.210938 1015.339844 548.617188 1014.144531 L 571 948.886719 C 571.40625 947.695312 572.710938 947.0625 573.902344 947.46875 C 575.09375 947.875 575.726562 949.179688 575.320312 950.371094 L 552.9375 1015.628906 C 552.613281 1016.578125 551.730469 1017.171875 550.78125 1017.171875 Z M 550.78125 1017.171875 " />
        <path style=" stroke:none;fill-rule:nonzero;fill:#545454;fill-opacity:1;" d="M 794.523438 1017.171875 C 793.574219 1017.171875 792.691406 1016.578125 792.363281 1015.628906 L 769.984375 950.371094 C 769.574219 949.179688 770.210938 947.882812 771.402344 947.46875 C 772.59375 947.0625 773.890625 947.695312 774.304688 948.886719 L 796.683594 1014.144531 C 797.089844 1015.339844 796.457031 1016.636719 795.265625 1017.050781 C 795.023438 1017.132812 794.769531 1017.171875 794.523438 1017.171875 Z M 794.523438 1017.171875 " />
    </g>
</svg>