<svg xmlns="http://www.w3.org/2000/svg"
     xmlns:xlink="http://www.w3.org/1999/xlink"
     width="1070"
     zoomAndPan="magnify"
     viewBox="0 0 802.5 995.999987"
     height="1328"
     preserveAspectRatio="xMidYMid meet"
     version="1.2">
    <defs>
        <clipPath id="a0c97b07f5">
            <path d="M 0 568.125 L 196 568.125 L 196 763.699219 L 0 763.699219 Z M 0 568.125 " />
        </clipPath>
        <clipPath id="05ddb5f579">
            <path d="M 195.582031 600.355469 L 195.582031 731.472656 C 195.582031 740.019531 192.1875 748.214844 186.144531 754.261719 C 180.101562 760.304688 171.902344 763.699219 163.355469 763.699219 L 32.230469 763.699219 C 23.683594 763.699219 15.484375 760.304688 9.441406 754.261719 C 3.394531 748.214844 0 740.019531 0 731.472656 L 0 600.355469 C 0 591.804688 3.394531 583.609375 9.441406 577.5625 C 15.484375 571.519531 23.683594 568.125 32.230469 568.125 L 163.355469 568.125 C 171.902344 568.125 180.101562 571.519531 186.144531 577.5625 C 192.1875 583.609375 195.582031 591.804688 195.582031 600.355469 Z M 195.582031 600.355469 " />
        </clipPath>
        <clipPath id="14b476898d">
            <path d="M 0 0.125 L 195.71875 0.125 L 195.71875 195.699219 L 0 195.699219 Z M 0 0.125 " />
        </clipPath>
        <clipPath id="17eaca80d0">
            <path d="M 195.582031 32.355469 L 195.582031 163.472656 C 195.582031 172.019531 192.1875 180.214844 186.144531 186.261719 C 180.101562 192.304688 171.902344 195.699219 163.355469 195.699219 L 32.230469 195.699219 C 23.683594 195.699219 15.484375 192.304688 9.441406 186.261719 C 3.394531 180.214844 0 172.019531 0 163.472656 L 0 32.355469 C 0 23.804688 3.394531 15.609375 9.441406 9.5625 C 15.484375 3.519531 23.683594 0.125 32.230469 0.125 L 163.355469 0.125 C 171.902344 0.125 180.101562 3.519531 186.144531 9.5625 C 192.1875 15.609375 195.582031 23.804688 195.582031 32.355469 Z M 195.582031 32.355469 " />
        </clipPath>
        <clipPath id="0d84842a29">
            <rect x="0" width="196" y="0" height="196" />
        </clipPath>
        <clipPath id="2bd62f92fc">
            <path d="M 0 568.125 L 195.628906 568.125 L 195.628906 763.753906 L 0 763.753906 Z M 0 568.125 " />
        </clipPath>
        <clipPath id="5d3a34a1b8">
            <path d="M 195.578125 600.351562 L 195.578125 731.464844 C 195.578125 740.011719 192.183594 748.210938 186.140625 754.253906 C 180.09375 760.296875 171.898438 763.695312 163.351562 763.695312 L 32.230469 763.695312 C 23.683594 763.695312 15.484375 760.296875 9.441406 754.253906 C 3.398438 748.210938 0.00390625 740.011719 0.00390625 731.464844 L 0.00390625 600.351562 C 0.00390625 591.804688 3.398438 583.609375 9.441406 577.5625 C 15.484375 571.519531 23.683594 568.125 32.230469 568.125 L 163.351562 568.125 C 171.898438 568.125 180.09375 571.519531 186.140625 577.5625 C 192.183594 583.609375 195.578125 591.804688 195.578125 600.351562 Z M 195.578125 600.351562 " />
        </clipPath>
        <clipPath id="1ed30d9a50">
            <path d="M 606.121094 568.125 L 802 568.125 L 802 763.699219 L 606.121094 763.699219 Z M 606.121094 568.125 " />
        </clipPath>
        <clipPath id="a19b53a726">
            <path d="M 801.703125 600.355469 L 801.703125 731.472656 C 801.703125 740.019531 798.308594 748.214844 792.261719 754.261719 C 786.21875 760.304688 778.019531 763.699219 769.472656 763.699219 L 638.347656 763.699219 C 629.800781 763.699219 621.605469 760.304688 615.558594 754.261719 C 609.515625 748.214844 606.121094 740.019531 606.121094 731.472656 L 606.121094 600.355469 C 606.121094 591.804688 609.515625 583.609375 615.558594 577.5625 C 621.605469 571.519531 629.800781 568.125 638.347656 568.125 L 769.472656 568.125 C 778.019531 568.125 786.21875 571.519531 792.261719 577.5625 C 798.308594 583.609375 801.703125 591.804688 801.703125 600.355469 Z M 801.703125 600.355469 " />
        </clipPath>
        <clipPath id="3d9c443846">
            <path d="M 0.121094 0.125 L 195.820312 0.125 L 195.820312 195.699219 L 0.121094 195.699219 Z M 0.121094 0.125 " />
        </clipPath>
        <clipPath id="2419809f7d">
            <path d="M 195.703125 32.355469 L 195.703125 163.472656 C 195.703125 172.019531 192.308594 180.214844 186.261719 186.261719 C 180.21875 192.304688 172.019531 195.699219 163.472656 195.699219 L 32.347656 195.699219 C 23.800781 195.699219 15.605469 192.304688 9.558594 186.261719 C 3.515625 180.214844 0.121094 172.019531 0.121094 163.472656 L 0.121094 32.355469 C 0.121094 23.804688 3.515625 15.609375 9.558594 9.5625 C 15.605469 3.519531 23.800781 0.125 32.347656 0.125 L 163.472656 0.125 C 172.019531 0.125 180.21875 3.519531 186.261719 9.5625 C 192.308594 15.609375 195.703125 23.804688 195.703125 32.355469 Z M 195.703125 32.355469 " />
        </clipPath>
        <clipPath id="afeca27093">
            <rect x="0" width="196" y="0" height="196" />
        </clipPath>
        <clipPath id="57150c2c09">
            <path d="M 606.121094 568.125 L 801.746094 568.125 L 801.746094 763.753906 L 606.121094 763.753906 Z M 606.121094 568.125 " />
        </clipPath>
        <clipPath id="78b8478623">
            <path d="M 801.699219 600.351562 L 801.699219 731.464844 C 801.699219 740.011719 798.304688 748.210938 792.257812 754.253906 C 786.214844 760.296875 778.015625 763.695312 769.46875 763.695312 L 638.351562 763.695312 C 629.804688 763.695312 621.605469 760.296875 615.5625 754.253906 C 609.515625 748.210938 606.121094 740.011719 606.121094 731.464844 L 606.121094 600.351562 C 606.121094 591.804688 609.515625 583.609375 615.5625 577.5625 C 621.605469 571.519531 629.804688 568.125 638.351562 568.125 L 769.46875 568.125 C 778.015625 568.125 786.214844 571.519531 792.257812 577.5625 C 798.304688 583.609375 801.699219 591.804688 801.699219 600.351562 Z M 801.699219 600.351562 " />
        </clipPath>
        <clipPath id="25cc8b103d">
            <path d="M 303.058594 568.125 L 499 568.125 L 499 763.699219 L 303.058594 763.699219 Z M 303.058594 568.125 " />
        </clipPath>
        <clipPath id="609cebdf19">
            <path d="M 498.644531 600.355469 L 498.644531 731.472656 C 498.644531 740.019531 495.246094 748.214844 489.203125 754.261719 C 483.160156 760.304688 474.960938 763.699219 466.414062 763.699219 L 335.289062 763.699219 C 326.742188 763.699219 318.542969 760.304688 312.5 754.261719 C 306.457031 748.214844 303.058594 740.019531 303.058594 731.472656 L 303.058594 600.355469 C 303.058594 591.804688 306.457031 583.609375 312.5 577.5625 C 318.542969 571.519531 326.742188 568.125 335.289062 568.125 L 466.414062 568.125 C 474.960938 568.125 483.160156 571.519531 489.203125 577.5625 C 495.246094 583.609375 498.644531 591.804688 498.644531 600.355469 Z M 498.644531 600.355469 " />
        </clipPath>
        <clipPath id="975494cce2">
            <path d="M 0.0585938 0.125 L 195.648438 0.125 L 195.648438 195.699219 L 0.0585938 195.699219 Z M 0.0585938 0.125 " />
        </clipPath>
        <clipPath id="de1da19c68">
            <path d="M 195.644531 32.355469 L 195.644531 163.472656 C 195.644531 172.019531 192.246094 180.214844 186.203125 186.261719 C 180.160156 192.304688 171.960938 195.699219 163.414062 195.699219 L 32.289062 195.699219 C 23.742188 195.699219 15.542969 192.304688 9.5 186.261719 C 3.457031 180.214844 0.0585938 172.019531 0.0585938 163.472656 L 0.0585938 32.355469 C 0.0585938 23.804688 3.457031 15.609375 9.5 9.5625 C 15.542969 3.519531 23.742188 0.125 32.289062 0.125 L 163.414062 0.125 C 171.960938 0.125 180.160156 3.519531 186.203125 9.5625 C 192.246094 15.609375 195.644531 23.804688 195.644531 32.355469 Z M 195.644531 32.355469 " />
        </clipPath>
        <clipPath id="3230bdfdfe">
            <rect x="0" width="196" y="0" height="196" />
        </clipPath>
        <clipPath id="eea69d5b93">
            <path d="M 303.058594 568.125 L 498.6875 568.125 L 498.6875 763.753906 L 303.058594 763.753906 Z M 303.058594 568.125 " />
        </clipPath>
        <clipPath id="9062a8199f">
            <path d="M 498.640625 600.351562 L 498.640625 731.464844 C 498.640625 740.011719 495.242188 748.210938 489.199219 754.253906 C 483.15625 760.296875 474.957031 763.695312 466.410156 763.695312 L 335.289062 763.695312 C 326.742188 763.695312 318.546875 760.296875 312.5 754.253906 C 306.457031 748.210938 303.0625 740.011719 303.0625 731.464844 L 303.0625 600.351562 C 303.0625 591.804688 306.457031 583.609375 312.5 577.5625 C 318.546875 571.519531 326.742188 568.125 335.289062 568.125 L 466.410156 568.125 C 474.957031 568.125 483.15625 571.519531 489.199219 577.5625 C 495.242188 583.609375 498.640625 591.804688 498.640625 600.351562 Z M 498.640625 600.351562 " />
        </clipPath>
        <clipPath id="b13fa159f6">
            <path d="M 0 799.605469 L 196 799.605469 L 196 995.183594 L 0 995.183594 Z M 0 799.605469 " />
        </clipPath>
        <clipPath id="c669a8668e">
            <path d="M 195.582031 831.835938 L 195.582031 962.953125 C 195.582031 971.5 192.1875 979.699219 186.144531 985.742188 C 180.101562 991.785156 171.902344 995.183594 163.355469 995.183594 L 32.230469 995.183594 C 23.683594 995.183594 15.484375 991.785156 9.441406 985.742188 C 3.394531 979.699219 0 971.5 0 962.953125 L 0 831.835938 C 0 823.289062 3.394531 815.089844 9.441406 809.046875 C 15.484375 803 23.683594 799.605469 32.230469 799.605469 L 163.355469 799.605469 C 171.902344 799.605469 180.101562 803 186.144531 809.046875 C 192.1875 815.089844 195.582031 823.289062 195.582031 831.835938 Z M 195.582031 831.835938 " />
        </clipPath>
        <clipPath id="750ef121ba">
            <path d="M 0 0.605469 L 195.71875 0.605469 L 195.71875 196.183594 L 0 196.183594 Z M 0 0.605469 " />
        </clipPath>
        <clipPath id="a7060f2eff">
            <path d="M 195.582031 32.835938 L 195.582031 163.953125 C 195.582031 172.5 192.1875 180.699219 186.144531 186.742188 C 180.101562 192.785156 171.902344 196.183594 163.355469 196.183594 L 32.230469 196.183594 C 23.683594 196.183594 15.484375 192.785156 9.441406 186.742188 C 3.394531 180.699219 0 172.5 0 163.953125 L 0 32.835938 C 0 24.289062 3.394531 16.089844 9.441406 10.046875 C 15.484375 4 23.683594 0.605469 32.230469 0.605469 L 163.355469 0.605469 C 171.902344 0.605469 180.101562 4 186.144531 10.046875 C 192.1875 16.089844 195.582031 24.289062 195.582031 32.835938 Z M 195.582031 32.835938 " />
        </clipPath>
        <clipPath id="94275152e0">
            <rect x="0" width="196" y="0" height="197" />
        </clipPath>
        <clipPath id="5580d188f3">
            <path d="M 0 799.605469 L 195.628906 799.605469 L 195.628906 995.234375 L 0 995.234375 Z M 0 799.605469 " />
        </clipPath>
        <clipPath id="15c6b243b3">
            <path d="M 195.578125 831.832031 L 195.578125 962.945312 C 195.578125 971.492188 192.183594 979.691406 186.140625 985.734375 C 180.09375 991.777344 171.898438 995.175781 163.351562 995.175781 L 32.230469 995.175781 C 23.683594 995.175781 15.484375 991.777344 9.441406 985.734375 C 3.398438 979.691406 0.00390625 971.492188 0.00390625 962.945312 L 0.00390625 831.832031 C 0.00390625 823.285156 3.398438 815.089844 9.441406 809.042969 C 15.484375 803 23.683594 799.605469 32.230469 799.605469 L 163.351562 799.605469 C 171.898438 799.605469 180.09375 803 186.140625 809.042969 C 192.183594 815.089844 195.578125 823.285156 195.578125 831.832031 Z M 195.578125 831.832031 " />
        </clipPath>
        <clipPath id="fba51063cd">
            <path d="M 606.121094 799.605469 L 802 799.605469 L 802 995.183594 L 606.121094 995.183594 Z M 606.121094 799.605469 " />
        </clipPath>
        <clipPath id="f952acdeec">
            <path d="M 801.703125 831.835938 L 801.703125 962.953125 C 801.703125 971.5 798.308594 979.699219 792.261719 985.742188 C 786.21875 991.785156 778.019531 995.183594 769.472656 995.183594 L 638.347656 995.183594 C 629.800781 995.183594 621.605469 991.785156 615.558594 985.742188 C 609.515625 979.699219 606.121094 971.5 606.121094 962.953125 L 606.121094 831.835938 C 606.121094 823.289062 609.515625 815.089844 615.558594 809.046875 C 621.605469 803 629.800781 799.605469 638.347656 799.605469 L 769.472656 799.605469 C 778.019531 799.605469 786.21875 803 792.261719 809.046875 C 798.308594 815.089844 801.703125 823.289062 801.703125 831.835938 Z M 801.703125 831.835938 " />
        </clipPath>
        <clipPath id="17a9beae11">
            <path d="M 0.121094 0.605469 L 195.820312 0.605469 L 195.820312 196.183594 L 0.121094 196.183594 Z M 0.121094 0.605469 " />
        </clipPath>
        <clipPath id="0b7070a5d7">
            <path d="M 195.703125 32.835938 L 195.703125 163.953125 C 195.703125 172.5 192.308594 180.699219 186.261719 186.742188 C 180.21875 192.785156 172.019531 196.183594 163.472656 196.183594 L 32.347656 196.183594 C 23.800781 196.183594 15.605469 192.785156 9.558594 186.742188 C 3.515625 180.699219 0.121094 172.5 0.121094 163.953125 L 0.121094 32.835938 C 0.121094 24.289062 3.515625 16.089844 9.558594 10.046875 C 15.605469 4 23.800781 0.605469 32.347656 0.605469 L 163.472656 0.605469 C 172.019531 0.605469 180.21875 4 186.261719 10.046875 C 192.308594 16.089844 195.703125 24.289062 195.703125 32.835938 Z M 195.703125 32.835938 " />
        </clipPath>
        <clipPath id="4f51b4cf93">
            <rect x="0" width="196" y="0" height="197" />
        </clipPath>
        <clipPath id="f271964950">
            <path d="M 606.121094 799.605469 L 801.746094 799.605469 L 801.746094 995.234375 L 606.121094 995.234375 Z M 606.121094 799.605469 " />
        </clipPath>
        <clipPath id="0eb4aaf897">
            <path d="M 801.699219 831.832031 L 801.699219 962.945312 C 801.699219 971.492188 798.304688 979.691406 792.257812 985.734375 C 786.214844 991.777344 778.015625 995.175781 769.46875 995.175781 L 638.351562 995.175781 C 629.804688 995.175781 621.605469 991.777344 615.5625 985.734375 C 609.515625 979.691406 606.121094 971.492188 606.121094 962.945312 L 606.121094 831.832031 C 606.121094 823.285156 609.515625 815.089844 615.5625 809.042969 C 621.605469 803 629.804688 799.605469 638.351562 799.605469 L 769.46875 799.605469 C 778.015625 799.605469 786.214844 803 792.257812 809.042969 C 798.304688 815.089844 801.699219 823.285156 801.699219 831.832031 Z M 801.699219 831.832031 " />
        </clipPath>
        <clipPath id="32168e86d1">
            <path d="M 303.058594 799.605469 L 499 799.605469 L 499 995.183594 L 303.058594 995.183594 Z M 303.058594 799.605469 " />
        </clipPath>
        <clipPath id="9ab64097b9">
            <path d="M 498.644531 831.835938 L 498.644531 962.953125 C 498.644531 971.5 495.246094 979.699219 489.203125 985.742188 C 483.160156 991.785156 474.960938 995.183594 466.414062 995.183594 L 335.289062 995.183594 C 326.742188 995.183594 318.542969 991.785156 312.5 985.742188 C 306.457031 979.699219 303.058594 971.5 303.058594 962.953125 L 303.058594 831.835938 C 303.058594 823.289062 306.457031 815.089844 312.5 809.046875 C 318.542969 803 326.742188 799.605469 335.289062 799.605469 L 466.414062 799.605469 C 474.960938 799.605469 483.160156 803 489.203125 809.046875 C 495.246094 815.089844 498.644531 823.289062 498.644531 831.835938 Z M 498.644531 831.835938 " />
        </clipPath>
        <clipPath id="ec200b334c">
            <path d="M 0.0585938 0.605469 L 195.648438 0.605469 L 195.648438 196.183594 L 0.0585938 196.183594 Z M 0.0585938 0.605469 " />
        </clipPath>
        <clipPath id="776dbb6101">
            <path d="M 195.644531 32.835938 L 195.644531 163.953125 C 195.644531 172.5 192.246094 180.699219 186.203125 186.742188 C 180.160156 192.785156 171.960938 196.183594 163.414062 196.183594 L 32.289062 196.183594 C 23.742188 196.183594 15.542969 192.785156 9.5 186.742188 C 3.457031 180.699219 0.0585938 172.5 0.0585938 163.953125 L 0.0585938 32.835938 C 0.0585938 24.289062 3.457031 16.089844 9.5 10.046875 C 15.542969 4 23.742188 0.605469 32.289062 0.605469 L 163.414062 0.605469 C 171.960938 0.605469 180.160156 4 186.203125 10.046875 C 192.246094 16.089844 195.644531 24.289062 195.644531 32.835938 Z M 195.644531 32.835938 " />
        </clipPath>
        <clipPath id="cee1b7ee65">
            <rect x="0" width="196" y="0" height="197" />
        </clipPath>
        <clipPath id="1218cb0a67">
            <path d="M 303.058594 799.605469 L 498.6875 799.605469 L 498.6875 995.234375 L 303.058594 995.234375 Z M 303.058594 799.605469 " />
        </clipPath>
        <clipPath id="a8b2d25f73">
            <path d="M 498.640625 831.832031 L 498.640625 962.945312 C 498.640625 971.492188 495.242188 979.691406 489.199219 985.734375 C 483.15625 991.777344 474.957031 995.175781 466.410156 995.175781 L 335.289062 995.175781 C 326.742188 995.175781 318.546875 991.777344 312.5 985.734375 C 306.457031 979.691406 303.0625 971.492188 303.0625 962.945312 L 303.0625 831.832031 C 303.0625 823.285156 306.457031 815.089844 312.5 809.042969 C 318.546875 803 326.742188 799.605469 335.289062 799.605469 L 466.410156 799.605469 C 474.957031 799.605469 483.15625 803 489.199219 809.042969 C 495.242188 815.089844 498.640625 823.285156 498.640625 831.832031 Z M 498.640625 831.832031 " />
        </clipPath>
        <clipPath id="445e1c24a6">
            <path d="M 10 133 L 200 133 L 200 421.90625 L 10 421.90625 Z M 10 133 " />
        </clipPath>
        <clipPath id="ec69bcabc8">
            <rect x="0" width="207" y="0" height="422" />
        </clipPath>
        <clipPath id="267d6e00e1">
            <rect x="0" width="216" y="0" height="422" />
        </clipPath>
    </defs>
    <g id="2d8a038025">
        <g clip-rule="nonzero" clip-path="url(#a0c97b07f5)">
            <g clip-rule="nonzero" clip-path="url(#05ddb5f579)">
                <g transform="matrix(1,0,0,1,0,568)">
                    <g clip-path="url(#0d84842a29)">
                        <g clip-rule="nonzero" clip-path="url(#14b476898d)">
                            <g clip-rule="nonzero" clip-path="url(#17eaca80d0)">
                                <path style=" stroke:none;fill-rule:nonzero;fill:#00bf63;fill-opacity:0;" d="M 0 0.125 L 195.578125 0.125 L 195.578125 195.699219 L 0 195.699219 Z M 0 0.125 " />
                            </g>
                        </g>
                    </g>
                </g>
            </g>
        </g>
        <g clip-rule="nonzero" clip-path="url(#2bd62f92fc)">
            <g clip-rule="nonzero" clip-path="url(#5d3a34a1b8)">
                <path style="fill:none;stroke-width:30;stroke-linecap:butt;stroke-linejoin:miter;stroke:#545454;stroke-opacity:1;stroke-miterlimit:4;" d="M 260.930316 42.996995 L 260.930316 217.923643 C 260.930316 229.326577 256.401454 240.265682 248.339141 248.327994 C 240.271617 256.390307 229.337724 260.92438 217.934789 260.92438 L 42.997719 260.92438 C 31.594784 260.92438 20.65568 256.390307 12.593367 248.327994 C 4.531054 240.265682 0.00219237 229.326577 0.00219237 217.923643 L 0.00219237 42.996995 C 0.00219237 31.59406 4.531054 20.660168 12.593367 12.592643 C 20.65568 4.530331 31.594784 0.00146869 42.997719 0.00146869 L 217.934789 0.00146869 C 229.337724 0.00146869 240.271617 4.530331 248.339141 12.592643 C 256.401454 20.660168 260.930316 31.59406 260.930316 42.996995 Z M 260.930316 42.996995 " transform="matrix(0.749533,0,0,0.749533,0.002263,568.123899)" />
            </g>
        </g>
        <g clip-rule="nonzero" clip-path="url(#1ed30d9a50)">
            <g clip-rule="nonzero" clip-path="url(#a19b53a726)">
                <g transform="matrix(1,0,0,1,606,568)">
                    <g clip-path="url(#afeca27093)">
                        <g clip-rule="nonzero" clip-path="url(#3d9c443846)">
                            <g clip-rule="nonzero" clip-path="url(#2419809f7d)">
                                <path style=" stroke:none;fill-rule:nonzero;fill:#00bf63;fill-opacity:0;" d="M 0.121094 0.125 L 195.695312 0.125 L 195.695312 195.699219 L 0.121094 195.699219 Z M 0.121094 0.125 " />
                            </g>
                        </g>
                    </g>
                </g>
            </g>
        </g>
        <g clip-rule="nonzero" clip-path="url(#57150c2c09)">
            <g clip-rule="nonzero" clip-path="url(#78b8478623)">
                <path style="fill:none;stroke-width:30;stroke-linecap:butt;stroke-linejoin:miter;stroke:#545454;stroke-opacity:1;stroke-miterlimit:4;" d="M 260.932562 42.996995 L 260.932562 217.923643 C 260.932562 229.326577 256.4037 240.265682 248.336176 248.327994 C 240.273863 256.390307 229.334759 260.92438 217.931824 260.92438 L 42.999965 260.92438 C 31.597031 260.92438 20.657926 256.390307 12.595614 248.327994 C 4.52809 240.265682 -0.000772584 229.326577 -0.000772584 217.923643 L -0.000772584 42.996995 C -0.000772584 31.59406 4.52809 20.660168 12.595614 12.592643 C 20.657926 4.530331 31.597031 0.00146869 42.999965 0.00146869 L 217.931824 0.00146869 C 229.334759 0.00146869 240.273863 4.530331 248.336176 12.592643 C 256.4037 20.660168 260.932562 31.59406 260.932562 42.996995 Z M 260.932562 42.996995 " transform="matrix(0.749533,0,0,0.749533,606.121673,568.123899)" />
            </g>
        </g>
        <g clip-rule="nonzero" clip-path="url(#25cc8b103d)">
            <g clip-rule="nonzero" clip-path="url(#609cebdf19)">
                <g transform="matrix(1,0,0,1,303,568)">
                    <g clip-path="url(#3230bdfdfe)">
                        <g clip-rule="nonzero" clip-path="url(#975494cce2)">
                            <g clip-rule="nonzero" clip-path="url(#de1da19c68)">
                                <path style=" stroke:none;fill-rule:nonzero;fill:#00bf63;fill-opacity:0;" d="M 0.0585938 0.125 L 195.636719 0.125 L 195.636719 195.699219 L 0.0585938 195.699219 Z M 0.0585938 0.125 " />
                            </g>
                        </g>
                    </g>
                </g>
            </g>
        </g>
        <g clip-rule="nonzero" clip-path="url(#eea69d5b93)">
            <g clip-rule="nonzero" clip-path="url(#9062a8199f)">
                <path style="fill:none;stroke-width:30;stroke-linecap:butt;stroke-linejoin:miter;stroke:#545454;stroke-opacity:1;stroke-miterlimit:4;" d="M 260.928864 42.996995 L 260.928864 217.923643 C 260.928864 229.326577 256.400002 240.265682 248.33769 248.327994 C 240.275377 256.390307 229.336273 260.92438 217.933338 260.92438 L 42.996267 260.92438 C 31.593333 260.92438 20.65944 256.390307 12.591916 248.327994 C 4.529603 240.265682 0.000741097 229.326577 0.000741097 217.923643 L 0.000741097 42.996995 C 0.000741097 31.59406 4.529603 20.660168 12.591916 12.592643 C 20.65944 4.530331 31.593333 0.00146869 42.996267 0.00146869 L 217.933338 0.00146869 C 229.336273 0.00146869 240.275377 4.530331 248.33769 12.592643 C 256.400002 20.660168 260.928864 31.59406 260.928864 42.996995 Z M 260.928864 42.996995 " transform="matrix(0.749533,0,0,0.749533,303.061945,568.123899)" />
            </g>
        </g>
        <g clip-rule="nonzero" clip-path="url(#b13fa159f6)">
            <g clip-rule="nonzero" clip-path="url(#c669a8668e)">
                <g transform="matrix(1,0,0,1,0,799)">
                    <g clip-path="url(#94275152e0)">
                        <g clip-rule="nonzero" clip-path="url(#750ef121ba)">
                            <g clip-rule="nonzero" clip-path="url(#a7060f2eff)">
                                <path style=" stroke:none;fill-rule:nonzero;fill:#00bf63;fill-opacity:0;" d="M 0 0.605469 L 195.578125 0.605469 L 195.578125 196.183594 L 0 196.183594 Z M 0 0.605469 " />
                            </g>
                        </g>
                    </g>
                </g>
            </g>
        </g>
        <g clip-rule="nonzero" clip-path="url(#5580d188f3)">
            <g clip-rule="nonzero" clip-path="url(#15c6b243b3)">
                <path style="fill:none;stroke-width:30;stroke-linecap:butt;stroke-linejoin:miter;stroke:#545454;stroke-opacity:1;stroke-miterlimit:4;" d="M 260.930316 42.995884 L 260.930316 217.922532 C 260.930316 229.325467 256.401454 240.264571 248.339141 248.326883 C 240.271617 256.389196 229.337724 260.92327 217.934789 260.92327 L 42.997719 260.92327 C 31.594784 260.92327 20.65568 256.389196 12.593367 248.326883 C 4.531054 240.264571 0.00219237 229.325467 0.00219237 217.922532 L 0.00219237 42.995884 C 0.00219237 31.59295 4.531054 20.659057 12.593367 12.591533 C 20.65568 4.52922 31.594784 0.000358011 42.997719 0.000358011 L 217.934789 0.000358011 C 229.337724 0.000358011 240.271617 4.52922 248.339141 12.591533 C 256.401454 20.659057 260.930316 31.59295 260.930316 42.995884 Z M 260.930316 42.995884 " transform="matrix(0.749533,0,0,0.749533,0.002263,799.6052)" />
            </g>
        </g>
        <g clip-rule="nonzero" clip-path="url(#fba51063cd)">
            <g clip-rule="nonzero" clip-path="url(#f952acdeec)">
                <g transform="matrix(1,0,0,1,606,799)">
                    <g clip-path="url(#4f51b4cf93)">
                        <g clip-rule="nonzero" clip-path="url(#17a9beae11)">
                            <g clip-rule="nonzero" clip-path="url(#0b7070a5d7)">
                                <path style=" stroke:none;fill-rule:nonzero;fill:#00bf63;fill-opacity:0;" d="M 0.121094 0.605469 L 195.695312 0.605469 L 195.695312 196.183594 L 0.121094 196.183594 Z M 0.121094 0.605469 " />
                            </g>
                        </g>
                    </g>
                </g>
            </g>
        </g>
        <g clip-rule="nonzero" clip-path="url(#f271964950)">
            <g clip-rule="nonzero" clip-path="url(#0eb4aaf897)">
                <path style="fill:none;stroke-width:30;stroke-linecap:butt;stroke-linejoin:miter;stroke:#545454;stroke-opacity:1;stroke-miterlimit:4;" d="M 260.932562 42.995884 L 260.932562 217.922532 C 260.932562 229.325467 256.4037 240.264571 248.336176 248.326883 C 240.273863 256.389196 229.334759 260.92327 217.931824 260.92327 L 42.999965 260.92327 C 31.597031 260.92327 20.657926 256.389196 12.595614 248.326883 C 4.52809 240.264571 -0.000772584 229.325467 -0.000772584 217.922532 L -0.000772584 42.995884 C -0.000772584 31.59295 4.52809 20.659057 12.595614 12.591533 C 20.657926 4.52922 31.597031 0.000358011 42.999965 0.000358011 L 217.931824 0.000358011 C 229.334759 0.000358011 240.273863 4.52922 248.336176 12.591533 C 256.4037 20.659057 260.932562 31.59295 260.932562 42.995884 Z M 260.932562 42.995884 " transform="matrix(0.749533,0,0,0.749533,606.121673,799.6052)" />
            </g>
        </g>
        <g clip-rule="nonzero" clip-path="url(#32168e86d1)">
            <g clip-rule="nonzero" clip-path="url(#9ab64097b9)">
                <g transform="matrix(1,0,0,1,303,799)">
                    <g clip-path="url(#cee1b7ee65)">
                        <g clip-rule="nonzero" clip-path="url(#ec200b334c)">
                            <g clip-rule="nonzero" clip-path="url(#776dbb6101)">
                                <path style=" stroke:none;fill-rule:nonzero;fill:#00bf63;fill-opacity:0;" d="M 0.0585938 0.605469 L 195.636719 0.605469 L 195.636719 196.183594 L 0.0585938 196.183594 Z M 0.0585938 0.605469 " />
                            </g>
                        </g>
                    </g>
                </g>
            </g>
        </g>
        <g clip-rule="nonzero" clip-path="url(#1218cb0a67)">
            <g clip-rule="nonzero" clip-path="url(#a8b2d25f73)">
                <path style="fill:none;stroke-width:30;stroke-linecap:butt;stroke-linejoin:miter;stroke:#545454;stroke-opacity:1;stroke-miterlimit:4;" d="M 260.928864 42.995884 L 260.928864 217.922532 C 260.928864 229.325467 256.400002 240.264571 248.33769 248.326883 C 240.275377 256.389196 229.336273 260.92327 217.933338 260.92327 L 42.996267 260.92327 C 31.593333 260.92327 20.65944 256.389196 12.591916 248.326883 C 4.529603 240.264571 0.000741097 229.325467 0.000741097 217.922532 L 0.000741097 42.995884 C 0.000741097 31.59295 4.529603 20.659057 12.591916 12.591533 C 20.65944 4.52922 31.593333 0.000358011 42.996267 0.000358011 L 217.933338 0.000358011 C 229.336273 0.000358011 240.275377 4.52922 248.33769 12.591533 C 256.400002 20.659057 260.928864 31.59295 260.928864 42.995884 Z M 260.928864 42.995884 " transform="matrix(0.749533,0,0,0.749533,303.061945,799.6052)" />
            </g>
        </g>
        <g transform="matrix(1,0,0,1,180,96)">
            <g clip-path="url(#ec69bcabc8)">
                <g clip-rule="nonzero" clip-path="url(#445e1c24a6)">
                    <g style="fill:#545454;fill-opacity:1;">
                        <g transform="translate(0.219581, 333.174348)">
                            <path style="stroke:none" d="M 121.5625 -39.703125 C 145.925781 -39.703125 164.957031 -35.835938 178.65625 -28.109375 C 192.363281 -20.378906 199.21875 -6.910156 199.21875 12.296875 C 199.21875 25.410156 195.992188 37.765625 189.546875 49.359375 C 183.109375 60.953125 172.507812 70.257812 157.75 77.28125 C 143 84.3125 123.09375 87.828125 98.03125 87.828125 C 71.320312 87.828125 49.945312 82.789062 33.90625 72.71875 C 17.863281 62.65625 9.84375 48.835938 9.84375 31.265625 C 9.84375 19.785156 13.003906 11.175781 19.328125 5.4375 C 25.648438 -0.289062 32.789062 -3.273438 40.75 -3.515625 C 34.664062 -6.328125 29.691406 -10.71875 25.828125 -16.6875 C 21.960938 -22.65625 20.03125 -29.273438 20.03125 -36.546875 C 20.03125 -43.566406 22.019531 -50.0625 26 -56.03125 C 29.976562 -62.007812 35.128906 -66.40625 41.453125 -69.21875 C 21.546875 -80.695312 11.59375 -100.019531 11.59375 -127.1875 C 11.59375 -144.988281 15.164062 -159.160156 22.3125 -169.703125 C 29.457031 -180.242188 41.050781 -187.914062 57.09375 -192.71875 C 73.132812 -197.519531 94.507812 -199.921875 121.21875 -199.921875 C 128.238281 -199.921875 135.789062 -199.742188 143.875 -199.390625 C 151.957031 -199.035156 159.863281 -198.625 167.59375 -198.15625 C 177.664062 -197.6875 185.160156 -195.753906 190.078125 -192.359375 C 194.992188 -188.960938 196.984375 -184.804688 196.046875 -179.890625 C 193.941406 -170.046875 188.789062 -165.359375 180.59375 -165.828125 C 178.945312 -166.066406 177.070312 -166.1875 174.96875 -166.1875 C 172.863281 -166.1875 170.519531 -166.1875 167.9375 -166.1875 C 172.625 -161.03125 176.078125 -155.054688 178.296875 -148.265625 C 180.523438 -141.472656 181.640625 -132.222656 181.640625 -120.515625 C 181.640625 -78.347656 154.117188 -57.265625 99.078125 -57.265625 C 92.515625 -57.265625 86.25 -57.554688 80.28125 -58.140625 C 74.3125 -58.734375 68.75 -59.613281 63.59375 -60.78125 C 62.425781 -59.144531 61.84375 -57.625 61.84375 -56.21875 C 61.84375 -52.226562 63.304688 -49.003906 66.234375 -46.546875 C 69.160156 -44.085938 74.957031 -42.332031 83.625 -41.28125 C 92.289062 -40.226562 104.9375 -39.703125 121.5625 -39.703125 Z M 99.078125 -161.96875 C 88.066406 -161.96875 80.21875 -159.566406 75.53125 -154.765625 C 70.851562 -149.960938 68.515625 -141.351562 68.515625 -128.9375 C 68.515625 -114.414062 71.320312 -104.632812 76.9375 -99.59375 C 82.5625 -94.5625 89.941406 -92.046875 99.078125 -92.046875 C 107.984375 -92.046875 115.128906 -94.5625 120.515625 -99.59375 C 125.898438 -104.632812 128.59375 -114.414062 128.59375 -128.9375 C 128.59375 -141.351562 126.304688 -149.960938 121.734375 -154.765625 C 117.171875 -159.566406 109.617188 -161.96875 99.078125 -161.96875 Z M 101.53125 46.375 C 121.675781 46.375 135.4375 44.851562 142.8125 41.8125 C 150.195312 38.769531 153.890625 33.613281 153.890625 26.34375 C 153.890625 18.144531 149.960938 13.285156 142.109375 11.765625 C 134.265625 10.242188 122.03125 9.484375 105.40625 9.484375 C 98.144531 9.484375 90.53125 9.425781 82.5625 9.3125 C 74.601562 9.195312 67.109375 8.671875 60.078125 7.734375 C 55.160156 10.546875 52.703125 14.992188 52.703125 21.078125 C 52.703125 37.941406 68.976562 46.375 101.53125 46.375 Z M 101.53125 46.375 " />
                        </g>
                    </g>
                </g>
            </g>
        </g>
        <g transform="matrix(1,0,0,1,402,96)">
            <g clip-path="url(#267d6e00e1)">
                <g style="fill:#545454;fill-opacity:1;">
                    <g transform="translate(0.940844, 333.174348)">
                        <path style="stroke:none" d="M 193.59375 -30.21875 C 193.59375 -10.070312 183.632812 0 163.71875 0 L 162.671875 0 C 142.765625 0 132.8125 -10.070312 132.8125 -30.21875 C 133.039062 -46.375 133.210938 -61.769531 133.328125 -76.40625 C 133.453125 -91.050781 133.515625 -104.460938 133.515625 -116.640625 C 133.515625 -128.117188 131.519531 -136.082031 127.53125 -140.53125 C 123.550781 -144.988281 117.582031 -147.097656 109.625 -146.859375 C 95.800781 -146.390625 85.960938 -139.363281 80.109375 -125.78125 C 79.867188 -109.382812 79.804688 -93.28125 79.921875 -77.46875 C 80.046875 -61.65625 80.222656 -45.785156 80.453125 -29.859375 C 80.453125 -9.953125 70.5 0 50.59375 0 L 48.140625 0 C 28.222656 0 18.265625 -9.953125 18.265625 -29.859375 C 18.503906 -46.722656 18.738281 -63.46875 18.96875 -80.09375 C 19.207031 -96.726562 19.328125 -113.710938 19.328125 -131.046875 C 19.328125 -146.972656 19.207031 -162.550781 18.96875 -177.78125 C 18.738281 -193.007812 18.503906 -208.585938 18.265625 -224.515625 C 18.265625 -244.421875 28.222656 -254.375 48.140625 -254.375 L 50.59375 -254.375 C 70.269531 -254.375 80.109375 -246.410156 80.109375 -230.484375 C 80.109375 -226.035156 80.109375 -221.757812 80.109375 -217.65625 C 80.109375 -213.5625 80.109375 -210.109375 80.109375 -207.296875 C 80.109375 -199.328125 79.988281 -191.59375 79.75 -184.09375 C 79.519531 -176.601562 78.816406 -169.226562 77.640625 -161.96875 L 78 -161.265625 C 84.789062 -173.679688 93.28125 -182.816406 103.46875 -188.671875 C 113.65625 -194.523438 125.539062 -197.453125 139.125 -197.453125 C 157.632812 -197.453125 171.457031 -191.128906 180.59375 -178.484375 C 189.726562 -165.835938 193.941406 -144.988281 193.234375 -115.9375 C 193.003906 -103.757812 192.945312 -90.410156 193.0625 -75.890625 C 193.175781 -61.367188 193.351562 -46.144531 193.59375 -30.21875 Z M 193.59375 -30.21875 " />
                    </g>
                </g>
            </g>
        </g>
    </g>
</svg>