<svg xmlns="http://www.w3.org/2000/svg"
     xmlns:xlink="http://www.w3.org/1999/xlink"
     width="1070"
     zoomAndPan="magnify"
     viewBox="0 0 802.5 991.499974"
     height="1322"
     preserveAspectRatio="xMidYMid meet"
     version="1.2">
    <defs>
        <clipPath id="ff0b08dfac">
            <path d="M 0 563.214844 L 196 563.214844 L 196 758.792969 L 0 758.792969 Z M 0 563.214844 " />
        </clipPath>
        <clipPath id="cb838f21e9">
            <path d="M 195.582031 595.445312 L 195.582031 726.5625 C 195.582031 735.109375 192.1875 743.308594 186.144531 749.351562 C 180.101562 755.398438 171.902344 758.792969 163.355469 758.792969 L 32.230469 758.792969 C 23.683594 758.792969 15.484375 755.398438 9.441406 749.351562 C 3.394531 743.308594 0 735.109375 0 726.5625 L 0 595.445312 C 0 586.898438 3.394531 578.699219 9.441406 572.65625 C 15.484375 566.613281 23.683594 563.214844 32.230469 563.214844 L 163.355469 563.214844 C 171.902344 563.214844 180.101562 566.613281 186.144531 572.65625 C 192.1875 578.699219 195.582031 586.898438 195.582031 595.445312 Z M 195.582031 595.445312 " />
        </clipPath>
        <clipPath id="d098a6994c">
            <path d="M 0 0.214844 L 195.71875 0.214844 L 195.71875 195.792969 L 0 195.792969 Z M 0 0.214844 " />
        </clipPath>
        <clipPath id="d9bba7c533">
            <path d="M 195.582031 32.445312 L 195.582031 163.5625 C 195.582031 172.109375 192.1875 180.308594 186.144531 186.351562 C 180.101562 192.398438 171.902344 195.792969 163.355469 195.792969 L 32.230469 195.792969 C 23.683594 195.792969 15.484375 192.398438 9.441406 186.351562 C 3.394531 180.308594 0 172.109375 0 163.5625 L 0 32.445312 C 0 23.898438 3.394531 15.699219 9.441406 9.65625 C 15.484375 3.613281 23.683594 0.214844 32.230469 0.214844 L 163.355469 0.214844 C 171.902344 0.214844 180.101562 3.613281 186.144531 9.65625 C 192.1875 15.699219 195.582031 23.898438 195.582031 32.445312 Z M 195.582031 32.445312 " />
        </clipPath>
        <clipPath id="4fdf604c7e">
            <rect x="0" width="196" y="0" height="196" />
        </clipPath>
        <clipPath id="c820ef1326">
            <path d="M 0 563.214844 L 195.628906 563.214844 L 195.628906 758.84375 L 0 758.84375 Z M 0 563.214844 " />
        </clipPath>
        <clipPath id="3a109c079a">
            <path d="M 195.578125 595.445312 L 195.578125 726.558594 C 195.578125 735.105469 192.183594 743.300781 186.140625 749.347656 C 180.09375 755.390625 171.898438 758.785156 163.351562 758.785156 L 32.230469 758.785156 C 23.683594 758.785156 15.484375 755.390625 9.441406 749.347656 C 3.398438 743.300781 0.00390625 735.105469 0.00390625 726.558594 L 0.00390625 595.445312 C 0.00390625 586.898438 3.398438 578.699219 9.441406 572.65625 C 15.484375 566.613281 23.683594 563.214844 32.230469 563.214844 L 163.351562 563.214844 C 171.898438 563.214844 180.09375 566.613281 186.140625 572.65625 C 192.183594 578.699219 195.578125 586.898438 195.578125 595.445312 Z M 195.578125 595.445312 " />
        </clipPath>
        <clipPath id="3c83f187aa">
            <path d="M 606.121094 563.214844 L 802 563.214844 L 802 758.792969 L 606.121094 758.792969 Z M 606.121094 563.214844 " />
        </clipPath>
        <clipPath id="e1d6bc86ec">
            <path d="M 801.703125 595.445312 L 801.703125 726.5625 C 801.703125 735.109375 798.308594 743.308594 792.261719 749.351562 C 786.21875 755.398438 778.019531 758.792969 769.472656 758.792969 L 638.347656 758.792969 C 629.800781 758.792969 621.605469 755.398438 615.558594 749.351562 C 609.515625 743.308594 606.121094 735.109375 606.121094 726.5625 L 606.121094 595.445312 C 606.121094 586.898438 609.515625 578.699219 615.558594 572.65625 C 621.605469 566.613281 629.800781 563.214844 638.347656 563.214844 L 769.472656 563.214844 C 778.019531 563.214844 786.21875 566.613281 792.261719 572.65625 C 798.308594 578.699219 801.703125 586.898438 801.703125 595.445312 Z M 801.703125 595.445312 " />
        </clipPath>
        <clipPath id="130def6da6">
            <path d="M 0.121094 0.214844 L 195.820312 0.214844 L 195.820312 195.792969 L 0.121094 195.792969 Z M 0.121094 0.214844 " />
        </clipPath>
        <clipPath id="ac91612bc5">
            <path d="M 195.703125 32.445312 L 195.703125 163.5625 C 195.703125 172.109375 192.308594 180.308594 186.261719 186.351562 C 180.21875 192.398438 172.019531 195.792969 163.472656 195.792969 L 32.347656 195.792969 C 23.800781 195.792969 15.605469 192.398438 9.558594 186.351562 C 3.515625 180.308594 0.121094 172.109375 0.121094 163.5625 L 0.121094 32.445312 C 0.121094 23.898438 3.515625 15.699219 9.558594 9.65625 C 15.605469 3.613281 23.800781 0.214844 32.347656 0.214844 L 163.472656 0.214844 C 172.019531 0.214844 180.21875 3.613281 186.261719 9.65625 C 192.308594 15.699219 195.703125 23.898438 195.703125 32.445312 Z M 195.703125 32.445312 " />
        </clipPath>
        <clipPath id="b313f80740">
            <rect x="0" width="196" y="0" height="196" />
        </clipPath>
        <clipPath id="0e11bd7ecf">
            <path d="M 606.121094 563.214844 L 801.746094 563.214844 L 801.746094 758.84375 L 606.121094 758.84375 Z M 606.121094 563.214844 " />
        </clipPath>
        <clipPath id="8781b5f6aa">
            <path d="M 801.699219 595.445312 L 801.699219 726.558594 C 801.699219 735.105469 798.304688 743.300781 792.257812 749.347656 C 786.214844 755.390625 778.015625 758.785156 769.46875 758.785156 L 638.351562 758.785156 C 629.804688 758.785156 621.605469 755.390625 615.5625 749.347656 C 609.515625 743.300781 606.121094 735.105469 606.121094 726.558594 L 606.121094 595.445312 C 606.121094 586.898438 609.515625 578.699219 615.5625 572.65625 C 621.605469 566.613281 629.804688 563.214844 638.351562 563.214844 L 769.46875 563.214844 C 778.015625 563.214844 786.214844 566.613281 792.257812 572.65625 C 798.304688 578.699219 801.699219 586.898438 801.699219 595.445312 Z M 801.699219 595.445312 " />
        </clipPath>
        <clipPath id="19e0c8e80c">
            <path d="M 303.058594 563.214844 L 499 563.214844 L 499 758.792969 L 303.058594 758.792969 Z M 303.058594 563.214844 " />
        </clipPath>
        <clipPath id="85cd3bf65b">
            <path d="M 498.644531 595.445312 L 498.644531 726.5625 C 498.644531 735.109375 495.246094 743.308594 489.203125 749.351562 C 483.160156 755.398438 474.960938 758.792969 466.414062 758.792969 L 335.289062 758.792969 C 326.742188 758.792969 318.542969 755.398438 312.5 749.351562 C 306.457031 743.308594 303.058594 735.109375 303.058594 726.5625 L 303.058594 595.445312 C 303.058594 586.898438 306.457031 578.699219 312.5 572.65625 C 318.542969 566.613281 326.742188 563.214844 335.289062 563.214844 L 466.414062 563.214844 C 474.960938 563.214844 483.160156 566.613281 489.203125 572.65625 C 495.246094 578.699219 498.644531 586.898438 498.644531 595.445312 Z M 498.644531 595.445312 " />
        </clipPath>
        <clipPath id="c684968e4d">
            <path d="M 0.0585938 0.214844 L 195.648438 0.214844 L 195.648438 195.792969 L 0.0585938 195.792969 Z M 0.0585938 0.214844 " />
        </clipPath>
        <clipPath id="7c31fdf427">
            <path d="M 195.644531 32.445312 L 195.644531 163.5625 C 195.644531 172.109375 192.246094 180.308594 186.203125 186.351562 C 180.160156 192.398438 171.960938 195.792969 163.414062 195.792969 L 32.289062 195.792969 C 23.742188 195.792969 15.542969 192.398438 9.5 186.351562 C 3.457031 180.308594 0.0585938 172.109375 0.0585938 163.5625 L 0.0585938 32.445312 C 0.0585938 23.898438 3.457031 15.699219 9.5 9.65625 C 15.542969 3.613281 23.742188 0.214844 32.289062 0.214844 L 163.414062 0.214844 C 171.960938 0.214844 180.160156 3.613281 186.203125 9.65625 C 192.246094 15.699219 195.644531 23.898438 195.644531 32.445312 Z M 195.644531 32.445312 " />
        </clipPath>
        <clipPath id="e8fbcb704d">
            <rect x="0" width="196" y="0" height="196" />
        </clipPath>
        <clipPath id="23b63caf83">
            <path d="M 303.058594 563.214844 L 498.6875 563.214844 L 498.6875 758.84375 L 303.058594 758.84375 Z M 303.058594 563.214844 " />
        </clipPath>
        <clipPath id="7caae1fad1">
            <path d="M 498.640625 595.445312 L 498.640625 726.558594 C 498.640625 735.105469 495.242188 743.300781 489.199219 749.347656 C 483.15625 755.390625 474.957031 758.785156 466.410156 758.785156 L 335.289062 758.785156 C 326.742188 758.785156 318.546875 755.390625 312.5 749.347656 C 306.457031 743.300781 303.0625 735.105469 303.0625 726.558594 L 303.0625 595.445312 C 303.0625 586.898438 306.457031 578.699219 312.5 572.65625 C 318.546875 566.613281 326.742188 563.214844 335.289062 563.214844 L 466.410156 563.214844 C 474.957031 563.214844 483.15625 566.613281 489.199219 572.65625 C 495.242188 578.699219 498.640625 586.898438 498.640625 595.445312 Z M 498.640625 595.445312 " />
        </clipPath>
        <clipPath id="0767521448">
            <path d="M 0 794.699219 L 196 794.699219 L 196 990.273438 L 0 990.273438 Z M 0 794.699219 " />
        </clipPath>
        <clipPath id="d270897415">
            <path d="M 195.582031 826.925781 L 195.582031 958.042969 C 195.582031 966.59375 192.1875 974.789062 186.144531 980.835938 C 180.101562 986.878906 171.902344 990.273438 163.355469 990.273438 L 32.230469 990.273438 C 23.683594 990.273438 15.484375 986.878906 9.441406 980.835938 C 3.394531 974.789062 0 966.59375 0 958.042969 L 0 826.925781 C 0 818.378906 3.394531 810.179688 9.441406 804.136719 C 15.484375 798.09375 23.683594 794.699219 32.230469 794.699219 L 163.355469 794.699219 C 171.902344 794.699219 180.101562 798.09375 186.144531 804.136719 C 192.1875 810.179688 195.582031 818.378906 195.582031 826.925781 Z M 195.582031 826.925781 " />
        </clipPath>
        <clipPath id="c311883e0e">
            <path d="M 0 0.699219 L 195.71875 0.699219 L 195.71875 196.273438 L 0 196.273438 Z M 0 0.699219 " />
        </clipPath>
        <clipPath id="f00eb3a891">
            <path d="M 195.582031 32.925781 L 195.582031 164.042969 C 195.582031 172.59375 192.1875 180.789062 186.144531 186.835938 C 180.101562 192.878906 171.902344 196.273438 163.355469 196.273438 L 32.230469 196.273438 C 23.683594 196.273438 15.484375 192.878906 9.441406 186.835938 C 3.394531 180.789062 0 172.59375 0 164.042969 L 0 32.925781 C 0 24.378906 3.394531 16.179688 9.441406 10.136719 C 15.484375 4.09375 23.683594 0.699219 32.230469 0.699219 L 163.355469 0.699219 C 171.902344 0.699219 180.101562 4.09375 186.144531 10.136719 C 192.1875 16.179688 195.582031 24.378906 195.582031 32.925781 Z M 195.582031 32.925781 " />
        </clipPath>
        <clipPath id="d941ec51af">
            <rect x="0" width="196" y="0" height="197" />
        </clipPath>
        <clipPath id="b3fd592f88">
            <path d="M 0 794.699219 L 195.628906 794.699219 L 195.628906 990.324219 L 0 990.324219 Z M 0 794.699219 " />
        </clipPath>
        <clipPath id="f06d14ca54">
            <path d="M 195.578125 826.925781 L 195.578125 958.039062 C 195.578125 966.585938 192.183594 974.785156 186.140625 980.828125 C 180.09375 986.871094 171.898438 990.265625 163.351562 990.265625 L 32.230469 990.265625 C 23.683594 990.265625 15.484375 986.871094 9.441406 980.828125 C 3.398438 974.785156 0.00390625 966.585938 0.00390625 958.039062 L 0.00390625 826.925781 C 0.00390625 818.378906 3.398438 810.179688 9.441406 804.136719 C 15.484375 798.09375 23.683594 794.699219 32.230469 794.699219 L 163.351562 794.699219 C 171.898438 794.699219 180.09375 798.09375 186.140625 804.136719 C 192.183594 810.179688 195.578125 818.378906 195.578125 826.925781 Z M 195.578125 826.925781 " />
        </clipPath>
        <clipPath id="579b72ecc0">
            <path d="M 606.121094 794.699219 L 802 794.699219 L 802 990.273438 L 606.121094 990.273438 Z M 606.121094 794.699219 " />
        </clipPath>
        <clipPath id="e50e35c3b7">
            <path d="M 801.703125 826.925781 L 801.703125 958.042969 C 801.703125 966.59375 798.308594 974.789062 792.261719 980.835938 C 786.21875 986.878906 778.019531 990.273438 769.472656 990.273438 L 638.347656 990.273438 C 629.800781 990.273438 621.605469 986.878906 615.558594 980.835938 C 609.515625 974.789062 606.121094 966.59375 606.121094 958.042969 L 606.121094 826.925781 C 606.121094 818.378906 609.515625 810.179688 615.558594 804.136719 C 621.605469 798.09375 629.800781 794.699219 638.347656 794.699219 L 769.472656 794.699219 C 778.019531 794.699219 786.21875 798.09375 792.261719 804.136719 C 798.308594 810.179688 801.703125 818.378906 801.703125 826.925781 Z M 801.703125 826.925781 " />
        </clipPath>
        <clipPath id="9c88397871">
            <path d="M 0.121094 0.699219 L 195.820312 0.699219 L 195.820312 196.273438 L 0.121094 196.273438 Z M 0.121094 0.699219 " />
        </clipPath>
        <clipPath id="e83fef449b">
            <path d="M 195.703125 32.925781 L 195.703125 164.042969 C 195.703125 172.59375 192.308594 180.789062 186.261719 186.835938 C 180.21875 192.878906 172.019531 196.273438 163.472656 196.273438 L 32.347656 196.273438 C 23.800781 196.273438 15.605469 192.878906 9.558594 186.835938 C 3.515625 180.789062 0.121094 172.59375 0.121094 164.042969 L 0.121094 32.925781 C 0.121094 24.378906 3.515625 16.179688 9.558594 10.136719 C 15.605469 4.09375 23.800781 0.699219 32.347656 0.699219 L 163.472656 0.699219 C 172.019531 0.699219 180.21875 4.09375 186.261719 10.136719 C 192.308594 16.179688 195.703125 24.378906 195.703125 32.925781 Z M 195.703125 32.925781 " />
        </clipPath>
        <clipPath id="dc9166fded">
            <rect x="0" width="196" y="0" height="197" />
        </clipPath>
        <clipPath id="75e8ef8ed5">
            <path d="M 606.121094 794.699219 L 801.746094 794.699219 L 801.746094 990.324219 L 606.121094 990.324219 Z M 606.121094 794.699219 " />
        </clipPath>
        <clipPath id="76ada9c50c">
            <path d="M 801.699219 826.925781 L 801.699219 958.039062 C 801.699219 966.585938 798.304688 974.785156 792.257812 980.828125 C 786.214844 986.871094 778.015625 990.265625 769.46875 990.265625 L 638.351562 990.265625 C 629.804688 990.265625 621.605469 986.871094 615.5625 980.828125 C 609.515625 974.785156 606.121094 966.585938 606.121094 958.039062 L 606.121094 826.925781 C 606.121094 818.378906 609.515625 810.179688 615.5625 804.136719 C 621.605469 798.09375 629.804688 794.699219 638.351562 794.699219 L 769.46875 794.699219 C 778.015625 794.699219 786.214844 798.09375 792.257812 804.136719 C 798.304688 810.179688 801.699219 818.378906 801.699219 826.925781 Z M 801.699219 826.925781 " />
        </clipPath>
        <clipPath id="63fa05b0a2">
            <path d="M 303.058594 794.699219 L 499 794.699219 L 499 990.273438 L 303.058594 990.273438 Z M 303.058594 794.699219 " />
        </clipPath>
        <clipPath id="e28137b20e">
            <path d="M 498.644531 826.925781 L 498.644531 958.042969 C 498.644531 966.59375 495.246094 974.789062 489.203125 980.835938 C 483.160156 986.878906 474.960938 990.273438 466.414062 990.273438 L 335.289062 990.273438 C 326.742188 990.273438 318.542969 986.878906 312.5 980.835938 C 306.457031 974.789062 303.058594 966.59375 303.058594 958.042969 L 303.058594 826.925781 C 303.058594 818.378906 306.457031 810.179688 312.5 804.136719 C 318.542969 798.09375 326.742188 794.699219 335.289062 794.699219 L 466.414062 794.699219 C 474.960938 794.699219 483.160156 798.09375 489.203125 804.136719 C 495.246094 810.179688 498.644531 818.378906 498.644531 826.925781 Z M 498.644531 826.925781 " />
        </clipPath>
        <clipPath id="d27ac4c465">
            <path d="M 0.0585938 0.699219 L 195.648438 0.699219 L 195.648438 196.273438 L 0.0585938 196.273438 Z M 0.0585938 0.699219 " />
        </clipPath>
        <clipPath id="07950d7193">
            <path d="M 195.644531 32.925781 L 195.644531 164.042969 C 195.644531 172.59375 192.246094 180.789062 186.203125 186.835938 C 180.160156 192.878906 171.960938 196.273438 163.414062 196.273438 L 32.289062 196.273438 C 23.742188 196.273438 15.542969 192.878906 9.5 186.835938 C 3.457031 180.789062 0.0585938 172.59375 0.0585938 164.042969 L 0.0585938 32.925781 C 0.0585938 24.378906 3.457031 16.179688 9.5 10.136719 C 15.542969 4.09375 23.742188 0.699219 32.289062 0.699219 L 163.414062 0.699219 C 171.960938 0.699219 180.160156 4.09375 186.203125 10.136719 C 192.246094 16.179688 195.644531 24.378906 195.644531 32.925781 Z M 195.644531 32.925781 " />
        </clipPath>
        <clipPath id="f07511bcbf">
            <rect x="0" width="196" y="0" height="197" />
        </clipPath>
        <clipPath id="3a941c9b4a">
            <path d="M 303.058594 794.699219 L 498.6875 794.699219 L 498.6875 990.324219 L 303.058594 990.324219 Z M 303.058594 794.699219 " />
        </clipPath>
        <clipPath id="2fd23c248e">
            <path d="M 498.640625 826.925781 L 498.640625 958.039062 C 498.640625 966.585938 495.242188 974.785156 489.199219 980.828125 C 483.15625 986.871094 474.957031 990.265625 466.410156 990.265625 L 335.289062 990.265625 C 326.742188 990.265625 318.546875 986.871094 312.5 980.828125 C 306.457031 974.785156 303.0625 966.585938 303.0625 958.039062 L 303.0625 826.925781 C 303.0625 818.378906 306.457031 810.179688 312.5 804.136719 C 318.546875 798.09375 326.742188 794.699219 335.289062 794.699219 L 466.410156 794.699219 C 474.957031 794.699219 483.15625 798.09375 489.199219 804.136719 C 495.242188 810.179688 498.640625 818.378906 498.640625 826.925781 Z M 498.640625 826.925781 " />
        </clipPath>
        <clipPath id="207fa078f6">
            <rect x="0" width="214" y="0" height="423" />
        </clipPath>
        <clipPath id="bd48b0c30b">
            <rect x="0" width="212" y="0" height="423" />
        </clipPath>
    </defs>
    <g id="f935b3cb67">
        <g clip-rule="nonzero" clip-path="url(#ff0b08dfac)">
            <g clip-rule="nonzero" clip-path="url(#cb838f21e9)">
                <g transform="matrix(1,0,0,1,0,563)">
                    <g clip-path="url(#4fdf604c7e)">
                        <g clip-rule="nonzero" clip-path="url(#d098a6994c)">
                            <g clip-rule="nonzero" clip-path="url(#d9bba7c533)">
                                <path style=" stroke:none;fill-rule:nonzero;fill:#00bf63;fill-opacity:0;" d="M 0 0.214844 L 195.578125 0.214844 L 195.578125 195.792969 L 0 195.792969 Z M 0 0.214844 " />
                            </g>
                        </g>
                    </g>
                </g>
            </g>
        </g>
        <g clip-rule="nonzero" clip-path="url(#c820ef1326)">
            <g clip-rule="nonzero" clip-path="url(#3a109c079a)">
                <path style="fill:none;stroke-width:30;stroke-linecap:butt;stroke-linejoin:miter;stroke:#545454;stroke-opacity:1;stroke-miterlimit:4;" d="M 260.930316 42.999002 L 260.930316 217.92565 C 260.930316 229.328585 256.401454 240.262477 248.339141 248.330002 C 240.271617 256.392314 229.337724 260.921176 217.934789 260.921176 L 42.997719 260.921176 C 31.594784 260.921176 20.65568 256.392314 12.593367 248.330002 C 4.531054 240.262477 0.00219237 229.328585 0.00219237 217.92565 L 0.00219237 42.999002 C 0.00219237 31.596068 4.531054 20.656964 12.593367 12.594651 C 20.65568 4.532338 31.594784 -0.00173546 42.997719 -0.00173546 L 217.934789 -0.00173546 C 229.337724 -0.00173546 240.271617 4.532338 248.339141 12.594651 C 256.401454 20.656964 260.930316 31.596068 260.930316 42.999002 Z M 260.930316 42.999002 " transform="matrix(0.749533,0,0,0.749533,0.002263,563.216145)" />
            </g>
        </g>
        <g clip-rule="nonzero" clip-path="url(#3c83f187aa)">
            <g clip-rule="nonzero" clip-path="url(#e1d6bc86ec)">
                <g transform="matrix(1,0,0,1,606,563)">
                    <g clip-path="url(#b313f80740)">
                        <g clip-rule="nonzero" clip-path="url(#130def6da6)">
                            <g clip-rule="nonzero" clip-path="url(#ac91612bc5)">
                                <path style=" stroke:none;fill-rule:nonzero;fill:#00bf63;fill-opacity:0;" d="M 0.121094 0.214844 L 195.695312 0.214844 L 195.695312 195.792969 L 0.121094 195.792969 Z M 0.121094 0.214844 " />
                            </g>
                        </g>
                    </g>
                </g>
            </g>
        </g>
        <g clip-rule="nonzero" clip-path="url(#0e11bd7ecf)">
            <g clip-rule="nonzero" clip-path="url(#8781b5f6aa)">
                <path style="fill:none;stroke-width:30;stroke-linecap:butt;stroke-linejoin:miter;stroke:#545454;stroke-opacity:1;stroke-miterlimit:4;" d="M 260.932562 42.999002 L 260.932562 217.92565 C 260.932562 229.328585 256.4037 240.262477 248.336176 248.330002 C 240.273863 256.392314 229.334759 260.921176 217.931824 260.921176 L 42.999965 260.921176 C 31.597031 260.921176 20.657926 256.392314 12.595614 248.330002 C 4.52809 240.262477 -0.000772584 229.328585 -0.000772584 217.92565 L -0.000772584 42.999002 C -0.000772584 31.596068 4.52809 20.656964 12.595614 12.594651 C 20.657926 4.532338 31.597031 -0.00173546 42.999965 -0.00173546 L 217.931824 -0.00173546 C 229.334759 -0.00173546 240.273863 4.532338 248.336176 12.594651 C 256.4037 20.656964 260.932562 31.596068 260.932562 42.999002 Z M 260.932562 42.999002 " transform="matrix(0.749533,0,0,0.749533,606.121673,563.216145)" />
            </g>
        </g>
        <g clip-rule="nonzero" clip-path="url(#19e0c8e80c)">
            <g clip-rule="nonzero" clip-path="url(#85cd3bf65b)">
                <g transform="matrix(1,0,0,1,303,563)">
                    <g clip-path="url(#e8fbcb704d)">
                        <g clip-rule="nonzero" clip-path="url(#c684968e4d)">
                            <g clip-rule="nonzero" clip-path="url(#7c31fdf427)">
                                <path style=" stroke:none;fill-rule:nonzero;fill:#00bf63;fill-opacity:0;" d="M 0.0585938 0.214844 L 195.636719 0.214844 L 195.636719 195.792969 L 0.0585938 195.792969 Z M 0.0585938 0.214844 " />
                            </g>
                        </g>
                    </g>
                </g>
            </g>
        </g>
        <g clip-rule="nonzero" clip-path="url(#23b63caf83)">
            <g clip-rule="nonzero" clip-path="url(#7caae1fad1)">
                <path style="fill:none;stroke-width:30;stroke-linecap:butt;stroke-linejoin:miter;stroke:#545454;stroke-opacity:1;stroke-miterlimit:4;" d="M 260.928864 42.999002 L 260.928864 217.92565 C 260.928864 229.328585 256.400002 240.262477 248.33769 248.330002 C 240.275377 256.392314 229.336273 260.921176 217.933338 260.921176 L 42.996267 260.921176 C 31.593333 260.921176 20.65944 256.392314 12.591916 248.330002 C 4.529603 240.262477 0.000741097 229.328585 0.000741097 217.92565 L 0.000741097 42.999002 C 0.000741097 31.596068 4.529603 20.656964 12.591916 12.594651 C 20.65944 4.532338 31.593333 -0.00173546 42.996267 -0.00173546 L 217.933338 -0.00173546 C 229.336273 -0.00173546 240.275377 4.532338 248.33769 12.594651 C 256.400002 20.656964 260.928864 31.596068 260.928864 42.999002 Z M 260.928864 42.999002 " transform="matrix(0.749533,0,0,0.749533,303.061945,563.216145)" />
            </g>
        </g>
        <g clip-rule="nonzero" clip-path="url(#0767521448)">
            <g clip-rule="nonzero" clip-path="url(#d270897415)">
                <g transform="matrix(1,0,0,1,0,794)">
                    <g clip-path="url(#d941ec51af)">
                        <g clip-rule="nonzero" clip-path="url(#c311883e0e)">
                            <g clip-rule="nonzero" clip-path="url(#f00eb3a891)">
                                <path style=" stroke:none;fill-rule:nonzero;fill:#00bf63;fill-opacity:0;" d="M 0 0.699219 L 195.578125 0.699219 L 195.578125 196.273438 L 0 196.273438 Z M 0 0.699219 " />
                            </g>
                        </g>
                    </g>
                </g>
            </g>
        </g>
        <g clip-rule="nonzero" clip-path="url(#b3fd592f88)">
            <g clip-rule="nonzero" clip-path="url(#f06d14ca54)">
                <path style="fill:none;stroke-width:30;stroke-linecap:butt;stroke-linejoin:miter;stroke:#545454;stroke-opacity:1;stroke-miterlimit:4;" d="M 260.930316 42.99802 L 260.930316 217.924667 C 260.930316 229.327602 256.401454 240.266706 248.339141 248.329019 C 240.271617 256.391332 229.337724 260.920194 217.934789 260.920194 L 42.997719 260.920194 C 31.594784 260.920194 20.65568 256.391332 12.593367 248.329019 C 4.531054 240.266706 0.00219237 229.327602 0.00219237 217.924667 L 0.00219237 42.99802 C 0.00219237 31.595085 4.531054 20.655981 12.593367 12.593668 C 20.65568 4.531356 31.594784 0.00249345 42.997719 0.00249345 L 217.934789 0.00249345 C 229.337724 0.00249345 240.271617 4.531356 248.339141 12.593668 C 256.401454 20.655981 260.930316 31.595085 260.930316 42.99802 Z M 260.930316 42.99802 " transform="matrix(0.749533,0,0,0.749533,0.002263,794.69735)" />
            </g>
        </g>
        <g clip-rule="nonzero" clip-path="url(#579b72ecc0)">
            <g clip-rule="nonzero" clip-path="url(#e50e35c3b7)">
                <g transform="matrix(1,0,0,1,606,794)">
                    <g clip-path="url(#dc9166fded)">
                        <g clip-rule="nonzero" clip-path="url(#9c88397871)">
                            <g clip-rule="nonzero" clip-path="url(#e83fef449b)">
                                <path style=" stroke:none;fill-rule:nonzero;fill:#00bf63;fill-opacity:0;" d="M 0.121094 0.699219 L 195.695312 0.699219 L 195.695312 196.273438 L 0.121094 196.273438 Z M 0.121094 0.699219 " />
                            </g>
                        </g>
                    </g>
                </g>
            </g>
        </g>
        <g clip-rule="nonzero" clip-path="url(#75e8ef8ed5)">
            <g clip-rule="nonzero" clip-path="url(#76ada9c50c)">
                <path style="fill:none;stroke-width:30;stroke-linecap:butt;stroke-linejoin:miter;stroke:#545454;stroke-opacity:1;stroke-miterlimit:4;" d="M 260.932562 42.99802 L 260.932562 217.924667 C 260.932562 229.327602 256.4037 240.266706 248.336176 248.329019 C 240.273863 256.391332 229.334759 260.920194 217.931824 260.920194 L 42.999965 260.920194 C 31.597031 260.920194 20.657926 256.391332 12.595614 248.329019 C 4.52809 240.266706 -0.000772584 229.327602 -0.000772584 217.924667 L -0.000772584 42.99802 C -0.000772584 31.595085 4.52809 20.655981 12.595614 12.593668 C 20.657926 4.531356 31.597031 0.00249345 42.999965 0.00249345 L 217.931824 0.00249345 C 229.334759 0.00249345 240.273863 4.531356 248.336176 12.593668 C 256.4037 20.655981 260.932562 31.595085 260.932562 42.99802 Z M 260.932562 42.99802 " transform="matrix(0.749533,0,0,0.749533,606.121673,794.69735)" />
            </g>
        </g>
        <g clip-rule="nonzero" clip-path="url(#63fa05b0a2)">
            <g clip-rule="nonzero" clip-path="url(#e28137b20e)">
                <g transform="matrix(1,0,0,1,303,794)">
                    <g clip-path="url(#f07511bcbf)">
                        <g clip-rule="nonzero" clip-path="url(#d27ac4c465)">
                            <g clip-rule="nonzero" clip-path="url(#07950d7193)">
                                <path style=" stroke:none;fill-rule:nonzero;fill:#00bf63;fill-opacity:0;" d="M 0.0585938 0.699219 L 195.636719 0.699219 L 195.636719 196.273438 L 0.0585938 196.273438 Z M 0.0585938 0.699219 " />
                            </g>
                        </g>
                    </g>
                </g>
            </g>
        </g>
        <g clip-rule="nonzero" clip-path="url(#3a941c9b4a)">
            <g clip-rule="nonzero" clip-path="url(#2fd23c248e)">
                <path style="fill:none;stroke-width:30;stroke-linecap:butt;stroke-linejoin:miter;stroke:#545454;stroke-opacity:1;stroke-miterlimit:4;" d="M 260.928864 42.99802 L 260.928864 217.924667 C 260.928864 229.327602 256.400002 240.266706 248.33769 248.329019 C 240.275377 256.391332 229.336273 260.920194 217.933338 260.920194 L 42.996267 260.920194 C 31.593333 260.920194 20.65944 256.391332 12.591916 248.329019 C 4.529603 240.266706 0.000741097 229.327602 0.000741097 217.924667 L 0.000741097 42.99802 C 0.000741097 31.595085 4.529603 20.655981 12.591916 12.593668 C 20.65944 4.531356 31.593333 0.00249345 42.996267 0.00249345 L 217.933338 0.00249345 C 229.336273 0.00249345 240.275377 4.531356 248.33769 12.593668 C 256.400002 20.655981 260.928864 31.595085 260.928864 42.99802 Z M 260.928864 42.99802 " transform="matrix(0.749533,0,0,0.749533,303.061945,794.69735)" />
            </g>
        </g>
        <g transform="matrix(1,0,0,1,175,95)">
            <g clip-path="url(#207fa078f6)">
                <g style="fill:#545454;fill-opacity:1;">
                    <g transform="translate(0.90353, 333.923076)">
                        <path style="stroke:none" d="M 163.03125 -256.125 C 182.9375 -256.125 192.890625 -246.171875 192.890625 -226.265625 C 192.648438 -203.304688 192.410156 -180.644531 192.171875 -158.28125 C 191.941406 -135.914062 191.828125 -113.132812 191.828125 -89.9375 C 191.828125 -79.632812 191.882812 -69.5625 192 -59.71875 C 192.125 -49.882812 192.300781 -39.929688 192.53125 -29.859375 C 193 -9.953125 185.035156 0 168.640625 0 C 152.242188 0 142.875 -3.394531 140.53125 -10.1875 C 140.0625 -12.0625 139.59375 -13.875 139.125 -15.625 C 138.65625 -17.382812 138.191406 -19.085938 137.734375 -20.734375 C 133.046875 -14.410156 126.660156 -8.726562 118.578125 -3.6875 C 110.492188 1.34375 100.476562 3.859375 88.53125 3.859375 C 74.476562 3.859375 61.710938 0.929688 50.234375 -4.921875 C 38.765625 -10.773438 29.628906 -20.726562 22.828125 -34.78125 C 16.035156 -48.832031 12.640625 -68.15625 12.640625 -92.75 C 12.640625 -115.9375 15.976562 -135.257812 22.65625 -150.71875 C 29.332031 -166.1875 38.347656 -177.785156 49.703125 -185.515625 C 61.066406 -193.242188 73.660156 -197.109375 87.484375 -197.109375 C 97.085938 -197.109375 105.695312 -194.765625 113.3125 -190.078125 C 120.925781 -185.390625 127.070312 -179.066406 131.75 -171.109375 C 131.519531 -180.242188 131.40625 -189.378906 131.40625 -198.515625 C 131.40625 -207.648438 131.285156 -216.898438 131.046875 -226.265625 C 131.046875 -246.171875 141.003906 -256.125 160.921875 -256.125 Z M 105.046875 -45.671875 C 111.140625 -45.671875 116.175781 -46.546875 120.15625 -48.296875 C 124.132812 -50.054688 127.648438 -52.695312 130.703125 -56.21875 C 130.703125 -61.832031 130.757812 -67.390625 130.875 -72.890625 C 130.988281 -78.398438 131.164062 -84.082031 131.40625 -89.9375 C 131.632812 -96.738281 131.75 -103.535156 131.75 -110.328125 C 131.75 -117.117188 131.75 -123.789062 131.75 -130.34375 C 129.644531 -137.601562 126.015625 -142.640625 120.859375 -145.453125 C 115.703125 -148.265625 109.960938 -149.671875 103.640625 -149.671875 C 97.554688 -149.671875 91.9375 -148.207031 86.78125 -145.28125 C 81.625 -142.351562 77.460938 -137.082031 74.296875 -129.46875 C 71.140625 -121.851562 69.5625 -110.785156 69.5625 -96.265625 C 69.5625 -77.765625 72.664062 -64.707031 78.875 -57.09375 C 85.082031 -49.476562 93.804688 -45.671875 105.046875 -45.671875 Z M 105.046875 -45.671875 " />
                    </g>
                </g>
            </g>
        </g>
        <g transform="matrix(1,0,0,1,379,95)">
            <g clip-path="url(#bd48b0c30b)">
                <g style="fill:#545454;fill-opacity:1;">
                    <g transform="translate(0.304234, 333.923076)">
                        <path style="stroke:none" d="M 190.421875 -33.03125 C 193.703125 -22.957031 193 -14.929688 188.3125 -8.953125 C 183.632812 -2.984375 175.90625 0 165.125 0 L 155.296875 0 C 137.722656 0 126.476562 -9.132812 121.5625 -27.40625 C 117.8125 -41.226562 114.296875 -51.882812 111.015625 -59.375 C 107.742188 -66.875 104.054688 -72.085938 99.953125 -75.015625 C 95.859375 -77.941406 90.882812 -79.40625 85.03125 -79.40625 L 79.75 -79.40625 C 79.75 -71.207031 79.75 -63.007812 79.75 -54.8125 C 79.75 -46.613281 79.867188 -38.296875 80.109375 -29.859375 C 80.109375 -9.953125 70.148438 0 50.234375 0 L 48.140625 0 C 28.222656 0 18.265625 -9.953125 18.265625 -29.859375 C 18.503906 -46.960938 18.738281 -63.769531 18.96875 -80.28125 C 19.207031 -96.789062 19.328125 -113.710938 19.328125 -131.046875 C 19.328125 -146.503906 19.207031 -162.078125 18.96875 -177.765625 C 18.738281 -193.460938 18.503906 -209.046875 18.265625 -224.515625 C 18.265625 -244.421875 28.222656 -254.375 48.140625 -254.375 L 50.234375 -254.375 C 70.148438 -254.375 80.109375 -244.421875 80.109375 -224.515625 C 80.109375 -209.046875 80.109375 -193.460938 80.109375 -177.765625 C 80.109375 -162.078125 79.988281 -146.503906 79.75 -131.046875 L 79.75 -117.34375 C 88.1875 -122.03125 95.566406 -128.941406 101.890625 -138.078125 C 108.210938 -147.210938 113.128906 -157.164062 116.640625 -167.9375 C 119.453125 -176.601562 123.375 -183.160156 128.40625 -187.609375 C 133.445312 -192.066406 140.421875 -194.296875 149.328125 -194.296875 L 156.34375 -194.296875 C 167.351562 -194.296875 175.429688 -191.015625 180.578125 -184.453125 C 185.734375 -177.898438 185.617188 -169.585938 180.234375 -159.515625 C 173.679688 -147.566406 166.007812 -137.082031 157.21875 -128.0625 C 148.4375 -119.039062 139.476562 -112.660156 130.34375 -108.921875 L 130.34375 -107.515625 C 140.65625 -106.335938 149.207031 -103.523438 156 -99.078125 C 162.789062 -94.628906 168.820312 -87.25 174.09375 -76.9375 C 179.363281 -66.632812 184.804688 -52 190.421875 -33.03125 Z M 190.421875 -33.03125 " />
                    </g>
                </g>
            </g>
        </g>
    </g>
</svg>