<svg version="1.2"
     preserveAspectRatio="xMidYMid meet"
     viewBox="15.93 19.48703141786744 382.32 114.93371591354466"
     zoomAndPan="magnify"
     xmlns:xlink="http://www.w3.org/1999/xlink"
     xmlns="http://www.w3.org/2000/svg"
     style="max-height: 500px"
     width="382.32"
     height="114.93371591354466">
    <defs>
        <clipPath id="35227d4611">
            <path d="M 234.355469 38.5 L 396.792969 38.5 L 396.792969 132.8125 L 234.355469 132.8125 Z M 234.355469 38.5" />
        </clipPath>
        <clipPath id="7a644a57c1">
            <path d="M 243.335938 38.5 L 388.113281 38.5 C 393.074219 38.5 397.09375 42.519531 397.09375 47.480469 L 397.09375 123.535156 C 397.09375 128.496094 393.074219 132.519531 388.113281 132.519531 L 243.335938 132.519531 C 238.375 132.519531 234.355469 128.496094 234.355469 123.535156 L 234.355469 47.480469 C 234.355469 42.519531 238.375 38.5 243.335938 38.5 Z M 243.335938 38.5" />
        </clipPath>
        <clipPath id="6f7bb5d2cc">
            <path d="M 240.882812 104.652344 L 282.796875 104.652344 L 282.796875 124.863281 L 240.882812 124.863281 Z M 240.882812 104.652344" />
        </clipPath>
        <clipPath id="f8e0f0dabf">
            <path d="M 246.121094 104.652344 L 277.625 104.652344 C 279.011719 104.652344 280.34375 105.203125 281.328125 106.1875 C 282.308594 107.167969 282.859375 108.5 282.859375 109.890625 L 282.859375 119.847656 C 282.859375 121.238281 282.308594 122.570312 281.328125 123.554688 C 280.34375 124.535156 279.011719 125.085938 277.625 125.085938 L 246.121094 125.085938 C 244.730469 125.085938 243.398438 124.535156 242.417969 123.554688 C 241.433594 122.570312 240.882812 121.238281 240.882812 119.847656 L 240.882812 109.890625 C 240.882812 108.5 241.433594 107.167969 242.417969 106.1875 C 243.398438 105.203125 244.730469 104.652344 246.121094 104.652344 Z M 246.121094 104.652344" />
        </clipPath>
        <clipPath id="be7c27d0c1">
            <path d="M 242.1875 75.078125 L 264.636719 75.078125 L 264.636719 97.535156 L 242.1875 97.535156 Z M 242.1875 75.078125" />
        </clipPath>
        <clipPath id="692ef64428">
            <path d="M 247.425781 75.078125 L 259.386719 75.078125 C 260.777344 75.078125 262.109375 75.628906 263.089844 76.609375 C 264.074219 77.59375 264.625 78.925781 264.625 80.316406 L 264.625 92.472656 C 264.625 93.859375 264.074219 95.195312 263.089844 96.175781 C 262.109375 97.160156 260.777344 97.710938 259.386719 97.710938 L 247.425781 97.710938 C 246.035156 97.710938 244.703125 97.160156 243.71875 96.175781 C 242.738281 95.195312 242.1875 93.859375 242.1875 92.472656 L 242.1875 80.316406 C 242.1875 78.925781 242.738281 77.59375 243.71875 76.609375 C 244.703125 75.628906 246.035156 75.078125 247.425781 75.078125 Z M 247.425781 75.078125" />
        </clipPath>
        <clipPath id="4d03ff654f">
            <path d="M 242.1875 47.195312 L 264.636719 47.195312 L 264.636719 69.652344 L 242.1875 69.652344 Z M 242.1875 47.195312" />
        </clipPath>
        <clipPath id="f65ab08a9d">
            <path d="M 247.425781 47.195312 L 259.386719 47.195312 C 260.777344 47.195312 262.109375 47.75 263.089844 48.730469 C 264.074219 49.714844 264.625 51.046875 264.625 52.433594 L 264.625 64.589844 C 264.625 65.980469 264.074219 67.3125 263.089844 68.296875 C 262.109375 69.277344 260.777344 69.828125 259.386719 69.828125 L 247.425781 69.828125 C 246.035156 69.828125 244.703125 69.277344 243.71875 68.296875 C 242.738281 67.3125 242.1875 65.980469 242.1875 64.589844 L 242.1875 52.433594 C 242.1875 51.046875 242.738281 49.714844 243.71875 48.730469 C 244.703125 47.75 246.035156 47.195312 247.425781 47.195312 Z M 247.425781 47.195312" />
        </clipPath>
        <clipPath id="4e20420b90">
            <path d="M 348.300781 105.152344 L 390.214844 105.152344 L 390.214844 125.363281 L 348.300781 125.363281 Z M 348.300781 105.152344" />
        </clipPath>
        <clipPath id="f9567e840c">
            <path d="M 353.539062 105.152344 L 385.042969 105.152344 C 386.429688 105.152344 387.761719 105.703125 388.746094 106.6875 C 389.726562 107.667969 390.28125 109 390.28125 110.390625 L 390.28125 120.347656 C 390.28125 121.738281 389.726562 123.070312 388.746094 124.050781 C 387.761719 125.035156 386.429688 125.585938 385.042969 125.585938 L 353.539062 125.585938 C 352.148438 125.585938 350.816406 125.035156 349.835938 124.050781 C 348.851562 123.070312 348.300781 121.738281 348.300781 120.347656 L 348.300781 110.390625 C 348.300781 109 348.851562 107.667969 349.835938 106.6875 C 350.816406 105.703125 352.148438 105.152344 353.539062 105.152344 Z M 353.539062 105.152344" />
        </clipPath>
        <clipPath id="1d7665054f">
            <path d="M 366.550781 75.078125 L 389 75.078125 L 389 97.535156 L 366.550781 97.535156 Z M 366.550781 75.078125" />
        </clipPath>
        <clipPath id="b1e1676cb6">
            <path d="M 371.789062 75.078125 L 383.753906 75.078125 C 385.140625 75.078125 386.476562 75.628906 387.457031 76.609375 C 388.441406 77.59375 388.992188 78.925781 388.992188 80.316406 L 388.992188 92.472656 C 388.992188 93.859375 388.441406 95.195312 387.457031 96.175781 C 386.476562 97.160156 385.140625 97.710938 383.753906 97.710938 L 371.789062 97.710938 C 370.402344 97.710938 369.066406 97.160156 368.085938 96.175781 C 367.101562 95.195312 366.550781 93.859375 366.550781 92.472656 L 366.550781 80.316406 C 366.550781 78.925781 367.101562 77.59375 368.085938 76.609375 C 369.066406 75.628906 370.402344 75.078125 371.789062 75.078125 Z M 371.789062 75.078125" />
        </clipPath>
        <clipPath id="7a6e639fe1">
            <path d="M 366.550781 47.195312 L 389 47.195312 L 389 69.652344 L 366.550781 69.652344 Z M 366.550781 47.195312" />
        </clipPath>
        <clipPath id="2cc7a89f93">
            <path d="M 371.789062 47.195312 L 383.753906 47.195312 C 385.140625 47.195312 386.476562 47.75 387.457031 48.730469 C 388.441406 49.714844 388.992188 51.046875 388.992188 52.433594 L 388.992188 64.589844 C 388.992188 65.980469 388.441406 67.3125 387.457031 68.296875 C 386.476562 69.277344 385.140625 69.828125 383.753906 69.828125 L 371.789062 69.828125 C 370.402344 69.828125 369.066406 69.277344 368.085938 68.296875 C 367.101562 67.3125 366.550781 65.980469 366.550781 64.589844 L 366.550781 52.433594 C 366.550781 51.046875 367.101562 49.714844 368.085938 48.730469 C 369.066406 47.75 370.402344 47.195312 371.789062 47.195312 Z M 371.789062 47.195312" />
        </clipPath>
        <clipPath id="9fdba7dea4">
            <path d="M 284 0.128906 L 397.5 0.128906 L 397.5 69 L 284 69 Z M 284 0.128906" />
        </clipPath>
        <clipPath id="9b317610f0">
            <path d="M 286.617188 48.980469 L 345 48.980469 L 345 107.371094 L 286.617188 107.371094 Z M 286.617188 48.980469" />
        </clipPath>
        <clipPath id="e34d88ff19">
            <path d="M 291.855469 48.980469 L 339.59375 48.980469 C 340.984375 48.980469 342.316406 49.53125 343.296875 50.515625 C 344.28125 51.496094 344.832031 52.832031 344.832031 54.21875 L 344.832031 102.457031 C 344.832031 103.847656 344.28125 105.179688 343.296875 106.160156 C 342.316406 107.144531 340.984375 107.695312 339.59375 107.695312 L 291.855469 107.695312 C 290.46875 107.695312 289.136719 107.144531 288.152344 106.160156 C 287.167969 105.179688 286.617188 103.847656 286.617188 102.457031 L 286.617188 54.21875 C 286.617188 52.832031 287.167969 51.496094 288.152344 50.515625 C 289.136719 49.53125 290.46875 48.980469 291.855469 48.980469 Z M 291.855469 48.980469" />
        </clipPath>
        <clipPath id="f450ecf164">
            <path d="M 256 83 L 341 83 L 341 137.871094 L 256 137.871094 Z M 256 83" />
        </clipPath>
        <clipPath id="73cf4eff86">
            <path d="M 291 83 L 375 83 L 375 137.871094 L 291 137.871094 Z M 291 83" />
        </clipPath>
        <clipPath id="e6e066b1e9">
            <rect height="42" y="0" width="22" x="0" />
        </clipPath>
    </defs>
    <g id="5d53299d33">
        <g clip-path="url(#35227d4611)" clip-rule="nonzero">
            <g clip-path="url(#7a644a57c1)" clip-rule="nonzero">
                <path transform="matrix(0.74859,0,0,0.74859,234.354976,38.499674)" d="M 11.997167 0.000435813 L 205.397167 0.000435813 C 212.024208 0.000435813 217.393676 5.369904 217.393676 11.996944 L 217.393676 113.594171 C 217.393676 120.221211 212.024208 125.595898 205.397167 125.595898 L 11.997167 125.595898 C 5.370127 125.595898 0.000658576 120.221211 0.000658576 113.594171 L 0.000658576 11.996944 C 0.000658576 5.369904 5.370127 0.000435813 11.997167 0.000435813 Z M 11.997167 0.000435813" style="fill:none;stroke-width:14;stroke-linecap:butt;stroke-linejoin:miter;stroke:#4d4d4d;stroke-opacity:1;stroke-miterlimit:4;" />
            </g>
        </g>
        <g clip-path="url(#6f7bb5d2cc)" clip-rule="nonzero">
            <g clip-path="url(#f8e0f0dabf)" clip-rule="nonzero">
                <path transform="matrix(0.74859,0,0,0.74859,240.88255,104.652965)" d="M 6.997878 -0.000830325 L 49.082191 -0.000830325 C 50.934632 -0.000830325 52.714018 0.734928 54.02899 2.049899 C 55.338743 3.359653 56.074501 5.139039 56.074501 6.996698 L 56.074501 20.297741 C 56.074501 22.1554 55.338743 23.934786 54.02899 25.249758 C 52.714018 26.559511 50.934632 27.295269 49.082191 27.295269 L 6.997878 27.295269 C 5.14022 27.295269 3.360833 26.559511 2.05108 25.249758 C 0.736108 23.934786 0.000350005 22.1554 0.000350005 20.297741 L 0.000350005 6.996698 C 0.000350005 5.139039 0.736108 3.359653 2.05108 2.049899 C 3.360833 0.734928 5.14022 -0.000830325 6.997878 -0.000830325 Z M 6.997878 -0.000830325" style="fill:none;stroke-width:14;stroke-linecap:butt;stroke-linejoin:miter;stroke:#4d4d4d;stroke-opacity:1;stroke-miterlimit:4;" />
            </g>
        </g>
        <g clip-path="url(#be7c27d0c1)" clip-rule="nonzero">
            <g clip-path="url(#692ef64428)" clip-rule="nonzero">
                <path transform="matrix(0.74859,0,0,0.74859,242.185742,75.076993)" d="M 6.999877 0.00151193 L 22.977828 0.00151193 C 24.835487 0.00151193 26.614873 0.73727 27.924627 2.047024 C 29.239599 3.361995 29.975357 5.141382 29.975357 6.99904 L 29.975357 23.237899 C 29.975357 25.090339 29.239599 26.874944 27.924627 28.184697 C 26.614873 29.499669 24.835487 30.235427 22.977828 30.235427 L 6.999877 30.235427 C 5.142219 30.235427 3.362832 29.499669 2.04786 28.184697 C 0.738107 26.874944 0.00234866 25.090339 0.00234866 23.237899 L 0.00234866 6.99904 C 0.00234866 5.141382 0.738107 3.361995 2.04786 2.047024 C 3.362832 0.73727 5.142219 0.00151193 6.999877 0.00151193 Z M 6.999877 0.00151193" style="fill:none;stroke-width:14;stroke-linecap:butt;stroke-linejoin:miter;stroke:#4d4d4d;stroke-opacity:1;stroke-miterlimit:4;" />
            </g>
        </g>
        <g clip-path="url(#4d03ff654f)" clip-rule="nonzero">
            <g clip-path="url(#f65ab08a9d)" clip-rule="nonzero">
                <path transform="matrix(0.74859,0,0,0.74859,242.185742,47.196459)" d="M 6.999877 -0.0015319 L 22.977828 -0.0015319 C 24.835487 -0.0015319 26.614873 0.739444 27.924627 2.049198 C 29.239599 3.36417 29.975357 5.143556 29.975357 6.995997 L 29.975357 23.234855 C 29.975357 25.092513 29.239599 26.8719 27.924627 28.186872 C 26.614873 29.496625 24.835487 30.232383 22.977828 30.232383 L 6.999877 30.232383 C 5.142219 30.232383 3.362832 29.496625 2.04786 28.186872 C 0.738107 26.8719 0.00234866 25.092513 0.00234866 23.234855 L 0.00234866 6.995997 C 0.00234866 5.143556 0.738107 3.36417 2.04786 2.049198 C 3.362832 0.739444 5.142219 -0.0015319 6.999877 -0.0015319 Z M 6.999877 -0.0015319" style="fill:none;stroke-width:14;stroke-linecap:butt;stroke-linejoin:miter;stroke:#4d4d4d;stroke-opacity:1;stroke-miterlimit:4;" />
            </g>
        </g>
        <g clip-path="url(#4e20420b90)" clip-rule="nonzero">
            <g clip-path="url(#f9567e840c)" clip-rule="nonzero">
                <path transform="matrix(0.74859,0,0,0.74859,348.300857,105.151627)" d="M 6.997427 0.000957462 L 49.08174 0.000957462 C 50.93418 0.000957462 52.713566 0.736715 54.028538 2.051687 C 55.338292 3.361441 56.079268 5.140827 56.079268 6.998486 L 56.079268 20.299529 C 56.079268 22.157187 55.338292 23.936574 54.028538 25.246327 C 52.713566 26.561299 50.93418 27.297057 49.08174 27.297057 L 6.997427 27.297057 C 5.139768 27.297057 3.360382 26.561299 2.050628 25.246327 C 0.735656 23.936574 -0.000101514 22.157187 -0.000101514 20.299529 L -0.000101514 6.998486 C -0.000101514 5.140827 0.735656 3.361441 2.050628 2.051687 C 3.360382 0.736715 5.139768 0.000957462 6.997427 0.000957462 Z M 6.997427 0.000957462" style="fill:none;stroke-width:14;stroke-linecap:butt;stroke-linejoin:miter;stroke:#4d4d4d;stroke-opacity:1;stroke-miterlimit:4;" />
            </g>
        </g>
        <g clip-path="url(#1d7665054f)" clip-rule="nonzero">
            <g clip-path="url(#b1e1676cb6)" clip-rule="nonzero">
                <path transform="matrix(0.74859,0,0,0.74859,366.551546,75.076993)" d="M 6.996507 0.00151193 L 22.979676 0.00151193 C 24.832117 0.00151193 26.616721 0.73727 27.926475 2.047024 C 29.241447 3.361995 29.977205 5.141382 29.977205 6.99904 L 29.977205 23.237899 C 29.977205 25.090339 29.241447 26.874944 27.926475 28.184697 C 26.616721 29.499669 24.832117 30.235427 22.979676 30.235427 L 6.996507 30.235427 C 5.144066 30.235427 3.359462 29.499669 2.049708 28.184697 C 0.734736 26.874944 -0.00102168 25.090339 -0.00102168 23.237899 L -0.00102168 6.99904 C -0.00102168 5.141382 0.734736 3.361995 2.049708 2.047024 C 3.359462 0.73727 5.144066 0.00151193 6.996507 0.00151193 Z M 6.996507 0.00151193" style="fill:none;stroke-width:14;stroke-linecap:butt;stroke-linejoin:miter;stroke:#4d4d4d;stroke-opacity:1;stroke-miterlimit:4;" />
            </g>
        </g>
        <g clip-path="url(#7a6e639fe1)" clip-rule="nonzero">
            <g clip-path="url(#2cc7a89f93)" clip-rule="nonzero">
                <path transform="matrix(0.74859,0,0,0.74859,366.551546,47.196459)" d="M 6.996507 -0.0015319 L 22.979676 -0.0015319 C 24.832117 -0.0015319 26.616721 0.739444 27.926475 2.049198 C 29.241447 3.36417 29.977205 5.143556 29.977205 6.995997 L 29.977205 23.234855 C 29.977205 25.092513 29.241447 26.8719 27.926475 28.186872 C 26.616721 29.496625 24.832117 30.232383 22.979676 30.232383 L 6.996507 30.232383 C 5.144066 30.232383 3.359462 29.496625 2.049708 28.186872 C 0.734736 26.8719 -0.00102168 25.092513 -0.00102168 23.234855 L -0.00102168 6.995997 C -0.00102168 5.143556 0.734736 3.36417 2.049708 2.049198 C 3.359462 0.739444 5.144066 -0.0015319 6.996507 -0.0015319 Z M 6.996507 -0.0015319" style="fill:none;stroke-width:14;stroke-linecap:butt;stroke-linejoin:miter;stroke:#4d4d4d;stroke-opacity:1;stroke-miterlimit:4;" />
            </g>
        </g>
        <g clip-path="url(#9fdba7dea4)" clip-rule="nonzero">
            <path transform="matrix(0.74859,0,0,0.74859,311.474694,20.638796)" d="M 3.498651 0.00244347 L 3.498651 7.266097 C 3.498651 9.19681 4.265718 11.044032 5.627653 12.405967 C 6.989588 13.77312 8.842028 14.534969 10.767523 14.534969 L 81.035024 14.534969 C 82.271724 14.534969 83.46146 15.030693 84.33289 15.902122 C 85.209538 16.77877 85.700043 17.963289 85.700043 19.199988 L 85.700043 23.859789" style="fill:none;stroke-width:7;stroke-linecap:butt;stroke-linejoin:miter;stroke:#4d4d4d;stroke-opacity:1;stroke-miterlimit:4;" />
        </g>
        <g clip-path="url(#9b317610f0)" clip-rule="nonzero">
            <g clip-path="url(#e34d88ff19)" clip-rule="nonzero">
                <path transform="matrix(0.74859,0,0,0.74859,286.617844,48.980773)" d="M 6.99665 -0.000405765 L 70.767561 -0.000405765 C 72.625219 -0.000405765 74.404606 0.735352 75.714359 2.050324 C 77.029331 3.360078 77.765089 5.144682 77.765089 6.997122 L 77.765089 71.435955 C 77.765089 73.293613 77.029331 75.073 75.714359 76.382753 C 74.404606 77.697725 72.625219 78.433483 70.767561 78.433483 L 6.99665 78.433483 C 5.14421 78.433483 3.364824 77.697725 2.049852 76.382753 C 0.73488 75.073 -0.000877627 73.293613 -0.000877627 71.435955 L -0.000877627 6.997122 C -0.000877627 5.144682 0.73488 3.360078 2.049852 2.050324 C 3.364824 0.735352 5.14421 -0.000405765 6.99665 -0.000405765 Z M 6.99665 -0.000405765" style="fill:none;stroke-width:14;stroke-linecap:butt;stroke-linejoin:miter;stroke:#4d4d4d;stroke-opacity:1;stroke-miterlimit:4;" />
            </g>
        </g>
        <path transform="matrix(0.74859,0,0,0.74859,268.658524,83.777125)" d="M 0.00218079 3.501665 L 18.991 3.501665" style="fill:none;stroke-width:7;stroke-linecap:butt;stroke-linejoin:miter;stroke:#4d4d4d;stroke-opacity:1;stroke-miterlimit:4;" />
        <g clip-path="url(#f450ecf164)" clip-rule="nonzero">
            <path transform="matrix(0.74859,0,0,0.74859,286.617844,112.731161)" d="M -0.000877627 6.062556 L 29.340735 6.062556 C 30.144329 6.062556 30.911396 5.744249 31.480174 5.175472 C 32.048951 4.606694 32.372476 3.834409 32.372476 3.030815 L 32.372476 -0.000925287" style="fill:none;stroke-width:7;stroke-linecap:butt;stroke-linejoin:miter;stroke:#4d4d4d;stroke-opacity:1;stroke-miterlimit:4;" />
        </g>
        <path transform="matrix(0.74859,0,0,0.74859,268.658524,55.896596)" d="M 0.00218079 3.498615 L 4.964634 3.498615 C 7.709377 3.498615 9.932305 5.721544 9.932305 8.466286 L 9.932305 21.09419 C 9.932305 22.294363 10.407156 23.447572 11.257713 24.292911 C 12.10827 25.143468 13.26148 25.623538 14.461653 25.623538 L 18.991 25.623538" style="fill:none;stroke-width:7;stroke-linecap:butt;stroke-linejoin:miter;stroke:#4d4d4d;stroke-opacity:1;stroke-miterlimit:4;" />
        <path transform="matrix(0.74859,0,0,0.74859,348.2946,55.896596)" d="M 17.723849 3.498615 L 13.131884 3.498615 C 10.595867 3.498615 8.539919 5.554563 8.539919 8.09058 L 8.539919 21.349879 C 8.539919 23.708479 6.630079 25.623538 4.271479 25.623538 L -0.0021794 25.623538" style="fill:none;stroke-width:7;stroke-linecap:butt;stroke-linejoin:miter;stroke:#4d4d4d;stroke-opacity:1;stroke-miterlimit:4;" />
        <path transform="matrix(0.74859,0,0,0.74859,348.2946,83.777125)" d="M 17.723849 3.501665 L -0.0021794 3.501665" style="fill:none;stroke-width:7;stroke-linecap:butt;stroke-linejoin:miter;stroke:#4d4d4d;stroke-opacity:1;stroke-miterlimit:4;" />
        <g clip-path="url(#73cf4eff86)" clip-rule="nonzero">
            <path transform="matrix(0.74859,0,0,0.74859,318.934191,112.731161)" d="M 34.605921 6.062556 L 6.532316 6.062556 C 5.728722 6.062556 4.956437 5.744249 4.38766 5.175472 C 3.818882 4.606694 3.500576 3.834409 3.500576 3.030815 L 3.500576 -0.000925287" style="fill:none;stroke-width:7;stroke-linecap:butt;stroke-linejoin:miter;stroke:#4d4d4d;stroke-opacity:1;stroke-miterlimit:4;" />
        </g>
        <g style="fill:#4d4d4d;fill-opacity:1;">
            <g transform="translate(15.162954, 66.933763)">
                <path d="M 20.890625 -28.921875 L 20.890625 -5.984375 L 24.84375 -5.984375 C 26.125 -5.984375 27.023438 -5.804688 27.546875 -5.453125 C 28.378906 -4.804688 28.796875 -3.988281 28.796875 -3 C 28.796875 -1.832031 28.316406 -0.972656 27.359375 -0.421875 C 26.878906 -0.140625 26.039062 0 24.84375 0 L 11.015625 0 C 9.734375 0 8.835938 -0.195312 8.328125 -0.59375 C 7.484375 -1.195312 7.0625 -2 7.0625 -3 C 7.0625 -4.15625 7.539062 -5.007812 8.5 -5.5625 C 8.894531 -5.84375 9.734375 -5.984375 11.015625 -5.984375 L 14.90625 -5.984375 L 14.90625 -28.921875 L 8.5 -28.921875 L 8.5 -23.34375 C 8.5 -22.070312 8.320312 -21.175781 7.96875 -20.65625 C 7.320312 -19.820312 6.503906 -19.40625 5.515625 -19.40625 C 4.347656 -19.40625 3.488281 -19.882812 2.9375 -20.84375 C 2.65625 -21.351562 2.515625 -22.1875 2.515625 -23.34375 L 2.515625 -34.90625 L 33.40625 -34.90625 L 33.40625 -23.34375 C 33.40625 -21.988281 33.226562 -21.09375 32.875 -20.65625 C 32.226562 -19.820312 31.410156 -19.40625 30.421875 -19.40625 C 29.296875 -19.40625 28.4375 -19.882812 27.84375 -20.84375 C 27.5625 -21.351562 27.421875 -22.1875 27.421875 -23.34375 L 27.421875 -28.921875 Z M 20.890625 -28.921875" style="stroke:none" />
            </g>
        </g>
        <g style="fill:#4d4d4d;fill-opacity:1;">
            <g transform="translate(51.088293, 66.933763)">
                <path d="M 25.03125 -20.171875 C 22.476562 -20.171875 21.203125 -21.171875 21.203125 -23.171875 C 21.203125 -25.171875 22.535156 -26.171875 25.203125 -26.171875 L 30.71875 -26.171875 C 32.03125 -26.171875 32.925781 -25.988281 33.40625 -25.625 C 34.25 -25.03125 34.671875 -24.210938 34.671875 -23.171875 C 34.671875 -21.378906 33.628906 -20.378906 31.546875 -20.171875 L 17.78125 6.28125 L 18.078125 6.28125 C 19.398438 6.28125 20.320312 6.460938 20.84375 6.828125 C 21.632812 7.503906 22.03125 8.320312 22.03125 9.28125 C 22.03125 10.351562 21.550781 11.210938 20.59375 11.859375 C 20.15625 12.140625 19.316406 12.28125 18.078125 12.28125 L 5.203125 12.28125 C 4.929688 12.28125 4.679688 12.28125 4.453125 12.28125 C 4.234375 12.28125 4.046875 12.269531 3.890625 12.25 C 3.734375 12.226562 3.582031 12.195312 3.4375 12.15625 C 3.300781 12.113281 3.160156 12.050781 3.015625 11.96875 C 2.878906 11.894531 2.710938 11.796875 2.515625 11.671875 C 1.671875 10.992188 1.25 10.195312 1.25 9.28125 C 1.25 8.125 1.726562 7.265625 2.6875 6.703125 C 3.207031 6.421875 4.046875 6.28125 5.203125 6.28125 L 11.203125 6.28125 L 14.484375 -0.171875 L 4.1875 -20.171875 C 2.226562 -20.410156 1.25 -21.410156 1.25 -23.171875 C 1.25 -25.171875 2.566406 -26.171875 5.203125 -26.171875 L 10.59375 -26.171875 C 11.914062 -26.171875 12.835938 -25.988281 13.359375 -25.625 C 14.148438 -24.945312 14.546875 -24.128906 14.546875 -23.171875 C 14.546875 -21.253906 13.367188 -20.253906 11.015625 -20.171875 L 17.84375 -6.828125 Z M 25.03125 -20.171875" style="stroke:none" />
            </g>
        </g>
        <g style="fill:#4d4d4d;fill-opacity:1;">
            <g transform="translate(87.013632, 66.933763)">
                <path d="M 10.421875 -3.953125 L 10.421875 6.28125 L 13.890625 6.28125 C 15.203125 6.28125 16.117188 6.460938 16.640625 6.828125 C 17.441406 7.421875 17.84375 8.238281 17.84375 9.28125 C 17.84375 10.351562 17.363281 11.210938 16.40625 11.859375 C 15.96875 12.140625 15.128906 12.28125 13.890625 12.28125 L 3.46875 12.28125 C 2.113281 12.28125 1.195312 12.078125 0.71875 11.671875 C -0.0820312 11.078125 -0.484375 10.28125 -0.484375 9.28125 C -0.484375 8.125 -0.00390625 7.265625 0.953125 6.703125 C 1.359375 6.421875 2.195312 6.28125 3.46875 6.28125 L 4.4375 6.28125 L 4.4375 -20.171875 L 3.46875 -20.171875 C 2.15625 -20.171875 1.238281 -20.351562 0.71875 -20.71875 C -0.0820312 -21.394531 -0.484375 -22.210938 -0.484375 -23.171875 C -0.484375 -24.328125 -0.00390625 -25.1875 0.953125 -25.75 C 1.472656 -26.03125 2.3125 -26.171875 3.46875 -26.171875 L 10.421875 -26.171875 L 10.421875 -23.46875 C 13.128906 -25.78125 16.179688 -26.9375 19.578125 -26.9375 C 23.765625 -26.9375 27.242188 -25.648438 30.015625 -23.078125 C 32.796875 -20.503906 34.1875 -17.28125 34.1875 -13.40625 C 34.1875 -9.738281 32.804688 -6.6875 30.046875 -4.25 C 27.296875 -1.8125 23.847656 -0.59375 19.703125 -0.59375 C 16.429688 -0.59375 13.335938 -1.710938 10.421875 -3.953125 Z M 19.34375 -20.953125 C 16.820312 -20.953125 14.804688 -20.375 13.296875 -19.21875 C 12.410156 -18.582031 11.707031 -17.765625 11.1875 -16.765625 C 10.675781 -15.765625 10.421875 -14.785156 10.421875 -13.828125 C 10.421875 -11.710938 11.25 -9.976562 12.90625 -8.625 C 14.5625 -7.269531 16.707031 -6.59375 19.34375 -6.59375 C 21.9375 -6.59375 24.0625 -7.269531 25.71875 -8.625 C 27.375 -9.976562 28.203125 -11.691406 28.203125 -13.765625 C 28.203125 -14.765625 27.941406 -15.765625 27.421875 -16.765625 C 26.898438 -17.765625 26.203125 -18.582031 25.328125 -19.21875 C 23.804688 -20.375 21.8125 -20.953125 19.34375 -20.953125 Z M 19.34375 -20.953125" style="stroke:none" />
            </g>
        </g>
        <g style="fill:#4d4d4d;fill-opacity:1;">
            <g transform="translate(122.938971, 66.933763)">
                <path d="M 20.953125 -26.171875 L 20.953125 -5.984375 L 28.265625 -5.984375 C 29.535156 -5.984375 30.429688 -5.804688 30.953125 -5.453125 C 31.796875 -4.804688 32.21875 -3.988281 32.21875 -3 C 32.21875 -1.914062 31.738281 -1.054688 30.78125 -0.421875 C 30.300781 -0.140625 29.460938 0 28.265625 0 L 7.65625 0 C 6.300781 0 5.40625 -0.195312 4.96875 -0.59375 C 4.132812 -1.195312 3.71875 -2 3.71875 -3 C 3.71875 -4.15625 4.195312 -5.007812 5.15625 -5.5625 C 5.550781 -5.84375 6.382812 -5.984375 7.65625 -5.984375 L 14.96875 -5.984375 L 14.96875 -20.171875 L 10.296875 -20.171875 C 8.898438 -20.171875 7.984375 -20.375 7.546875 -20.78125 C 6.703125 -21.375 6.28125 -22.171875 6.28125 -23.171875 C 6.28125 -24.328125 6.757812 -25.1875 7.71875 -25.75 C 8.15625 -26.03125 9.015625 -26.171875 10.296875 -26.171875 Z M 20.125 -37.296875 L 20.125 -31.015625 L 13.046875 -31.015625 L 13.046875 -37.296875 Z M 20.125 -37.296875" style="stroke:none" />
            </g>
        </g>
        <g style="fill:#4d4d4d;fill-opacity:1;">
            <g transform="translate(158.86431, 66.933763)">
                <path d="M 2.03125 -23.171875 C 2.03125 -25.171875 3.367188 -26.171875 6.046875 -26.171875 L 11.671875 -26.171875 L 11.671875 -23.296875 C 13.109375 -24.648438 14.425781 -25.59375 15.625 -26.125 C 16.820312 -26.664062 18.238281 -26.9375 19.875 -26.9375 C 22.988281 -26.9375 25.539062 -26.054688 27.53125 -24.296875 C 29.53125 -22.546875 30.53125 -20.078125 30.53125 -16.890625 L 30.53125 -5.984375 C 32.96875 -5.984375 34.1875 -4.988281 34.1875 -3 C 34.1875 -1.832031 33.707031 -0.972656 32.75 -0.421875 C 32.3125 -0.140625 31.472656 0 30.234375 0 L 24.90625 0 C 22.226562 0 20.890625 -0.992188 20.890625 -2.984375 C 20.890625 -4.984375 22.109375 -5.984375 24.546875 -5.984375 L 24.546875 -16.640625 C 24.546875 -19.515625 22.75 -20.953125 19.15625 -20.953125 C 17.757812 -20.953125 16.507812 -20.648438 15.40625 -20.046875 C 14.3125 -19.453125 13.066406 -18.398438 11.671875 -16.890625 L 11.671875 -5.984375 L 12.03125 -5.984375 C 13.3125 -5.984375 14.210938 -5.804688 14.734375 -5.453125 C 15.566406 -4.804688 15.984375 -3.988281 15.984375 -3 C 15.984375 -1.914062 15.503906 -1.054688 14.546875 -0.421875 C 14.109375 -0.140625 13.269531 0 12.03125 0 L 5.328125 0 C 4.046875 0 3.128906 -0.195312 2.578125 -0.59375 C 1.773438 -1.195312 1.375 -2 1.375 -3 C 1.375 -4.15625 1.851562 -5.007812 2.8125 -5.5625 C 3.332031 -5.84375 4.171875 -5.984375 5.328125 -5.984375 L 5.6875 -5.984375 L 5.6875 -20.171875 C 3.25 -20.253906 2.03125 -21.253906 2.03125 -23.171875 Z M 2.03125 -23.171875" style="stroke:none" />
            </g>
        </g>
        <g style="fill:#4d4d4d;fill-opacity:1;">
            <g transform="translate(194.789649, 66.933763)">
                <path d="M 24.546875 -24.015625 L 24.546875 -26.171875 L 31.5 -26.171875 C 32.8125 -26.171875 33.726562 -25.988281 34.25 -25.625 C 35.050781 -24.945312 35.453125 -24.128906 35.453125 -23.171875 C 35.453125 -22.015625 34.972656 -21.15625 34.015625 -20.59375 C 33.566406 -20.3125 32.726562 -20.171875 31.5 -20.171875 L 30.53125 -20.171875 L 30.53125 1.203125 C 30.53125 4.347656 29.441406 6.976562 27.265625 9.09375 C 25.097656 11.21875 22.375 12.28125 19.09375 12.28125 L 12.390625 12.28125 C 11.035156 12.28125 10.140625 12.078125 9.703125 11.671875 C 8.859375 11.078125 8.4375 10.28125 8.4375 9.28125 C 8.4375 8.125 8.914062 7.265625 9.875 6.703125 C 10.3125 6.421875 11.148438 6.28125 12.390625 6.28125 L 18.921875 6.28125 C 20.640625 6.28125 22.003906 5.820312 23.015625 4.90625 C 24.035156 3.988281 24.546875 2.753906 24.546875 1.203125 L 24.546875 -2.09375 C 21.910156 -0.132812 19.097656 0.84375 16.109375 0.84375 C 12.078125 0.84375 8.710938 -0.484375 6.015625 -3.140625 C 3.316406 -5.796875 1.96875 -9.097656 1.96875 -13.046875 C 1.96875 -17.046875 3.316406 -20.367188 6.015625 -23.015625 C 8.710938 -25.671875 12.078125 -27 16.109375 -27 C 19.378906 -27 22.191406 -26.003906 24.546875 -24.015625 Z M 16.21875 -21.015625 C 13.945312 -21.015625 12.003906 -20.242188 10.390625 -18.703125 C 8.773438 -17.171875 7.96875 -15.304688 7.96875 -13.109375 C 7.96875 -10.910156 8.773438 -9.035156 10.390625 -7.484375 C 12.003906 -5.929688 13.945312 -5.15625 16.21875 -5.15625 C 18.5 -5.15625 20.457031 -5.921875 22.09375 -7.453125 C 23.726562 -8.992188 24.546875 -10.84375 24.546875 -13 C 24.546875 -15.226562 23.738281 -17.117188 22.125 -18.671875 C 20.507812 -20.234375 18.539062 -21.015625 16.21875 -21.015625 Z M 16.21875 -21.015625" style="stroke:none" />
            </g>
        </g>
        <g style="fill:#4d4d4d;fill-opacity:1;">
            <g transform="translate(114.025632, 109.126852)">
                <path d="M 22.3125 -28.09375 L 22.8125 -27.890625 C 23.375 -28.691406 24.070312 -29.09375 24.90625 -29.09375 C 25.863281 -29.09375 26.578125 -28.691406 27.046875 -27.890625 C 27.285156 -27.523438 27.40625 -26.828125 27.40625 -25.796875 L 27.40625 -21.609375 C 27.40625 -20.515625 27.253906 -19.765625 26.953125 -19.359375 C 26.421875 -18.660156 25.738281 -18.3125 24.90625 -18.3125 C 24.207031 -18.3125 23.625 -18.546875 23.15625 -19.015625 C 22.851562 -19.316406 22.617188 -19.960938 22.453125 -20.953125 C 22.328125 -21.554688 22.101562 -22.046875 21.78125 -22.421875 C 21.46875 -22.804688 20.960938 -23.203125 20.265625 -23.609375 C 18.828125 -24.398438 17.210938 -24.796875 15.421875 -24.796875 C 12.890625 -24.796875 10.789062 -23.9375 9.125 -22.21875 C 7.46875 -20.507812 6.640625 -18.34375 6.640625 -15.71875 L 6.640625 -12.53125 C 6.640625 -10.03125 7.53125 -8.03125 9.3125 -6.53125 C 11.09375 -5.039062 13.476562 -4.296875 16.46875 -4.296875 C 18.863281 -4.296875 20.691406 -4.675781 21.953125 -5.4375 C 22.316406 -5.632812 22.953125 -6.203125 23.859375 -7.140625 C 24.390625 -7.671875 24.988281 -7.9375 25.65625 -7.9375 C 26.320312 -7.9375 26.898438 -7.6875 27.390625 -7.1875 C 27.890625 -6.6875 28.140625 -6.101562 28.140625 -5.4375 C 28.140625 -4.238281 27.257812 -3.023438 25.5 -1.796875 C 23.207031 -0.128906 20.144531 0.703125 16.3125 0.703125 C 12.09375 0.703125 8.59375 -0.535156 5.8125 -3.015625 C 3.03125 -5.492188 1.640625 -8.628906 1.640625 -12.421875 L 1.640625 -15.71875 C 1.640625 -19.707031 2.9375 -23.050781 5.53125 -25.75 C 8.132812 -28.445312 11.363281 -29.796875 15.21875 -29.796875 C 17.550781 -29.796875 19.914062 -29.226562 22.3125 -28.09375 Z M 22.3125 -28.09375" style="stroke:none" />
            </g>
        </g>
        <g style="fill:#4d4d4d;fill-opacity:1;">
            <g transform="translate(143.964602, 109.126852)">
                <path d="M 15.125 -22.453125 C 18.644531 -22.453125 21.644531 -21.320312 24.125 -19.0625 C 26.601562 -16.800781 27.84375 -14.054688 27.84375 -10.828125 C 27.84375 -7.566406 26.59375 -4.8125 24.09375 -2.5625 C 21.601562 -0.320312 18.5625 0.796875 14.96875 0.796875 C 11.375 0.796875 8.328125 -0.320312 5.828125 -2.5625 C 3.335938 -4.8125 2.09375 -7.566406 2.09375 -10.828125 C 2.09375 -14.117188 3.335938 -16.878906 5.828125 -19.109375 C 8.328125 -21.335938 11.425781 -22.453125 15.125 -22.453125 Z M 15.078125 -17.46875 C 12.804688 -17.46875 10.90625 -16.832031 9.375 -15.5625 C 7.851562 -14.300781 7.09375 -12.722656 7.09375 -10.828125 C 7.09375 -8.960938 7.847656 -7.390625 9.359375 -6.109375 C 10.867188 -4.828125 12.738281 -4.1875 14.96875 -4.1875 C 17.195312 -4.1875 19.066406 -4.828125 20.578125 -6.109375 C 22.097656 -7.390625 22.859375 -8.960938 22.859375 -10.828125 C 22.859375 -12.691406 22.097656 -14.265625 20.578125 -15.546875 C 19.066406 -16.828125 17.234375 -17.46875 15.078125 -17.46875 Z M 15.078125 -17.46875" style="stroke:none" />
            </g>
        </g>
        <g style="fill:#4d4d4d;fill-opacity:1;">
            <g transform="translate(173.903573, 109.126852)">
                <path d="M 13.875 -21.8125 L 13.875 -18.5625 C 15.875 -20.0625 17.453125 -21.078125 18.609375 -21.609375 C 19.773438 -22.140625 20.972656 -22.40625 22.203125 -22.40625 C 23.972656 -22.40625 25.601562 -21.773438 27.09375 -20.515625 C 28.03125 -19.742188 28.5 -18.960938 28.5 -18.171875 C 28.5 -17.472656 28.25 -16.875 27.75 -16.375 C 27.25 -15.875 26.664062 -15.625 26 -15.625 C 25.40625 -15.625 24.753906 -15.921875 24.046875 -16.515625 C 23.347656 -17.117188 22.703125 -17.421875 22.109375 -17.421875 C 21.304688 -17.421875 20.332031 -17.0625 19.1875 -16.34375 C 18.039062 -15.625 16.269531 -14.285156 13.875 -12.328125 L 13.875 -4.984375 L 20.8125 -4.984375 C 21.90625 -4.984375 22.671875 -4.835938 23.109375 -4.546875 C 23.804688 -4.015625 24.15625 -3.332031 24.15625 -2.5 C 24.15625 -1.53125 23.753906 -0.8125 22.953125 -0.34375 C 22.554688 -0.113281 21.84375 0 20.8125 0 L 5.984375 0 C 4.890625 0 4.125 -0.164062 3.6875 -0.5 C 3.019531 -1 2.6875 -1.664062 2.6875 -2.5 C 2.6875 -3.457031 3.085938 -4.171875 3.890625 -4.640625 C 4.222656 -4.867188 4.921875 -4.984375 5.984375 -4.984375 L 8.890625 -4.984375 L 8.890625 -16.8125 L 7.140625 -16.8125 C 6.003906 -16.8125 5.253906 -16.976562 4.890625 -17.3125 C 4.191406 -17.8125 3.84375 -18.476562 3.84375 -19.3125 C 3.84375 -20.976562 4.941406 -21.8125 7.140625 -21.8125 Z M 13.875 -21.8125" style="stroke:none" />
            </g>
        </g>
        <g style="fill:#4d4d4d;fill-opacity:1;">
            <g transform="translate(203.842543, 109.126852)">
                <path d="M 27.453125 -8.578125 L 7.09375 -8.578125 C 8.21875 -5.648438 10.941406 -4.1875 15.265625 -4.1875 C 17.128906 -4.1875 19.84375 -4.65625 23.40625 -5.59375 C 24.070312 -5.757812 24.617188 -5.84375 25.046875 -5.84375 C 25.710938 -5.84375 26.28125 -5.597656 26.75 -5.109375 C 27.21875 -4.628906 27.453125 -4.039062 27.453125 -3.34375 C 27.453125 -2.375 26.867188 -1.625 25.703125 -1.09375 C 24.566406 -0.59375 22.910156 -0.15625 20.734375 0.21875 C 18.554688 0.601562 16.585938 0.796875 14.828125 0.796875 C 10.960938 0.796875 7.796875 -0.28125 5.328125 -2.4375 C 2.867188 -4.601562 1.640625 -7.382812 1.640625 -10.78125 C 1.640625 -14.070312 2.878906 -16.835938 5.359375 -19.078125 C 7.835938 -21.328125 10.890625 -22.453125 14.515625 -22.453125 C 18.242188 -22.453125 21.332031 -21.320312 23.78125 -19.0625 C 26.226562 -16.800781 27.453125 -13.957031 27.453125 -10.53125 Z M 7.234375 -12.96875 L 21.90625 -12.96875 C 21.507812 -14.332031 20.644531 -15.421875 19.3125 -16.234375 C 17.976562 -17.054688 16.394531 -17.46875 14.5625 -17.46875 C 12.738281 -17.46875 11.148438 -17.050781 9.796875 -16.21875 C 8.453125 -15.382812 7.597656 -14.300781 7.234375 -12.96875 Z M 7.234375 -12.96875" style="stroke:none" />
            </g>
        </g>
        <g style="fill:#4d4d4d;fill-opacity:1;">
            <g transform="translate(298.205261, 91.171679)">
                <path d="M 29.34375 -28.921875 L 29.34375 -11.203125 C 29.34375 -9.242188 29.050781 -7.613281 28.46875 -6.3125 C 27.894531 -5.019531 26.90625 -3.753906 25.5 -2.515625 C 22.90625 -0.273438 19.773438 0.84375 16.109375 0.84375 C 12.753906 0.84375 8.460938 -0.453125 3.234375 -3.046875 L 3.234375 -12.75 C 3.234375 -14.113281 3.410156 -15.03125 3.765625 -15.5 C 4.410156 -16.34375 5.234375 -16.765625 6.234375 -16.765625 C 7.390625 -16.765625 8.242188 -16.285156 8.796875 -15.328125 C 9.078125 -14.929688 9.21875 -14.070312 9.21875 -12.75 L 9.21875 -7 C 11.976562 -5.769531 14.3125 -5.15625 16.21875 -5.15625 C 18.5 -5.15625 20.398438 -5.875 21.921875 -7.3125 C 22.554688 -7.945312 22.953125 -8.519531 23.109375 -9.03125 C 23.265625 -9.550781 23.34375 -10.492188 23.34375 -11.859375 L 23.34375 -28.921875 L 16.21875 -28.921875 C 14.90625 -28.921875 14.007812 -29.097656 13.53125 -29.453125 C 12.695312 -30.097656 12.28125 -30.914062 12.28125 -31.90625 C 12.28125 -33.070312 12.757812 -33.929688 13.71875 -34.484375 C 14.15625 -34.765625 14.988281 -34.90625 16.21875 -34.90625 L 32.75 -34.90625 C 34.070312 -34.90625 34.972656 -34.726562 35.453125 -34.375 C 36.285156 -33.726562 36.703125 -32.90625 36.703125 -31.90625 C 36.703125 -30.75 36.222656 -29.894531 35.265625 -29.34375 C 34.828125 -29.0625 33.988281 -28.921875 32.75 -28.921875 Z M 29.34375 -28.921875" style="stroke:none" />
            </g>
        </g>
        <g transform="matrix(1,0,0,1,305,65)">
            <g clip-path="url(#e6e066b1e9)">
                <g style="fill:#4d4d4d;fill-opacity:1;">
                    <g transform="translate(1.398259, 29.966841)">
                        <path d="M 19.515625 2.390625 L 19.515625 3.984375 L -0.375 3.984375 L -0.375 2.390625 Z M 19.515625 2.390625" style="stroke:none" />
                    </g>
                </g>
            </g>
        </g>
    </g>
</svg>