<svg xmlns="http://www.w3.org/2000/svg" xmlns:xlink="http://www.w3.org/1999/xlink" width="308" zoomAndPan="magnify" viewBox="0 0 230.87999 163.5" height="218" preserveAspectRatio="xMidYMid meet" version="1.2"><defs><clipPath id="7a8eb2365e"><path d="M 0.574219 0.875 L 229.355469 0.875 L 229.355469 162.238281 L 0.574219 162.238281 Z M 0.574219 0.875 "/></clipPath><clipPath id="821ced105e"><path d="M 15.988281 0.875 L 213.855469 0.875 C 222.375 0.875 229.277344 7.777344 229.277344 16.289062 L 229.277344 146.820312 C 229.277344 155.339844 222.375 162.238281 213.855469 162.238281 L 15.988281 162.238281 C 7.476562 162.238281 0.574219 155.339844 0.574219 146.820312 L 0.574219 16.289062 C 0.574219 7.777344 7.476562 0.875 15.988281 0.875 Z M 15.988281 0.875 "/></clipPath><clipPath id="4fa6a7b580"><path d="M 15.988281 0.875 L 213.855469 0.875 C 222.375 0.875 229.277344 7.777344 229.277344 16.289062 L 229.277344 146.820312 C 229.277344 155.339844 222.375 162.238281 213.855469 162.238281 L 15.988281 162.238281 C 7.476562 162.238281 0.574219 155.339844 0.574219 146.820312 L 0.574219 16.289062 C 0.574219 7.777344 7.476562 0.875 15.988281 0.875 Z M 15.988281 0.875 "/></clipPath><clipPath id="ae90d5a597"><path d="M 0.582031 0.875 L 229.222656 0.875 L 229.222656 162.253906 L 0.582031 162.253906 Z M 0.582031 0.875 "/></clipPath><clipPath id="b641343bbb"><path d="M 15.996094 0.875 L 213.84375 0.875 C 222.355469 0.875 229.257812 7.777344 229.257812 16.289062 L 229.257812 146.808594 C 229.257812 155.320312 222.355469 162.222656 213.84375 162.222656 L 15.996094 162.222656 C 7.484375 162.222656 0.582031 155.320312 0.582031 146.808594 L 0.582031 16.289062 C 0.582031 7.777344 7.484375 0.875 15.996094 0.875 Z M 15.996094 0.875 "/></clipPath><clipPath id="823f2e8eb6"><path d="M 97.171875 129 L 139.097656 129 L 139.097656 133.6875 L 97.171875 133.6875 Z M 97.171875 129 "/></clipPath></defs><g id="213be37ed3"><g clip-rule="nonzero" clip-path="url(#7a8eb2365e)"><g clip-rule="nonzero" clip-path="url(#821ced105e)"><g clip-rule="nonzero" clip-path="url(#4fa6a7b580)"><path style=" stroke:none;fill-rule:nonzero;fill:#ffffff;fill-opacity:1;" d="M 0.574219 0.875 L 229.355469 0.875 L 229.355469 162.238281 L 0.574219 162.238281 Z M 0.574219 0.875 "/></g></g></g><g clip-rule="nonzero" clip-path="url(#ae90d5a597)"><g clip-rule="nonzero" clip-path="url(#b641343bbb)"><path style="fill:none;stroke-width:14;stroke-linecap:butt;stroke-linejoin:miter;stroke:#4d4d4d;stroke-opacity:1;stroke-miterlimit:4;" d="M 12.000223 -0.000612359 L 166.022105 -0.000612359 C 172.648369 -0.000612359 178.021756 5.372201 178.021756 11.997759 L 178.021756 113.594715 C 178.021756 120.220273 172.648369 125.593086 166.022105 125.593086 L 12.000223 125.593086 C 5.373958 125.593086 0.000571676 120.220273 0.000571676 113.594715 L 0.000571676 11.997759 C 0.000571676 5.372201 5.373958 -0.000612359 12.000223 -0.000612359 Z M 12.000223 -0.000612359 " transform="matrix(1.284543,0,0,1.28468,0.581297,0.875787)"/></g></g><path style=" stroke:none;fill-rule:nonzero;fill:#4d4d4d;fill-opacity:1;" d="M 143.605469 53.464844 L 143.605469 92.300781 C 143.605469 96.574219 142.964844 100.132812 141.691406 102.984375 C 140.433594 105.824219 138.273438 108.597656 135.207031 111.300781 C 129.535156 116.199219 122.671875 118.648438 114.621094 118.648438 C 107.28125 118.648438 97.882812 115.808594 86.417969 110.117188 L 86.417969 88.882812 C 86.417969 85.910156 86.808594 83.898438 87.601562 82.855469 C 89 81.011719 90.792969 80.082031 92.984375 80.082031 C 95.515625 80.082031 97.382812 81.132812 98.609375 83.230469 C 99.234375 84.113281 99.550781 85.996094 99.550781 88.882812 L 99.550781 101.476562 C 105.578125 104.191406 110.691406 105.542969 114.890625 105.542969 C 119.875 105.542969 124.027344 103.96875 127.347656 100.804688 C 128.75 99.40625 129.617188 98.140625 129.960938 97.011719 C 130.316406 95.878906 130.5 93.828125 130.5 90.847656 L 130.5 53.464844 L 114.890625 53.464844 C 111.996094 53.464844 110.03125 53.074219 108.996094 52.28125 C 107.144531 50.878906 106.222656 49.089844 106.222656 46.898438 C 106.222656 44.367188 107.273438 42.496094 109.375 41.273438 C 110.34375 40.648438 112.179688 40.332031 114.890625 40.332031 L 151.085938 40.332031 C 153.972656 40.332031 155.9375 40.726562 156.976562 41.515625 C 158.820312 42.914062 159.75 44.710938 159.75 46.898438 C 159.75 49.449219 158.699219 51.332031 156.601562 52.550781 C 155.632812 53.160156 153.789062 53.464844 151.085938 53.464844 Z M 143.605469 53.464844 "/><g clip-rule="nonzero" clip-path="url(#823f2e8eb6)"><path style=" stroke:none;fill-rule:nonzero;fill:#4d4d4d;fill-opacity:1;" d="M 97.375 129.757812 L 139.058594 129.757812 L 139.058594 133.097656 L 97.375 133.097656 Z M 97.375 129.757812 "/></g></g></svg>